<?xml version="1.0" encoding="UTF-8" standalone="no"?>
<svg
   xmlns:dc="http://purl.org/dc/elements/1.1/"
   xmlns:cc="http://creativecommons.org/ns#"
   xmlns:rdf="http://www.w3.org/1999/02/22-rdf-syntax-ns#"
   xmlns:svg="http://www.w3.org/2000/svg"
   xmlns="http://www.w3.org/2000/svg"
   xmlns:xlink="http://www.w3.org/1999/xlink"
   id="svg2122"
   viewBox="0 0 29.324353 41.679301"
   height="73.242981mm"
   width="51.531647mm"
   version="1.2">
  <metadata
     id="metadata2128">
    <rdf:RDF>
      <cc:Work
         rdf:about="">
        <dc:format>image/svg+xml</dc:format>
        <dc:type
           rdf:resource="http://purl.org/dc/dcmitype/StillImage" />
        <dc:title></dc:title>
      </cc:Work>
    </rdf:RDF>
  </metadata>
  <defs
     id="defs2126" />
  <!-- Page: 1/1 -->
  <text
     y="-0.99999988"
     x="0.87084121"
     style="font-size:2.20009995px;font-family:'Century Schoolbook L';text-anchor:start;fill:currentColor"
     id="text1662"
     font-size="2.2001">
    <tspan
       id="tspan1660" />
  </text>
  <line
     style="stroke:currentColor;stroke-width:0.1;stroke-linecap:round;stroke-linejoin:round"
     id="line1664"
     y2="3.3333001"
     x2="29.273642"
     y1="3.3333001"
     x1="0.92084122" />
  <rect
     style="fill:currentColor"
     id="rect1666"
     ry="0.0000"
     height="2.0999999"
     width="0.19"
     y="2.2833002"
     x="29.133541" />
  <rect
     style="fill:currentColor"
     id="rect1668"
     ry="0.039999999"
     height="2.8122001"
     width="0.13"
     y="0.33330011"
     x="17.147341" />
  <a
     transform="translate(-4.8197588,-3.8452999)"
     id="a1672"
     xlink:href="textedit:///Users/jyang/Documents/GitHub/wygioatynlib/notation/wygioatynlib_pulsetrack.ly:9:36:37"
     style="color:inherit">
    <path
       style="fill:currentColor"
       id="path1670"
       d="m -211,88 c -8,2 -14,9 -14,18 0,10 9,19 19,19 2,0 3,-1 4,-1 L 206,19 c 13,0 19,-6 19,-19 0,-13 -6,-19 -19,-19 l -408,-105 c -1,0 -2,-1 -4,-1 -10,0 -19,9 -19,19 0,9 6,16 14,18 L 40,-23 180,0 40,23 Z"
       transform="matrix(0.004,0,0,-0.004,21.4391,9.0246)" />
  </a>
  <a
     transform="translate(-4.8197588,-3.8452999)"
     id="a1676"
     xlink:href="textedit:///Users/jyang/Documents/GitHub/wygioatynlib/notation/wygioatynlib_pulsetrack.ly:9:34:35"
     style="color:inherit">
    <path
       style="fill:currentColor"
       id="path1674"
       d="M -50,0 C -50,28 -28,50 0,50 28,50 50,28 50,0 50,-28 28,-50 0,-50 -28,-50 -50,-28 -50,0 Z"
       transform="matrix(0.004,0,0,-0.004,21.4391,8.1286)" />
  </a>
  <a
     transform="translate(-4.8197588,-3.8452999)"
     id="a1680"
     xlink:href="textedit:///Users/jyang/Documents/GitHub/wygioatynlib/notation/wygioatynlib_pulsetrack.ly:9:28:29"
     style="color:inherit">
    <path
       style="fill:currentColor"
       id="path1678"
       d="m 220,138 c 56,0 109,-29 109,-91 0,-72 -56,-121 -103,-149 -36,-21 -76,-36 -117,-36 -56,0 -109,29 -109,91 0,72 56,121 103,149 36,21 76,36 117,36 z"
       transform="matrix(0.004,0,0,-0.004,20.781,7.1786)" />
  </a>
  <a
     transform="translate(-4.8197588,-3.8452999)"
     id="a1684"
     xlink:href="textedit:///Users/jyang/Documents/GitHub/wygioatynlib/notation/wygioatynlib_pulsetrack.ly:9:2:3"
     style="color:inherit">
    <path
       style="fill:currentColor"
       id="path1682"
       d="m 220,138 c 56,0 109,-29 109,-91 0,-72 -56,-121 -103,-149 -36,-21 -76,-36 -117,-36 -56,0 -109,29 -109,91 0,72 56,121 103,149 36,21 76,36 117,36 z"
       transform="matrix(0.004,0,0,-0.004,10.2953,7.1786)" />
  </a>
  <rect
     style="fill:currentColor"
     id="rect1686"
     ry="0.039999999"
     height="3.1454999"
     width="0.13"
     y="4.4408921e-16"
     x="11.904541" />
  <a
     transform="translate(-4.8197588,-3.8452999)"
     id="a1690"
     xlink:href="textedit:///Users/jyang/Documents/GitHub/wygioatynlib/notation/wygioatynlib_pulsetrack.ly:9:22:23"
     style="color:inherit">
    <path
       style="fill:currentColor"
       id="path1688"
       d="m -211,88 c -8,2 -14,9 -14,18 0,10 9,19 19,19 2,0 3,-1 4,-1 L 206,19 c 13,0 19,-6 19,-19 0,-13 -6,-19 -19,-19 l -408,-105 c -1,0 -2,-1 -4,-1 -10,0 -19,9 -19,19 0,9 6,16 14,18 L 40,-23 180,0 40,23 Z"
       transform="matrix(0.004,0,0,-0.004,16.1962,9.0246)" />
  </a>
  <a
     transform="translate(-4.8197588,-3.8452999)"
     id="a1694"
     xlink:href="textedit:///Users/jyang/Documents/GitHub/wygioatynlib/notation/wygioatynlib_pulsetrack.ly:9:8:9"
     style="color:inherit">
    <path
       style="fill:currentColor"
       id="path1692"
       d="M -50,0 C -50,28 -28,50 0,50 28,50 50,28 50,0 50,-28 28,-50 0,-50 -28,-50 -50,-28 -50,0 Z"
       transform="matrix(0.004,0,0,-0.004,10.9534,8.1286)" />
  </a>
  <a
     transform="translate(-4.8197588,-3.8452999)"
     id="a1698"
     xlink:href="textedit:///Users/jyang/Documents/GitHub/wygioatynlib/notation/wygioatynlib_pulsetrack.ly:9:39:40"
     style="color:inherit">
    <path
       style="fill:currentColor"
       id="path1696"
       d="m 220,138 c 56,0 109,-29 109,-91 0,-72 -56,-121 -103,-149 -36,-21 -76,-36 -117,-36 -56,0 -109,29 -109,91 0,72 56,121 103,149 36,21 76,36 117,36 z"
       transform="matrix(0.004,0,0,-0.004,24.7149,7.1786)" />
  </a>
  <a
     transform="translate(-4.8197588,-3.8452999)"
     id="a1702"
     xlink:href="textedit:///Users/jyang/Documents/GitHub/wygioatynlib/notation/wygioatynlib_pulsetrack.ly:9:44:45"
     style="color:inherit">
    <path
       style="fill:currentColor"
       id="path1700"
       d="M -50,0 C -50,28 -28,50 0,50 28,50 50,28 50,0 50,-28 28,-50 0,-50 -28,-50 -50,-28 -50,0 Z"
       transform="matrix(0.004,0,0,-0.004,25.373,8.1286)" />
  </a>
  <rect
     style="fill:currentColor"
     id="rect1704"
     ry="0.039999999"
     height="2.8122001"
     width="0.13"
     y="0.33330011"
     x="21.081341" />
  <a
     transform="translate(-4.8197588,-3.8452999)"
     id="a1708"
     xlink:href="textedit:///Users/jyang/Documents/GitHub/wygioatynlib/notation/wygioatynlib_pulsetrack.ly:9:10:11"
     style="color:inherit">
    <path
       style="fill:currentColor"
       id="path1706"
       d="m -211,88 c -8,2 -14,9 -14,18 0,10 9,19 19,19 2,0 3,-1 4,-1 L 206,19 c 13,0 19,-6 19,-19 0,-13 -6,-19 -19,-19 l -408,-105 c -1,0 -2,-1 -4,-1 -10,0 -19,9 -19,19 0,9 6,16 14,18 L 40,-23 180,0 40,23 Z"
       transform="matrix(0.004,0,0,-0.004,10.9534,9.0246)" />
  </a>
  <a
     transform="translate(-4.8197588,-3.8452999)"
     id="a1712"
     xlink:href="textedit:///Users/jyang/Documents/GitHub/wygioatynlib/notation/wygioatynlib_pulsetrack.ly:9:50:51"
     style="color:inherit">
    <path
       style="fill:currentColor"
       id="path1710"
       d="m 220,138 c 56,0 109,-29 109,-91 0,-72 -56,-121 -103,-149 -36,-21 -76,-36 -117,-36 -56,0 -109,29 -109,91 0,72 56,121 103,149 36,21 76,36 117,36 z"
       transform="matrix(0.004,0,0,-0.004,28.6489,7.1786)" />
  </a>
  <a
     transform="translate(-4.8197588,-3.8452999)"
     id="a1716"
     xlink:href="textedit:///Users/jyang/Documents/GitHub/wygioatynlib/notation/wygioatynlib_pulsetrack.ly:9:56:57"
     style="color:inherit">
    <path
       style="fill:currentColor"
       id="path1714"
       d="M -50,0 C -50,28 -28,50 0,50 28,50 50,28 50,0 50,-28 28,-50 0,-50 -28,-50 -50,-28 -50,0 Z"
       transform="matrix(0.004,0,0,-0.004,29.307,8.1286)" />
  </a>
  <a
     transform="translate(-4.8197588,-3.8452999)"
     id="a1720"
     xlink:href="textedit:///Users/jyang/Documents/GitHub/wygioatynlib/notation/wygioatynlib_pulsetrack.ly:9:58:59"
     style="color:inherit">
    <path
       style="fill:currentColor"
       id="path1718"
       d="m -211,88 c -8,2 -14,9 -14,18 0,10 9,19 19,19 2,0 3,-1 4,-1 L 206,19 c 13,0 19,-6 19,-19 0,-13 -6,-19 -19,-19 l -408,-105 c -1,0 -2,-1 -4,-1 -10,0 -19,9 -19,19 0,9 6,16 14,18 L 40,-23 180,0 40,23 Z"
       transform="matrix(0.004,0,0,-0.004,29.307,9.0246)" />
  </a>
  <rect
     style="fill:currentColor"
     id="rect1722"
     ry="0.039999999"
     height="3.1454999"
     width="0.13"
     y="4.4408921e-16"
     x="25.015341" />
  <polygon
     style="fill:currentColor;stroke:currentColor;stroke-width:0.08;stroke-linecap:round;stroke-linejoin:round"
     id="polygon1724"
     points="0.04,0.2 0.04,-0.2 4.024,-0.2 4.024,0.2 "
     transform="translate(17.147341,0.33330011)" />
  <path
     style="fill:currentColor;stroke-width:0.004"
     id="path1726"
     d="m 2.6868412,4.1198001 c 0.088,-0.056 0.176,-0.116 0.24,-0.2 0.044,-0.06 0.076,-0.132 0.108,-0.2 0.008,-0.016 0.02,-0.024 0.036,-0.024 0.024,0 0.052,0.02 0.052,0.056 v 0.98 h 0.288 c 0.04,0 0.06,0.028 0.06,0.056 0,0.028 -0.02,0.06 -0.06,0.06 h -0.288 v 0.032 c 0,0.192 0.108,0.376 0.288,0.376 0.032,0 0.048,0.02 0.048,0.044 0,0.024 -0.016,0.048 -0.048,0.048 -0.176,0 -0.348,-0.052 -0.524,-0.052 -0.176,0 -0.348,0.052 -0.524,0.052 -0.032,0 -0.048,-0.024 -0.048,-0.048 0,-0.024 0.016,-0.044 0.048,-0.044 0.18,0 0.292,-0.184 0.292,-0.376 v -0.032 h -0.668 c -0.092,0 -0.124,-0.056 -0.124,-0.092 0,-0.012 0.004,-0.02 0.008,-0.024 0.32,-0.372 0.552,-0.828 0.552,-1.32 0,-0.036 0.024,-0.064 0.052,-0.064 h 0.012 c 0.092,0.028 0.188,0.052 0.284,0.052 0.096,0 0.192,-0.024 0.284,-0.052 0.008,-0.004 0.012,-0.004 0.02,-0.004 0.044,0 0.072,0.04 0.048,0.068 l -1.136,1.32 h 0.668 v -0.524 c 0,-0.032 0.004,-0.068 0.032,-0.088 z" />
  <path
     style="fill:currentColor;stroke-width:0.004"
     id="path1728"
     d="m 2.6868412,2.1053001 c 0.088,-0.056 0.176,-0.116 0.24,-0.2 0.044,-0.06 0.076,-0.132 0.108,-0.2 0.008,-0.016 0.02,-0.024 0.036,-0.024 0.024,0 0.052,0.02 0.052,0.056 v 0.98 h 0.288 c 0.04,0 0.06,0.028 0.06,0.056 0,0.028 -0.02,0.06 -0.06,0.06 h -0.288 v 0.032 c 0,0.192 0.108,0.376 0.288,0.376 0.032,0 0.048,0.02 0.048,0.044 0,0.024 -0.016,0.048 -0.048,0.048 -0.176,0 -0.348,-0.052 -0.524,-0.052 -0.176,0 -0.348,0.052 -0.524,0.052 -0.032,0 -0.048,-0.024 -0.048,-0.048 0,-0.024 0.016,-0.044 0.048,-0.044 0.18,0 0.292,-0.184 0.292,-0.376 v -0.032 h -0.668 c -0.092,0 -0.124,-0.056 -0.124,-0.092 0,-0.012 0.004,-0.02 0.008,-0.024 0.32,-0.372 0.552,-0.828 0.552,-1.32 0,-0.036 0.024,-0.064 0.052,-0.064 h 0.012 c 0.092,0.028 0.188,0.052 0.284,0.052 0.096,0 0.192,-0.024 0.284,-0.052 0.008,-0.004 0.012,-0.004 0.02,-0.004 0.044,0 0.072,0.04 0.048,0.068 l -1.136,1.32 h 0.668 v -0.524 c 0,-0.032 0.004,-0.068 0.032,-0.088 z" />
  <rect
     style="fill:currentColor"
     id="rect1730"
     ry="0.039999999"
     height="3.1454999"
     width="0.13"
     y="4.4408921e-16"
     x="6.6617413" />
  <a
     transform="translate(-4.8197588,-3.8452999)"
     id="a1734"
     xlink:href="textedit:///Users/jyang/Documents/GitHub/wygioatynlib/notation/wygioatynlib_pulsetrack.ly:9:20:21"
     style="color:inherit">
    <path
       style="fill:currentColor"
       id="path1732"
       d="M -50,0 C -50,28 -28,50 0,50 28,50 50,28 50,0 50,-28 28,-50 0,-50 -28,-50 -50,-28 -50,0 Z"
       transform="matrix(0.004,0,0,-0.004,16.1962,8.1286)" />
  </a>
  <a
     transform="translate(-4.8197588,-3.8452999)"
     id="a1738"
     xlink:href="textedit:///Users/jyang/Documents/GitHub/wygioatynlib/notation/wygioatynlib_pulsetrack.ly:9:15:16"
     style="color:inherit">
    <path
       style="fill:currentColor"
       id="path1736"
       d="m 220,138 c 56,0 109,-29 109,-91 0,-72 -56,-121 -103,-149 -36,-21 -76,-36 -117,-36 -56,0 -109,29 -109,91 0,72 56,121 103,149 36,21 76,36 117,36 z"
       transform="matrix(0.004,0,0,-0.004,15.5381,7.1786)" />
  </a>
  <line
     style="stroke:currentColor;stroke-width:0.1;stroke-linecap:round;stroke-linejoin:round"
     id="line1740"
     y2="15.333301"
     x2="29.273642"
     y1="15.333301"
     x1="0.92084122" />
  <rect
     style="fill:currentColor"
     id="rect1742"
     ry="0.0000"
     height="2.0999999"
     width="0.19"
     y="14.2833"
     x="29.133541" />
  <rect
     style="fill:currentColor"
     id="rect1744"
     ry="0.039999999"
     height="2.8122001"
     width="0.13"
     y="12.333301"
     x="10.778041" />
  <a
     transform="translate(-4.8197588,-3.8452999)"
     id="a1748"
     xlink:href="textedit:///Users/jyang/Documents/GitHub/wygioatynlib/notation/wygioatynlib_pulsetrack.ly:10:42:43"
     style="color:inherit">
    <path
       style="fill:currentColor"
       id="path1746"
       d="m -211,88 c -8,2 -14,9 -14,18 0,10 9,19 19,19 2,0 3,-1 4,-1 L 206,19 c 13,0 19,-6 19,-19 0,-13 -6,-19 -19,-19 l -408,-105 c -1,0 -2,-1 -4,-1 -10,0 -19,9 -19,19 0,9 6,16 14,18 L 40,-23 180,0 40,23 Z"
       transform="matrix(0.004,0,0,-0.004,15.0697,21.0246)" />
  </a>
  <a
     transform="translate(-4.8197588,-3.8452999)"
     id="a1752"
     xlink:href="textedit:///Users/jyang/Documents/GitHub/wygioatynlib/notation/wygioatynlib_pulsetrack.ly:10:40:41"
     style="color:inherit">
    <path
       style="fill:currentColor"
       id="path1750"
       d="M -50,0 C -50,28 -28,50 0,50 28,50 50,28 50,0 50,-28 28,-50 0,-50 -28,-50 -50,-28 -50,0 Z"
       transform="matrix(0.004,0,0,-0.004,15.0697,20.1286)" />
  </a>
  <a
     transform="translate(-4.8197588,-3.8452999)"
     id="a1756"
     xlink:href="textedit:///Users/jyang/Documents/GitHub/wygioatynlib/notation/wygioatynlib_pulsetrack.ly:10:34:35"
     style="color:inherit">
    <path
       style="fill:currentColor"
       id="path1754"
       d="m 220,138 c 56,0 109,-29 109,-91 0,-72 -56,-121 -103,-149 -36,-21 -76,-36 -117,-36 -56,0 -109,29 -109,91 0,72 56,121 103,149 36,21 76,36 117,36 z"
       transform="matrix(0.004,0,0,-0.004,14.4116,19.1786)" />
  </a>
  <rect
     style="fill:currentColor"
     id="rect1758"
     ry="0.039999999"
     height="3.0021999"
     width="0.13"
     y="12.1433"
     x="8.5065413" />
  <a
     transform="translate(-4.8197588,-3.8452999)"
     id="a1762"
     xlink:href="textedit:///Users/jyang/Documents/GitHub/wygioatynlib/notation/wygioatynlib_pulsetrack.ly:10:28:29"
     style="color:inherit">
    <path
       style="fill:currentColor"
       id="path1760"
       d="M -50,0 C -50,28 -28,50 0,50 28,50 50,28 50,0 50,-28 28,-50 0,-50 -28,-50 -50,-28 -50,0 Z"
       transform="matrix(0.004,0,0,-0.004,12.7982,20.1286)" />
  </a>
  <a
     transform="translate(-4.8197588,-3.8452999)"
     id="a1766"
     xlink:href="textedit:///Users/jyang/Documents/GitHub/wygioatynlib/notation/wygioatynlib_pulsetrack.ly:10:23:24"
     style="color:inherit">
    <path
       style="fill:currentColor"
       id="path1764"
       d="m 220,138 c 56,0 109,-29 109,-91 0,-72 -56,-121 -103,-149 -36,-21 -76,-36 -117,-36 -56,0 -109,29 -109,91 0,72 56,121 103,149 36,21 76,36 117,36 z"
       transform="matrix(0.004,0,0,-0.004,12.1401,19.1786)" />
  </a>
  <rect
     style="fill:currentColor"
     id="rect1768"
     ry="0.039999999"
     height="3.0021999"
     width="0.13"
     y="12.1433"
     x="6.234941" />
  <a
     transform="translate(-4.8197588,-3.8452999)"
     id="a1772"
     xlink:href="textedit:///Users/jyang/Documents/GitHub/wygioatynlib/notation/wygioatynlib_pulsetrack.ly:10:20:21"
     style="color:inherit">
    <path
       style="fill:currentColor"
       id="path1770"
       d="M -50,0 C -50,28 -28,50 0,50 28,50 50,28 50,0 50,-28 28,-50 0,-50 -28,-50 -50,-28 -50,0 Z"
       transform="matrix(0.004,0,0,-0.004,10.5266,20.1286)" />
  </a>
  <a
     transform="translate(-4.8197588,-3.8452999)"
     id="a1776"
     xlink:href="textedit:///Users/jyang/Documents/GitHub/wygioatynlib/notation/wygioatynlib_pulsetrack.ly:10:13:14"
     style="color:inherit">
    <path
       style="fill:currentColor"
       id="path1774"
       d="m 220,138 c 56,0 109,-29 109,-91 0,-72 -56,-121 -103,-149 -36,-21 -76,-36 -117,-36 -56,0 -109,29 -109,91 0,72 56,121 103,149 36,21 76,36 117,36 z"
       transform="matrix(0.004,0,0,-0.004,9.8685,19.1786)" />
  </a>
  <polygon
     style="fill:currentColor;stroke:currentColor;stroke-width:0.08;stroke-linecap:round;stroke-linejoin:round"
     id="polygon1778"
     points="0.04,0.2 0.04,-0.2 5.5395,-0.2 5.5395,0.2 "
     transform="translate(3.0569412,12.1433)" />
  <polygon
     style="fill:currentColor;stroke:currentColor;stroke-width:0.08;stroke-linecap:round;stroke-linejoin:round"
     id="polygon1780"
     points="0.04,0.2 0.04,-0.2 2.3615,-0.2 2.3615,0.2 "
     transform="translate(6.2349412,12.9533)" />
  <polygon
     style="fill:currentColor;stroke:currentColor;stroke-width:0.08;stroke-linecap:round;stroke-linejoin:round"
     id="polygon1782"
     points="0.04,0.2 0.04,-0.2 3.268,-0.2 3.268,0.2 "
     transform="translate(10.778041,12.3333)" />
  <polygon
     style="fill:currentColor;stroke:currentColor;stroke-width:0.08;stroke-linecap:round;stroke-linejoin:round"
     id="polygon1784"
     points="0.04,0.2 0.04,-0.2 6.9046,-0.2 6.9046,0.2 "
     transform="translate(17.134041,12.1433)" />
  <polygon
     style="fill:currentColor;stroke:currentColor;stroke-width:0.08;stroke-linecap:round;stroke-linejoin:round"
     id="polygon1786"
     points="0.04,0.2 0.04,-0.2 6.9046,-0.2 6.9046,0.2 "
     transform="translate(17.134041,12.9533)" />
  <rect
     style="fill:currentColor"
     id="rect1788"
     ry="0.039999999"
     height="3.0021999"
     width="0.13"
     y="12.1433"
     x="19.40554" />
  <a
     transform="translate(-4.8197588,-3.8452999)"
     id="a1792"
     xlink:href="textedit:///Users/jyang/Documents/GitHub/wygioatynlib/notation/wygioatynlib_pulsetrack.ly:10:72:73"
     style="color:inherit">
    <path
       style="fill:currentColor"
       id="path1790"
       d="M -50,0 C -50,28 -28,50 0,50 28,50 50,28 50,0 50,-28 28,-50 0,-50 -28,-50 -50,-28 -50,0 Z"
       transform="matrix(0.004,0,0,-0.004,23.6972,20.1286)" />
  </a>
  <a
     transform="translate(-4.8197588,-3.8452999)"
     id="a1796"
     xlink:href="textedit:///Users/jyang/Documents/GitHub/wygioatynlib/notation/wygioatynlib_pulsetrack.ly:10:67:68"
     style="color:inherit">
    <path
       style="fill:currentColor"
       id="path1794"
       d="m 220,138 c 56,0 109,-29 109,-91 0,-72 -56,-121 -103,-149 -36,-21 -76,-36 -117,-36 -56,0 -109,29 -109,91 0,72 56,121 103,149 36,21 76,36 117,36 z"
       transform="matrix(0.004,0,0,-0.004,23.0391,19.1786)" />
  </a>
  <rect
     style="fill:currentColor"
     id="rect1798"
     ry="0.039999999"
     height="3.0021999"
     width="0.13"
     y="12.1433"
     x="17.134041" />
  <a
     transform="translate(-4.8197588,-3.8452999)"
     id="a1802"
     xlink:href="textedit:///Users/jyang/Documents/GitHub/wygioatynlib/notation/wygioatynlib_pulsetrack.ly:10:64:65"
     style="color:inherit">
    <path
       style="fill:currentColor"
       id="path1800"
       d="m -211,88 c -8,2 -14,9 -14,18 0,10 9,19 19,19 2,0 3,-1 4,-1 L 206,19 c 13,0 19,-6 19,-19 0,-13 -6,-19 -19,-19 l -408,-105 c -1,0 -2,-1 -4,-1 -10,0 -19,9 -19,19 0,9 6,16 14,18 L 40,-23 180,0 40,23 Z"
       transform="matrix(0.004,0,0,-0.004,21.4257,21.0246)" />
  </a>
  <a
     transform="translate(-4.8197588,-3.8452999)"
     id="a1806"
     xlink:href="textedit:///Users/jyang/Documents/GitHub/wygioatynlib/notation/wygioatynlib_pulsetrack.ly:10:62:63"
     style="color:inherit">
    <path
       style="fill:currentColor"
       id="path1804"
       d="M -50,0 C -50,28 -28,50 0,50 28,50 50,28 50,0 50,-28 28,-50 0,-50 -28,-50 -50,-28 -50,0 Z"
       transform="matrix(0.004,0,0,-0.004,21.4257,20.1286)" />
  </a>
  <a
     transform="translate(-4.8197588,-3.8452999)"
     id="a1810"
     xlink:href="textedit:///Users/jyang/Documents/GitHub/wygioatynlib/notation/wygioatynlib_pulsetrack.ly:10:55:56"
     style="color:inherit">
    <path
       style="fill:currentColor"
       id="path1808"
       d="m 220,138 c 56,0 109,-29 109,-91 0,-72 -56,-121 -103,-149 -36,-21 -76,-36 -117,-36 -56,0 -109,29 -109,91 0,72 56,121 103,149 36,21 76,36 117,36 z"
       transform="matrix(0.004,0,0,-0.004,20.7676,19.1786)" />
  </a>
  <rect
     style="fill:currentColor"
     id="rect1812"
     ry="0.039999999"
     height="2.8122001"
     width="0.13"
     y="12.333301"
     x="13.956041" />
  <a
     transform="translate(-4.8197588,-3.8452999)"
     id="a1816"
     xlink:href="textedit:///Users/jyang/Documents/GitHub/wygioatynlib/notation/wygioatynlib_pulsetrack.ly:10:50:51"
     style="color:inherit">
    <path
       style="fill:currentColor"
       id="path1814"
       d="M -50,0 C -50,28 -28,50 0,50 28,50 50,28 50,0 50,-28 28,-50 0,-50 -28,-50 -50,-28 -50,0 Z"
       transform="matrix(0.004,0,0,-0.004,18.2477,20.1286)" />
  </a>
  <a
     transform="translate(-4.8197588,-3.8452999)"
     id="a1820"
     xlink:href="textedit:///Users/jyang/Documents/GitHub/wygioatynlib/notation/wygioatynlib_pulsetrack.ly:10:45:46"
     style="color:inherit">
    <path
       style="fill:currentColor"
       id="path1818"
       d="m 220,138 c 56,0 109,-29 109,-91 0,-72 -56,-121 -103,-149 -36,-21 -76,-36 -117,-36 -56,0 -109,29 -109,91 0,72 56,121 103,149 36,21 76,36 117,36 z"
       transform="matrix(0.004,0,0,-0.004,17.5896,19.1786)" />
  </a>
  <rect
     style="fill:currentColor"
     id="rect1822"
     ry="0.039999999"
     height="3.0021999"
     width="0.13"
     y="12.1433"
     x="23.948641" />
  <a
     transform="translate(-4.8197588,-3.8452999)"
     id="a1826"
     xlink:href="textedit:///Users/jyang/Documents/GitHub/wygioatynlib/notation/wygioatynlib_pulsetrack.ly:10:89:90"
     style="color:inherit">
    <path
       style="fill:currentColor"
       id="path1824"
       d="M -50,0 C -50,28 -28,50 0,50 28,50 50,28 50,0 50,-28 28,-50 0,-50 -28,-50 -50,-28 -50,0 Z"
       transform="matrix(0.004,0,0,-0.004,28.2403,20.1286)" />
  </a>
  <a
     transform="translate(-4.8197588,-3.8452999)"
     id="a1830"
     xlink:href="textedit:///Users/jyang/Documents/GitHub/wygioatynlib/notation/wygioatynlib_pulsetrack.ly:10:84:85"
     style="color:inherit">
    <path
       style="fill:currentColor"
       id="path1828"
       d="m 220,138 c 56,0 109,-29 109,-91 0,-72 -56,-121 -103,-149 -36,-21 -76,-36 -117,-36 -56,0 -109,29 -109,91 0,72 56,121 103,149 36,21 76,36 117,36 z"
       transform="matrix(0.004,0,0,-0.004,27.5822,19.1786)" />
  </a>
  <rect
     style="fill:currentColor"
     id="rect1832"
     ry="0.039999999"
     height="3.0021999"
     width="0.13"
     y="12.1433"
     x="21.677141" />
  <a
     transform="translate(-4.8197588,-3.8452999)"
     id="a1836"
     xlink:href="textedit:///Users/jyang/Documents/GitHub/wygioatynlib/notation/wygioatynlib_pulsetrack.ly:10:81:82"
     style="color:inherit">
    <path
       style="fill:currentColor"
       id="path1834"
       d="M -50,0 C -50,28 -28,50 0,50 28,50 50,28 50,0 50,-28 28,-50 0,-50 -28,-50 -50,-28 -50,0 Z"
       transform="matrix(0.004,0,0,-0.004,25.9688,20.1286)" />
  </a>
  <a
     transform="translate(-4.8197588,-3.8452999)"
     id="a1840"
     xlink:href="textedit:///Users/jyang/Documents/GitHub/wygioatynlib/notation/wygioatynlib_pulsetrack.ly:10:76:77"
     style="color:inherit">
    <path
       style="fill:currentColor"
       id="path1838"
       d="m 220,138 c 56,0 109,-29 109,-91 0,-72 -56,-121 -103,-149 -36,-21 -76,-36 -117,-36 -56,0 -109,29 -109,91 0,72 56,121 103,149 36,21 76,36 117,36 z"
       transform="matrix(0.004,0,0,-0.004,25.3107,19.1786)" />
  </a>
  <text
     y="14.2833"
     x="-0.085258789"
     style="font-size:1.74609995px;font-family:'Century Schoolbook L';text-anchor:start;fill:currentColor"
     id="text1844"
     font-size="1.7461">
    <tspan
       id="tspan1842">2</tspan>
  </text>
  <rect
     style="fill:currentColor"
     id="rect1846"
     ry="0.039999999"
     height="3.0021999"
     width="0.13"
     y="12.1433"
     x="3.0569413" />
  <a
     transform="translate(-4.8197588,-3.8452999)"
     id="a1850"
     xlink:href="textedit:///Users/jyang/Documents/GitHub/wygioatynlib/notation/wygioatynlib_pulsetrack.ly:10:10:11"
     style="color:inherit">
    <path
       style="fill:currentColor"
       id="path1848"
       d="m -211,88 c -8,2 -14,9 -14,18 0,10 9,19 19,19 2,0 3,-1 4,-1 L 206,19 c 13,0 19,-6 19,-19 0,-13 -6,-19 -19,-19 l -408,-105 c -1,0 -2,-1 -4,-1 -10,0 -19,9 -19,19 0,9 6,16 14,18 L 40,-23 180,0 40,23 Z"
       transform="matrix(0.004,0,0,-0.004,7.3486,21.0246)" />
  </a>
  <a
     transform="translate(-4.8197588,-3.8452999)"
     id="a1854"
     xlink:href="textedit:///Users/jyang/Documents/GitHub/wygioatynlib/notation/wygioatynlib_pulsetrack.ly:10:8:9"
     style="color:inherit">
    <path
       style="fill:currentColor"
       id="path1852"
       d="M -50,0 C -50,28 -28,50 0,50 28,50 50,28 50,0 50,-28 28,-50 0,-50 -28,-50 -50,-28 -50,0 Z"
       transform="matrix(0.004,0,0,-0.004,7.3486,20.1286)" />
  </a>
  <a
     transform="translate(-4.8197588,-3.8452999)"
     id="a1858"
     xlink:href="textedit:///Users/jyang/Documents/GitHub/wygioatynlib/notation/wygioatynlib_pulsetrack.ly:10:2:3"
     style="color:inherit">
    <path
       style="fill:currentColor"
       id="path1856"
       d="m 220,138 c 56,0 109,-29 109,-91 0,-72 -56,-121 -103,-149 -36,-21 -76,-36 -117,-36 -56,0 -109,29 -109,91 0,72 56,121 103,149 36,21 76,36 117,36 z"
       transform="matrix(0.004,0,0,-0.004,6.6906,19.1786)" />
  </a>
  <a
     transform="translate(-4.8197588,-3.8452999)"
     id="a1862"
     xlink:href="textedit:///Users/jyang/Documents/GitHub/wygioatynlib/notation/wygioatynlib_pulsetrack.ly:10:95:96"
     style="color:inherit">
    <path
       style="fill:currentColor"
       id="path1860"
       d="m 220,138 c 56,0 109,-29 109,-91 0,-72 -56,-121 -103,-149 -36,-21 -76,-36 -117,-36 -56,0 -109,29 -109,91 0,72 56,121 103,149 36,21 76,36 117,36 z"
       transform="matrix(0.004,0,0,-0.004,29.8538,19.1786)" />
  </a>
  <a
     transform="translate(-4.8197588,-3.8452999)"
     id="a1866"
     xlink:href="textedit:///Users/jyang/Documents/GitHub/wygioatynlib/notation/wygioatynlib_pulsetrack.ly:10:101:102"
     style="color:inherit">
    <path
       style="fill:currentColor"
       id="path1864"
       d="M -50,0 C -50,28 -28,50 0,50 28,50 50,28 50,0 50,-28 28,-50 0,-50 -28,-50 -50,-28 -50,0 Z"
       transform="matrix(0.004,0,0,-0.004,30.5119,20.1286)" />
  </a>
  <a
     transform="translate(-4.8197588,-3.8452999)"
     id="a1870"
     xlink:href="textedit:///Users/jyang/Documents/GitHub/wygioatynlib/notation/wygioatynlib_pulsetrack.ly:10:103:104"
     style="color:inherit">
    <path
       style="fill:currentColor"
       id="path1868"
       d="m -211,88 c -8,2 -14,9 -14,18 0,10 9,19 19,19 2,0 3,-1 4,-1 L 206,19 c 13,0 19,-6 19,-19 0,-13 -6,-19 -19,-19 l -408,-105 c -1,0 -2,-1 -4,-1 -10,0 -19,9 -19,19 0,9 6,16 14,18 L 40,-23 180,0 40,23 Z"
       transform="matrix(0.004,0,0,-0.004,30.5119,21.0246)" />
  </a>
  <rect
     style="fill:currentColor"
     id="rect1872"
     ry="0.039999999"
     height="3.1454999"
     width="0.13"
     y="12"
     x="26.220242" />
  <line
     style="stroke:currentColor;stroke-width:0.1;stroke-linecap:round;stroke-linejoin:round"
     id="line1874"
     y2="27.3333"
     x2="29.273642"
     y1="27.3333"
     x1="0.92084122" />
  <rect
     style="fill:currentColor"
     id="rect1876"
     ry="0.0000"
     height="2.0999999"
     width="0.19"
     y="26.2833"
     x="26.278841" />
  <rect
     style="fill:currentColor"
     id="rect1878"
     ry="0.039999999"
     height="3.1454999"
     width="0.13"
     y="24"
     x="23.580742" />
  <a
     transform="translate(-4.8197588,-3.8452999)"
     id="a1882"
     xlink:href="textedit:///Users/jyang/Documents/GitHub/wygioatynlib/notation/wygioatynlib_pulsetrack.ly:11:89:90"
     style="color:inherit">
    <path
       style="fill:currentColor"
       id="path1880"
       d="m -211,88 c -8,2 -14,9 -14,18 0,10 9,19 19,19 2,0 3,-1 4,-1 L 206,19 c 13,0 19,-6 19,-19 0,-13 -6,-19 -19,-19 l -408,-105 c -1,0 -2,-1 -4,-1 -10,0 -19,9 -19,19 0,9 6,16 14,18 L 40,-23 180,0 40,23 Z"
       transform="matrix(0.004,0,0,-0.004,27.8724,33.0246)" />
  </a>
  <a
     transform="translate(-4.8197588,-3.8452999)"
     id="a1886"
     xlink:href="textedit:///Users/jyang/Documents/GitHub/wygioatynlib/notation/wygioatynlib_pulsetrack.ly:11:87:88"
     style="color:inherit">
    <path
       style="fill:currentColor"
       id="path1884"
       d="M -50,0 C -50,28 -28,50 0,50 28,50 50,28 50,0 50,-28 28,-50 0,-50 -28,-50 -50,-28 -50,0 Z"
       transform="matrix(0.004,0,0,-0.004,27.8724,32.1286)" />
  </a>
  <a
     transform="translate(-4.8197588,-3.8452999)"
     id="a1890"
     xlink:href="textedit:///Users/jyang/Documents/GitHub/wygioatynlib/notation/wygioatynlib_pulsetrack.ly:11:82:83"
     style="color:inherit">
    <path
       style="fill:currentColor"
       id="path1888"
       d="m 220,138 c 56,0 109,-29 109,-91 0,-72 -56,-121 -103,-149 -36,-21 -76,-36 -117,-36 -56,0 -109,29 -109,91 0,72 56,121 103,149 36,21 76,36 117,36 z"
       transform="matrix(0.004,0,0,-0.004,27.2143,31.1786)" />
  </a>
  <rect
     style="fill:currentColor"
     id="rect1892"
     ry="0.039999999"
     height="3.1454999"
     width="0.13"
     y="24"
     x="19.209042" />
  <a
     transform="translate(-4.8197588,-3.8452999)"
     id="a1896"
     xlink:href="textedit:///Users/jyang/Documents/GitHub/wygioatynlib/notation/wygioatynlib_pulsetrack.ly:11:76:77"
     style="color:inherit">
    <path
       style="fill:currentColor"
       id="path1894"
       d="m -211,88 c -8,2 -14,9 -14,18 0,10 9,19 19,19 2,0 3,-1 4,-1 L 206,19 c 13,0 19,-6 19,-19 0,-13 -6,-19 -19,-19 l -408,-105 c -1,0 -2,-1 -4,-1 -10,0 -19,9 -19,19 0,9 6,16 14,18 L 40,-23 180,0 40,23 Z"
       transform="matrix(0.004,0,0,-0.004,23.5007,33.0246)" />
  </a>
  <a
     transform="translate(-4.8197588,-3.8452999)"
     id="a1900"
     xlink:href="textedit:///Users/jyang/Documents/GitHub/wygioatynlib/notation/wygioatynlib_pulsetrack.ly:11:74:75"
     style="color:inherit">
    <path
       style="fill:currentColor"
       id="path1898"
       d="M -50,0 C -50,28 -28,50 0,50 28,50 50,28 50,0 50,-28 28,-50 0,-50 -28,-50 -50,-28 -50,0 Z"
       transform="matrix(0.004,0,0,-0.004,23.5007,32.1286)" />
  </a>
  <a
     transform="translate(-4.8197588,-3.8452999)"
     id="a1904"
     xlink:href="textedit:///Users/jyang/Documents/GitHub/wygioatynlib/notation/wygioatynlib_pulsetrack.ly:11:68:69"
     style="color:inherit">
    <path
       style="fill:currentColor"
       id="path1902"
       d="m 220,138 c 56,0 109,-29 109,-91 0,-72 -56,-121 -103,-149 -36,-21 -76,-36 -117,-36 -56,0 -109,29 -109,91 0,72 56,121 103,149 36,21 76,36 117,36 z"
       transform="matrix(0.004,0,0,-0.004,22.8426,31.1786)" />
  </a>
  <a
     transform="translate(-4.8197588,-3.8452999)"
     id="a1908"
     xlink:href="textedit:///Users/jyang/Documents/GitHub/wygioatynlib/notation/wygioatynlib_pulsetrack.ly:11:20:21"
     style="color:inherit">
    <path
       style="fill:currentColor"
       id="path1906"
       d="M -50,0 C -50,28 -28,50 0,50 28,50 50,28 50,0 50,-28 28,-50 0,-50 -28,-50 -50,-28 -50,0 Z"
       transform="matrix(0.004,0,0,-0.004,10.7125,32.1286)" />
  </a>
  <polygon
     style="fill:currentColor;stroke:currentColor;stroke-width:0.08;stroke-linecap:round;stroke-linejoin:round"
     id="polygon1910"
     points="0.04,0.2 0.04,-0.2 5.81,-0.2 5.81,0.2 "
     transform="translate(3.0569412,24.1433)" />
  <polygon
     style="fill:currentColor;stroke:currentColor;stroke-width:0.08;stroke-linecap:round;stroke-linejoin:round"
     id="polygon1912"
     points="0.04,0.2 0.04,-0.2 2.4461,-0.2 2.4461,0.2 "
     transform="translate(6.4208412,24.9533)" />
  <polygon
     style="fill:currentColor;stroke:currentColor;stroke-width:0.08;stroke-linecap:round;stroke-linejoin:round"
     id="polygon1914"
     points="0.04,0.2 0.04,-0.2 4.8021,-0.2 4.8021,0.2 "
     transform="translate(11.132941,24.1433)" />
  <polygon
     style="fill:currentColor;stroke:currentColor;stroke-width:0.08;stroke-linecap:round;stroke-linejoin:round"
     id="polygon1916"
     points="0.04,0.2 0.04,-0.2 2.4461,-0.2 2.4461,0.2 "
     transform="translate(11.132941,24.9533)" />
  <a
     transform="translate(-4.8197588,-3.8452999)"
     id="a1920"
     xlink:href="textedit:///Users/jyang/Documents/GitHub/wygioatynlib/notation/wygioatynlib_pulsetrack.ly:11:2:3"
     style="color:inherit">
    <path
       style="fill:currentColor"
       id="path1918"
       d="m 220,138 c 56,0 109,-29 109,-91 0,-72 -56,-121 -103,-149 -36,-21 -76,-36 -117,-36 -56,0 -109,29 -109,91 0,72 56,121 103,149 36,21 76,36 117,36 z"
       transform="matrix(0.004,0,0,-0.004,6.6906,31.1786)" />
  </a>
  <a
     transform="translate(-4.8197588,-3.8452999)"
     id="a1924"
     xlink:href="textedit:///Users/jyang/Documents/GitHub/wygioatynlib/notation/wygioatynlib_pulsetrack.ly:11:8:9"
     style="color:inherit">
    <path
       style="fill:currentColor"
       id="path1922"
       d="M -50,0 C -50,28 -28,50 0,50 28,50 50,28 50,0 50,-28 28,-50 0,-50 -28,-50 -50,-28 -50,0 Z"
       transform="matrix(0.004,0,0,-0.004,7.3486,32.1286)" />
  </a>
  <a
     transform="translate(-4.8197588,-3.8452999)"
     id="a1928"
     xlink:href="textedit:///Users/jyang/Documents/GitHub/wygioatynlib/notation/wygioatynlib_pulsetrack.ly:11:10:11"
     style="color:inherit">
    <path
       style="fill:currentColor"
       id="path1926"
       d="m -211,88 c -8,2 -14,9 -14,18 0,10 9,19 19,19 2,0 3,-1 4,-1 L 206,19 c 13,0 19,-6 19,-19 0,-13 -6,-19 -19,-19 l -408,-105 c -1,0 -2,-1 -4,-1 -10,0 -19,9 -19,19 0,9 6,16 14,18 L 40,-23 180,0 40,23 Z"
       transform="matrix(0.004,0,0,-0.004,7.3486,33.0246)" />
  </a>
  <rect
     style="fill:currentColor"
     id="rect1930"
     ry="0.039999999"
     height="3.0021999"
     width="0.13"
     y="24.143301"
     x="3.0569413" />
  <a
     transform="translate(-4.8197588,-3.8452999)"
     id="a1934"
     xlink:href="textedit:///Users/jyang/Documents/GitHub/wygioatynlib/notation/wygioatynlib_pulsetrack.ly:11:13:14"
     style="color:inherit">
    <path
       style="fill:currentColor"
       id="path1932"
       d="m 220,138 c 56,0 109,-29 109,-91 0,-72 -56,-121 -103,-149 -36,-21 -76,-36 -117,-36 -56,0 -109,29 -109,91 0,72 56,121 103,149 36,21 76,36 117,36 z"
       transform="matrix(0.004,0,0,-0.004,10.0545,31.1786)" />
  </a>
  <a
     transform="translate(-4.8197588,-3.8452999)"
     id="a1938"
     xlink:href="textedit:///Users/jyang/Documents/GitHub/wygioatynlib/notation/wygioatynlib_pulsetrack.ly:11:42:43"
     style="color:inherit">
    <path
       style="fill:currentColor"
       id="path1936"
       d="M -50,0 C -50,28 -28,50 0,50 28,50 50,28 50,0 50,-28 28,-50 0,-50 -28,-50 -50,-28 -50,0 Z"
       transform="matrix(0.004,0,0,-0.004,15.4247,32.1286)" />
  </a>
  <a
     transform="translate(-4.8197588,-3.8452999)"
     id="a1942"
     xlink:href="textedit:///Users/jyang/Documents/GitHub/wygioatynlib/notation/wygioatynlib_pulsetrack.ly:11:37:38"
     style="color:inherit">
    <path
       style="fill:currentColor"
       id="path1940"
       d="m 220,138 c 56,0 109,-29 109,-91 0,-72 -56,-121 -103,-149 -36,-21 -76,-36 -117,-36 -56,0 -109,29 -109,91 0,72 56,121 103,149 36,21 76,36 117,36 z"
       transform="matrix(0.004,0,0,-0.004,14.7666,31.1786)" />
  </a>
  <rect
     style="fill:currentColor"
     id="rect1944"
     ry="0.039999999"
     height="3.0021999"
     width="0.13"
     y="24.143301"
     x="8.7769413" />
  <a
     transform="translate(-4.8197588,-3.8452999)"
     id="a1948"
     xlink:href="textedit:///Users/jyang/Documents/GitHub/wygioatynlib/notation/wygioatynlib_pulsetrack.ly:11:31:32"
     style="color:inherit">
    <path
       style="fill:currentColor"
       id="path1946"
       d="M -50,0 C -50,28 -28,50 0,50 28,50 50,28 50,0 50,-28 28,-50 0,-50 -28,-50 -50,-28 -50,0 Z"
       transform="matrix(0.004,0,0,-0.004,13.0686,32.1286)" />
  </a>
  <a
     transform="translate(-4.8197588,-3.8452999)"
     id="a1952"
     xlink:href="textedit:///Users/jyang/Documents/GitHub/wygioatynlib/notation/wygioatynlib_pulsetrack.ly:11:24:25"
     style="color:inherit">
    <path
       style="fill:currentColor"
       id="path1950"
       d="m 220,138 c 56,0 109,-29 109,-91 0,-72 -56,-121 -103,-149 -36,-21 -76,-36 -117,-36 -56,0 -109,29 -109,91 0,72 56,121 103,149 36,21 76,36 117,36 z"
       transform="matrix(0.004,0,0,-0.004,12.4105,31.1786)" />
  </a>
  <path
     style="fill:currentColor;stroke-width:0.004"
     id="path1954"
     d="m 28.034841,28.1198 c 0.088,-0.056 0.176,-0.116 0.24,-0.2 0.044,-0.06 0.076,-0.132 0.108,-0.2 0.008,-0.016 0.02,-0.024 0.036,-0.024 0.024,0 0.052,0.02 0.052,0.056 v 0.98 h 0.288 c 0.04,0 0.06,0.028 0.06,0.056 0,0.028 -0.02,0.06 -0.06,0.06 h -0.288 v 0.032 c 0,0.192 0.108,0.376 0.288,0.376 0.032,0 0.048,0.02 0.048,0.044 0,0.024 -0.016,0.048 -0.048,0.048 -0.176,0 -0.348,-0.052 -0.524,-0.052 -0.176,0 -0.348,0.052 -0.524,0.052 -0.032,0 -0.048,-0.024 -0.048,-0.048 0,-0.024 0.016,-0.044 0.048,-0.044 0.18,0 0.292,-0.184 0.292,-0.376 v -0.032 h -0.668 c -0.092,0 -0.124,-0.056 -0.124,-0.092 0,-0.012 0.004,-0.02 0.008,-0.024 0.32,-0.372 0.552,-0.828 0.552,-1.32 0,-0.036 0.024,-0.064 0.052,-0.064 h 0.012 c 0.092,0.028 0.188,0.052 0.284,0.052 0.096,0 0.192,-0.024 0.284,-0.052 0.008,-0.004 0.012,-0.004 0.02,-0.004 0.044,0 0.072,0.04 0.048,0.068 l -1.136,1.32 h 0.668 v -0.524 c 0,-0.032 0.004,-0.068 0.032,-0.088 z" />
  <path
     style="fill:currentColor;stroke-width:0.004"
     id="path1956"
     d="m 27.955341,25.4253 c -0.116,0 -0.236,0.032 -0.236,0.132 0,0.088 0.144,0.1 0.144,0.188 0,0.128 -0.104,0.232 -0.232,0.232 -0.128,0 -0.228,-0.104 -0.228,-0.232 0,-0.26 0.268,-0.412 0.552,-0.412 0.364,0 0.676,0.132 0.676,0.456 0,0.172 -0.016,0.328 -0.168,0.4 -0.036,0.016 -0.056,0.048 -0.056,0.084 0,0.036 0.02,0.072 0.056,0.088 0.164,0.076 0.224,0.228 0.224,0.412 0,0.368 -0.316,0.56 -0.716,0.56 -0.316,0 -0.616,-0.168 -0.616,-0.452 0,-0.144 0.12,-0.264 0.264,-0.264 0.144,0 0.26,0.12 0.26,0.264 0,0.1 -0.16,0.112 -0.16,0.212 0,0.108 0.128,0.148 0.252,0.148 0.196,0 0.252,-0.244 0.252,-0.468 v -0.064 c 0,-0.216 -0.008,-0.376 -0.2,-0.376 h -0.32 c -0.04,0 -0.056,-0.032 -0.056,-0.06 0,-0.028 0.016,-0.056 0.056,-0.056 h 0.32 c 0.196,0 0.2,-0.172 0.2,-0.396 v -0.032 c 0,-0.216 -0.072,-0.364 -0.268,-0.364 z" />
  <text
     y="26.249201"
     x="-0.085258789"
     style="font-size:1.74609995px;font-family:'Century Schoolbook L';text-anchor:start;fill:currentColor"
     id="text1960"
     font-size="1.7461">
    <tspan
       id="tspan1958">3</tspan>
  </text>
  <rect
     style="fill:currentColor"
     id="rect1962"
     ry="0.039999999"
     height="3.0021999"
     width="0.13"
     y="24.143301"
     x="15.845141" />
  <a
     transform="translate(-4.8197588,-3.8452999)"
     id="a1966"
     xlink:href="textedit:///Users/jyang/Documents/GitHub/wygioatynlib/notation/wygioatynlib_pulsetrack.ly:11:62:63"
     style="color:inherit">
    <path
       style="fill:currentColor"
       id="path1964"
       d="M -50,0 C -50,28 -28,50 0,50 28,50 50,28 50,0 50,-28 28,-50 0,-50 -28,-50 -50,-28 -50,0 Z"
       transform="matrix(0.004,0,0,-0.004,20.1368,32.1286)" />
  </a>
  <a
     transform="translate(-4.8197588,-3.8452999)"
     id="a1970"
     xlink:href="textedit:///Users/jyang/Documents/GitHub/wygioatynlib/notation/wygioatynlib_pulsetrack.ly:11:56:57"
     style="color:inherit">
    <path
       style="fill:currentColor"
       id="path1968"
       d="m 220,138 c 56,0 109,-29 109,-91 0,-72 -56,-121 -103,-149 -36,-21 -76,-36 -117,-36 -56,0 -109,29 -109,91 0,72 56,121 103,149 36,21 76,36 117,36 z"
       transform="matrix(0.004,0,0,-0.004,19.4787,31.1786)" />
  </a>
  <rect
     style="fill:currentColor"
     id="rect1972"
     ry="0.039999999"
     height="3.0021999"
     width="0.13"
     y="24.143301"
     x="13.489041" />
  <a
     transform="translate(-4.8197588,-3.8452999)"
     id="a1976"
     xlink:href="textedit:///Users/jyang/Documents/GitHub/wygioatynlib/notation/wygioatynlib_pulsetrack.ly:11:52:53"
     style="color:inherit">
    <path
       style="fill:currentColor"
       id="path1974"
       d="M -50,0 C -50,28 -28,50 0,50 28,50 50,28 50,0 50,-28 28,-50 0,-50 -28,-50 -50,-28 -50,0 Z"
       transform="matrix(0.004,0,0,-0.004,17.7807,32.1286)" />
  </a>
  <a
     transform="translate(-4.8197588,-3.8452999)"
     id="a1980"
     xlink:href="textedit:///Users/jyang/Documents/GitHub/wygioatynlib/notation/wygioatynlib_pulsetrack.ly:11:47:48"
     style="color:inherit">
    <path
       style="fill:currentColor"
       id="path1978"
       d="m 220,138 c 56,0 109,-29 109,-91 0,-72 -56,-121 -103,-149 -36,-21 -76,-36 -117,-36 -56,0 -109,29 -109,91 0,72 56,121 103,149 36,21 76,36 117,36 z"
       transform="matrix(0.004,0,0,-0.004,17.1226,31.1786)" />
  </a>
  <rect
     style="fill:currentColor"
     id="rect1982"
     ry="0.039999999"
     height="3.0021999"
     width="0.13"
     y="24.143301"
     x="6.4208412" />
  <a
     transform="translate(-4.8197588,-3.8452999)"
     id="a1986"
     xlink:href="textedit:///Users/jyang/Documents/GitHub/wygioatynlib/notation/wygioatynlib_pulsetrack.ly:11:44:45"
     style="color:inherit">
    <path
       style="fill:currentColor"
       id="path1984"
       d="m -211,88 c -8,2 -14,9 -14,18 0,10 9,19 19,19 2,0 3,-1 4,-1 L 206,19 c 13,0 19,-6 19,-19 0,-13 -6,-19 -19,-19 l -408,-105 c -1,0 -2,-1 -4,-1 -10,0 -19,9 -19,19 0,9 6,16 14,18 L 40,-23 180,0 40,23 Z"
       transform="matrix(0.004,0,0,-0.004,15.4247,33.0246)" />
  </a>
  <rect
     style="fill:currentColor"
     id="rect1988"
     ry="0.039999999"
     height="3.0021999"
     width="0.13"
     y="24.143301"
     x="11.132941" />
  <line
     style="stroke:currentColor;stroke-width:0.1;stroke-linecap:round;stroke-linejoin:round"
     id="line1990"
     y2="39.333302"
     x2="29.273642"
     y1="39.333302"
     x1="0.92084122" />
  <rect
     style="fill:currentColor"
     id="rect1992"
     ry="0.0000"
     height="2.0999999"
     width="0.19"
     y="38.283298"
     x="29.133541" />
  <rect
     style="fill:currentColor"
     id="rect1994"
     ry="0.039999999"
     height="2.8122001"
     width="0.13"
     y="36.333302"
     x="27.037041" />
  <a
     transform="translate(-4.8197588,-3.8452999)"
     id="a1998"
     xlink:href="textedit:///Users/jyang/Documents/GitHub/wygioatynlib/notation/wygioatynlib_pulsetrack.ly:12:101:102"
     style="color:inherit">
    <path
       style="fill:currentColor"
       id="path1996"
       d="M -50,0 C -50,28 -28,50 0,50 28,50 50,28 50,0 50,-28 28,-50 0,-50 -28,-50 -50,-28 -50,0 Z"
       transform="matrix(0.004,0,0,-0.004,31.3287,44.1286)" />
  </a>
  <a
     transform="translate(-4.8197588,-3.8452999)"
     id="a2002"
     xlink:href="textedit:///Users/jyang/Documents/GitHub/wygioatynlib/notation/wygioatynlib_pulsetrack.ly:12:96:97"
     style="color:inherit">
    <path
       style="fill:currentColor"
       id="path2000"
       d="m 220,138 c 56,0 109,-29 109,-91 0,-72 -56,-121 -103,-149 -36,-21 -76,-36 -117,-36 -56,0 -109,29 -109,91 0,72 56,121 103,149 36,21 76,36 117,36 z"
       transform="matrix(0.004,0,0,-0.004,30.6706,43.1786)" />
  </a>
  <rect
     style="fill:currentColor"
     id="rect2004"
     ry="0.039999999"
     height="2.8122001"
     width="0.13"
     y="36.333302"
     x="23.776541" />
  <a
     transform="translate(-4.8197588,-3.8452999)"
     id="a2008"
     xlink:href="textedit:///Users/jyang/Documents/GitHub/wygioatynlib/notation/wygioatynlib_pulsetrack.ly:12:93:94"
     style="color:inherit">
    <path
       style="fill:currentColor"
       id="path2006"
       d="m -211,88 c -8,2 -14,9 -14,18 0,10 9,19 19,19 2,0 3,-1 4,-1 L 206,19 c 13,0 19,-6 19,-19 0,-13 -6,-19 -19,-19 l -408,-105 c -1,0 -2,-1 -4,-1 -10,0 -19,9 -19,19 0,9 6,16 14,18 L 40,-23 180,0 40,23 Z"
       transform="matrix(0.004,0,0,-0.004,28.0682,45.0246)" />
  </a>
  <a
     transform="translate(-4.8197588,-3.8452999)"
     id="a2012"
     xlink:href="textedit:///Users/jyang/Documents/GitHub/wygioatynlib/notation/wygioatynlib_pulsetrack.ly:12:91:92"
     style="color:inherit">
    <path
       style="fill:currentColor"
       id="path2010"
       d="M -50,0 C -50,28 -28,50 0,50 28,50 50,28 50,0 50,-28 28,-50 0,-50 -28,-50 -50,-28 -50,0 Z"
       transform="matrix(0.004,0,0,-0.004,28.0682,44.1286)" />
  </a>
  <a
     transform="translate(-4.8197588,-3.8452999)"
     id="a2016"
     xlink:href="textedit:///Users/jyang/Documents/GitHub/wygioatynlib/notation/wygioatynlib_pulsetrack.ly:12:85:86"
     style="color:inherit">
    <path
       style="fill:currentColor"
       id="path2014"
       d="m 220,138 c 56,0 109,-29 109,-91 0,-72 -56,-121 -103,-149 -36,-21 -76,-36 -117,-36 -56,0 -109,29 -109,91 0,72 56,121 103,149 36,21 76,36 117,36 z"
       transform="matrix(0.004,0,0,-0.004,27.4101,43.1786)" />
  </a>
  <rect
     style="fill:currentColor"
     id="rect2018"
     ry="0.039999999"
     height="3.0021999"
     width="0.13"
     y="36.143299"
     x="21.467442" />
  <polygon
     style="fill:currentColor;stroke:currentColor;stroke-width:0.08;stroke-linecap:round;stroke-linejoin:round"
     id="polygon2020"
     points="0.04,0.2 0.04,-0.2 5.6595,-0.2 5.6595,0.2 "
     transform="translate(6.6617412,36.1433)" />
  <polygon
     style="fill:currentColor;stroke:currentColor;stroke-width:0.08;stroke-linecap:round;stroke-linejoin:round"
     id="polygon2022"
     points="0.04,0.2 0.04,-0.2 2.3991,-0.2 2.3991,0.2 "
     transform="translate(9.9222412,36.9533)" />
  <polygon
     style="fill:currentColor;stroke:currentColor;stroke-width:0.08;stroke-linecap:round;stroke-linejoin:round"
     id="polygon2024"
     points="0.04,0.2 0.04,-0.2 7.0172,-0.2 7.0172,0.2 "
     transform="translate(14.540341,36.1433)" />
  <polygon
     style="fill:currentColor;stroke:currentColor;stroke-width:0.08;stroke-linecap:round;stroke-linejoin:round"
     id="polygon2026"
     points="0.04,0.2 0.04,-0.2 7.0172,-0.2 7.0172,0.2 "
     transform="translate(14.540341,36.9533)" />
  <polygon
     style="fill:currentColor;stroke:currentColor;stroke-width:0.08;stroke-linecap:round;stroke-linejoin:round"
     id="polygon2028"
     points="0.04,0.2 0.04,-0.2 3.3505,-0.2 3.3505,0.2 "
     transform="translate(23.776541,36.3333)" />
  <rect
     style="fill:currentColor"
     id="rect2030"
     ry="0.039999999"
     height="3.0021999"
     width="0.13"
     y="36.143299"
     x="12.231241" />
  <a
     transform="translate(-4.8197588,-3.8452999)"
     id="a2034"
     xlink:href="textedit:///Users/jyang/Documents/GitHub/wygioatynlib/notation/wygioatynlib_pulsetrack.ly:12:39:40"
     style="color:inherit">
    <path
       style="fill:currentColor"
       id="path2032"
       d="M -50,0 C -50,28 -28,50 0,50 28,50 50,28 50,0 50,-28 28,-50 0,-50 -28,-50 -50,-28 -50,0 Z"
       transform="matrix(0.004,0,0,-0.004,16.5229,44.1286)" />
  </a>
  <a
     transform="translate(-4.8197588,-3.8452999)"
     id="a2038"
     xlink:href="textedit:///Users/jyang/Documents/GitHub/wygioatynlib/notation/wygioatynlib_pulsetrack.ly:12:34:35"
     style="color:inherit">
    <path
       style="fill:currentColor"
       id="path2036"
       d="m 220,138 c 56,0 109,-29 109,-91 0,-72 -56,-121 -103,-149 -36,-21 -76,-36 -117,-36 -56,0 -109,29 -109,91 0,72 56,121 103,149 36,21 76,36 117,36 z"
       transform="matrix(0.004,0,0,-0.004,15.8648,43.1786)" />
  </a>
  <rect
     style="fill:currentColor"
     id="rect2040"
     ry="0.039999999"
     height="3.0021999"
     width="0.13"
     y="36.143299"
     x="9.9222412" />
  <a
     transform="translate(-4.8197588,-3.8452999)"
     id="a2044"
     xlink:href="textedit:///Users/jyang/Documents/GitHub/wygioatynlib/notation/wygioatynlib_pulsetrack.ly:12:31:32"
     style="color:inherit">
    <path
       style="fill:currentColor"
       id="path2042"
       d="M -50,0 C -50,28 -28,50 0,50 28,50 50,28 50,0 50,-28 28,-50 0,-50 -28,-50 -50,-28 -50,0 Z"
       transform="matrix(0.004,0,0,-0.004,14.2139,44.1286)" />
  </a>
  <a
     transform="translate(-4.8197588,-3.8452999)"
     id="a2048"
     xlink:href="textedit:///Users/jyang/Documents/GitHub/wygioatynlib/notation/wygioatynlib_pulsetrack.ly:12:24:25"
     style="color:inherit">
    <path
       style="fill:currentColor"
       id="path2046"
       d="m 220,138 c 56,0 109,-29 109,-91 0,-72 -56,-121 -103,-149 -36,-21 -76,-36 -117,-36 -56,0 -109,29 -109,91 0,72 56,121 103,149 36,21 76,36 117,36 z"
       transform="matrix(0.004,0,0,-0.004,13.5558,43.1786)" />
  </a>
  <rect
     style="fill:currentColor"
     id="rect2050"
     ry="0.039999999"
     height="3.0021999"
     width="0.13"
     y="36.143299"
     x="6.6617413" />
  <a
     transform="translate(-4.8197588,-3.8452999)"
     id="a2054"
     xlink:href="textedit:///Users/jyang/Documents/GitHub/wygioatynlib/notation/wygioatynlib_pulsetrack.ly:12:21:22"
     style="color:inherit">
    <path
       style="fill:currentColor"
       id="path2052"
       d="m -211,88 c -8,2 -14,9 -14,18 0,10 9,19 19,19 2,0 3,-1 4,-1 L 206,19 c 13,0 19,-6 19,-19 0,-13 -6,-19 -19,-19 l -408,-105 c -1,0 -2,-1 -4,-1 -10,0 -19,9 -19,19 0,9 6,16 14,18 L 40,-23 180,0 40,23 Z"
       transform="matrix(0.004,0,0,-0.004,10.9534,45.0246)" />
  </a>
  <a
     transform="translate(-4.8197588,-3.8452999)"
     id="a2058"
     xlink:href="textedit:///Users/jyang/Documents/GitHub/wygioatynlib/notation/wygioatynlib_pulsetrack.ly:12:19:20"
     style="color:inherit">
    <path
       style="fill:currentColor"
       id="path2056"
       d="M -50,0 C -50,28 -28,50 0,50 28,50 50,28 50,0 50,-28 28,-50 0,-50 -28,-50 -50,-28 -50,0 Z"
       transform="matrix(0.004,0,0,-0.004,10.9534,44.1286)" />
  </a>
  <a
     transform="translate(-4.8197588,-3.8452999)"
     id="a2062"
     xlink:href="textedit:///Users/jyang/Documents/GitHub/wygioatynlib/notation/wygioatynlib_pulsetrack.ly:12:13:14"
     style="color:inherit">
    <path
       style="fill:currentColor"
       id="path2060"
       d="m 220,138 c 56,0 109,-29 109,-91 0,-72 -56,-121 -103,-149 -36,-21 -76,-36 -117,-36 -56,0 -109,29 -109,91 0,72 56,121 103,149 36,21 76,36 117,36 z"
       transform="matrix(0.004,0,0,-0.004,10.2953,43.1786)" />
  </a>
  <rect
     style="fill:currentColor"
     id="rect2064"
     ry="0.039999999"
     height="3.0021999"
     width="0.13"
     y="36.143299"
     x="14.540341" />
  <a
     transform="translate(-4.8197588,-3.8452999)"
     id="a2068"
     xlink:href="textedit:///Users/jyang/Documents/GitHub/wygioatynlib/notation/wygioatynlib_pulsetrack.ly:12:54:55"
     style="color:inherit">
    <path
       style="fill:currentColor"
       id="path2066"
       d="m -211,88 c -8,2 -14,9 -14,18 0,10 9,19 19,19 2,0 3,-1 4,-1 L 206,19 c 13,0 19,-6 19,-19 0,-13 -6,-19 -19,-19 l -408,-105 c -1,0 -2,-1 -4,-1 -10,0 -19,9 -19,19 0,9 6,16 14,18 L 40,-23 180,0 40,23 Z"
       transform="matrix(0.004,0,0,-0.004,18.832,45.0246)" />
  </a>
  <a
     transform="translate(-4.8197588,-3.8452999)"
     id="a2072"
     xlink:href="textedit:///Users/jyang/Documents/GitHub/wygioatynlib/notation/wygioatynlib_pulsetrack.ly:12:45:46"
     style="color:inherit">
    <path
       style="fill:currentColor"
       id="path2070"
       d="m 220,138 c 56,0 109,-29 109,-91 0,-72 -56,-121 -103,-149 -36,-21 -76,-36 -117,-36 -56,0 -109,29 -109,91 0,72 56,121 103,149 36,21 76,36 117,36 z"
       transform="matrix(0.004,0,0,-0.004,18.1739,43.1786)" />
  </a>
  <a
     transform="translate(-4.8197588,-3.8452999)"
     id="a2076"
     xlink:href="textedit:///Users/jyang/Documents/GitHub/wygioatynlib/notation/wygioatynlib_pulsetrack.ly:12:52:53"
     style="color:inherit">
    <path
       style="fill:currentColor"
       id="path2074"
       d="M -50,0 C -50,28 -28,50 0,50 28,50 50,28 50,0 50,-28 28,-50 0,-50 -28,-50 -50,-28 -50,0 Z"
       transform="matrix(0.004,0,0,-0.004,18.832,44.1286)" />
  </a>
  <text
     y="38.283298"
     x="-0.085258789"
     style="font-size:1.74609995px;font-family:'Century Schoolbook L';text-anchor:start;fill:currentColor"
     id="text2080"
     font-size="1.7461">
    <tspan
       id="tspan2078">4</tspan>
  </text>
  <path
     style="fill:currentColor;stroke-width:0.004"
     id="path2082"
     d="m 2.6868412,40.1198 c 0.088,-0.056 0.176,-0.116 0.24,-0.2 0.044,-0.06 0.076,-0.132 0.108,-0.2 0.008,-0.016 0.02,-0.024 0.036,-0.024 0.024,0 0.052,0.02 0.052,0.056 v 0.98 h 0.288 c 0.04,0 0.06,0.028 0.06,0.056 0,0.028 -0.02,0.06 -0.06,0.06 h -0.288 v 0.032 c 0,0.192 0.108,0.376 0.288,0.376 0.032,0 0.048,0.02 0.048,0.044 0,0.024 -0.016,0.048 -0.048,0.048 -0.176,0 -0.348,-0.052 -0.524,-0.052 -0.176,0 -0.348,0.052 -0.524,0.052 -0.032,0 -0.048,-0.024 -0.048,-0.048 0,-0.024 0.016,-0.044 0.048,-0.044 0.18,0 0.292,-0.184 0.292,-0.376 v -0.032 h -0.668 c -0.092,0 -0.124,-0.056 -0.124,-0.092 0,-0.012 0.004,-0.02 0.008,-0.024 0.32,-0.372 0.552,-0.828 0.552,-1.32 0,-0.036 0.024,-0.064 0.052,-0.064 h 0.012 c 0.092,0.028 0.188,0.052 0.284,0.052 0.096,0 0.192,-0.024 0.284,-0.052 0.008,-0.004 0.012,-0.004 0.02,-0.004 0.044,0 0.072,0.04 0.048,0.068 l -1.136,1.32 h 0.668 v -0.524 c 0,-0.032 0.004,-0.068 0.032,-0.088 z" />
  <path
     style="fill:currentColor;stroke-width:0.004"
     id="path2084"
     d="m 2.6073412,37.4253 c -0.116,0 -0.236,0.032 -0.236,0.132 0,0.088 0.144,0.1 0.144,0.188 0,0.128 -0.104,0.232 -0.232,0.232 -0.128,0 -0.228,-0.104 -0.228,-0.232 0,-0.26 0.268,-0.412 0.552,-0.412 0.364,0 0.676,0.132 0.676,0.456 0,0.172 -0.016,0.328 -0.168,0.4 -0.036,0.016 -0.056,0.048 -0.056,0.084 0,0.036 0.02,0.072 0.056,0.088 0.164,0.076 0.224,0.228 0.224,0.412 0,0.368 -0.316,0.56 -0.716,0.56 -0.316,0 -0.616,-0.168 -0.616,-0.452 0,-0.144 0.12,-0.264 0.264,-0.264 0.144,0 0.26,0.12 0.26,0.264 0,0.1 -0.16,0.112 -0.16,0.212 0,0.108 0.128,0.148 0.252,0.148 0.196,0 0.252,-0.244 0.252,-0.468 v -0.064 c 0,-0.216 -0.008,-0.376 -0.2,-0.376 h -0.32 c -0.04,0 -0.056,-0.032 -0.056,-0.06 0,-0.028 0.016,-0.056 0.056,-0.056 h 0.32 c 0.196,0 0.2,-0.172 0.2,-0.396 v -0.032 c 0,-0.216 -0.072,-0.364 -0.268,-0.364 z" />
  <a
     transform="translate(-4.8197588,-3.8452999)"
     id="a2088"
     xlink:href="textedit:///Users/jyang/Documents/GitHub/wygioatynlib/notation/wygioatynlib_pulsetrack.ly:12:79:80"
     style="color:inherit">
    <path
       style="fill:currentColor"
       id="path2086"
       d="M -50,0 C -50,28 -28,50 0,50 28,50 50,28 50,0 50,-28 28,-50 0,-50 -28,-50 -50,-28 -50,0 Z"
       transform="matrix(0.004,0,0,-0.004,25.7591,44.1286)" />
  </a>
  <a
     transform="translate(-4.8197588,-3.8452999)"
     id="a2092"
     xlink:href="textedit:///Users/jyang/Documents/GitHub/wygioatynlib/notation/wygioatynlib_pulsetrack.ly:12:74:75"
     style="color:inherit">
    <path
       style="fill:currentColor"
       id="path2090"
       d="m 220,138 c 56,0 109,-29 109,-91 0,-72 -56,-121 -103,-149 -36,-21 -76,-36 -117,-36 -56,0 -109,29 -109,91 0,72 56,121 103,149 36,21 76,36 117,36 z"
       transform="matrix(0.004,0,0,-0.004,25.101,43.1786)" />
  </a>
  <rect
     style="fill:currentColor"
     id="rect2094"
     ry="0.039999999"
     height="3.0021999"
     width="0.13"
     y="36.143299"
     x="19.158442" />
  <a
     transform="translate(-4.8197588,-3.8452999)"
     id="a2098"
     xlink:href="textedit:///Users/jyang/Documents/GitHub/wygioatynlib/notation/wygioatynlib_pulsetrack.ly:12:71:72"
     style="color:inherit">
    <path
       style="fill:currentColor"
       id="path2096"
       d="M -50,0 C -50,28 -28,50 0,50 28,50 50,28 50,0 50,-28 28,-50 0,-50 -28,-50 -50,-28 -50,0 Z"
       transform="matrix(0.004,0,0,-0.004,23.4501,44.1286)" />
  </a>
  <a
     transform="translate(-4.8197588,-3.8452999)"
     id="a2102"
     xlink:href="textedit:///Users/jyang/Documents/GitHub/wygioatynlib/notation/wygioatynlib_pulsetrack.ly:12:66:67"
     style="color:inherit">
    <path
       style="fill:currentColor"
       id="path2100"
       d="m 220,138 c 56,0 109,-29 109,-91 0,-72 -56,-121 -103,-149 -36,-21 -76,-36 -117,-36 -56,0 -109,29 -109,91 0,72 56,121 103,149 36,21 76,36 117,36 z"
       transform="matrix(0.004,0,0,-0.004,22.792,43.1786)" />
  </a>
  <a
     transform="translate(-4.8197588,-3.8452999)"
     id="a2106"
     xlink:href="textedit:///Users/jyang/Documents/GitHub/wygioatynlib/notation/wygioatynlib_pulsetrack.ly:12:57:58"
     style="color:inherit">
    <path
       style="fill:currentColor"
       id="path2104"
       d="m 220,138 c 56,0 109,-29 109,-91 0,-72 -56,-121 -103,-149 -36,-21 -76,-36 -117,-36 -56,0 -109,29 -109,91 0,72 56,121 103,149 36,21 76,36 117,36 z"
       transform="matrix(0.004,0,0,-0.004,20.4829,43.1786)" />
  </a>
  <a
     transform="translate(-4.8197588,-3.8452999)"
     id="a2110"
     xlink:href="textedit:///Users/jyang/Documents/GitHub/wygioatynlib/notation/wygioatynlib_pulsetrack.ly:12:62:63"
     style="color:inherit">
    <path
       style="fill:currentColor"
       id="path2108"
       d="M -50,0 C -50,28 -28,50 0,50 28,50 50,28 50,0 50,-28 28,-50 0,-50 -28,-50 -50,-28 -50,0 Z"
       transform="matrix(0.004,0,0,-0.004,21.141,44.1286)" />
  </a>
  <rect
     style="fill:currentColor"
     id="rect2112"
     ry="0.039999999"
     height="3.0021999"
     width="0.13"
     y="36.143299"
     x="16.84934" />
</svg>
