<svg xmlns="http://www.w3.org/2000/svg" xmlns:xlink="http://www.w3.org/1999/xlink" version="1.2" width="210.00mm" height="297.00mm" viewBox="0 0 119.5016 169.0094">
<!-- Page: 1/1 -->
<text transform="translate(5.6906, 2.8453)" font-family="Century Schoolbook L" font-size="2.2001" text-anchor="start" fill="currentColor">
<tspan>
 </tspan>
</text>
<rect transform="translate(113.6210, 9.8826)" x="0.0000" y="-2.0000" width="0.1900" height="4.0000" ry="0.0000" fill="currentColor"/>
<rect transform="translate(65.3982, 9.8826)" x="0.0000" y="-2.0000" width="0.1900" height="4.0000" ry="0.0000" fill="currentColor"/>
<rect transform="translate(39.4230, 9.8826)" x="0.0000" y="-2.0000" width="0.1900" height="4.0000" ry="0.0000" fill="currentColor"/>
<rect transform="translate(87.8396, 9.8826)" x="0.0000" y="-2.0000" width="0.1900" height="4.0000" ry="0.0000" fill="currentColor"/>
<line transform="translate(14.2264, 11.8826)" stroke-linejoin="round" stroke-linecap="round" stroke-width="0.1000" stroke="currentColor" x1="0.0500" y1="0.0000" x2="99.5346" y2="0.0000"/>
<line transform="translate(14.2264, 10.8826)" stroke-linejoin="round" stroke-linecap="round" stroke-width="0.1000" stroke="currentColor" x1="0.0500" y1="0.0000" x2="99.5346" y2="0.0000"/>
<line transform="translate(14.2264, 9.8826)" stroke-linejoin="round" stroke-linecap="round" stroke-width="0.1000" stroke="currentColor" x1="0.0500" y1="0.0000" x2="99.5346" y2="0.0000"/>
<line transform="translate(14.2264, 8.8826)" stroke-linejoin="round" stroke-linecap="round" stroke-width="0.1000" stroke="currentColor" x1="0.0500" y1="0.0000" x2="99.5346" y2="0.0000"/>
<line transform="translate(14.2264, 7.8826)" stroke-linejoin="round" stroke-linecap="round" stroke-width="0.1000" stroke="currentColor" x1="0.0500" y1="0.0000" x2="99.5346" y2="0.0000"/>
<rect transform="translate(80.8461, 9.8826)" x="-0.0650" y="-1.3122" width="0.1300" height="3.3122" ry="0.0400" fill="currentColor"/>
<a style="color:inherit;" xlink:href="textedit://C:/Users/jwloy/OneDrive/Documents/GitHub/wygioatynlib/notation/pulseTrack_tb_60_ps1.ly:17:53:54">
<path transform="translate(81.4392, 6.4866) scale(0.0040, -0.0040)" d="M-211 88c-8 2 -14 9 -14 18c0 10 9 19 19 19c2 0 3 -1 4 -1l408 -105c13 0 19 -6 19 -19s-6 -19 -19 -19l-408 -105c-1 0 -2 -1 -4 -1c-10 0 -19 9 -19 19c0 9 6 16 14 18l251 65l140 23l-140 23z" fill="currentColor"/>
</a>
<a style="color:inherit;" xlink:href="textedit://C:/Users/jwloy/OneDrive/Documents/GitHub/wygioatynlib/notation/pulseTrack_tb_60_ps1.ly:17:51:52">
<path transform="translate(81.4392, 7.3826) scale(0.0040, -0.0040)" d="M-50 0c0 28 22 50 50 50s50 -22 50 -50s-22 -50 -50 -50s-50 22 -50 50z" fill="currentColor"/>
</a>
<a style="color:inherit;" xlink:href="textedit://C:/Users/jwloy/OneDrive/Documents/GitHub/wygioatynlib/notation/pulseTrack_tb_60_ps1.ly:17:49:50">
<path transform="translate(80.7811, 8.3826) scale(0.0040, -0.0040)" d="M220 138c56 0 109 -29 109 -91c0 -72 -56 -121 -103 -149c-36 -21 -76 -36 -117 -36c-56 0 -109 29 -109 91c0 72 56 121 103 149c36 21 76 36 117 36z" fill="currentColor"/>
</a>
<rect transform="translate(77.9508, 9.8826)" x="-0.0650" y="-1.3122" width="0.1300" height="3.1222" ry="0.0400" fill="currentColor"/>
<a style="color:inherit;" xlink:href="textedit://C:/Users/jwloy/OneDrive/Documents/GitHub/wygioatynlib/notation/pulseTrack_tb_60_ps1.ly:17:40:41">
<path transform="translate(76.4008, 7.3826) scale(0.0040, -0.0040)" d="M-50 0c0 28 22 50 50 50s50 -22 50 -50s-22 -50 -50 -50s-50 22 -50 50z" fill="currentColor"/>
</a>
<a style="color:inherit;" xlink:href="textedit://C:/Users/jwloy/OneDrive/Documents/GitHub/wygioatynlib/notation/pulseTrack_tb_60_ps1.ly:17:46:47">
<path transform="translate(78.5439, 7.3826) scale(0.0040, -0.0040)" d="M-50 0c0 28 22 50 50 50s50 -22 50 -50s-22 -50 -50 -50s-50 22 -50 50z" fill="currentColor"/>
</a>
<a style="color:inherit;" xlink:href="textedit://C:/Users/jwloy/OneDrive/Documents/GitHub/wygioatynlib/notation/pulseTrack_tb_60_ps1.ly:17:44:45">
<path transform="translate(77.8858, 8.3826) scale(0.0040, -0.0040)" d="M220 138c56 0 109 -29 109 -91c0 -72 -56 -121 -103 -149c-36 -21 -76 -36 -117 -36c-56 0 -109 29 -109 91c0 72 56 121 103 149c36 21 76 36 117 36z" fill="currentColor"/>
</a>
<rect transform="translate(75.8077, 9.8826)" x="-0.0650" y="-1.3122" width="0.1300" height="3.1222" ry="0.0400" fill="currentColor"/>
<rect transform="translate(92.4493, 9.8826)" x="-0.0650" y="-1.3122" width="0.1300" height="3.1222" ry="0.0400" fill="currentColor"/>
<path transform="translate(88.7796, 11.8971) scale(0.0040, -0.0040)" d="M204 307c22 14 44 29 60 50c11 15 19 33 27 50c2 4 5 6 9 6c6 0 13 -5 13 -14v-245h72c10 0 15 -7 15 -14s-5 -15 -15 -15h-72v-8c0 -48 27 -94 72 -94c8 0 12 -5 12 -11s-4 -12 -12 -12c-44 0 -87 13 -131 13s-87 -13 -131 -13c-8 0 -12 6 -12 12s4 11 12 11
c45 0 73 46 73 94v8h-167c-23 0 -31 14 -31 23c0 3 1 5 2 6c80 93 138 207 138 330c0 9 6 16 13 16h3c23 -7 47 -13 71 -13s48 6 71 13c2 1 3 1 5 1c11 0 18 -10 12 -17l-284 -330h167v131c0 8 1 17 8 22z" fill="currentColor"/>
<path transform="translate(88.9161, 9.8826) scale(0.0040, -0.0040)" d="M150 477c-29 0 -59 -8 -59 -33c0 -22 36 -25 36 -47c0 -32 -26 -58 -58 -58s-57 26 -57 58c0 65 67 103 138 103c91 0 169 -33 169 -114c0 -43 -4 -82 -42 -100c-9 -4 -14 -12 -14 -21s5 -18 14 -22c41 -19 56 -57 56 -103c0 -92 -79 -140 -179 -140
c-79 0 -154 42 -154 113c0 36 30 66 66 66s65 -30 65 -66c0 -25 -40 -28 -40 -53c0 -27 32 -37 63 -37c49 0 63 61 63 117v16c0 54 -2 94 -50 94h-80c-10 0 -14 8 -14 15s4 14 14 14h80c49 0 50 43 50 99v8c0 54 -18 91 -67 91z" fill="currentColor"/>
<a style="color:inherit;" xlink:href="textedit://C:/Users/jwloy/OneDrive/Documents/GitHub/wygioatynlib/notation/pulseTrack_tb_60_ps1.ly:19:9:10">
<path transform="translate(93.0424, 6.4866) scale(0.0040, -0.0040)" d="M-211 88c-8 2 -14 9 -14 18c0 10 9 19 19 19c2 0 3 -1 4 -1l408 -105c13 0 19 -6 19 -19s-6 -19 -19 -19l-408 -105c-1 0 -2 -1 -4 -1c-10 0 -19 9 -19 19c0 9 6 16 14 18l251 65l140 23l-140 23z" fill="currentColor"/>
</a>
<a style="color:inherit;" xlink:href="textedit://C:/Users/jwloy/OneDrive/Documents/GitHub/wygioatynlib/notation/pulseTrack_tb_60_ps1.ly:19:7:8">
<path transform="translate(93.0424, 7.3826) scale(0.0040, -0.0040)" d="M-50 0c0 28 22 50 50 50s50 -22 50 -50s-22 -50 -50 -50s-50 22 -50 50z" fill="currentColor"/>
</a>
<a style="color:inherit;" xlink:href="textedit://C:/Users/jwloy/OneDrive/Documents/GitHub/wygioatynlib/notation/pulseTrack_tb_60_ps1.ly:19:5:6">
<path transform="translate(92.3843, 8.3826) scale(0.0040, -0.0040)" d="M220 138c56 0 109 -29 109 -91c0 -72 -56 -121 -103 -149c-36 -21 -76 -36 -117 -36c-56 0 -109 29 -109 91c0 72 56 121 103 149c36 21 76 36 117 36z" fill="currentColor"/>
</a>
<rect transform="translate(84.4936, 9.8826)" x="-0.0650" y="-1.3122" width="0.1300" height="3.3122" ry="0.0400" fill="currentColor"/>
<a style="color:inherit;" xlink:href="textedit://C:/Users/jwloy/OneDrive/Documents/GitHub/wygioatynlib/notation/pulseTrack_tb_60_ps1.ly:17:59:60">
<path transform="translate(85.0867, 6.4866) scale(0.0040, -0.0040)" d="M-211 88c-8 2 -14 9 -14 18c0 10 9 19 19 19c2 0 3 -1 4 -1l408 -105c13 0 19 -6 19 -19s-6 -19 -19 -19l-408 -105c-1 0 -2 -1 -4 -1c-10 0 -19 9 -19 19c0 9 6 16 14 18l251 65l140 23l-140 23z" fill="currentColor"/>
</a>
<a style="color:inherit;" xlink:href="textedit://C:/Users/jwloy/OneDrive/Documents/GitHub/wygioatynlib/notation/pulseTrack_tb_60_ps1.ly:17:57:58">
<path transform="translate(85.0867, 7.3826) scale(0.0040, -0.0040)" d="M-50 0c0 28 22 50 50 50s50 -22 50 -50s-22 -50 -50 -50s-50 22 -50 50z" fill="currentColor"/>
</a>
<a style="color:inherit;" xlink:href="textedit://C:/Users/jwloy/OneDrive/Documents/GitHub/wygioatynlib/notation/pulseTrack_tb_60_ps1.ly:17:56:57">
<path transform="translate(84.4286, 8.3826) scale(0.0040, -0.0040)" d="M220 138c56 0 109 -29 109 -91c0 -72 -56 -121 -103 -149c-36 -21 -76 -36 -117 -36c-56 0 -109 29 -109 91c0 72 56 121 103 149c36 21 76 36 117 36z" fill="currentColor"/>
</a>
<rect transform="translate(69.3786, 9.8826)" x="-0.0650" y="-1.3122" width="0.1300" height="3.1222" ry="0.0400" fill="currentColor"/>
<a style="color:inherit;" xlink:href="textedit://C:/Users/jwloy/OneDrive/Documents/GitHub/wygioatynlib/notation/pulseTrack_tb_60_ps1.ly:17:23:24">
<path transform="translate(69.9717, 7.3826) scale(0.0040, -0.0040)" d="M-50 0c0 28 22 50 50 50s50 -22 50 -50s-22 -50 -50 -50s-50 22 -50 50z" fill="currentColor"/>
</a>
<a style="color:inherit;" xlink:href="textedit://C:/Users/jwloy/OneDrive/Documents/GitHub/wygioatynlib/notation/pulseTrack_tb_60_ps1.ly:17:20:21">
<path transform="translate(69.3136, 8.3826) scale(0.0040, -0.0040)" d="M220 138c56 0 109 -29 109 -91c0 -72 -56 -121 -103 -149c-36 -21 -76 -36 -117 -36c-56 0 -109 29 -109 91c0 72 56 121 103 149c36 21 76 36 117 36z" fill="currentColor"/>
</a>
<rect transform="translate(66.4833, 9.8826)" x="-0.0650" y="-1.3122" width="0.1300" height="3.1222" ry="0.0400" fill="currentColor"/>
<a style="color:inherit;" xlink:href="textedit://C:/Users/jwloy/OneDrive/Documents/GitHub/wygioatynlib/notation/pulseTrack_tb_60_ps1.ly:17:17:18">
<path transform="translate(67.0764, 6.4866) scale(0.0040, -0.0040)" d="M-211 88c-8 2 -14 9 -14 18c0 10 9 19 19 19c2 0 3 -1 4 -1l408 -105c13 0 19 -6 19 -19s-6 -19 -19 -19l-408 -105c-1 0 -2 -1 -4 -1c-10 0 -19 9 -19 19c0 9 6 16 14 18l251 65l140 23l-140 23z" fill="currentColor"/>
</a>
<a style="color:inherit;" xlink:href="textedit://C:/Users/jwloy/OneDrive/Documents/GitHub/wygioatynlib/notation/pulseTrack_tb_60_ps1.ly:17:15:16">
<path transform="translate(67.0764, 7.3826) scale(0.0040, -0.0040)" d="M-50 0c0 28 22 50 50 50s50 -22 50 -50s-22 -50 -50 -50s-50 22 -50 50z" fill="currentColor"/>
</a>
<a style="color:inherit;" xlink:href="textedit://C:/Users/jwloy/OneDrive/Documents/GitHub/wygioatynlib/notation/pulseTrack_tb_60_ps1.ly:17:13:14">
<path transform="translate(66.4183, 8.3826) scale(0.0040, -0.0040)" d="M220 138c56 0 109 -29 109 -91c0 -72 -56 -121 -103 -149c-36 -21 -76 -36 -117 -36c-56 0 -109 29 -109 91c0 72 56 121 103 149c36 21 76 36 117 36z" fill="currentColor"/>
</a>
<a style="color:inherit;" xlink:href="textedit://C:/Users/jwloy/OneDrive/Documents/GitHub/wygioatynlib/notation/pulseTrack_tb_60_ps1.ly:17:39:40">
<path transform="translate(75.7427, 8.3826) scale(0.0040, -0.0040)" d="M220 138c56 0 109 -29 109 -91c0 -72 -56 -121 -103 -149c-36 -21 -76 -36 -117 -36c-56 0 -109 29 -109 91c0 72 56 121 103 149c36 21 76 36 117 36z" fill="currentColor"/>
</a>
<rect transform="translate(73.6647, 9.8826)" x="-0.0650" y="-1.3122" width="0.1300" height="3.1222" ry="0.0400" fill="currentColor"/>
<a style="color:inherit;" xlink:href="textedit://C:/Users/jwloy/OneDrive/Documents/GitHub/wygioatynlib/notation/pulseTrack_tb_60_ps1.ly:17:36:37">
<path transform="translate(74.2578, 6.4866) scale(0.0040, -0.0040)" d="M-211 88c-8 2 -14 9 -14 18c0 10 9 19 19 19c2 0 3 -1 4 -1l408 -105c13 0 19 -6 19 -19s-6 -19 -19 -19l-408 -105c-1 0 -2 -1 -4 -1c-10 0 -19 9 -19 19c0 9 6 16 14 18l251 65l140 23l-140 23z" fill="currentColor"/>
</a>
<a style="color:inherit;" xlink:href="textedit://C:/Users/jwloy/OneDrive/Documents/GitHub/wygioatynlib/notation/pulseTrack_tb_60_ps1.ly:17:34:35">
<path transform="translate(74.2578, 7.3826) scale(0.0040, -0.0040)" d="M-50 0c0 28 22 50 50 50s50 -22 50 -50s-22 -50 -50 -50s-50 22 -50 50z" fill="currentColor"/>
</a>
<a style="color:inherit;" xlink:href="textedit://C:/Users/jwloy/OneDrive/Documents/GitHub/wygioatynlib/notation/pulseTrack_tb_60_ps1.ly:17:33:34">
<path transform="translate(73.5997, 8.3826) scale(0.0040, -0.0040)" d="M220 138c56 0 109 -29 109 -91c0 -72 -56 -121 -103 -149c-36 -21 -76 -36 -117 -36c-56 0 -109 29 -109 91c0 72 56 121 103 149c36 21 76 36 117 36z" fill="currentColor"/>
</a>
<rect transform="translate(71.5216, 9.8826)" x="-0.0650" y="-1.3122" width="0.1300" height="3.1222" ry="0.0400" fill="currentColor"/>
<a style="color:inherit;" xlink:href="textedit://C:/Users/jwloy/OneDrive/Documents/GitHub/wygioatynlib/notation/pulseTrack_tb_60_ps1.ly:17:30:31">
<path transform="translate(72.1147, 7.3826) scale(0.0040, -0.0040)" d="M-50 0c0 28 22 50 50 50s50 -22 50 -50s-22 -50 -50 -50s-50 22 -50 50z" fill="currentColor"/>
</a>
<a style="color:inherit;" xlink:href="textedit://C:/Users/jwloy/OneDrive/Documents/GitHub/wygioatynlib/notation/pulseTrack_tb_60_ps1.ly:17:27:28">
<path transform="translate(71.4566, 8.3826) scale(0.0040, -0.0040)" d="M220 138c56 0 109 -29 109 -91c0 -72 -56 -121 -103 -149c-36 -21 -76 -36 -117 -36c-56 0 -109 29 -109 91c0 72 56 121 103 149c36 21 76 36 117 36z" fill="currentColor"/>
</a>
<rect transform="translate(108.2029, 9.8826)" x="-0.0650" y="-1.3122" width="0.1300" height="3.1222" ry="0.0400" fill="currentColor"/>
<a style="color:inherit;" xlink:href="textedit://C:/Users/jwloy/OneDrive/Documents/GitHub/wygioatynlib/notation/pulseTrack_tb_60_ps1.ly:20:9:10">
<path transform="translate(108.7960, 6.4866) scale(0.0040, -0.0040)" d="M-211 88c-8 2 -14 9 -14 18c0 10 9 19 19 19c2 0 3 -1 4 -1l408 -105c13 0 19 -6 19 -19s-6 -19 -19 -19l-408 -105c-1 0 -2 -1 -4 -1c-10 0 -19 9 -19 19c0 9 6 16 14 18l251 65l140 23l-140 23z" fill="currentColor"/>
</a>
<a style="color:inherit;" xlink:href="textedit://C:/Users/jwloy/OneDrive/Documents/GitHub/wygioatynlib/notation/pulseTrack_tb_60_ps1.ly:20:7:8">
<path transform="translate(108.7960, 7.3826) scale(0.0040, -0.0040)" d="M-50 0c0 28 22 50 50 50s50 -22 50 -50s-22 -50 -50 -50s-50 22 -50 50z" fill="currentColor"/>
</a>
<a style="color:inherit;" xlink:href="textedit://C:/Users/jwloy/OneDrive/Documents/GitHub/wygioatynlib/notation/pulseTrack_tb_60_ps1.ly:20:5:6">
<path transform="translate(108.1379, 8.3826) scale(0.0040, -0.0040)" d="M220 138c56 0 109 -29 109 -91c0 -72 -56 -121 -103 -149c-36 -21 -76 -36 -117 -36c-56 0 -109 29 -109 91c0 72 56 121 103 149c36 21 76 36 117 36z" fill="currentColor"/>
</a>
<rect transform="translate(106.0599, 9.8826)" x="-0.0650" y="-1.3122" width="0.1300" height="3.1222" ry="0.0400" fill="currentColor"/>
<a style="color:inherit;" xlink:href="textedit://C:/Users/jwloy/OneDrive/Documents/GitHub/wygioatynlib/notation/pulseTrack_tb_60_ps1.ly:19:41:42">
<path transform="translate(106.6529, 7.3826) scale(0.0040, -0.0040)" d="M-50 0c0 28 22 50 50 50s50 -22 50 -50s-22 -50 -50 -50s-50 22 -50 50z" fill="currentColor"/>
</a>
<a style="color:inherit;" xlink:href="textedit://C:/Users/jwloy/OneDrive/Documents/GitHub/wygioatynlib/notation/pulseTrack_tb_60_ps1.ly:19:40:41">
<path transform="translate(105.9949, 8.3826) scale(0.0040, -0.0040)" d="M220 138c56 0 109 -29 109 -91c0 -72 -56 -121 -103 -149c-36 -21 -76 -36 -117 -36c-56 0 -109 29 -109 91c0 72 56 121 103 149c36 21 76 36 117 36z" fill="currentColor"/>
</a>
<rect transform="translate(103.9168, 9.8826)" x="-0.0650" y="-1.3122" width="0.1300" height="3.1222" ry="0.0400" fill="currentColor"/>
<a style="color:inherit;" xlink:href="textedit://C:/Users/jwloy/OneDrive/Documents/GitHub/wygioatynlib/notation/pulseTrack_tb_60_ps1.ly:19:37:38">
<path transform="translate(104.5099, 7.3826) scale(0.0040, -0.0040)" d="M-50 0c0 28 22 50 50 50s50 -22 50 -50s-22 -50 -50 -50s-50 22 -50 50z" fill="currentColor"/>
</a>
<a style="color:inherit;" xlink:href="textedit://C:/Users/jwloy/OneDrive/Documents/GitHub/wygioatynlib/notation/pulseTrack_tb_60_ps1.ly:19:36:37">
<path transform="translate(103.8518, 8.3826) scale(0.0040, -0.0040)" d="M220 138c56 0 109 -29 109 -91c0 -72 -56 -121 -103 -149c-36 -21 -76 -36 -117 -36c-56 0 -109 29 -109 91c0 72 56 121 103 149c36 21 76 36 117 36z" fill="currentColor"/>
</a>
<polygon transform="translate(30.2215, 11.6926)" stroke-linejoin="round" stroke-linecap="round" stroke-width="0.0800" fill="currentColor" stroke="currentColor" points="2.9853 -0.2000 2.9853 0.2000 0.0400 0.2000 0.0400 -0.2000"/>
<polygon transform="translate(43.3384, 10.8826)" stroke-linejoin="round" stroke-linecap="round" stroke-width="0.0800" fill="currentColor" stroke="currentColor" points="2.2331 -0.2000 2.2331 0.2000 0.0400 0.2000 0.0400 -0.2000"/>
<polygon transform="translate(40.4431, 11.6926)" stroke-linejoin="round" stroke-linecap="round" stroke-width="0.0800" fill="currentColor" stroke="currentColor" points="5.1283 -0.2000 5.1283 0.2000 0.0400 0.2000 0.0400 -0.2000"/>
<polygon transform="translate(47.6245, 11.6926)" stroke-linejoin="round" stroke-linecap="round" stroke-width="0.0800" fill="currentColor" stroke="currentColor" points="2.9853 -0.2000 2.9853 0.2000 0.0400 0.2000 0.0400 -0.2000"/>
<polygon transform="translate(53.4151, 10.8826)" stroke-linejoin="round" stroke-linecap="round" stroke-width="0.0800" fill="currentColor" stroke="currentColor" points="6.5192 -0.2000 6.5192 0.2000 0.0400 0.2000 0.0400 -0.2000"/>
<polygon transform="translate(53.4151, 11.6926)" stroke-linejoin="round" stroke-linecap="round" stroke-width="0.0800" fill="currentColor" stroke="currentColor" points="6.5192 -0.2000 6.5192 0.2000 0.0400 0.2000 0.0400 -0.2000"/>
<polygon transform="translate(69.3136, 10.8826)" stroke-linejoin="round" stroke-linecap="round" stroke-width="0.0800" fill="currentColor" stroke="currentColor" points="2.2331 -0.2000 2.2331 0.2000 0.0400 0.2000 0.0400 -0.2000"/>
<polygon transform="translate(66.4183, 11.6926)" stroke-linejoin="round" stroke-linecap="round" stroke-width="0.0800" fill="currentColor" stroke="currentColor" points="5.1283 -0.2000 5.1283 0.2000 0.0400 0.2000 0.0400 -0.2000"/>
<polygon transform="translate(73.5997, 10.8826)" stroke-linejoin="round" stroke-linecap="round" stroke-width="0.0800" fill="currentColor" stroke="currentColor" points="2.2331 -0.2000 2.2331 0.2000 0.0400 0.2000 0.0400 -0.2000"/>
<polygon transform="translate(73.5997, 11.6926)" stroke-linejoin="round" stroke-linecap="round" stroke-width="0.0800" fill="currentColor" stroke="currentColor" points="4.3761 -0.2000 4.3761 0.2000 0.0400 0.2000 0.0400 -0.2000"/>
<polygon transform="translate(95.2796, 10.8826)" stroke-linejoin="round" stroke-linecap="round" stroke-width="0.0800" fill="currentColor" stroke="currentColor" points="2.2331 -0.2000 2.2331 0.2000 0.0400 0.2000 0.0400 -0.2000"/>
<polygon transform="translate(92.3843, 11.6926)" stroke-linejoin="round" stroke-linecap="round" stroke-width="0.0800" fill="currentColor" stroke="currentColor" points="5.1283 -0.2000 5.1283 0.2000 0.0400 0.2000 0.0400 -0.2000"/>
<polygon transform="translate(99.5657, 10.8826)" stroke-linejoin="round" stroke-linecap="round" stroke-width="0.0800" fill="currentColor" stroke="currentColor" points="6.5192 -0.2000 6.5192 0.2000 0.0400 0.2000 0.0400 -0.2000"/>
<polygon transform="translate(99.5657, 11.6926)" stroke-linejoin="round" stroke-linecap="round" stroke-width="0.0800" fill="currentColor" stroke="currentColor" points="6.5192 -0.2000 6.5192 0.2000 0.0400 0.2000 0.0400 -0.2000"/>
<polygon transform="translate(108.1379, 11.6926)" stroke-linejoin="round" stroke-linecap="round" stroke-width="0.0800" fill="currentColor" stroke="currentColor" points="2.9853 -0.2000 2.9853 0.2000 0.0400 0.2000 0.0400 -0.2000"/>
<rect transform="translate(111.0982, 9.8826)" x="-0.0650" y="-1.3122" width="0.1300" height="3.1222" ry="0.0400" fill="currentColor"/>
<a style="color:inherit;" xlink:href="textedit://C:/Users/jwloy/OneDrive/Documents/GitHub/wygioatynlib/notation/pulseTrack_tb_60_ps1.ly:20:13:14">
<path transform="translate(111.6913, 7.3826) scale(0.0040, -0.0040)" d="M-50 0c0 28 22 50 50 50s50 -22 50 -50s-22 -50 -50 -50s-50 22 -50 50z" fill="currentColor"/>
</a>
<a style="color:inherit;" xlink:href="textedit://C:/Users/jwloy/OneDrive/Documents/GitHub/wygioatynlib/notation/pulseTrack_tb_60_ps1.ly:20:12:13">
<path transform="translate(111.0332, 8.3826) scale(0.0040, -0.0040)" d="M220 138c56 0 109 -29 109 -91c0 -72 -56 -121 -103 -149c-36 -21 -76 -36 -117 -36c-56 0 -109 29 -109 91c0 72 56 121 103 149c36 21 76 36 117 36z" fill="currentColor"/>
</a>
<a style="color:inherit;" xlink:href="textedit://C:/Users/jwloy/OneDrive/Documents/GitHub/wygioatynlib/notation/pulseTrack_tb_60_ps1.ly:19:19:20">
<path transform="translate(98.0807, 7.3826) scale(0.0040, -0.0040)" d="M-50 0c0 28 22 50 50 50s50 -22 50 -50s-22 -50 -50 -50s-50 22 -50 50z" fill="currentColor"/>
</a>
<a style="color:inherit;" xlink:href="textedit://C:/Users/jwloy/OneDrive/Documents/GitHub/wygioatynlib/notation/pulseTrack_tb_60_ps1.ly:19:18:19">
<path transform="translate(97.4227, 8.3826) scale(0.0040, -0.0040)" d="M220 138c56 0 109 -29 109 -91c0 -72 -56 -121 -103 -149c-36 -21 -76 -36 -117 -36c-56 0 -109 29 -109 91c0 72 56 121 103 149c36 21 76 36 117 36z" fill="currentColor"/>
</a>
<rect transform="translate(95.3446, 9.8826)" x="-0.0650" y="-1.3122" width="0.1300" height="3.1222" ry="0.0400" fill="currentColor"/>
<a style="color:inherit;" xlink:href="textedit://C:/Users/jwloy/OneDrive/Documents/GitHub/wygioatynlib/notation/pulseTrack_tb_60_ps1.ly:19:15:16">
<path transform="translate(95.9377, 7.3826) scale(0.0040, -0.0040)" d="M-50 0c0 28 22 50 50 50s50 -22 50 -50s-22 -50 -50 -50s-50 22 -50 50z" fill="currentColor"/>
</a>
<a style="color:inherit;" xlink:href="textedit://C:/Users/jwloy/OneDrive/Documents/GitHub/wygioatynlib/notation/pulseTrack_tb_60_ps1.ly:19:12:13">
<path transform="translate(95.2796, 8.3826) scale(0.0040, -0.0040)" d="M220 138c56 0 109 -29 109 -91c0 -72 -56 -121 -103 -149c-36 -21 -76 -36 -117 -36c-56 0 -109 29 -109 91c0 72 56 121 103 149c36 21 76 36 117 36z" fill="currentColor"/>
</a>
<rect transform="translate(101.7738, 9.8826)" x="-0.0650" y="-1.3122" width="0.1300" height="3.1222" ry="0.0400" fill="currentColor"/>
<a style="color:inherit;" xlink:href="textedit://C:/Users/jwloy/OneDrive/Documents/GitHub/wygioatynlib/notation/pulseTrack_tb_60_ps1.ly:19:32:33">
<path transform="translate(102.3668, 7.3826) scale(0.0040, -0.0040)" d="M-50 0c0 28 22 50 50 50s50 -22 50 -50s-22 -50 -50 -50s-50 22 -50 50z" fill="currentColor"/>
</a>
<a style="color:inherit;" xlink:href="textedit://C:/Users/jwloy/OneDrive/Documents/GitHub/wygioatynlib/notation/pulseTrack_tb_60_ps1.ly:19:31:32">
<path transform="translate(101.7088, 8.3826) scale(0.0040, -0.0040)" d="M220 138c56 0 109 -29 109 -91c0 -72 -56 -121 -103 -149c-36 -21 -76 -36 -117 -36c-56 0 -109 29 -109 91c0 72 56 121 103 149c36 21 76 36 117 36z" fill="currentColor"/>
</a>
<rect transform="translate(99.6307, 9.8826)" x="-0.0650" y="-1.3122" width="0.1300" height="3.1222" ry="0.0400" fill="currentColor"/>
<a style="color:inherit;" xlink:href="textedit://C:/Users/jwloy/OneDrive/Documents/GitHub/wygioatynlib/notation/pulseTrack_tb_60_ps1.ly:19:28:29">
<path transform="translate(100.2238, 6.4866) scale(0.0040, -0.0040)" d="M-211 88c-8 2 -14 9 -14 18c0 10 9 19 19 19c2 0 3 -1 4 -1l408 -105c13 0 19 -6 19 -19s-6 -19 -19 -19l-408 -105c-1 0 -2 -1 -4 -1c-10 0 -19 9 -19 19c0 9 6 16 14 18l251 65l140 23l-140 23z" fill="currentColor"/>
</a>
<a style="color:inherit;" xlink:href="textedit://C:/Users/jwloy/OneDrive/Documents/GitHub/wygioatynlib/notation/pulseTrack_tb_60_ps1.ly:19:26:27">
<path transform="translate(100.2238, 7.3826) scale(0.0040, -0.0040)" d="M-50 0c0 28 22 50 50 50s50 -22 50 -50s-22 -50 -50 -50s-50 22 -50 50z" fill="currentColor"/>
</a>
<a style="color:inherit;" xlink:href="textedit://C:/Users/jwloy/OneDrive/Documents/GitHub/wygioatynlib/notation/pulseTrack_tb_60_ps1.ly:19:23:24">
<path transform="translate(99.5657, 8.3826) scale(0.0040, -0.0040)" d="M220 138c56 0 109 -29 109 -91c0 -72 -56 -121 -103 -149c-36 -21 -76 -36 -117 -36c-56 0 -109 29 -109 91c0 72 56 121 103 149c36 21 76 36 117 36z" fill="currentColor"/>
</a>
<rect transform="translate(97.4877, 9.8826)" x="-0.0650" y="-1.3122" width="0.1300" height="3.1222" ry="0.0400" fill="currentColor"/>
<rect transform="translate(40.5081, 9.8826)" x="-0.0650" y="-1.3122" width="0.1300" height="3.1222" ry="0.0400" fill="currentColor"/>
<a style="color:inherit;" xlink:href="textedit://C:/Users/jwloy/OneDrive/Documents/GitHub/wygioatynlib/notation/pulseTrack_tb_60_ps1.ly:16:9:10">
<path transform="translate(41.1012, 6.4866) scale(0.0040, -0.0040)" d="M-211 88c-8 2 -14 9 -14 18c0 10 9 19 19 19c2 0 3 -1 4 -1l408 -105c13 0 19 -6 19 -19s-6 -19 -19 -19l-408 -105c-1 0 -2 -1 -4 -1c-10 0 -19 9 -19 19c0 9 6 16 14 18l251 65l140 23l-140 23z" fill="currentColor"/>
</a>
<a style="color:inherit;" xlink:href="textedit://C:/Users/jwloy/OneDrive/Documents/GitHub/wygioatynlib/notation/pulseTrack_tb_60_ps1.ly:16:7:8">
<path transform="translate(41.1012, 7.3826) scale(0.0040, -0.0040)" d="M-50 0c0 28 22 50 50 50s50 -22 50 -50s-22 -50 -50 -50s-50 22 -50 50z" fill="currentColor"/>
</a>
<a style="color:inherit;" xlink:href="textedit://C:/Users/jwloy/OneDrive/Documents/GitHub/wygioatynlib/notation/pulseTrack_tb_60_ps1.ly:16:5:6">
<path transform="translate(40.4431, 8.3826) scale(0.0040, -0.0040)" d="M220 138c56 0 109 -29 109 -91c0 -72 -56 -121 -103 -149c-36 -21 -76 -36 -117 -36c-56 0 -109 29 -109 91c0 72 56 121 103 149c36 21 76 36 117 36z" fill="currentColor"/>
</a>
<rect transform="translate(36.0771, 9.8826)" x="-0.0650" y="-1.3122" width="0.1300" height="3.3122" ry="0.0400" fill="currentColor"/>
<a style="color:inherit;" xlink:href="textedit://C:/Users/jwloy/OneDrive/Documents/GitHub/wygioatynlib/notation/pulseTrack_tb_60_ps1.ly:15:28:29">
<path transform="translate(36.6701, 6.4866) scale(0.0040, -0.0040)" d="M-211 88c-8 2 -14 9 -14 18c0 10 9 19 19 19c2 0 3 -1 4 -1l408 -105c13 0 19 -6 19 -19s-6 -19 -19 -19l-408 -105c-1 0 -2 -1 -4 -1c-10 0 -19 9 -19 19c0 9 6 16 14 18l251 65l140 23l-140 23z" fill="currentColor"/>
</a>
<a style="color:inherit;" xlink:href="textedit://C:/Users/jwloy/OneDrive/Documents/GitHub/wygioatynlib/notation/pulseTrack_tb_60_ps1.ly:15:26:27">
<path transform="translate(36.6701, 7.3826) scale(0.0040, -0.0040)" d="M-50 0c0 28 22 50 50 50s50 -22 50 -50s-22 -50 -50 -50s-50 22 -50 50z" fill="currentColor"/>
</a>
<a style="color:inherit;" xlink:href="textedit://C:/Users/jwloy/OneDrive/Documents/GitHub/wygioatynlib/notation/pulseTrack_tb_60_ps1.ly:15:24:25">
<path transform="translate(36.0121, 8.3826) scale(0.0040, -0.0040)" d="M220 138c56 0 109 -29 109 -91c0 -72 -56 -121 -103 -149c-36 -21 -76 -36 -117 -36c-56 0 -109 29 -109 91c0 72 56 121 103 149c36 21 76 36 117 36z" fill="currentColor"/>
</a>
<rect transform="translate(33.1818, 9.8826)" x="-0.0650" y="-1.3122" width="0.1300" height="3.1222" ry="0.0400" fill="currentColor"/>
<a style="color:inherit;" xlink:href="textedit://C:/Users/jwloy/OneDrive/Documents/GitHub/wygioatynlib/notation/pulseTrack_tb_60_ps1.ly:15:20:21">
<path transform="translate(33.7748, 7.3826) scale(0.0040, -0.0040)" d="M-50 0c0 28 22 50 50 50s50 -22 50 -50s-22 -50 -50 -50s-50 22 -50 50z" fill="currentColor"/>
</a>
<rect transform="translate(43.4034, 9.8826)" x="-0.0650" y="-1.3122" width="0.1300" height="3.1222" ry="0.0400" fill="currentColor"/>
<a style="color:inherit;" xlink:href="textedit://C:/Users/jwloy/OneDrive/Documents/GitHub/wygioatynlib/notation/pulseTrack_tb_60_ps1.ly:16:15:16">
<path transform="translate(43.9965, 7.3826) scale(0.0040, -0.0040)" d="M-50 0c0 28 22 50 50 50s50 -22 50 -50s-22 -50 -50 -50s-50 22 -50 50z" fill="currentColor"/>
</a>
<a style="color:inherit;" xlink:href="textedit://C:/Users/jwloy/OneDrive/Documents/GitHub/wygioatynlib/notation/pulseTrack_tb_60_ps1.ly:16:12:13">
<path transform="translate(43.3384, 8.3826) scale(0.0040, -0.0040)" d="M220 138c56 0 109 -29 109 -91c0 -72 -56 -121 -103 -149c-36 -21 -76 -36 -117 -36c-56 0 -109 29 -109 91c0 72 56 121 103 149c36 21 76 36 117 36z" fill="currentColor"/>
</a>
<a style="color:inherit;" xlink:href="textedit://C:/Users/jwloy/OneDrive/Documents/GitHub/wygioatynlib/notation/pulseTrack_tb_60_ps1.ly:15:5:6">
<path transform="translate(26.5739, 8.3826) scale(0.0040, -0.0040)" d="M220 138c56 0 109 -29 109 -91c0 -72 -56 -121 -103 -149c-36 -21 -76 -36 -117 -36c-56 0 -109 29 -109 91c0 72 56 121 103 149c36 21 76 36 117 36z" fill="currentColor"/>
</a>
<rect transform="translate(22.9914, 9.8826)" x="-0.0650" y="-1.3122" width="0.1300" height="3.3122" ry="0.0400" fill="currentColor"/>
<a style="color:inherit;" xlink:href="textedit://C:/Users/jwloy/OneDrive/Documents/GitHub/wygioatynlib/notation/pulseTrack_tb_60_ps1.ly:8:6:7">
<rect transform="translate(19.2264, 6.5373)" x="1.0563" y="-2.6727" width="0.1158" height="2.5113" ry="0.0193" fill="currentColor"/>
<path transform="translate(19.2264, 6.5373) scale(0.0036, -0.0036)" d="M217 139c57 0 112 -31 112 -94c0 -72 -55 -121 -102 -149c-35 -21 -74 -35 -115 -35c-57 0 -112 31 -112 94c0 72 55 121 102 149c35 21 74 35 115 35z" fill="currentColor"/>
<text transform="translate(20.3985, 7.0309)" font-family="Century Schoolbook L" font-size="2.2001" text-anchor="start" fill="currentColor">
<tspan>
 = 60</tspan>
</text>
</a>
<path transform="translate(19.2264, 9.8826) scale(0.0040, -0.0040)" d="M359 27c-49 0 -75 42 -75 75c0 38 27 77 72 77c4 0 9 0 14 -1c-28 37 -72 59 -120 59c-106 0 -113 -73 -113 -186v-51v-51c0 -113 7 -187 113 -187c80 0 139 70 158 151c2 7 7 10 12 10c6 0 13 -4 13 -12c0 -94 -105 -174 -183 -174c-68 0 -137 21 -184 70
c-49 51 -66 122 -66 193s17 142 66 193c47 49 116 69 184 69c87 0 160 -64 175 -150c1 -5 1 -9 1 -13c0 -40 -30 -72 -67 -72z" fill="currentColor"/>
<path transform="translate(15.0264, 8.8826) scale(0.0040, -0.0040)" d="M557 -125c0 28 23 51 51 51s51 -23 51 -51s-23 -51 -51 -51s-51 23 -51 51zM557 125c0 28 23 51 51 51s51 -23 51 -51s-23 -51 -51 -51s-51 23 -51 51zM232 263c172 0 293 -88 293 -251c0 -263 -263 -414 -516 -521c-3 -3 -6 -4 -9 -4c-7 0 -13 6 -13 13c0 3 1 6 4 9
c202 118 412 265 412 493c0 120 -63 235 -171 235c-74 0 -129 -54 -154 -126c11 5 22 8 34 8c55 0 100 -45 100 -100c0 -58 -44 -106 -100 -106c-60 0 -112 47 -112 106c0 133 102 244 232 244z" fill="currentColor"/>
<a style="color:inherit;" xlink:href="textedit://C:/Users/jwloy/OneDrive/Documents/GitHub/wygioatynlib/notation/pulseTrack_tb_60_ps1.ly:13:7:8">
<g transform="translate(20.4262, 14.4446)" >
<path transform="scale(0.0040, -0.0040)" d="M253 245l-50 -163c-30 -99 -121 -255 -218 -255c-45 0 -87 27 -87 69c0 39 17 77 52 77c24 0 44 -20 44 -44c0 -30 -38 -24 -38 -54c0 -10 11 -11 23 -11h6c48 0 61 58 73 108l68 273h-49c-11 0 -19 8 -19 19s8 19 19 19h60c32 96 118 191 213 191c45 0 87 -27 87 -69
c0 -39 -17 -77 -52 -77c-24 0 -44 19 -44 43c0 30 38 25 38 55c0 10 -10 11 -22 11h-7c-62 0 -70 -88 -86 -154h55c11 0 19 -8 19 -19s-8 -19 -19 -19h-66z" fill="currentColor"/>

<path transform="translate(1.2633, 0.0000) scale(0.0040, -0.0040)" d="M253 245l-50 -163c-30 -99 -121 -255 -218 -255c-45 0 -87 27 -87 69c0 39 17 77 52 77c24 0 44 -20 44 -44c0 -30 -38 -24 -38 -54c0 -10 11 -11 23 -11h6c48 0 61 58 73 108l68 273h-49c-11 0 -19 8 -19 19s8 19 19 19h60c32 96 118 191 213 191c45 0 87 -27 87 -69
c0 -39 -17 -77 -52 -77c-24 0 -44 19 -44 43c0 30 38 25 38 55c0 10 -10 11 -22 11h-7c-62 0 -70 -88 -86 -154h55c11 0 19 -8 19 -19s-8 -19 -19 -19h-66z" fill="currentColor"/>

<path transform="translate(2.5266, 0.0000) scale(0.0040, -0.0040)" d="M253 245l-50 -163c-30 -99 -121 -255 -218 -255c-45 0 -87 27 -87 69c0 39 17 77 52 77c24 0 44 -20 44 -44c0 -30 -38 -24 -38 -54c0 -10 11 -11 23 -11h6c48 0 61 58 73 108l68 273h-49c-11 0 -19 8 -19 19s8 19 19 19h60c32 96 118 191 213 191c45 0 87 -27 87 -69
c0 -39 -17 -77 -52 -77c-24 0 -44 19 -44 43c0 30 38 25 38 55c0 10 -10 11 -22 11h-7c-62 0 -70 -88 -86 -154h55c11 0 19 -8 19 -19s-8 -19 -19 -19h-66z" fill="currentColor"/>

<path transform="translate(3.7899, 0.0000) scale(0.0040, -0.0040)" d="M253 245l-50 -163c-30 -99 -121 -255 -218 -255c-45 0 -87 27 -87 69c0 39 17 77 52 77c24 0 44 -20 44 -44c0 -30 -38 -24 -38 -54c0 -10 11 -11 23 -11h6c48 0 61 58 73 108l68 273h-49c-11 0 -19 8 -19 19s8 19 19 19h60c32 96 118 191 213 191c45 0 87 -27 87 -69
c0 -39 -17 -77 -52 -77c-24 0 -44 19 -44 43c0 30 38 25 38 55c0 10 -10 11 -22 11h-7c-62 0 -70 -88 -86 -154h55c11 0 19 -8 19 -19s-8 -19 -19 -19h-66z" fill="currentColor"/>

<path transform="translate(5.0532, 0.0000) scale(0.0040, -0.0040)" d="M253 245l-50 -163c-30 -99 -121 -255 -218 -255c-45 0 -87 27 -87 69c0 39 17 77 52 77c24 0 44 -20 44 -44c0 -30 -38 -24 -38 -54c0 -10 11 -11 23 -11h6c48 0 61 58 73 108l68 273h-49c-11 0 -19 8 -19 19s8 19 19 19h60c32 96 118 191 213 191c45 0 87 -27 87 -69
c0 -39 -17 -77 -52 -77c-24 0 -44 19 -44 43c0 30 38 25 38 55c0 10 -10 11 -22 11h-7c-62 0 -70 -88 -86 -154h55c11 0 19 -8 19 -19s-8 -19 -19 -19h-66z" fill="currentColor"/>
</g>
</a>
<a style="color:inherit;" xlink:href="textedit://C:/Users/jwloy/OneDrive/Documents/GitHub/wygioatynlib/notation/pulseTrack_tb_60_ps1.ly:13:5:6">
<path transform="translate(22.9264, 8.3826) scale(0.0040, -0.0040)" d="M220 138c56 0 109 -29 109 -91c0 -72 -56 -121 -103 -149c-36 -21 -76 -36 -117 -36c-56 0 -109 29 -109 91c0 72 56 121 103 149c36 21 76 36 117 36z" fill="currentColor"/>
</a>
<a style="color:inherit;" xlink:href="textedit://C:/Users/jwloy/OneDrive/Documents/GitHub/wygioatynlib/notation/pulseTrack_tb_60_ps1.ly:15:19:20">
<path transform="translate(33.1168, 8.3826) scale(0.0040, -0.0040)" d="M220 138c56 0 109 -29 109 -91c0 -72 -56 -121 -103 -149c-36 -21 -76 -36 -117 -36c-56 0 -109 29 -109 91c0 72 56 121 103 149c36 21 76 36 117 36z" fill="currentColor"/>
</a>
<rect transform="translate(30.2865, 9.8826)" x="-0.0650" y="-1.3122" width="0.1300" height="3.1222" ry="0.0400" fill="currentColor"/>
<a style="color:inherit;" xlink:href="textedit://C:/Users/jwloy/OneDrive/Documents/GitHub/wygioatynlib/notation/pulseTrack_tb_60_ps1.ly:15:16:17">
<path transform="translate(30.8796, 6.4866) scale(0.0040, -0.0040)" d="M-211 88c-8 2 -14 9 -14 18c0 10 9 19 19 19c2 0 3 -1 4 -1l408 -105c13 0 19 -6 19 -19s-6 -19 -19 -19l-408 -105c-1 0 -2 -1 -4 -1c-10 0 -19 9 -19 19c0 9 6 16 14 18l251 65l140 23l-140 23z" fill="currentColor"/>
</a>
<a style="color:inherit;" xlink:href="textedit://C:/Users/jwloy/OneDrive/Documents/GitHub/wygioatynlib/notation/pulseTrack_tb_60_ps1.ly:15:14:15">
<path transform="translate(30.8796, 7.3826) scale(0.0040, -0.0040)" d="M-50 0c0 28 22 50 50 50s50 -22 50 -50s-22 -50 -50 -50s-50 22 -50 50z" fill="currentColor"/>
</a>
<a style="color:inherit;" xlink:href="textedit://C:/Users/jwloy/OneDrive/Documents/GitHub/wygioatynlib/notation/pulseTrack_tb_60_ps1.ly:15:12:13">
<path transform="translate(30.2215, 8.3826) scale(0.0040, -0.0040)" d="M220 138c56 0 109 -29 109 -91c0 -72 -56 -121 -103 -149c-36 -21 -76 -36 -117 -36c-56 0 -109 29 -109 91c0 72 56 121 103 149c36 21 76 36 117 36z" fill="currentColor"/>
</a>
<rect transform="translate(26.6389, 9.8826)" x="-0.0650" y="-1.3122" width="0.1300" height="3.3122" ry="0.0400" fill="currentColor"/>
<a style="color:inherit;" xlink:href="textedit://C:/Users/jwloy/OneDrive/Documents/GitHub/wygioatynlib/notation/pulseTrack_tb_60_ps1.ly:15:8:9">
<path transform="translate(27.2320, 6.4866) scale(0.0040, -0.0040)" d="M-211 88c-8 2 -14 9 -14 18c0 10 9 19 19 19c2 0 3 -1 4 -1l408 -105c13 0 19 -6 19 -19s-6 -19 -19 -19l-408 -105c-1 0 -2 -1 -4 -1c-10 0 -19 9 -19 19c0 9 6 16 14 18l251 65l140 23l-140 23z" fill="currentColor"/>
</a>
<a style="color:inherit;" xlink:href="textedit://C:/Users/jwloy/OneDrive/Documents/GitHub/wygioatynlib/notation/pulseTrack_tb_60_ps1.ly:15:6:7">
<path transform="translate(27.2320, 7.3826) scale(0.0040, -0.0040)" d="M-50 0c0 28 22 50 50 50s50 -22 50 -50s-22 -50 -50 -50s-50 22 -50 50z" fill="currentColor"/>
</a>
<rect transform="translate(57.7662, 9.8826)" x="-0.0650" y="-1.3122" width="0.1300" height="3.1222" ry="0.0400" fill="currentColor"/>
<a style="color:inherit;" xlink:href="textedit://C:/Users/jwloy/OneDrive/Documents/GitHub/wygioatynlib/notation/pulseTrack_tb_60_ps1.ly:16:48:49">
<path transform="translate(58.3592, 7.3826) scale(0.0040, -0.0040)" d="M-50 0c0 28 22 50 50 50s50 -22 50 -50s-22 -50 -50 -50s-50 22 -50 50z" fill="currentColor"/>
</a>
<a style="color:inherit;" xlink:href="textedit://C:/Users/jwloy/OneDrive/Documents/GitHub/wygioatynlib/notation/pulseTrack_tb_60_ps1.ly:16:47:48">
<path transform="translate(57.7012, 8.3826) scale(0.0040, -0.0040)" d="M220 138c56 0 109 -29 109 -91c0 -72 -56 -121 -103 -149c-36 -21 -76 -36 -117 -36c-56 0 -109 29 -109 91c0 72 56 121 103 149c36 21 76 36 117 36z" fill="currentColor"/>
</a>
<rect transform="translate(55.6231, 9.8826)" x="-0.0650" y="-1.3122" width="0.1300" height="3.1222" ry="0.0400" fill="currentColor"/>
<a style="color:inherit;" xlink:href="textedit://C:/Users/jwloy/OneDrive/Documents/GitHub/wygioatynlib/notation/pulseTrack_tb_60_ps1.ly:16:43:44">
<path transform="translate(56.2162, 7.3826) scale(0.0040, -0.0040)" d="M-50 0c0 28 22 50 50 50s50 -22 50 -50s-22 -50 -50 -50s-50 22 -50 50z" fill="currentColor"/>
</a>
<a style="color:inherit;" xlink:href="textedit://C:/Users/jwloy/OneDrive/Documents/GitHub/wygioatynlib/notation/pulseTrack_tb_60_ps1.ly:16:42:43">
<path transform="translate(55.5581, 8.3826) scale(0.0040, -0.0040)" d="M220 138c56 0 109 -29 109 -91c0 -72 -56 -121 -103 -149c-36 -21 -76 -36 -117 -36c-56 0 -109 29 -109 91c0 72 56 121 103 149c36 21 76 36 117 36z" fill="currentColor"/>
</a>
<rect transform="translate(53.4801, 9.8826)" x="-0.0650" y="-1.3122" width="0.1300" height="3.1222" ry="0.0400" fill="currentColor"/>
<a style="color:inherit;" xlink:href="textedit://C:/Users/jwloy/OneDrive/Documents/GitHub/wygioatynlib/notation/pulseTrack_tb_60_ps1.ly:16:39:40">
<path transform="translate(54.0731, 6.4866) scale(0.0040, -0.0040)" d="M-211 88c-8 2 -14 9 -14 18c0 10 9 19 19 19c2 0 3 -1 4 -1l408 -105c13 0 19 -6 19 -19s-6 -19 -19 -19l-408 -105c-1 0 -2 -1 -4 -1c-10 0 -19 9 -19 19c0 9 6 16 14 18l251 65l140 23l-140 23z" fill="currentColor"/>
</a>
<a style="color:inherit;" xlink:href="textedit://C:/Users/jwloy/OneDrive/Documents/GitHub/wygioatynlib/notation/pulseTrack_tb_60_ps1.ly:16:37:38">
<path transform="translate(54.0731, 7.3826) scale(0.0040, -0.0040)" d="M-50 0c0 28 22 50 50 50s50 -22 50 -50s-22 -50 -50 -50s-50 22 -50 50z" fill="currentColor"/>
</a>
<a style="color:inherit;" xlink:href="textedit://C:/Users/jwloy/OneDrive/Documents/GitHub/wygioatynlib/notation/pulseTrack_tb_60_ps1.ly:16:34:35">
<path transform="translate(53.4151, 8.3826) scale(0.0040, -0.0040)" d="M220 138c56 0 109 -29 109 -91c0 -72 -56 -121 -103 -149c-36 -21 -76 -36 -117 -36c-56 0 -109 29 -109 91c0 72 56 121 103 149c36 21 76 36 117 36z" fill="currentColor"/>
</a>
<rect transform="translate(62.0523, 9.8826)" x="-0.0650" y="-1.3122" width="0.1300" height="3.3122" ry="0.0400" fill="currentColor"/>
<a style="color:inherit;" xlink:href="textedit://C:/Users/jwloy/OneDrive/Documents/GitHub/wygioatynlib/notation/pulseTrack_tb_60_ps1.ly:17:9:10">
<path transform="translate(62.6453, 6.4866) scale(0.0040, -0.0040)" d="M-211 88c-8 2 -14 9 -14 18c0 10 9 19 19 19c2 0 3 -1 4 -1l408 -105c13 0 19 -6 19 -19s-6 -19 -19 -19l-408 -105c-1 0 -2 -1 -4 -1c-10 0 -19 9 -19 19c0 9 6 16 14 18l251 65l140 23l-140 23z" fill="currentColor"/>
</a>
<a style="color:inherit;" xlink:href="textedit://C:/Users/jwloy/OneDrive/Documents/GitHub/wygioatynlib/notation/pulseTrack_tb_60_ps1.ly:17:7:8">
<path transform="translate(62.6453, 7.3826) scale(0.0040, -0.0040)" d="M-50 0c0 28 22 50 50 50s50 -22 50 -50s-22 -50 -50 -50s-50 22 -50 50z" fill="currentColor"/>
</a>
<a style="color:inherit;" xlink:href="textedit://C:/Users/jwloy/OneDrive/Documents/GitHub/wygioatynlib/notation/pulseTrack_tb_60_ps1.ly:17:5:6">
<path transform="translate(61.9873, 8.3826) scale(0.0040, -0.0040)" d="M220 138c56 0 109 -29 109 -91c0 -72 -56 -121 -103 -149c-36 -21 -76 -36 -117 -36c-56 0 -109 29 -109 91c0 72 56 121 103 149c36 21 76 36 117 36z" fill="currentColor"/>
</a>
<rect transform="translate(59.9092, 9.8826)" x="-0.0650" y="-1.3122" width="0.1300" height="3.1222" ry="0.0400" fill="currentColor"/>
<a style="color:inherit;" xlink:href="textedit://C:/Users/jwloy/OneDrive/Documents/GitHub/wygioatynlib/notation/pulseTrack_tb_60_ps1.ly:16:52:53">
<path transform="translate(60.5023, 7.3826) scale(0.0040, -0.0040)" d="M-50 0c0 28 22 50 50 50s50 -22 50 -50s-22 -50 -50 -50s-50 22 -50 50z" fill="currentColor"/>
</a>
<a style="color:inherit;" xlink:href="textedit://C:/Users/jwloy/OneDrive/Documents/GitHub/wygioatynlib/notation/pulseTrack_tb_60_ps1.ly:16:51:52">
<path transform="translate(59.8442, 8.3826) scale(0.0040, -0.0040)" d="M220 138c56 0 109 -29 109 -91c0 -72 -56 -121 -103 -149c-36 -21 -76 -36 -117 -36c-56 0 -109 29 -109 91c0 72 56 121 103 149c36 21 76 36 117 36z" fill="currentColor"/>
</a>
<a style="color:inherit;" xlink:href="textedit://C:/Users/jwloy/OneDrive/Documents/GitHub/wygioatynlib/notation/pulseTrack_tb_60_ps1.ly:16:30:31">
<path transform="translate(50.5198, 8.3826) scale(0.0040, -0.0040)" d="M220 138c56 0 109 -29 109 -91c0 -72 -56 -121 -103 -149c-36 -21 -76 -36 -117 -36c-56 0 -109 29 -109 91c0 72 56 121 103 149c36 21 76 36 117 36z" fill="currentColor"/>
</a>
<rect transform="translate(47.6895, 9.8826)" x="-0.0650" y="-1.3122" width="0.1300" height="3.1222" ry="0.0400" fill="currentColor"/>
<a style="color:inherit;" xlink:href="textedit://C:/Users/jwloy/OneDrive/Documents/GitHub/wygioatynlib/notation/pulseTrack_tb_60_ps1.ly:16:27:28">
<path transform="translate(48.2826, 6.4866) scale(0.0040, -0.0040)" d="M-211 88c-8 2 -14 9 -14 18c0 10 9 19 19 19c2 0 3 -1 4 -1l408 -105c13 0 19 -6 19 -19s-6 -19 -19 -19l-408 -105c-1 0 -2 -1 -4 -1c-10 0 -19 9 -19 19c0 9 6 16 14 18l251 65l140 23l-140 23z" fill="currentColor"/>
</a>
<a style="color:inherit;" xlink:href="textedit://C:/Users/jwloy/OneDrive/Documents/GitHub/wygioatynlib/notation/pulseTrack_tb_60_ps1.ly:16:25:26">
<path transform="translate(48.2826, 7.3826) scale(0.0040, -0.0040)" d="M-50 0c0 28 22 50 50 50s50 -22 50 -50s-22 -50 -50 -50s-50 22 -50 50z" fill="currentColor"/>
</a>
<a style="color:inherit;" xlink:href="textedit://C:/Users/jwloy/OneDrive/Documents/GitHub/wygioatynlib/notation/pulseTrack_tb_60_ps1.ly:16:23:24">
<path transform="translate(47.6245, 8.3826) scale(0.0040, -0.0040)" d="M220 138c56 0 109 -29 109 -91c0 -72 -56 -121 -103 -149c-36 -21 -76 -36 -117 -36c-56 0 -109 29 -109 91c0 72 56 121 103 149c36 21 76 36 117 36z" fill="currentColor"/>
</a>
<rect transform="translate(45.5464, 9.8826)" x="-0.0650" y="-1.3122" width="0.1300" height="3.1222" ry="0.0400" fill="currentColor"/>
<a style="color:inherit;" xlink:href="textedit://C:/Users/jwloy/OneDrive/Documents/GitHub/wygioatynlib/notation/pulseTrack_tb_60_ps1.ly:16:19:20">
<path transform="translate(46.1395, 7.3826) scale(0.0040, -0.0040)" d="M-50 0c0 28 22 50 50 50s50 -22 50 -50s-22 -50 -50 -50s-50 22 -50 50z" fill="currentColor"/>
</a>
<a style="color:inherit;" xlink:href="textedit://C:/Users/jwloy/OneDrive/Documents/GitHub/wygioatynlib/notation/pulseTrack_tb_60_ps1.ly:16:18:19">
<path transform="translate(45.4814, 8.3826) scale(0.0040, -0.0040)" d="M220 138c56 0 109 -29 109 -91c0 -72 -56 -121 -103 -149c-36 -21 -76 -36 -117 -36c-56 0 -109 29 -109 91c0 72 56 121 103 149c36 21 76 36 117 36z" fill="currentColor"/>
</a>
<a style="color:inherit;" xlink:href="textedit://C:/Users/jwloy/OneDrive/Documents/GitHub/wygioatynlib/notation/pulseTrack_tb_60_ps1.ly:16:31:32">
<path transform="translate(51.1778, 7.3826) scale(0.0040, -0.0040)" d="M-50 0c0 28 22 50 50 50s50 -22 50 -50s-22 -50 -50 -50s-50 22 -50 50z" fill="currentColor"/>
</a>
<rect transform="translate(50.5848, 9.8826)" x="-0.0650" y="-1.3122" width="0.1300" height="3.1222" ry="0.0400" fill="currentColor"/>
<a transform="translate(31.4631, 165.1512)" xlink:href="http://lilypond.org/">
<rect x="0.0000" y="-0.4439" width="56.5755" height="2.0827" fill="none" stroke="none" stroke-width="0.0"/>
</a>
<text transform="translate(31.4631, 165.1512)" font-family="Century Schoolbook L" font-size="2.2001" text-anchor="start" fill="currentColor">
<tspan>
Music engraving by LilyPond 2.18.2—www.lilypond.org</tspan>
</text>
</svg>
