<svg xmlns="http://www.w3.org/2000/svg" xmlns:xlink="http://www.w3.org/1999/xlink" version="1.2" width="210.00mm" height="297.00mm" viewBox="0 0 119.5016 169.0094">
<!-- Page: 1/1 -->
<text transform="translate(5.6906, 2.8453)" font-family="Century Schoolbook L" font-size="2.2001" text-anchor="start" fill="currentColor">
<tspan>
 </tspan>
</text>
<line transform="translate(14.2264, 11.8826)" stroke-linejoin="round" stroke-linecap="round" stroke-width="0.1000" stroke="currentColor" x1="0.0500" y1="0.0000" x2="99.5346" y2="0.0000"/>
<line transform="translate(14.2264, 10.8826)" stroke-linejoin="round" stroke-linecap="round" stroke-width="0.1000" stroke="currentColor" x1="0.0500" y1="0.0000" x2="99.5346" y2="0.0000"/>
<line transform="translate(14.2264, 9.8826)" stroke-linejoin="round" stroke-linecap="round" stroke-width="0.1000" stroke="currentColor" x1="0.0500" y1="0.0000" x2="99.5346" y2="0.0000"/>
<line transform="translate(14.2264, 8.8826)" stroke-linejoin="round" stroke-linecap="round" stroke-width="0.1000" stroke="currentColor" x1="0.0500" y1="0.0000" x2="99.5346" y2="0.0000"/>
<line transform="translate(14.2264, 7.8826)" stroke-linejoin="round" stroke-linecap="round" stroke-width="0.1000" stroke="currentColor" x1="0.0500" y1="0.0000" x2="99.5346" y2="0.0000"/>
<rect transform="translate(113.6210, 9.8826)" x="0.0000" y="-2.0000" width="0.1900" height="4.0000" ry="0.0000" fill="currentColor"/>
<a style="color:inherit;" xlink:href="textedit://C:/Users/jwloy/OneDrive/Documents/GitHub/wygioatynlib/notation/pulseTrack_bc_61_ps1.ly:15:41:42">
<path transform="translate(78.8814, 11.3826) scale(0.0040, -0.0040)" d="M-50 0c0 28 22 50 50 50s50 -22 50 -50s-22 -50 -50 -50s-50 22 -50 50z" fill="currentColor"/>
</a>
<rect transform="translate(79.4745, 9.8826)" x="-0.0650" y="-3.7500" width="0.1300" height="4.0622" ry="0.0400" fill="currentColor"/>
<path transform="translate(79.5395, 6.1726) scale(0.0040, -0.0040)" d="M0 -213v-5c0 -111 86 -193 146 -284c3 11 4 23 4 35c0 93 -85 187 -150 254zM0 0c0 -175 193 -292 193 -467c0 -29 -7 -58 -19 -84c17 -35 29 -71 29 -111c0 -36 -9 -72 -24 -105c18 -35 30 -72 30 -113c0 -60 -16 -119 -42 -173c-5 -8 -12 -11 -19 -11
c-13 0 -26 11 -23 27c26 49 42 102 42 157c0 91 -95 175 -167 233v-103h-16v750h16zM0 -430v-5c0 -112 89 -194 151 -285c6 19 9 38 9 58c0 90 -91 173 -160 232z" fill="currentColor"/>
<a style="color:inherit;" xlink:href="textedit://C:/Users/jwloy/OneDrive/Documents/GitHub/wygioatynlib/notation/pulseTrack_bc_61_ps1.ly:15:45:46">
<path transform="translate(82.5133, 9.8826) scale(0.0040, -0.0040)" d="M54 -500l86 327c-35 -13 -71 -23 -108 -23c-46 0 -87 33 -87 79c0 40 32 72 72 72c25 0 49 -15 57 -39c10 -28 5 -59 34 -59c17 0 54 54 59 71l39 149c-34 -12 -70 -23 -106 -23c-46 0 -87 33 -87 79c0 40 33 72 73 72c25 0 48 -15 56 -39c10 -28 5 -59 34 -59
c16 0 52 51 56 68l40 151c-33 -12 -68 -22 -103 -22c-46 0 -87 33 -87 79c0 40 32 72 72 72c25 0 49 -15 57 -39c10 -28 5 -59 34 -59c15 0 46 49 52 63c6 12 23 12 28 0l-216 -920c-8 -7 -18 -10 -28 -10s-19 3 -27 10z" fill="currentColor"/>
</a>
<a style="color:inherit;" xlink:href="textedit://C:/Users/jwloy/OneDrive/Documents/GitHub/wygioatynlib/notation/pulseTrack_bc_61_ps1.ly:15:49:50">
<path transform="translate(86.7161, 9.8826) scale(0.0040, -0.0040)" d="M66 -500l101 327c-34 -12 -70 -23 -106 -23c-46 0 -87 33 -87 79c0 40 32 72 72 72c25 0 49 -15 57 -39c10 -28 5 -59 34 -59c16 0 55 51 60 68l46 151c-34 -12 -68 -22 -104 -22c-46 0 -87 33 -87 79c0 40 33 72 73 72c25 0 48 -15 56 -39c10 -28 5 -59 34 -59
c15 0 50 49 57 63c6 12 23 12 28 0l-179 -670c-8 -7 -17 -10 -27 -10s-20 3 -28 10z" fill="currentColor"/>
</a>
<path transform="translate(64.0411, 6.1726) scale(0.0040, -0.0040)" d="M0 -213v-5c0 -111 86 -193 146 -284c3 11 4 23 4 35c0 93 -85 187 -150 254zM0 0c0 -175 193 -292 193 -467c0 -29 -7 -58 -19 -84c17 -35 29 -71 29 -111c0 -36 -9 -72 -24 -105c18 -35 30 -72 30 -113c0 -60 -16 -119 -42 -173c-5 -8 -12 -11 -19 -11
c-13 0 -26 11 -23 27c26 49 42 102 42 157c0 91 -95 175 -167 233v-103h-16v750h16zM0 -430v-5c0 -112 89 -194 151 -285c6 19 9 38 9 58c0 90 -91 173 -160 232z" fill="currentColor"/>
<a style="color:inherit;" xlink:href="textedit://C:/Users/jwloy/OneDrive/Documents/GitHub/wygioatynlib/notation/pulseTrack_bc_61_ps1.ly:15:30:31">
<path transform="translate(67.0149, 9.8826) scale(0.0040, -0.0040)" d="M54 -500l86 327c-35 -13 -71 -23 -108 -23c-46 0 -87 33 -87 79c0 40 32 72 72 72c25 0 49 -15 57 -39c10 -28 5 -59 34 -59c17 0 54 54 59 71l39 149c-34 -12 -70 -23 -106 -23c-46 0 -87 33 -87 79c0 40 33 72 73 72c25 0 48 -15 56 -39c10 -28 5 -59 34 -59
c16 0 52 51 56 68l40 151c-33 -12 -68 -22 -103 -22c-46 0 -87 33 -87 79c0 40 32 72 72 72c25 0 49 -15 57 -39c10 -28 5 -59 34 -59c15 0 46 49 52 63c6 12 23 12 28 0l-216 -920c-8 -7 -18 -10 -28 -10s-19 3 -27 10z" fill="currentColor"/>
</a>
<a style="color:inherit;" xlink:href="textedit://C:/Users/jwloy/OneDrive/Documents/GitHub/wygioatynlib/notation/pulseTrack_bc_61_ps1.ly:15:34:35">
<path transform="translate(71.2177, 9.8826) scale(0.0040, -0.0040)" d="M66 -500l101 327c-34 -12 -70 -23 -106 -23c-46 0 -87 33 -87 79c0 40 32 72 72 72c25 0 49 -15 57 -39c10 -28 5 -59 34 -59c16 0 55 51 60 68l46 151c-34 -12 -68 -22 -104 -22c-46 0 -87 33 -87 79c0 40 33 72 73 72c25 0 48 -15 56 -39c10 -28 5 -59 34 -59
c15 0 50 49 57 63c6 12 23 12 28 0l-179 -670c-8 -7 -17 -10 -27 -10s-20 3 -28 10z" fill="currentColor"/>
</a>
<a style="color:inherit;" xlink:href="textedit://C:/Users/jwloy/OneDrive/Documents/GitHub/wygioatynlib/notation/pulseTrack_bc_61_ps1.ly:15:38:39">
<path transform="translate(78.2233, 10.3826) scale(0.0040, -0.0040)" d="M220 138c56 0 109 -29 109 -91c0 -72 -56 -121 -103 -149c-36 -21 -76 -36 -117 -36c-56 0 -109 29 -109 91c0 72 56 121 103 149c36 21 76 36 117 36z" fill="currentColor"/>
</a>
<path transform="translate(103.6646, 9.3826) scale(0.0040, -0.0040)" d="M0 0c0 31 25 56 56 56s56 -25 56 -56s-25 -56 -56 -56s-56 25 -56 56z" fill="currentColor"/>
<a style="color:inherit;" xlink:href="textedit://C:/Users/jwloy/OneDrive/Documents/GitHub/wygioatynlib/notation/pulseTrack_bc_61_ps1.ly:15:65:66">
<path transform="translate(102.2146, 9.8826) scale(0.0040, -0.0040)" d="M72 -250l117 326c-34 -12 -69 -22 -105 -22c-46 0 -87 33 -87 79c0 40 33 72 73 72c25 0 48 -15 56 -39c10 -28 6 -59 35 -59c16 0 54 48 61 63c6 12 23 12 28 0l-123 -420c-8 -7 -17 -10 -27 -10s-20 3 -28 10z" fill="currentColor"/>
</a>
<a style="color:inherit;" xlink:href="textedit://C:/Users/jwloy/OneDrive/Documents/GitHub/wygioatynlib/notation/pulseTrack_bc_61_ps1.ly:15:61:62">
<path transform="translate(98.0117, 9.8826) scale(0.0040, -0.0040)" d="M54 -500l86 327c-35 -13 -71 -23 -108 -23c-46 0 -87 33 -87 79c0 40 32 72 72 72c25 0 49 -15 57 -39c10 -28 5 -59 34 -59c17 0 54 54 59 71l39 149c-34 -12 -70 -23 -106 -23c-46 0 -87 33 -87 79c0 40 33 72 73 72c25 0 48 -15 56 -39c10 -28 5 -59 34 -59
c16 0 52 51 56 68l40 151c-33 -12 -68 -22 -103 -22c-46 0 -87 33 -87 79c0 40 32 72 72 72c25 0 49 -15 57 -39c10 -28 5 -59 34 -59c15 0 46 49 52 63c6 12 23 12 28 0l-216 -920c-8 -7 -18 -10 -28 -10s-19 3 -27 10z" fill="currentColor"/>
</a>
<path transform="translate(95.0379, 6.1726) scale(0.0040, -0.0040)" d="M0 -213v-5c0 -111 86 -193 146 -284c3 11 4 23 4 35c0 93 -85 187 -150 254zM0 0c0 -175 193 -292 193 -467c0 -29 -7 -58 -19 -84c17 -35 29 -71 29 -111c0 -36 -9 -72 -24 -105c18 -35 30 -72 30 -113c0 -60 -16 -119 -42 -173c-5 -8 -12 -11 -19 -11
c-13 0 -26 11 -23 27c26 49 42 102 42 157c0 91 -95 175 -167 233v-103h-16v750h16zM0 -430v-5c0 -112 89 -194 151 -285c6 19 9 38 9 58c0 90 -91 173 -160 232z" fill="currentColor"/>
<rect transform="translate(94.9729, 9.8826)" x="-0.0650" y="-3.7500" width="0.1300" height="4.0622" ry="0.0400" fill="currentColor"/>
<a style="color:inherit;" xlink:href="textedit://C:/Users/jwloy/OneDrive/Documents/GitHub/wygioatynlib/notation/pulseTrack_bc_61_ps1.ly:15:58:59">
<path transform="translate(94.3798, 12.6326) scale(0.0040, -0.0040)" d="M-211 88c-8 2 -14 9 -14 18c0 10 9 19 19 19c2 0 3 -1 4 -1l408 -105c13 0 19 -6 19 -19s-6 -19 -19 -19l-408 -105c-1 0 -2 -1 -4 -1c-10 0 -19 9 -19 19c0 9 6 16 14 18l251 65l140 23l-140 23z" fill="currentColor"/>
</a>
<a style="color:inherit;" xlink:href="textedit://C:/Users/jwloy/OneDrive/Documents/GitHub/wygioatynlib/notation/pulseTrack_bc_61_ps1.ly:15:56:57">
<path transform="translate(94.3798, 11.3826) scale(0.0040, -0.0040)" d="M-50 0c0 28 22 50 50 50s50 -22 50 -50s-22 -50 -50 -50s-50 22 -50 50z" fill="currentColor"/>
</a>
<a style="color:inherit;" xlink:href="textedit://C:/Users/jwloy/OneDrive/Documents/GitHub/wygioatynlib/notation/pulseTrack_bc_61_ps1.ly:15:53:54">
<path transform="translate(93.7218, 10.3826) scale(0.0040, -0.0040)" d="M220 138c56 0 109 -29 109 -91c0 -72 -56 -121 -103 -149c-36 -21 -76 -36 -117 -36c-56 0 -109 29 -109 91c0 72 56 121 103 149c36 21 76 36 117 36z" fill="currentColor"/>
</a>
<a style="color:inherit;" xlink:href="textedit://C:/Users/jwloy/OneDrive/Documents/GitHub/wygioatynlib/notation/pulseTrack_bc_61_ps1.ly:15:5:6">
<path transform="translate(42.8256, 10.3826) scale(0.0040, -0.0040)" d="M220 138c56 0 109 -29 109 -91c0 -72 -56 -121 -103 -149c-36 -21 -76 -36 -117 -36c-56 0 -109 29 -109 91c0 72 56 121 103 149c36 21 76 36 117 36z" fill="currentColor"/>
</a>
<path transform="translate(32.8692, 9.3826) scale(0.0040, -0.0040)" d="M0 0c0 31 25 56 56 56s56 -25 56 -56s-25 -56 -56 -56s-56 25 -56 56z" fill="currentColor"/>
<a style="color:inherit;" xlink:href="textedit://C:/Users/jwloy/OneDrive/Documents/GitHub/wygioatynlib/notation/pulseTrack_bc_61_ps1.ly:13:19:20">
<path transform="translate(31.4192, 9.8826) scale(0.0040, -0.0040)" d="M72 -250l117 326c-34 -12 -69 -22 -105 -22c-46 0 -87 33 -87 79c0 40 33 72 73 72c25 0 48 -15 56 -39c10 -28 6 -59 35 -59c16 0 54 48 61 63c6 12 23 12 28 0l-123 -420c-8 -7 -17 -10 -27 -10s-20 3 -28 10z" fill="currentColor"/>
</a>
<a style="color:inherit;" xlink:href="textedit://C:/Users/jwloy/OneDrive/Documents/GitHub/wygioatynlib/notation/pulseTrack_bc_61_ps1.ly:13:15:16">
<path transform="translate(27.2164, 9.8826) scale(0.0040, -0.0040)" d="M54 -500l86 327c-35 -13 -71 -23 -108 -23c-46 0 -87 33 -87 79c0 40 32 72 72 72c25 0 49 -15 57 -39c10 -28 5 -59 34 -59c17 0 54 54 59 71l39 149c-34 -12 -70 -23 -106 -23c-46 0 -87 33 -87 79c0 40 33 72 73 72c25 0 48 -15 56 -39c10 -28 5 -59 34 -59
c16 0 52 51 56 68l40 151c-33 -12 -68 -22 -103 -22c-46 0 -87 33 -87 79c0 40 32 72 72 72c25 0 49 -15 57 -39c10 -28 5 -59 34 -59c15 0 46 49 52 63c6 12 23 12 28 0l-216 -920c-8 -7 -18 -10 -28 -10s-19 3 -27 10z" fill="currentColor"/>
</a>
<a style="color:inherit;" xlink:href="textedit://C:/Users/jwloy/OneDrive/Documents/GitHub/wygioatynlib/notation/pulseTrack_bc_61_ps1.ly:13:5:6">
<path transform="translate(22.9264, 10.3826) scale(0.0040, -0.0040)" d="M220 138c56 0 109 -29 109 -91c0 -72 -56 -121 -103 -149c-36 -21 -76 -36 -117 -36c-56 0 -109 29 -109 91c0 72 56 121 103 149c36 21 76 36 117 36z" fill="currentColor"/>
</a>
<a style="color:inherit;" xlink:href="textedit://C:/Users/jwloy/OneDrive/Documents/GitHub/wygioatynlib/notation/pulseTrack_bc_61_ps1.ly:13:8:9">
<g transform="translate(20.4262, 14.4446)" >
<path transform="scale(0.0040, -0.0040)" d="M253 245l-50 -163c-30 -99 -121 -255 -218 -255c-45 0 -87 27 -87 69c0 39 17 77 52 77c24 0 44 -20 44 -44c0 -30 -38 -24 -38 -54c0 -10 11 -11 23 -11h6c48 0 61 58 73 108l68 273h-49c-11 0 -19 8 -19 19s8 19 19 19h60c32 96 118 191 213 191c45 0 87 -27 87 -69
c0 -39 -17 -77 -52 -77c-24 0 -44 19 -44 43c0 30 38 25 38 55c0 10 -10 11 -22 11h-7c-62 0 -70 -88 -86 -154h55c11 0 19 -8 19 -19s-8 -19 -19 -19h-66z" fill="currentColor"/>

<path transform="translate(1.2633, 0.0000) scale(0.0040, -0.0040)" d="M253 245l-50 -163c-30 -99 -121 -255 -218 -255c-45 0 -87 27 -87 69c0 39 17 77 52 77c24 0 44 -20 44 -44c0 -30 -38 -24 -38 -54c0 -10 11 -11 23 -11h6c48 0 61 58 73 108l68 273h-49c-11 0 -19 8 -19 19s8 19 19 19h60c32 96 118 191 213 191c45 0 87 -27 87 -69
c0 -39 -17 -77 -52 -77c-24 0 -44 19 -44 43c0 30 38 25 38 55c0 10 -10 11 -22 11h-7c-62 0 -70 -88 -86 -154h55c11 0 19 -8 19 -19s-8 -19 -19 -19h-66z" fill="currentColor"/>

<path transform="translate(2.5266, 0.0000) scale(0.0040, -0.0040)" d="M253 245l-50 -163c-30 -99 -121 -255 -218 -255c-45 0 -87 27 -87 69c0 39 17 77 52 77c24 0 44 -20 44 -44c0 -30 -38 -24 -38 -54c0 -10 11 -11 23 -11h6c48 0 61 58 73 108l68 273h-49c-11 0 -19 8 -19 19s8 19 19 19h60c32 96 118 191 213 191c45 0 87 -27 87 -69
c0 -39 -17 -77 -52 -77c-24 0 -44 19 -44 43c0 30 38 25 38 55c0 10 -10 11 -22 11h-7c-62 0 -70 -88 -86 -154h55c11 0 19 -8 19 -19s-8 -19 -19 -19h-66z" fill="currentColor"/>

<path transform="translate(3.7899, 0.0000) scale(0.0040, -0.0040)" d="M253 245l-50 -163c-30 -99 -121 -255 -218 -255c-45 0 -87 27 -87 69c0 39 17 77 52 77c24 0 44 -20 44 -44c0 -30 -38 -24 -38 -54c0 -10 11 -11 23 -11h6c48 0 61 58 73 108l68 273h-49c-11 0 -19 8 -19 19s8 19 19 19h60c32 96 118 191 213 191c45 0 87 -27 87 -69
c0 -39 -17 -77 -52 -77c-24 0 -44 19 -44 43c0 30 38 25 38 55c0 10 -10 11 -22 11h-7c-62 0 -70 -88 -86 -154h55c11 0 19 -8 19 -19s-8 -19 -19 -19h-66z" fill="currentColor"/>

<path transform="translate(5.0532, 0.0000) scale(0.0040, -0.0040)" d="M253 245l-50 -163c-30 -99 -121 -255 -218 -255c-45 0 -87 27 -87 69c0 39 17 77 52 77c24 0 44 -20 44 -44c0 -30 -38 -24 -38 -54c0 -10 11 -11 23 -11h6c48 0 61 58 73 108l68 273h-49c-11 0 -19 8 -19 19s8 19 19 19h60c32 96 118 191 213 191c45 0 87 -27 87 -69
c0 -39 -17 -77 -52 -77c-24 0 -44 19 -44 43c0 30 38 25 38 55c0 10 -10 11 -22 11h-7c-62 0 -70 -88 -86 -154h55c11 0 19 -8 19 -19s-8 -19 -19 -19h-66z" fill="currentColor"/>
</g>
</a>
<path transform="translate(15.0264, 8.8826) scale(0.0040, -0.0040)" d="M557 -125c0 28 23 51 51 51s51 -23 51 -51s-23 -51 -51 -51s-51 23 -51 51zM557 125c0 28 23 51 51 51s51 -23 51 -51s-23 -51 -51 -51s-51 23 -51 51zM232 263c172 0 293 -88 293 -251c0 -263 -263 -414 -516 -521c-3 -3 -6 -4 -9 -4c-7 0 -13 6 -13 13c0 3 1 6 4 9
c202 118 412 265 412 493c0 120 -63 235 -171 235c-74 0 -129 -54 -154 -126c11 5 22 8 34 8c55 0 100 -45 100 -100c0 -58 -44 -106 -100 -106c-60 0 -112 47 -112 106c0 133 102 244 232 244z" fill="currentColor"/>
<path transform="translate(19.2264, 9.8826) scale(0.0040, -0.0040)" d="M359 27c-49 0 -75 42 -75 75c0 38 27 77 72 77c4 0 9 0 14 -1c-28 37 -72 59 -120 59c-106 0 -113 -73 -113 -186v-51v-51c0 -113 7 -187 113 -187c80 0 139 70 158 151c2 7 7 10 12 10c6 0 13 -4 13 -12c0 -94 -105 -174 -183 -174c-68 0 -137 21 -184 70
c-49 51 -66 122 -66 193s17 142 66 193c47 49 116 69 184 69c87 0 160 -64 175 -150c1 -5 1 -9 1 -13c0 -40 -30 -72 -67 -72z" fill="currentColor"/>
<a style="color:inherit;" xlink:href="textedit://C:/Users/jwloy/OneDrive/Documents/GitHub/wygioatynlib/notation/pulseTrack_bc_61_ps1.ly:8:6:7">
<rect transform="translate(19.2264, 6.5373)" x="1.0563" y="-2.6727" width="0.1158" height="2.5113" ry="0.0193" fill="currentColor"/>
<path transform="translate(19.2264, 6.5373) scale(0.0036, -0.0036)" d="M217 139c57 0 112 -31 112 -94c0 -72 -55 -121 -102 -149c-35 -21 -74 -35 -115 -35c-57 0 -112 31 -112 94c0 72 55 121 102 149c35 21 74 35 115 35z" fill="currentColor"/>
<text transform="translate(20.3985, 7.0309)" font-family="Century Schoolbook L" font-size="2.2001" text-anchor="start" fill="currentColor">
<tspan>
 = 61</tspan>
</text>
</a>
<rect transform="translate(24.1775, 9.8826)" x="-0.0650" y="-3.7500" width="0.1300" height="4.0622" ry="0.0400" fill="currentColor"/>
<path transform="translate(24.2425, 6.1726) scale(0.0040, -0.0040)" d="M0 -213v-5c0 -111 86 -193 146 -284c3 11 4 23 4 35c0 93 -85 187 -150 254zM0 0c0 -175 193 -292 193 -467c0 -29 -7 -58 -19 -84c17 -35 29 -71 29 -111c0 -36 -9 -72 -24 -105c18 -35 30 -72 30 -113c0 -60 -16 -119 -42 -173c-5 -8 -12 -11 -19 -11
c-13 0 -26 11 -23 27c26 49 42 102 42 157c0 91 -95 175 -167 233v-103h-16v750h16zM0 -430v-5c0 -112 89 -194 151 -285c6 19 9 38 9 58c0 90 -91 173 -160 232z" fill="currentColor"/>
<rect transform="translate(63.9761, 9.8826)" x="-0.0650" y="-3.7500" width="0.1300" height="4.0622" ry="0.0400" fill="currentColor"/>
<a style="color:inherit;" xlink:href="textedit://C:/Users/jwloy/OneDrive/Documents/GitHub/wygioatynlib/notation/pulseTrack_bc_61_ps1.ly:15:27:28">
<path transform="translate(63.3830, 12.6326) scale(0.0040, -0.0040)" d="M-211 88c-8 2 -14 9 -14 18c0 10 9 19 19 19c2 0 3 -1 4 -1l408 -105c13 0 19 -6 19 -19s-6 -19 -19 -19l-408 -105c-1 0 -2 -1 -4 -1c-10 0 -19 9 -19 19c0 9 6 16 14 18l251 65l140 23l-140 23z" fill="currentColor"/>
</a>
<a style="color:inherit;" xlink:href="textedit://C:/Users/jwloy/OneDrive/Documents/GitHub/wygioatynlib/notation/pulseTrack_bc_61_ps1.ly:15:25:26">
<path transform="translate(63.3830, 11.3826) scale(0.0040, -0.0040)" d="M-50 0c0 28 22 50 50 50s50 -22 50 -50s-22 -50 -50 -50s-50 22 -50 50z" fill="currentColor"/>
</a>
<a style="color:inherit;" xlink:href="textedit://C:/Users/jwloy/OneDrive/Documents/GitHub/wygioatynlib/notation/pulseTrack_bc_61_ps1.ly:15:22:23">
<path transform="translate(62.7249, 10.3826) scale(0.0040, -0.0040)" d="M220 138c56 0 109 -29 109 -91c0 -72 -56 -121 -103 -149c-36 -21 -76 -36 -117 -36c-56 0 -109 29 -109 91c0 72 56 121 103 149c36 21 76 36 117 36z" fill="currentColor"/>
</a>
<path transform="translate(52.7684, 9.3826) scale(0.0040, -0.0040)" d="M0 0c0 31 25 56 56 56s56 -25 56 -56s-25 -56 -56 -56s-56 25 -56 56z" fill="currentColor"/>
<a style="color:inherit;" xlink:href="textedit://C:/Users/jwloy/OneDrive/Documents/GitHub/wygioatynlib/notation/pulseTrack_bc_61_ps1.ly:15:18:19">
<path transform="translate(51.3184, 9.8826) scale(0.0040, -0.0040)" d="M72 -250l117 326c-34 -12 -69 -22 -105 -22c-46 0 -87 33 -87 79c0 40 33 72 73 72c25 0 48 -15 56 -39c10 -28 6 -59 35 -59c16 0 54 48 61 63c6 12 23 12 28 0l-123 -420c-8 -7 -17 -10 -27 -10s-20 3 -28 10z" fill="currentColor"/>
</a>
<a style="color:inherit;" xlink:href="textedit://C:/Users/jwloy/OneDrive/Documents/GitHub/wygioatynlib/notation/pulseTrack_bc_61_ps1.ly:15:14:15">
<path transform="translate(47.1156, 9.8826) scale(0.0040, -0.0040)" d="M54 -500l86 327c-35 -13 -71 -23 -108 -23c-46 0 -87 33 -87 79c0 40 32 72 72 72c25 0 49 -15 57 -39c10 -28 5 -59 34 -59c17 0 54 54 59 71l39 149c-34 -12 -70 -23 -106 -23c-46 0 -87 33 -87 79c0 40 33 72 73 72c25 0 48 -15 56 -39c10 -28 5 -59 34 -59
c16 0 52 51 56 68l40 151c-33 -12 -68 -22 -103 -22c-46 0 -87 33 -87 79c0 40 32 72 72 72c25 0 49 -15 57 -39c10 -28 5 -59 34 -59c15 0 46 49 52 63c6 12 23 12 28 0l-216 -920c-8 -7 -18 -10 -28 -10s-19 3 -27 10z" fill="currentColor"/>
</a>
<a style="color:inherit;" xlink:href="textedit://C:/Users/jwloy/OneDrive/Documents/GitHub/wygioatynlib/notation/pulseTrack_bc_61_ps1.ly:15:8:9">
<path transform="translate(43.4837, 11.3826) scale(0.0040, -0.0040)" d="M-50 0c0 28 22 50 50 50s50 -22 50 -50s-22 -50 -50 -50s-50 22 -50 50z" fill="currentColor"/>
</a>
<a style="color:inherit;" xlink:href="textedit://C:/Users/jwloy/OneDrive/Documents/GitHub/wygioatynlib/notation/pulseTrack_bc_61_ps1.ly:15:10:11">
<path transform="translate(43.4837, 12.6326) scale(0.0040, -0.0040)" d="M-211 88c-8 2 -14 9 -14 18c0 10 9 19 19 19c2 0 3 -1 4 -1l408 -105c13 0 19 -6 19 -19s-6 -19 -19 -19l-408 -105c-1 0 -2 -1 -4 -1c-10 0 -19 9 -19 19c0 9 6 16 14 18l251 65l140 23l-140 23z" fill="currentColor"/>
</a>
<rect transform="translate(44.0768, 9.8826)" x="-0.0650" y="-3.7500" width="0.1300" height="4.0622" ry="0.0400" fill="currentColor"/>
<path transform="translate(44.1418, 6.1726) scale(0.0040, -0.0040)" d="M0 -213v-5c0 -111 86 -193 146 -284c3 11 4 23 4 35c0 93 -85 187 -150 254zM0 0c0 -175 193 -292 193 -467c0 -29 -7 -58 -19 -84c17 -35 29 -71 29 -111c0 -36 -9 -72 -24 -105c18 -35 30 -72 30 -113c0 -60 -16 -119 -42 -173c-5 -8 -12 -11 -19 -11
c-13 0 -26 11 -23 27c26 49 42 102 42 157c0 91 -95 175 -167 233v-103h-16v750h16zM0 -430v-5c0 -112 89 -194 151 -285c6 19 9 38 9 58c0 90 -91 173 -160 232z" fill="currentColor"/>
<line transform="translate(5.6906, 23.8826)" stroke-linejoin="round" stroke-linecap="round" stroke-width="0.1000" stroke="currentColor" x1="0.0500" y1="0.0000" x2="108.0705" y2="0.0000"/>
<line transform="translate(5.6906, 22.8826)" stroke-linejoin="round" stroke-linecap="round" stroke-width="0.1000" stroke="currentColor" x1="0.0500" y1="0.0000" x2="108.0705" y2="0.0000"/>
<line transform="translate(5.6906, 21.8826)" stroke-linejoin="round" stroke-linecap="round" stroke-width="0.1000" stroke="currentColor" x1="0.0500" y1="0.0000" x2="108.0705" y2="0.0000"/>
<line transform="translate(5.6906, 20.8826)" stroke-linejoin="round" stroke-linecap="round" stroke-width="0.1000" stroke="currentColor" x1="0.0500" y1="0.0000" x2="108.0705" y2="0.0000"/>
<line transform="translate(5.6906, 19.8826)" stroke-linejoin="round" stroke-linecap="round" stroke-width="0.1000" stroke="currentColor" x1="0.0500" y1="0.0000" x2="108.0705" y2="0.0000"/>
<rect transform="translate(113.6210, 21.8826)" x="0.0000" y="-2.0000" width="0.1900" height="4.0000" ry="0.0000" fill="currentColor"/>
<a style="color:inherit;" xlink:href="textedit://C:/Users/jwloy/OneDrive/Documents/GitHub/wygioatynlib/notation/pulseTrack_bc_61_ps1.ly:16:96:97">
<path transform="translate(74.8617, 23.3826) scale(0.0040, -0.0040)" d="M-50 0c0 28 22 50 50 50s50 -22 50 -50s-22 -50 -50 -50s-50 22 -50 50z" fill="currentColor"/>
</a>
<rect transform="translate(75.4548, 21.8826)" x="-0.0650" y="-3.7500" width="0.1300" height="4.0622" ry="0.0400" fill="currentColor"/>
<path transform="translate(75.5198, 18.1726) scale(0.0040, -0.0040)" d="M0 -213v-5c0 -111 86 -193 146 -284c3 11 4 23 4 35c0 93 -85 187 -150 254zM0 0c0 -175 193 -292 193 -467c0 -29 -7 -58 -19 -84c17 -35 29 -71 29 -111c0 -36 -9 -72 -24 -105c18 -35 30 -72 30 -113c0 -60 -16 -119 -42 -173c-5 -8 -12 -11 -19 -11
c-13 0 -26 11 -23 27c26 49 42 102 42 157c0 91 -95 175 -167 233v-103h-16v750h16zM0 -430v-5c0 -112 89 -194 151 -285c6 19 9 38 9 58c0 90 -91 173 -160 232z" fill="currentColor"/>
<a style="color:inherit;" xlink:href="textedit://C:/Users/jwloy/OneDrive/Documents/GitHub/wygioatynlib/notation/pulseTrack_bc_61_ps1.ly:16:100:101">
<path transform="translate(77.9791, 21.8826) scale(0.0040, -0.0040)" d="M54 -500l86 327c-35 -13 -71 -23 -108 -23c-46 0 -87 33 -87 79c0 40 32 72 72 72c25 0 49 -15 57 -39c10 -28 5 -59 34 -59c17 0 54 54 59 71l39 149c-34 -12 -70 -23 -106 -23c-46 0 -87 33 -87 79c0 40 33 72 73 72c25 0 48 -15 56 -39c10 -28 5 -59 34 -59
c16 0 52 51 56 68l40 151c-33 -12 -68 -22 -103 -22c-46 0 -87 33 -87 79c0 40 32 72 72 72c25 0 49 -15 57 -39c10 -28 5 -59 34 -59c15 0 46 49 52 63c6 12 23 12 28 0l-216 -920c-8 -7 -18 -10 -28 -10s-19 3 -27 10z" fill="currentColor"/>
</a>
<a style="color:inherit;" xlink:href="textedit://C:/Users/jwloy/OneDrive/Documents/GitHub/wygioatynlib/notation/pulseTrack_bc_61_ps1.ly:16:106:107">
<path transform="translate(81.6674, 22.3826) scale(0.0040, -0.0040)" d="M220 138c56 0 109 -29 109 -91c0 -72 -56 -121 -103 -149c-36 -21 -76 -36 -117 -36c-56 0 -109 29 -109 91c0 72 56 121 103 149c36 21 76 36 117 36z" fill="currentColor"/>
</a>
<a style="color:inherit;" xlink:href="textedit://C:/Users/jwloy/OneDrive/Documents/GitHub/wygioatynlib/notation/pulseTrack_bc_61_ps1.ly:16:109:110">
<path transform="translate(82.3255, 23.3826) scale(0.0040, -0.0040)" d="M-50 0c0 28 22 50 50 50s50 -22 50 -50s-22 -50 -50 -50s-50 22 -50 50z" fill="currentColor"/>
</a>
<rect transform="translate(82.9186, 21.8826)" x="-0.0650" y="-3.7500" width="0.1300" height="4.0622" ry="0.0400" fill="currentColor"/>
<path transform="translate(82.9836, 18.1726) scale(0.0040, -0.0040)" d="M0 -213v-5c0 -111 86 -193 146 -284c3 11 4 23 4 35c0 93 -85 187 -150 254zM0 0c0 -175 193 -292 193 -467c0 -29 -7 -58 -19 -84c17 -35 29 -71 29 -111c0 -36 -9 -72 -24 -105c18 -35 30 -72 30 -113c0 -60 -16 -119 -42 -173c-5 -8 -12 -11 -19 -11
c-13 0 -26 11 -23 27c26 49 42 102 42 157c0 91 -95 175 -167 233v-103h-16v750h16zM0 -430v-5c0 -112 89 -194 151 -285c6 19 9 38 9 58c0 90 -91 173 -160 232z" fill="currentColor"/>
<a style="color:inherit;" xlink:href="textedit://C:/Users/jwloy/OneDrive/Documents/GitHub/wygioatynlib/notation/pulseTrack_bc_61_ps1.ly:16:113:114">
<path transform="translate(85.4429, 21.8826) scale(0.0040, -0.0040)" d="M54 -500l86 327c-35 -13 -71 -23 -108 -23c-46 0 -87 33 -87 79c0 40 32 72 72 72c25 0 49 -15 57 -39c10 -28 5 -59 34 -59c17 0 54 54 59 71l39 149c-34 -12 -70 -23 -106 -23c-46 0 -87 33 -87 79c0 40 33 72 73 72c25 0 48 -15 56 -39c10 -28 5 -59 34 -59
c16 0 52 51 56 68l40 151c-33 -12 -68 -22 -103 -22c-46 0 -87 33 -87 79c0 40 32 72 72 72c25 0 49 -15 57 -39c10 -28 5 -59 34 -59c15 0 46 49 52 63c6 12 23 12 28 0l-216 -920c-8 -7 -18 -10 -28 -10s-19 3 -27 10z" fill="currentColor"/>
</a>
<a style="color:inherit;" xlink:href="textedit://C:/Users/jwloy/OneDrive/Documents/GitHub/wygioatynlib/notation/pulseTrack_bc_61_ps1.ly:16:74:75">
<path transform="translate(60.7631, 21.8826) scale(0.0040, -0.0040)" d="M66 -500l101 327c-34 -12 -70 -23 -106 -23c-46 0 -87 33 -87 79c0 40 32 72 72 72c25 0 49 -15 57 -39c10 -28 5 -59 34 -59c16 0 55 51 60 68l46 151c-34 -12 -68 -22 -104 -22c-46 0 -87 33 -87 79c0 40 33 72 73 72c25 0 48 -15 56 -39c10 -28 5 -59 34 -59
c15 0 50 49 57 63c6 12 23 12 28 0l-179 -670c-8 -7 -17 -10 -27 -10s-20 3 -28 10z" fill="currentColor"/>
</a>
<a style="color:inherit;" xlink:href="textedit://C:/Users/jwloy/OneDrive/Documents/GitHub/wygioatynlib/notation/pulseTrack_bc_61_ps1.ly:16:79:80">
<path transform="translate(66.7397, 22.3826) scale(0.0040, -0.0040)" d="M220 138c56 0 109 -29 109 -91c0 -72 -56 -121 -103 -149c-36 -21 -76 -36 -117 -36c-56 0 -109 29 -109 91c0 72 56 121 103 149c36 21 76 36 117 36z" fill="currentColor"/>
</a>
<a style="color:inherit;" xlink:href="textedit://C:/Users/jwloy/OneDrive/Documents/GitHub/wygioatynlib/notation/pulseTrack_bc_61_ps1.ly:16:82:83">
<path transform="translate(67.3978, 23.3826) scale(0.0040, -0.0040)" d="M-50 0c0 28 22 50 50 50s50 -22 50 -50s-22 -50 -50 -50s-50 22 -50 50z" fill="currentColor"/>
</a>
<a style="color:inherit;" xlink:href="textedit://C:/Users/jwloy/OneDrive/Documents/GitHub/wygioatynlib/notation/pulseTrack_bc_61_ps1.ly:16:84:85">
<path transform="translate(67.3978, 24.6326) scale(0.0040, -0.0040)" d="M-211 88c-8 2 -14 9 -14 18c0 10 9 19 19 19c2 0 3 -1 4 -1l408 -105c13 0 19 -6 19 -19s-6 -19 -19 -19l-408 -105c-1 0 -2 -1 -4 -1c-10 0 -19 9 -19 19c0 9 6 16 14 18l251 65l140 23l-140 23z" fill="currentColor"/>
</a>
<rect transform="translate(67.9909, 21.8826)" x="-0.0650" y="-3.7500" width="0.1300" height="4.0622" ry="0.0400" fill="currentColor"/>
<path transform="translate(68.0559, 18.1726) scale(0.0040, -0.0040)" d="M0 -213v-5c0 -111 86 -193 146 -284c3 11 4 23 4 35c0 93 -85 187 -150 254zM0 0c0 -175 193 -292 193 -467c0 -29 -7 -58 -19 -84c17 -35 29 -71 29 -111c0 -36 -9 -72 -24 -105c18 -35 30 -72 30 -113c0 -60 -16 -119 -42 -173c-5 -8 -12 -11 -19 -11
c-13 0 -26 11 -23 27c26 49 42 102 42 157c0 91 -95 175 -167 233v-103h-16v750h16zM0 -430v-5c0 -112 89 -194 151 -285c6 19 9 38 9 58c0 90 -91 173 -160 232z" fill="currentColor"/>
<a style="color:inherit;" xlink:href="textedit://C:/Users/jwloy/OneDrive/Documents/GitHub/wygioatynlib/notation/pulseTrack_bc_61_ps1.ly:16:88:89">
<path transform="translate(70.5152, 21.8826) scale(0.0040, -0.0040)" d="M54 -500l86 327c-35 -13 -71 -23 -108 -23c-46 0 -87 33 -87 79c0 40 32 72 72 72c25 0 49 -15 57 -39c10 -28 5 -59 34 -59c17 0 54 54 59 71l39 149c-34 -12 -70 -23 -106 -23c-46 0 -87 33 -87 79c0 40 33 72 73 72c25 0 48 -15 56 -39c10 -28 5 -59 34 -59
c16 0 52 51 56 68l40 151c-33 -12 -68 -22 -103 -22c-46 0 -87 33 -87 79c0 40 32 72 72 72c25 0 49 -15 57 -39c10 -28 5 -59 34 -59c15 0 46 49 52 63c6 12 23 12 28 0l-216 -920c-8 -7 -18 -10 -28 -10s-19 3 -27 10z" fill="currentColor"/>
</a>
<a style="color:inherit;" xlink:href="textedit://C:/Users/jwloy/OneDrive/Documents/GitHub/wygioatynlib/notation/pulseTrack_bc_61_ps1.ly:16:93:94">
<path transform="translate(74.2036, 22.3826) scale(0.0040, -0.0040)" d="M220 138c56 0 109 -29 109 -91c0 -72 -56 -121 -103 -149c-36 -21 -76 -36 -117 -36c-56 0 -109 29 -109 91c0 72 56 121 103 149c36 21 76 36 117 36z" fill="currentColor"/>
</a>
<a style="color:inherit;" xlink:href="textedit://C:/Users/jwloy/OneDrive/Documents/GitHub/wygioatynlib/notation/pulseTrack_bc_61_ps1.ly:17:18:19">
<path transform="translate(104.0590, 21.8826) scale(0.0040, -0.0040)" d="M72 -250l117 326c-34 -12 -69 -22 -105 -22c-46 0 -87 33 -87 79c0 40 33 72 73 72c25 0 48 -15 56 -39c10 -28 6 -59 35 -59c16 0 54 48 61 63c6 12 23 12 28 0l-123 -420c-8 -7 -17 -10 -27 -10s-20 3 -28 10z" fill="currentColor"/>
</a>
<path transform="translate(105.5090, 21.3826) scale(0.0040, -0.0040)" d="M0 0c0 31 25 56 56 56s56 -25 56 -56s-25 -56 -56 -56s-56 25 -56 56z" fill="currentColor"/>
<rect transform="translate(12.7417, 21.8826)" x="-0.0650" y="-3.7500" width="0.1300" height="4.0622" ry="0.0400" fill="currentColor"/>
<a style="color:inherit;" xlink:href="textedit://C:/Users/jwloy/OneDrive/Documents/GitHub/wygioatynlib/notation/pulseTrack_bc_61_ps1.ly:16:10:11">
<path transform="translate(12.1486, 24.6326) scale(0.0040, -0.0040)" d="M-211 88c-8 2 -14 9 -14 18c0 10 9 19 19 19c2 0 3 -1 4 -1l408 -105c13 0 19 -6 19 -19s-6 -19 -19 -19l-408 -105c-1 0 -2 -1 -4 -1c-10 0 -19 9 -19 19c0 9 6 16 14 18l251 65l140 23l-140 23z" fill="currentColor"/>
</a>
<a style="color:inherit;" xlink:href="textedit://C:/Users/jwloy/OneDrive/Documents/GitHub/wygioatynlib/notation/pulseTrack_bc_61_ps1.ly:16:8:9">
<path transform="translate(12.1486, 23.3826) scale(0.0040, -0.0040)" d="M-50 0c0 28 22 50 50 50s50 -22 50 -50s-22 -50 -50 -50s-50 22 -50 50z" fill="currentColor"/>
</a>
<a style="color:inherit;" xlink:href="textedit://C:/Users/jwloy/OneDrive/Documents/GitHub/wygioatynlib/notation/pulseTrack_bc_61_ps1.ly:16:5:6">
<path transform="translate(11.4906, 22.3826) scale(0.0040, -0.0040)" d="M220 138c56 0 109 -29 109 -91c0 -72 -56 -121 -103 -149c-36 -21 -76 -36 -117 -36c-56 0 -109 29 -109 91c0 72 56 121 103 149c36 21 76 36 117 36z" fill="currentColor"/>
</a>
<a style="color:inherit;" xlink:href="textedit://C:/Users/jwloy/OneDrive/Documents/GitHub/wygioatynlib/notation/pulseTrack_bc_61_ps1.ly:16:118:119">
<path transform="translate(89.1313, 22.3826) scale(0.0040, -0.0040)" d="M220 138c56 0 109 -29 109 -91c0 -72 -56 -121 -103 -149c-36 -21 -76 -36 -117 -36c-56 0 -109 29 -109 91c0 72 56 121 103 149c36 21 76 36 117 36z" fill="currentColor"/>
</a>
<a style="color:inherit;" xlink:href="textedit://C:/Users/jwloy/OneDrive/Documents/GitHub/wygioatynlib/notation/pulseTrack_bc_61_ps1.ly:16:121:122">
<path transform="translate(89.7894, 23.3826) scale(0.0040, -0.0040)" d="M-50 0c0 28 22 50 50 50s50 -22 50 -50s-22 -50 -50 -50s-50 22 -50 50z" fill="currentColor"/>
</a>
<rect transform="translate(90.3824, 21.8826)" x="-0.0650" y="-3.7500" width="0.1300" height="4.0622" ry="0.0400" fill="currentColor"/>
<path transform="translate(90.4474, 18.1726) scale(0.0040, -0.0040)" d="M0 -213v-5c0 -111 86 -193 146 -284c3 11 4 23 4 35c0 93 -85 187 -150 254zM0 0c0 -175 193 -292 193 -467c0 -29 -7 -58 -19 -84c17 -35 29 -71 29 -111c0 -36 -9 -72 -24 -105c18 -35 30 -72 30 -113c0 -60 -16 -119 -42 -173c-5 -8 -12 -11 -19 -11
c-13 0 -26 11 -23 27c26 49 42 102 42 157c0 91 -95 175 -167 233v-103h-16v750h16zM0 -430v-5c0 -112 89 -194 151 -285c6 19 9 38 9 58c0 90 -91 173 -160 232z" fill="currentColor"/>
<a style="color:inherit;" xlink:href="textedit://C:/Users/jwloy/OneDrive/Documents/GitHub/wygioatynlib/notation/pulseTrack_bc_61_ps1.ly:16:125:126">
<path transform="translate(92.9068, 21.8826) scale(0.0040, -0.0040)" d="M54 -500l86 327c-35 -13 -71 -23 -108 -23c-46 0 -87 33 -87 79c0 40 32 72 72 72c25 0 49 -15 57 -39c10 -28 5 -59 34 -59c17 0 54 54 59 71l39 149c-34 -12 -70 -23 -106 -23c-46 0 -87 33 -87 79c0 40 33 72 73 72c25 0 48 -15 56 -39c10 -28 5 -59 34 -59
c16 0 52 51 56 68l40 151c-33 -12 -68 -22 -103 -22c-46 0 -87 33 -87 79c0 40 32 72 72 72c25 0 49 -15 57 -39c10 -28 5 -59 34 -59c15 0 46 49 52 63c6 12 23 12 28 0l-216 -920c-8 -7 -18 -10 -28 -10s-19 3 -27 10z" fill="currentColor"/>
</a>
<a style="color:inherit;" xlink:href="textedit://C:/Users/jwloy/OneDrive/Documents/GitHub/wygioatynlib/notation/pulseTrack_bc_61_ps1.ly:17:5:6">
<path transform="translate(96.5951, 22.3826) scale(0.0040, -0.0040)" d="M220 138c56 0 109 -29 109 -91c0 -72 -56 -121 -103 -149c-36 -21 -76 -36 -117 -36c-56 0 -109 29 -109 91c0 72 56 121 103 149c36 21 76 36 117 36z" fill="currentColor"/>
</a>
<a style="color:inherit;" xlink:href="textedit://C:/Users/jwloy/OneDrive/Documents/GitHub/wygioatynlib/notation/pulseTrack_bc_61_ps1.ly:17:8:9">
<path transform="translate(97.2532, 23.3826) scale(0.0040, -0.0040)" d="M-50 0c0 28 22 50 50 50s50 -22 50 -50s-22 -50 -50 -50s-50 22 -50 50z" fill="currentColor"/>
</a>
<a style="color:inherit;" xlink:href="textedit://C:/Users/jwloy/OneDrive/Documents/GitHub/wygioatynlib/notation/pulseTrack_bc_61_ps1.ly:17:10:11">
<path transform="translate(97.2532, 24.6326) scale(0.0040, -0.0040)" d="M-211 88c-8 2 -14 9 -14 18c0 10 9 19 19 19c2 0 3 -1 4 -1l408 -105c13 0 19 -6 19 -19s-6 -19 -19 -19l-408 -105c-1 0 -2 -1 -4 -1c-10 0 -19 9 -19 19c0 9 6 16 14 18l251 65l140 23l-140 23z" fill="currentColor"/>
</a>
<rect transform="translate(97.8463, 21.8826)" x="-0.0650" y="-3.7500" width="0.1300" height="4.0622" ry="0.0400" fill="currentColor"/>
<path transform="translate(97.9113, 18.1726) scale(0.0040, -0.0040)" d="M0 -213v-5c0 -111 86 -193 146 -284c3 11 4 23 4 35c0 93 -85 187 -150 254zM0 0c0 -175 193 -292 193 -467c0 -29 -7 -58 -19 -84c17 -35 29 -71 29 -111c0 -36 -9 -72 -24 -105c18 -35 30 -72 30 -113c0 -60 -16 -119 -42 -173c-5 -8 -12 -11 -19 -11
c-13 0 -26 11 -23 27c26 49 42 102 42 157c0 91 -95 175 -167 233v-103h-16v750h16zM0 -430v-5c0 -112 89 -194 151 -285c6 19 9 38 9 58c0 90 -91 173 -160 232z" fill="currentColor"/>
<a style="color:inherit;" xlink:href="textedit://C:/Users/jwloy/OneDrive/Documents/GitHub/wygioatynlib/notation/pulseTrack_bc_61_ps1.ly:17:14:15">
<path transform="translate(100.3706, 21.8826) scale(0.0040, -0.0040)" d="M54 -500l86 327c-35 -13 -71 -23 -108 -23c-46 0 -87 33 -87 79c0 40 32 72 72 72c25 0 49 -15 57 -39c10 -28 5 -59 34 -59c17 0 54 54 59 71l39 149c-34 -12 -70 -23 -106 -23c-46 0 -87 33 -87 79c0 40 33 72 73 72c25 0 48 -15 56 -39c10 -28 5 -59 34 -59
c16 0 52 51 56 68l40 151c-33 -12 -68 -22 -103 -22c-46 0 -87 33 -87 79c0 40 32 72 72 72c25 0 49 -15 57 -39c10 -28 5 -59 34 -59c15 0 46 49 52 63c6 12 23 12 28 0l-216 -920c-8 -7 -18 -10 -28 -10s-19 3 -27 10z" fill="currentColor"/>
</a>
<a style="color:inherit;" xlink:href="textedit://C:/Users/jwloy/OneDrive/Documents/GitHub/wygioatynlib/notation/pulseTrack_bc_61_ps1.ly:16:22:23">
<path transform="translate(24.9310, 22.3826) scale(0.0040, -0.0040)" d="M220 138c56 0 109 -29 109 -91c0 -72 -56 -121 -103 -149c-36 -21 -76 -36 -117 -36c-56 0 -109 29 -109 91c0 72 56 121 103 149c36 21 76 36 117 36z" fill="currentColor"/>
</a>
<a style="color:inherit;" xlink:href="textedit://C:/Users/jwloy/OneDrive/Documents/GitHub/wygioatynlib/notation/pulseTrack_bc_61_ps1.ly:16:25:26">
<path transform="translate(25.5891, 23.3826) scale(0.0040, -0.0040)" d="M-50 0c0 28 22 50 50 50s50 -22 50 -50s-22 -50 -50 -50s-50 22 -50 50z" fill="currentColor"/>
</a>
<rect transform="translate(26.1822, 21.8826)" x="-0.0650" y="-3.7500" width="0.1300" height="4.0622" ry="0.0400" fill="currentColor"/>
<path transform="translate(26.2472, 18.1726) scale(0.0040, -0.0040)" d="M0 -213v-5c0 -111 86 -193 146 -284c3 11 4 23 4 35c0 93 -85 187 -150 254zM0 0c0 -175 193 -292 193 -467c0 -29 -7 -58 -19 -84c17 -35 29 -71 29 -111c0 -36 -9 -72 -24 -105c18 -35 30 -72 30 -113c0 -60 -16 -119 -42 -173c-5 -8 -12 -11 -19 -11
c-13 0 -26 11 -23 27c26 49 42 102 42 157c0 91 -95 175 -167 233v-103h-16v750h16zM0 -430v-5c0 -112 89 -194 151 -285c6 19 9 38 9 58c0 90 -91 173 -160 232z" fill="currentColor"/>
<a style="color:inherit;" xlink:href="textedit://C:/Users/jwloy/OneDrive/Documents/GitHub/wygioatynlib/notation/pulseTrack_bc_61_ps1.ly:16:29:30">
<path transform="translate(28.7066, 21.8826) scale(0.0040, -0.0040)" d="M54 -500l86 327c-35 -13 -71 -23 -108 -23c-46 0 -87 33 -87 79c0 40 32 72 72 72c25 0 49 -15 57 -39c10 -28 5 -59 34 -59c17 0 54 54 59 71l39 149c-34 -12 -70 -23 -106 -23c-46 0 -87 33 -87 79c0 40 33 72 73 72c25 0 48 -15 56 -39c10 -28 5 -59 34 -59
c16 0 52 51 56 68l40 151c-33 -12 -68 -22 -103 -22c-46 0 -87 33 -87 79c0 40 32 72 72 72c25 0 49 -15 57 -39c10 -28 5 -59 34 -59c15 0 46 49 52 63c6 12 23 12 28 0l-216 -920c-8 -7 -18 -10 -28 -10s-19 3 -27 10z" fill="currentColor"/>
</a>
<a style="color:inherit;" xlink:href="textedit://C:/Users/jwloy/OneDrive/Documents/GitHub/wygioatynlib/notation/pulseTrack_bc_61_ps1.ly:16:34:35">
<path transform="translate(32.3949, 22.3826) scale(0.0040, -0.0040)" d="M220 138c56 0 109 -29 109 -91c0 -72 -56 -121 -103 -149c-36 -21 -76 -36 -117 -36c-56 0 -109 29 -109 91c0 72 56 121 103 149c36 21 76 36 117 36z" fill="currentColor"/>
</a>
<a style="color:inherit;" xlink:href="textedit://C:/Users/jwloy/OneDrive/Documents/GitHub/wygioatynlib/notation/pulseTrack_bc_61_ps1.ly:16:37:38">
<path transform="translate(33.0530, 23.3826) scale(0.0040, -0.0040)" d="M-50 0c0 28 22 50 50 50s50 -22 50 -50s-22 -50 -50 -50s-50 22 -50 50z" fill="currentColor"/>
</a>
<rect transform="translate(33.6461, 21.8826)" x="-0.0650" y="-3.7500" width="0.1300" height="4.0622" ry="0.0400" fill="currentColor"/>
<path transform="translate(33.7111, 18.1726) scale(0.0040, -0.0040)" d="M0 -213v-5c0 -111 86 -193 146 -284c3 11 4 23 4 35c0 93 -85 187 -150 254zM0 0c0 -175 193 -292 193 -467c0 -29 -7 -58 -19 -84c17 -35 29 -71 29 -111c0 -36 -9 -72 -24 -105c18 -35 30 -72 30 -113c0 -60 -16 -119 -42 -173c-5 -8 -12 -11 -19 -11
c-13 0 -26 11 -23 27c26 49 42 102 42 157c0 91 -95 175 -167 233v-103h-16v750h16zM0 -430v-5c0 -112 89 -194 151 -285c6 19 9 38 9 58c0 90 -91 173 -160 232z" fill="currentColor"/>
<text transform="translate(4.7345, 18.8326)" font-family="Century Schoolbook L" font-size="1.7461" text-anchor="start" fill="currentColor">
<tspan>
2</tspan>
</text>
<path transform="translate(6.4906, 20.8826) scale(0.0040, -0.0040)" d="M557 -125c0 28 23 51 51 51s51 -23 51 -51s-23 -51 -51 -51s-51 23 -51 51zM557 125c0 28 23 51 51 51s51 -23 51 -51s-23 -51 -51 -51s-51 23 -51 51zM232 263c172 0 293 -88 293 -251c0 -263 -263 -414 -516 -521c-3 -3 -6 -4 -9 -4c-7 0 -13 6 -13 13c0 3 1 6 4 9
c202 118 412 265 412 493c0 120 -63 235 -171 235c-74 0 -129 -54 -154 -126c11 5 22 8 34 8c55 0 100 -45 100 -100c0 -58 -44 -106 -100 -106c-60 0 -112 47 -112 106c0 133 102 244 232 244z" fill="currentColor"/>
<path transform="translate(12.8067, 18.1726) scale(0.0040, -0.0040)" d="M0 -213v-5c0 -111 86 -193 146 -284c3 11 4 23 4 35c0 93 -85 187 -150 254zM0 0c0 -175 193 -292 193 -467c0 -29 -7 -58 -19 -84c17 -35 29 -71 29 -111c0 -36 -9 -72 -24 -105c18 -35 30 -72 30 -113c0 -60 -16 -119 -42 -173c-5 -8 -12 -11 -19 -11
c-13 0 -26 11 -23 27c26 49 42 102 42 157c0 91 -95 175 -167 233v-103h-16v750h16zM0 -430v-5c0 -112 89 -194 151 -285c6 19 9 38 9 58c0 90 -91 173 -160 232z" fill="currentColor"/>
<a style="color:inherit;" xlink:href="textedit://C:/Users/jwloy/OneDrive/Documents/GitHub/wygioatynlib/notation/pulseTrack_bc_61_ps1.ly:16:13:14">
<path transform="translate(15.2661, 21.8826) scale(0.0040, -0.0040)" d="M54 -500l86 327c-35 -13 -71 -23 -108 -23c-46 0 -87 33 -87 79c0 40 32 72 72 72c25 0 49 -15 57 -39c10 -28 5 -59 34 -59c17 0 54 54 59 71l39 149c-34 -12 -70 -23 -106 -23c-46 0 -87 33 -87 79c0 40 33 72 73 72c25 0 48 -15 56 -39c10 -28 5 -59 34 -59
c16 0 52 51 56 68l40 151c-33 -12 -68 -22 -103 -22c-46 0 -87 33 -87 79c0 40 32 72 72 72c25 0 49 -15 57 -39c10 -28 5 -59 34 -59c15 0 46 49 52 63c6 12 23 12 28 0l-216 -920c-8 -7 -18 -10 -28 -10s-19 3 -27 10z" fill="currentColor"/>
</a>
<a style="color:inherit;" xlink:href="textedit://C:/Users/jwloy/OneDrive/Documents/GitHub/wygioatynlib/notation/pulseTrack_bc_61_ps1.ly:16:17:18">
<path transform="translate(18.9544, 21.8826) scale(0.0040, -0.0040)" d="M66 -500l101 327c-34 -12 -70 -23 -106 -23c-46 0 -87 33 -87 79c0 40 32 72 72 72c25 0 49 -15 57 -39c10 -28 5 -59 34 -59c16 0 55 51 60 68l46 151c-34 -12 -68 -22 -104 -22c-46 0 -87 33 -87 79c0 40 33 72 73 72c25 0 48 -15 56 -39c10 -28 5 -59 34 -59
c15 0 50 49 57 63c6 12 23 12 28 0l-179 -670c-8 -7 -17 -10 -27 -10s-20 3 -28 10z" fill="currentColor"/>
</a>
<a style="color:inherit;" xlink:href="textedit://C:/Users/jwloy/OneDrive/Documents/GitHub/wygioatynlib/notation/pulseTrack_bc_61_ps1.ly:16:55:56">
<path transform="translate(43.6343, 21.8826) scale(0.0040, -0.0040)" d="M54 -500l86 327c-35 -13 -71 -23 -108 -23c-46 0 -87 33 -87 79c0 40 32 72 72 72c25 0 49 -15 57 -39c10 -28 5 -59 34 -59c17 0 54 54 59 71l39 149c-34 -12 -70 -23 -106 -23c-46 0 -87 33 -87 79c0 40 33 72 73 72c25 0 48 -15 56 -39c10 -28 5 -59 34 -59
c16 0 52 51 56 68l40 151c-33 -12 -68 -22 -103 -22c-46 0 -87 33 -87 79c0 40 32 72 72 72c25 0 49 -15 57 -39c10 -28 5 -59 34 -59c15 0 46 49 52 63c6 12 23 12 28 0l-216 -920c-8 -7 -18 -10 -28 -10s-19 3 -27 10z" fill="currentColor"/>
</a>
<a style="color:inherit;" xlink:href="textedit://C:/Users/jwloy/OneDrive/Documents/GitHub/wygioatynlib/notation/pulseTrack_bc_61_ps1.ly:16:59:60">
<path transform="translate(47.3226, 21.8826) scale(0.0040, -0.0040)" d="M66 -500l101 327c-34 -12 -70 -23 -106 -23c-46 0 -87 33 -87 79c0 40 32 72 72 72c25 0 49 -15 57 -39c10 -28 5 -59 34 -59c16 0 55 51 60 68l46 151c-34 -12 -68 -22 -104 -22c-46 0 -87 33 -87 79c0 40 33 72 73 72c25 0 48 -15 56 -39c10 -28 5 -59 34 -59
c15 0 50 49 57 63c6 12 23 12 28 0l-179 -670c-8 -7 -17 -10 -27 -10s-20 3 -28 10z" fill="currentColor"/>
</a>
<a style="color:inherit;" xlink:href="textedit://C:/Users/jwloy/OneDrive/Documents/GitHub/wygioatynlib/notation/pulseTrack_bc_61_ps1.ly:16:64:65">
<path transform="translate(53.2992, 22.3826) scale(0.0040, -0.0040)" d="M220 138c56 0 109 -29 109 -91c0 -72 -56 -121 -103 -149c-36 -21 -76 -36 -117 -36c-56 0 -109 29 -109 91c0 72 56 121 103 149c36 21 76 36 117 36z" fill="currentColor"/>
</a>
<a style="color:inherit;" xlink:href="textedit://C:/Users/jwloy/OneDrive/Documents/GitHub/wygioatynlib/notation/pulseTrack_bc_61_ps1.ly:16:67:68">
<path transform="translate(53.9573, 23.3826) scale(0.0040, -0.0040)" d="M-50 0c0 28 22 50 50 50s50 -22 50 -50s-22 -50 -50 -50s-50 22 -50 50z" fill="currentColor"/>
</a>
<rect transform="translate(54.5504, 21.8826)" x="-0.0650" y="-3.7500" width="0.1300" height="4.0622" ry="0.0400" fill="currentColor"/>
<path transform="translate(54.6154, 18.1726) scale(0.0040, -0.0040)" d="M0 -213v-5c0 -111 86 -193 146 -284c3 11 4 23 4 35c0 93 -85 187 -150 254zM0 0c0 -175 193 -292 193 -467c0 -29 -7 -58 -19 -84c17 -35 29 -71 29 -111c0 -36 -9 -72 -24 -105c18 -35 30 -72 30 -113c0 -60 -16 -119 -42 -173c-5 -8 -12 -11 -19 -11
c-13 0 -26 11 -23 27c26 49 42 102 42 157c0 91 -95 175 -167 233v-103h-16v750h16zM0 -430v-5c0 -112 89 -194 151 -285c6 19 9 38 9 58c0 90 -91 173 -160 232z" fill="currentColor"/>
<a style="color:inherit;" xlink:href="textedit://C:/Users/jwloy/OneDrive/Documents/GitHub/wygioatynlib/notation/pulseTrack_bc_61_ps1.ly:16:70:71">
<path transform="translate(57.0747, 21.8826) scale(0.0040, -0.0040)" d="M54 -500l86 327c-35 -13 -71 -23 -108 -23c-46 0 -87 33 -87 79c0 40 32 72 72 72c25 0 49 -15 57 -39c10 -28 5 -59 34 -59c17 0 54 54 59 71l39 149c-34 -12 -70 -23 -106 -23c-46 0 -87 33 -87 79c0 40 33 72 73 72c25 0 48 -15 56 -39c10 -28 5 -59 34 -59
c16 0 52 51 56 68l40 151c-33 -12 -68 -22 -103 -22c-46 0 -87 33 -87 79c0 40 32 72 72 72c25 0 49 -15 57 -39c10 -28 5 -59 34 -59c15 0 46 49 52 63c6 12 23 12 28 0l-216 -920c-8 -7 -18 -10 -28 -10s-19 3 -27 10z" fill="currentColor"/>
</a>
<a style="color:inherit;" xlink:href="textedit://C:/Users/jwloy/OneDrive/Documents/GitHub/wygioatynlib/notation/pulseTrack_bc_61_ps1.ly:16:41:42">
<path transform="translate(36.1704, 21.8826) scale(0.0040, -0.0040)" d="M54 -500l86 327c-35 -13 -71 -23 -108 -23c-46 0 -87 33 -87 79c0 40 32 72 72 72c25 0 49 -15 57 -39c10 -28 5 -59 34 -59c17 0 54 54 59 71l39 149c-34 -12 -70 -23 -106 -23c-46 0 -87 33 -87 79c0 40 33 72 73 72c25 0 48 -15 56 -39c10 -28 5 -59 34 -59
c16 0 52 51 56 68l40 151c-33 -12 -68 -22 -103 -22c-46 0 -87 33 -87 79c0 40 32 72 72 72c25 0 49 -15 57 -39c10 -28 5 -59 34 -59c15 0 46 49 52 63c6 12 23 12 28 0l-216 -920c-8 -7 -18 -10 -28 -10s-19 3 -27 10z" fill="currentColor"/>
</a>
<a style="color:inherit;" xlink:href="textedit://C:/Users/jwloy/OneDrive/Documents/GitHub/wygioatynlib/notation/pulseTrack_bc_61_ps1.ly:16:47:48">
<path transform="translate(39.8587, 22.3826) scale(0.0040, -0.0040)" d="M220 138c56 0 109 -29 109 -91c0 -72 -56 -121 -103 -149c-36 -21 -76 -36 -117 -36c-56 0 -109 29 -109 91c0 72 56 121 103 149c36 21 76 36 117 36z" fill="currentColor"/>
</a>
<a style="color:inherit;" xlink:href="textedit://C:/Users/jwloy/OneDrive/Documents/GitHub/wygioatynlib/notation/pulseTrack_bc_61_ps1.ly:16:50:51">
<path transform="translate(40.5168, 23.3826) scale(0.0040, -0.0040)" d="M-50 0c0 28 22 50 50 50s50 -22 50 -50s-22 -50 -50 -50s-50 22 -50 50z" fill="currentColor"/>
</a>
<a style="color:inherit;" xlink:href="textedit://C:/Users/jwloy/OneDrive/Documents/GitHub/wygioatynlib/notation/pulseTrack_bc_61_ps1.ly:16:52:53">
<path transform="translate(40.5168, 24.6326) scale(0.0040, -0.0040)" d="M-211 88c-8 2 -14 9 -14 18c0 10 9 19 19 19c2 0 3 -1 4 -1l408 -105c13 0 19 -6 19 -19s-6 -19 -19 -19l-408 -105c-1 0 -2 -1 -4 -1c-10 0 -19 9 -19 19c0 9 6 16 14 18l251 65l140 23l-140 23z" fill="currentColor"/>
</a>
<rect transform="translate(41.1099, 21.8826)" x="-0.0650" y="-3.7500" width="0.1300" height="4.0622" ry="0.0400" fill="currentColor"/>
<path transform="translate(41.1749, 18.1726) scale(0.0040, -0.0040)" d="M0 -213v-5c0 -111 86 -193 146 -284c3 11 4 23 4 35c0 93 -85 187 -150 254zM0 0c0 -175 193 -292 193 -467c0 -29 -7 -58 -19 -84c17 -35 29 -71 29 -111c0 -36 -9 -72 -24 -105c18 -35 30 -72 30 -113c0 -60 -16 -119 -42 -173c-5 -8 -12 -11 -19 -11
c-13 0 -26 11 -23 27c26 49 42 102 42 157c0 91 -95 175 -167 233v-103h-16v750h16zM0 -430v-5c0 -112 89 -194 151 -285c6 19 9 38 9 58c0 90 -91 173 -160 232z" fill="currentColor"/>
<line transform="translate(5.6906, 35.8826)" stroke-linejoin="round" stroke-linecap="round" stroke-width="0.1000" stroke="currentColor" x1="0.0500" y1="0.0000" x2="108.0705" y2="0.0000"/>
<line transform="translate(5.6906, 34.8826)" stroke-linejoin="round" stroke-linecap="round" stroke-width="0.1000" stroke="currentColor" x1="0.0500" y1="0.0000" x2="108.0705" y2="0.0000"/>
<line transform="translate(5.6906, 33.8826)" stroke-linejoin="round" stroke-linecap="round" stroke-width="0.1000" stroke="currentColor" x1="0.0500" y1="0.0000" x2="108.0705" y2="0.0000"/>
<line transform="translate(5.6906, 32.8826)" stroke-linejoin="round" stroke-linecap="round" stroke-width="0.1000" stroke="currentColor" x1="0.0500" y1="0.0000" x2="108.0705" y2="0.0000"/>
<line transform="translate(5.6906, 31.8826)" stroke-linejoin="round" stroke-linecap="round" stroke-width="0.1000" stroke="currentColor" x1="0.0500" y1="0.0000" x2="108.0705" y2="0.0000"/>
<rect transform="translate(110.7663, 33.8826)" x="0.0000" y="-2.0000" width="0.1900" height="4.0000" ry="0.0000" fill="currentColor"/>
<a style="color:inherit;" xlink:href="textedit://C:/Users/jwloy/OneDrive/Documents/GitHub/wygioatynlib/notation/pulseTrack_bc_61_ps1.ly:17:92:93">
<path transform="translate(58.5351, 34.3826) scale(0.0040, -0.0040)" d="M220 138c56 0 109 -29 109 -91c0 -72 -56 -121 -103 -149c-36 -21 -76 -36 -117 -36c-56 0 -109 29 -109 91c0 72 56 121 103 149c36 21 76 36 117 36z" fill="currentColor"/>
</a>
<a style="color:inherit;" xlink:href="textedit://C:/Users/jwloy/OneDrive/Documents/GitHub/wygioatynlib/notation/pulseTrack_bc_61_ps1.ly:17:95:96">
<path transform="translate(59.1932, 35.3826) scale(0.0040, -0.0040)" d="M-50 0c0 28 22 50 50 50s50 -22 50 -50s-22 -50 -50 -50s-50 22 -50 50z" fill="currentColor"/>
</a>
<rect transform="translate(59.7863, 33.8826)" x="-0.0650" y="-3.7500" width="0.1300" height="4.0622" ry="0.0400" fill="currentColor"/>
<path transform="translate(59.8513, 30.1726) scale(0.0040, -0.0040)" d="M0 -213v-5c0 -111 86 -193 146 -284c3 11 4 23 4 35c0 93 -85 187 -150 254zM0 0c0 -175 193 -292 193 -467c0 -29 -7 -58 -19 -84c17 -35 29 -71 29 -111c0 -36 -9 -72 -24 -105c18 -35 30 -72 30 -113c0 -60 -16 -119 -42 -173c-5 -8 -12 -11 -19 -11
c-13 0 -26 11 -23 27c26 49 42 102 42 157c0 91 -95 175 -167 233v-103h-16v750h16zM0 -430v-5c0 -112 89 -194 151 -285c6 19 9 38 9 58c0 90 -91 173 -160 232z" fill="currentColor"/>
<a style="color:inherit;" xlink:href="textedit://C:/Users/jwloy/OneDrive/Documents/GitHub/wygioatynlib/notation/pulseTrack_bc_61_ps1.ly:17:98:99">
<path transform="translate(62.6230, 33.8826) scale(0.0040, -0.0040)" d="M54 -500l86 327c-35 -13 -71 -23 -108 -23c-46 0 -87 33 -87 79c0 40 32 72 72 72c25 0 49 -15 57 -39c10 -28 5 -59 34 -59c17 0 54 54 59 71l39 149c-34 -12 -70 -23 -106 -23c-46 0 -87 33 -87 79c0 40 33 72 73 72c25 0 48 -15 56 -39c10 -28 5 -59 34 -59
c16 0 52 51 56 68l40 151c-33 -12 -68 -22 -103 -22c-46 0 -87 33 -87 79c0 40 32 72 72 72c25 0 49 -15 57 -39c10 -28 5 -59 34 -59c15 0 46 49 52 63c6 12 23 12 28 0l-216 -920c-8 -7 -18 -10 -28 -10s-19 3 -27 10z" fill="currentColor"/>
</a>
<a style="color:inherit;" xlink:href="textedit://C:/Users/jwloy/OneDrive/Documents/GitHub/wygioatynlib/notation/pulseTrack_bc_61_ps1.ly:17:102:103">
<path transform="translate(66.6237, 33.8826) scale(0.0040, -0.0040)" d="M66 -500l101 327c-34 -12 -70 -23 -106 -23c-46 0 -87 33 -87 79c0 40 32 72 72 72c25 0 49 -15 57 -39c10 -28 5 -59 34 -59c16 0 55 51 60 68l46 151c-34 -12 -68 -22 -104 -22c-46 0 -87 33 -87 79c0 40 33 72 73 72c25 0 48 -15 56 -39c10 -28 5 -59 34 -59
c15 0 50 49 57 63c6 12 23 12 28 0l-179 -670c-8 -7 -17 -10 -27 -10s-20 3 -28 10z" fill="currentColor"/>
</a>
<a style="color:inherit;" xlink:href="textedit://C:/Users/jwloy/OneDrive/Documents/GitHub/wygioatynlib/notation/pulseTrack_bc_61_ps1.ly:17:107:108">
<path transform="translate(73.2251, 34.3826) scale(0.0040, -0.0040)" d="M220 138c56 0 109 -29 109 -91c0 -72 -56 -121 -103 -149c-36 -21 -76 -36 -117 -36c-56 0 -109 29 -109 91c0 72 56 121 103 149c36 21 76 36 117 36z" fill="currentColor"/>
</a>
<path transform="translate(43.6740, 30.1726) scale(0.0040, -0.0040)" d="M0 -213v-5c0 -111 86 -193 146 -284c3 11 4 23 4 35c0 93 -85 187 -150 254zM0 0c0 -175 193 -292 193 -467c0 -29 -7 -58 -19 -84c17 -35 29 -71 29 -111c0 -36 -9 -72 -24 -105c18 -35 30 -72 30 -113c0 -60 -16 -119 -42 -173c-5 -8 -12 -11 -19 -11
c-13 0 -26 11 -23 27c26 49 42 102 42 157c0 91 -95 175 -167 233v-103h-16v750h16zM0 -430v-5c0 -112 89 -194 151 -285c6 19 9 38 9 58c0 90 -91 173 -160 232z" fill="currentColor"/>
<a style="color:inherit;" xlink:href="textedit://C:/Users/jwloy/OneDrive/Documents/GitHub/wygioatynlib/notation/pulseTrack_bc_61_ps1.ly:17:74:75">
<path transform="translate(46.4457, 33.8826) scale(0.0040, -0.0040)" d="M54 -500l86 327c-35 -13 -71 -23 -108 -23c-46 0 -87 33 -87 79c0 40 32 72 72 72c25 0 49 -15 57 -39c10 -28 5 -59 34 -59c17 0 54 54 59 71l39 149c-34 -12 -70 -23 -106 -23c-46 0 -87 33 -87 79c0 40 33 72 73 72c25 0 48 -15 56 -39c10 -28 5 -59 34 -59
c16 0 52 51 56 68l40 151c-33 -12 -68 -22 -103 -22c-46 0 -87 33 -87 79c0 40 32 72 72 72c25 0 49 -15 57 -39c10 -28 5 -59 34 -59c15 0 46 49 52 63c6 12 23 12 28 0l-216 -920c-8 -7 -18 -10 -28 -10s-19 3 -27 10z" fill="currentColor"/>
</a>
<a style="color:inherit;" xlink:href="textedit://C:/Users/jwloy/OneDrive/Documents/GitHub/wygioatynlib/notation/pulseTrack_bc_61_ps1.ly:17:79:80">
<path transform="translate(50.4465, 34.3826) scale(0.0040, -0.0040)" d="M220 138c56 0 109 -29 109 -91c0 -72 -56 -121 -103 -149c-36 -21 -76 -36 -117 -36c-56 0 -109 29 -109 91c0 72 56 121 103 149c36 21 76 36 117 36z" fill="currentColor"/>
</a>
<a style="color:inherit;" xlink:href="textedit://C:/Users/jwloy/OneDrive/Documents/GitHub/wygioatynlib/notation/pulseTrack_bc_61_ps1.ly:17:82:83">
<path transform="translate(51.1045, 35.3826) scale(0.0040, -0.0040)" d="M-50 0c0 28 22 50 50 50s50 -22 50 -50s-22 -50 -50 -50s-50 22 -50 50z" fill="currentColor"/>
</a>
<rect transform="translate(51.6976, 33.8826)" x="-0.0650" y="-3.7500" width="0.1300" height="4.0622" ry="0.0400" fill="currentColor"/>
<path transform="translate(51.7626, 30.1726) scale(0.0040, -0.0040)" d="M0 -213v-5c0 -111 86 -193 146 -284c3 11 4 23 4 35c0 93 -85 187 -150 254zM0 0c0 -175 193 -292 193 -467c0 -29 -7 -58 -19 -84c17 -35 29 -71 29 -111c0 -36 -9 -72 -24 -105c18 -35 30 -72 30 -113c0 -60 -16 -119 -42 -173c-5 -8 -12 -11 -19 -11
c-13 0 -26 11 -23 27c26 49 42 102 42 157c0 91 -95 175 -167 233v-103h-16v750h16zM0 -430v-5c0 -112 89 -194 151 -285c6 19 9 38 9 58c0 90 -91 173 -160 232z" fill="currentColor"/>
<a style="color:inherit;" xlink:href="textedit://C:/Users/jwloy/OneDrive/Documents/GitHub/wygioatynlib/notation/pulseTrack_bc_61_ps1.ly:17:86:87">
<path transform="translate(54.5344, 33.8826) scale(0.0040, -0.0040)" d="M54 -500l86 327c-35 -13 -71 -23 -108 -23c-46 0 -87 33 -87 79c0 40 32 72 72 72c25 0 49 -15 57 -39c10 -28 5 -59 34 -59c17 0 54 54 59 71l39 149c-34 -12 -70 -23 -106 -23c-46 0 -87 33 -87 79c0 40 33 72 73 72c25 0 48 -15 56 -39c10 -28 5 -59 34 -59
c16 0 52 51 56 68l40 151c-33 -12 -68 -22 -103 -22c-46 0 -87 33 -87 79c0 40 32 72 72 72c25 0 49 -15 57 -39c10 -28 5 -59 34 -59c15 0 46 49 52 63c6 12 23 12 28 0l-216 -920c-8 -7 -18 -10 -28 -10s-19 3 -27 10z" fill="currentColor"/>
</a>
<a style="color:inherit;" xlink:href="textedit://C:/Users/jwloy/OneDrive/Documents/GitHub/wygioatynlib/notation/pulseTrack_bc_61_ps1.ly:17:128:129">
<path transform="translate(92.6538, 35.3826) scale(0.0040, -0.0040)" d="M-50 0c0 28 22 50 50 50s50 -22 50 -50s-22 -50 -50 -50s-50 22 -50 50z" fill="currentColor"/>
</a>
<a style="color:inherit;" xlink:href="textedit://C:/Users/jwloy/OneDrive/Documents/GitHub/wygioatynlib/notation/pulseTrack_bc_61_ps1.ly:17:130:131">
<path transform="translate(92.6538, 36.6326) scale(0.0040, -0.0040)" d="M-211 88c-8 2 -14 9 -14 18c0 10 9 19 19 19c2 0 3 -1 4 -1l408 -105c13 0 19 -6 19 -19s-6 -19 -19 -19l-408 -105c-1 0 -2 -1 -4 -1c-10 0 -19 9 -19 19c0 9 6 16 14 18l251 65l140 23l-140 23z" fill="currentColor"/>
</a>
<rect transform="translate(93.2469, 33.8826)" x="-0.0650" y="-3.7500" width="0.1300" height="4.0622" ry="0.0400" fill="currentColor"/>
<path transform="translate(93.3119, 30.1726) scale(0.0040, -0.0040)" d="M0 -213v-5c0 -111 86 -193 146 -284c3 11 4 23 4 35c0 93 -85 187 -150 254zM0 0c0 -175 193 -292 193 -467c0 -29 -7 -58 -19 -84c17 -35 29 -71 29 -111c0 -36 -9 -72 -24 -105c18 -35 30 -72 30 -113c0 -60 -16 -119 -42 -173c-5 -8 -12 -11 -19 -11
c-13 0 -26 11 -23 27c26 49 42 102 42 157c0 91 -95 175 -167 233v-103h-16v750h16zM0 -430v-5c0 -112 89 -194 151 -285c6 19 9 38 9 58c0 90 -91 173 -160 232z" fill="currentColor"/>
<a style="color:inherit;" xlink:href="textedit://C:/Users/jwloy/OneDrive/Documents/GitHub/wygioatynlib/notation/pulseTrack_bc_61_ps1.ly:17:134:135">
<path transform="translate(96.0836, 33.8826) scale(0.0040, -0.0040)" d="M54 -500l86 327c-35 -13 -71 -23 -108 -23c-46 0 -87 33 -87 79c0 40 32 72 72 72c25 0 49 -15 57 -39c10 -28 5 -59 34 -59c17 0 54 54 59 71l39 149c-34 -12 -70 -23 -106 -23c-46 0 -87 33 -87 79c0 40 33 72 73 72c25 0 48 -15 56 -39c10 -28 5 -59 34 -59
c16 0 52 51 56 68l40 151c-33 -12 -68 -22 -103 -22c-46 0 -87 33 -87 79c0 40 32 72 72 72c25 0 49 -15 57 -39c10 -28 5 -59 34 -59c15 0 46 49 52 63c6 12 23 12 28 0l-216 -920c-8 -7 -18 -10 -28 -10s-19 3 -27 10z" fill="currentColor"/>
</a>
<path transform="translate(101.5343, 33.3826) scale(0.0040, -0.0040)" d="M0 0c0 31 25 56 56 56s56 -25 56 -56s-25 -56 -56 -56s-56 25 -56 56z" fill="currentColor"/>
<a style="color:inherit;" xlink:href="textedit://C:/Users/jwloy/OneDrive/Documents/GitHub/wygioatynlib/notation/pulseTrack_bc_61_ps1.ly:17:138:139">
<path transform="translate(100.0843, 33.8826) scale(0.0040, -0.0040)" d="M72 -250l117 326c-34 -12 -69 -22 -105 -22c-46 0 -87 33 -87 79c0 40 33 72 73 72c25 0 48 -15 56 -39c10 -28 6 -59 35 -59c16 0 54 48 61 63c6 12 23 12 28 0l-123 -420c-8 -7 -17 -10 -27 -10s-20 3 -28 10z" fill="currentColor"/>
</a>
<a style="color:inherit;" xlink:href="textedit://C:/Users/jwloy/OneDrive/Documents/GitHub/wygioatynlib/notation/pulseTrack_bc_61_ps1.ly:17:110:111">
<path transform="translate(73.8832, 35.3826) scale(0.0040, -0.0040)" d="M-50 0c0 28 22 50 50 50s50 -22 50 -50s-22 -50 -50 -50s-50 22 -50 50z" fill="currentColor"/>
</a>
<a style="color:inherit;" xlink:href="textedit://C:/Users/jwloy/OneDrive/Documents/GitHub/wygioatynlib/notation/pulseTrack_bc_61_ps1.ly:17:112:113">
<path transform="translate(73.8832, 36.6326) scale(0.0040, -0.0040)" d="M-211 88c-8 2 -14 9 -14 18c0 10 9 19 19 19c2 0 3 -1 4 -1l408 -105c13 0 19 -6 19 -19s-6 -19 -19 -19l-408 -105c-1 0 -2 -1 -4 -1c-10 0 -19 9 -19 19c0 9 6 16 14 18l251 65l140 23l-140 23z" fill="currentColor"/>
</a>
<rect transform="translate(74.4763, 33.8826)" x="-0.0650" y="-3.7500" width="0.1300" height="4.0622" ry="0.0400" fill="currentColor"/>
<path transform="translate(74.5413, 30.1726) scale(0.0040, -0.0040)" d="M0 -213v-5c0 -111 86 -193 146 -284c3 11 4 23 4 35c0 93 -85 187 -150 254zM0 0c0 -175 193 -292 193 -467c0 -29 -7 -58 -19 -84c17 -35 29 -71 29 -111c0 -36 -9 -72 -24 -105c18 -35 30 -72 30 -113c0 -60 -16 -119 -42 -173c-5 -8 -12 -11 -19 -11
c-13 0 -26 11 -23 27c26 49 42 102 42 157c0 91 -95 175 -167 233v-103h-16v750h16zM0 -430v-5c0 -112 89 -194 151 -285c6 19 9 38 9 58c0 90 -91 173 -160 232z" fill="currentColor"/>
<a style="color:inherit;" xlink:href="textedit://C:/Users/jwloy/OneDrive/Documents/GitHub/wygioatynlib/notation/pulseTrack_bc_61_ps1.ly:17:116:117">
<path transform="translate(77.3130, 33.8826) scale(0.0040, -0.0040)" d="M54 -500l86 327c-35 -13 -71 -23 -108 -23c-46 0 -87 33 -87 79c0 40 32 72 72 72c25 0 49 -15 57 -39c10 -28 5 -59 34 -59c17 0 54 54 59 71l39 149c-34 -12 -70 -23 -106 -23c-46 0 -87 33 -87 79c0 40 33 72 73 72c25 0 48 -15 56 -39c10 -28 5 -59 34 -59
c16 0 52 51 56 68l40 151c-33 -12 -68 -22 -103 -22c-46 0 -87 33 -87 79c0 40 32 72 72 72c25 0 49 -15 57 -39c10 -28 5 -59 34 -59c15 0 46 49 52 63c6 12 23 12 28 0l-216 -920c-8 -7 -18 -10 -28 -10s-19 3 -27 10z" fill="currentColor"/>
</a>
<a style="color:inherit;" xlink:href="textedit://C:/Users/jwloy/OneDrive/Documents/GitHub/wygioatynlib/notation/pulseTrack_bc_61_ps1.ly:17:120:121">
<path transform="translate(81.3137, 33.8826) scale(0.0040, -0.0040)" d="M72 -250l117 326c-34 -12 -69 -22 -105 -22c-46 0 -87 33 -87 79c0 40 33 72 73 72c25 0 48 -15 56 -39c10 -28 6 -59 35 -59c16 0 54 48 61 63c6 12 23 12 28 0l-123 -420c-8 -7 -17 -10 -27 -10s-20 3 -28 10z" fill="currentColor"/>
</a>
<path transform="translate(82.7637, 33.3826) scale(0.0040, -0.0040)" d="M0 0c0 31 25 56 56 56s56 -25 56 -56s-25 -56 -56 -56s-56 25 -56 56z" fill="currentColor"/>
<a style="color:inherit;" xlink:href="textedit://C:/Users/jwloy/OneDrive/Documents/GitHub/wygioatynlib/notation/pulseTrack_bc_61_ps1.ly:17:125:126">
<path transform="translate(91.9957, 34.3826) scale(0.0040, -0.0040)" d="M220 138c56 0 109 -29 109 -91c0 -72 -56 -121 -103 -149c-36 -21 -76 -36 -117 -36c-56 0 -109 29 -109 91c0 72 56 121 103 149c36 21 76 36 117 36z" fill="currentColor"/>
</a>
<a style="color:inherit;" xlink:href="textedit://C:/Users/jwloy/OneDrive/Documents/GitHub/wygioatynlib/notation/pulseTrack_bc_61_ps1.ly:17:32:33">
<path transform="translate(15.5785, 33.8826) scale(0.0040, -0.0040)" d="M54 -500l86 327c-35 -13 -71 -23 -108 -23c-46 0 -87 33 -87 79c0 40 32 72 72 72c25 0 49 -15 57 -39c10 -28 5 -59 34 -59c17 0 54 54 59 71l39 149c-34 -12 -70 -23 -106 -23c-46 0 -87 33 -87 79c0 40 33 72 73 72c25 0 48 -15 56 -39c10 -28 5 -59 34 -59
c16 0 52 51 56 68l40 151c-33 -12 -68 -22 -103 -22c-46 0 -87 33 -87 79c0 40 32 72 72 72c25 0 49 -15 57 -39c10 -28 5 -59 34 -59c15 0 46 49 52 63c6 12 23 12 28 0l-216 -920c-8 -7 -18 -10 -28 -10s-19 3 -27 10z" fill="currentColor"/>
</a>
<a style="color:inherit;" xlink:href="textedit://C:/Users/jwloy/OneDrive/Documents/GitHub/wygioatynlib/notation/pulseTrack_bc_61_ps1.ly:17:36:37">
<path transform="translate(19.5792, 33.8826) scale(0.0040, -0.0040)" d="M66 -500l101 327c-34 -12 -70 -23 -106 -23c-46 0 -87 33 -87 79c0 40 32 72 72 72c25 0 49 -15 57 -39c10 -28 5 -59 34 -59c16 0 55 51 60 68l46 151c-34 -12 -68 -22 -104 -22c-46 0 -87 33 -87 79c0 40 33 72 73 72c25 0 48 -15 56 -39c10 -28 5 -59 34 -59
c15 0 50 49 57 63c6 12 23 12 28 0l-179 -670c-8 -7 -17 -10 -27 -10s-20 3 -28 10z" fill="currentColor"/>
</a>
<a style="color:inherit;" xlink:href="textedit://C:/Users/jwloy/OneDrive/Documents/GitHub/wygioatynlib/notation/pulseTrack_bc_61_ps1.ly:17:41:42">
<path transform="translate(26.1806, 34.3826) scale(0.0040, -0.0040)" d="M220 138c56 0 109 -29 109 -91c0 -72 -56 -121 -103 -149c-36 -21 -76 -36 -117 -36c-56 0 -109 29 -109 91c0 72 56 121 103 149c36 21 76 36 117 36z" fill="currentColor"/>
</a>
<a style="color:inherit;" xlink:href="textedit://C:/Users/jwloy/OneDrive/Documents/GitHub/wygioatynlib/notation/pulseTrack_bc_61_ps1.ly:17:44:45">
<path transform="translate(26.8387, 35.3826) scale(0.0040, -0.0040)" d="M-50 0c0 28 22 50 50 50s50 -22 50 -50s-22 -50 -50 -50s-50 22 -50 50z" fill="currentColor"/>
</a>
<rect transform="translate(27.4318, 33.8826)" x="-0.0650" y="-3.7500" width="0.1300" height="4.0622" ry="0.0400" fill="currentColor"/>
<path transform="translate(27.4968, 30.1726) scale(0.0040, -0.0040)" d="M0 -213v-5c0 -111 86 -193 146 -284c3 11 4 23 4 35c0 93 -85 187 -150 254zM0 0c0 -175 193 -292 193 -467c0 -29 -7 -58 -19 -84c17 -35 29 -71 29 -111c0 -36 -9 -72 -24 -105c18 -35 30 -72 30 -113c0 -60 -16 -119 -42 -173c-5 -8 -12 -11 -19 -11
c-13 0 -26 11 -23 27c26 49 42 102 42 157c0 91 -95 175 -167 233v-103h-16v750h16zM0 -430v-5c0 -112 89 -194 151 -285c6 19 9 38 9 58c0 90 -91 173 -160 232z" fill="currentColor"/>
<text transform="translate(4.7345, 30.7985)" font-family="Century Schoolbook L" font-size="1.7461" text-anchor="start" fill="currentColor">
<tspan>
3</tspan>
</text>
<path transform="translate(6.4906, 32.8826) scale(0.0040, -0.0040)" d="M557 -125c0 28 23 51 51 51s51 -23 51 -51s-23 -51 -51 -51s-51 23 -51 51zM557 125c0 28 23 51 51 51s51 -23 51 -51s-23 -51 -51 -51s-51 23 -51 51zM232 263c172 0 293 -88 293 -251c0 -263 -263 -414 -516 -521c-3 -3 -6 -4 -9 -4c-7 0 -13 6 -13 13c0 3 1 6 4 9
c202 118 412 265 412 493c0 120 -63 235 -171 235c-74 0 -129 -54 -154 -126c11 5 22 8 34 8c55 0 100 -45 100 -100c0 -58 -44 -106 -100 -106c-60 0 -112 47 -112 106c0 133 102 244 232 244z" fill="currentColor"/>
<a style="color:inherit;" xlink:href="textedit://C:/Users/jwloy/OneDrive/Documents/GitHub/wygioatynlib/notation/pulseTrack_bc_61_ps1.ly:17:24:25">
<path transform="translate(11.4906, 34.3826) scale(0.0040, -0.0040)" d="M220 138c56 0 109 -29 109 -91c0 -72 -56 -121 -103 -149c-36 -21 -76 -36 -117 -36c-56 0 -109 29 -109 91c0 72 56 121 103 149c36 21 76 36 117 36z" fill="currentColor"/>
</a>
<a style="color:inherit;" xlink:href="textedit://C:/Users/jwloy/OneDrive/Documents/GitHub/wygioatynlib/notation/pulseTrack_bc_61_ps1.ly:17:27:28">
<path transform="translate(12.1486, 35.3826) scale(0.0040, -0.0040)" d="M-50 0c0 28 22 50 50 50s50 -22 50 -50s-22 -50 -50 -50s-50 22 -50 50z" fill="currentColor"/>
</a>
<a style="color:inherit;" xlink:href="textedit://C:/Users/jwloy/OneDrive/Documents/GitHub/wygioatynlib/notation/pulseTrack_bc_61_ps1.ly:17:29:30">
<path transform="translate(12.1486, 36.6326) scale(0.0040, -0.0040)" d="M-211 88c-8 2 -14 9 -14 18c0 10 9 19 19 19c2 0 3 -1 4 -1l408 -105c13 0 19 -6 19 -19s-6 -19 -19 -19l-408 -105c-1 0 -2 -1 -4 -1c-10 0 -19 9 -19 19c0 9 6 16 14 18l251 65l140 23l-140 23z" fill="currentColor"/>
</a>
<rect transform="translate(12.7417, 33.8826)" x="-0.0650" y="-3.7500" width="0.1300" height="4.0622" ry="0.0400" fill="currentColor"/>
<path transform="translate(12.8067, 30.1726) scale(0.0040, -0.0040)" d="M0 -213v-5c0 -111 86 -193 146 -284c3 11 4 23 4 35c0 93 -85 187 -150 254zM0 0c0 -175 193 -292 193 -467c0 -29 -7 -58 -19 -84c17 -35 29 -71 29 -111c0 -36 -9 -72 -24 -105c18 -35 30 -72 30 -113c0 -60 -16 -119 -42 -173c-5 -8 -12 -11 -19 -11
c-13 0 -26 11 -23 27c26 49 42 102 42 157c0 91 -95 175 -167 233v-103h-16v750h16zM0 -430v-5c0 -112 89 -194 151 -285c6 19 9 38 9 58c0 90 -91 173 -160 232z" fill="currentColor"/>
<a style="color:inherit;" xlink:href="textedit://C:/Users/jwloy/OneDrive/Documents/GitHub/wygioatynlib/notation/pulseTrack_bc_61_ps1.ly:17:61:62">
<path transform="translate(38.3571, 33.8826) scale(0.0040, -0.0040)" d="M54 -500l86 327c-35 -13 -71 -23 -108 -23c-46 0 -87 33 -87 79c0 40 32 72 72 72c25 0 49 -15 57 -39c10 -28 5 -59 34 -59c17 0 54 54 59 71l39 149c-34 -12 -70 -23 -106 -23c-46 0 -87 33 -87 79c0 40 33 72 73 72c25 0 48 -15 56 -39c10 -28 5 -59 34 -59
c16 0 52 51 56 68l40 151c-33 -12 -68 -22 -103 -22c-46 0 -87 33 -87 79c0 40 32 72 72 72c25 0 49 -15 57 -39c10 -28 5 -59 34 -59c15 0 46 49 52 63c6 12 23 12 28 0l-216 -920c-8 -7 -18 -10 -28 -10s-19 3 -27 10z" fill="currentColor"/>
</a>
<path transform="translate(111.7063, 35.8971) scale(0.0040, -0.0040)" d="M204 307c22 14 44 29 60 50c11 15 19 33 27 50c2 4 5 6 9 6c6 0 13 -5 13 -14v-245h72c10 0 15 -7 15 -14s-5 -15 -15 -15h-72v-8c0 -48 27 -94 72 -94c8 0 12 -5 12 -11s-4 -12 -12 -12c-44 0 -87 13 -131 13s-87 -13 -131 -13c-8 0 -12 6 -12 12s4 11 12 11
c45 0 73 46 73 94v8h-167c-23 0 -31 14 -31 23c0 3 1 5 2 6c80 93 138 207 138 330c0 9 6 16 13 16h3c23 -7 47 -13 71 -13s48 6 71 13c2 1 3 1 5 1c11 0 18 -10 12 -17l-284 -330h167v131c0 8 1 17 8 22z" fill="currentColor"/>
<path transform="translate(111.8429, 33.8826) scale(0.0040, -0.0040)" d="M150 477c-29 0 -59 -8 -59 -33c0 -22 36 -25 36 -47c0 -32 -26 -58 -58 -58s-57 26 -57 58c0 65 67 103 138 103c91 0 169 -33 169 -114c0 -43 -4 -82 -42 -100c-9 -4 -14 -12 -14 -21s5 -18 14 -22c41 -19 56 -57 56 -103c0 -92 -79 -140 -179 -140
c-79 0 -154 42 -154 113c0 36 30 66 66 66s65 -30 65 -66c0 -25 -40 -28 -40 -53c0 -27 32 -37 63 -37c49 0 63 61 63 117v16c0 54 -2 94 -50 94h-80c-10 0 -14 8 -14 15s4 14 14 14h80c49 0 50 43 50 99v8c0 54 -18 91 -67 91z" fill="currentColor"/>
<a style="color:inherit;" xlink:href="textedit://C:/Users/jwloy/OneDrive/Documents/GitHub/wygioatynlib/notation/pulseTrack_bc_61_ps1.ly:17:65:66">
<path transform="translate(42.3578, 34.3826) scale(0.0040, -0.0040)" d="M220 138c56 0 109 -29 109 -91c0 -72 -56 -121 -103 -149c-36 -21 -76 -36 -117 -36c-56 0 -109 29 -109 91c0 72 56 121 103 149c36 21 76 36 117 36z" fill="currentColor"/>
</a>
<a style="color:inherit;" xlink:href="textedit://C:/Users/jwloy/OneDrive/Documents/GitHub/wygioatynlib/notation/pulseTrack_bc_61_ps1.ly:17:68:69">
<path transform="translate(43.0159, 35.3826) scale(0.0040, -0.0040)" d="M-50 0c0 28 22 50 50 50s50 -22 50 -50s-22 -50 -50 -50s-50 22 -50 50z" fill="currentColor"/>
</a>
<a style="color:inherit;" xlink:href="textedit://C:/Users/jwloy/OneDrive/Documents/GitHub/wygioatynlib/notation/pulseTrack_bc_61_ps1.ly:17:70:71">
<path transform="translate(43.0159, 36.6326) scale(0.0040, -0.0040)" d="M-211 88c-8 2 -14 9 -14 18c0 10 9 19 19 19c2 0 3 -1 4 -1l408 -105c13 0 19 -6 19 -19s-6 -19 -19 -19l-408 -105c-1 0 -2 -1 -4 -1c-10 0 -19 9 -19 19c0 9 6 16 14 18l251 65l140 23l-140 23z" fill="currentColor"/>
</a>
<rect transform="translate(43.6090, 33.8826)" x="-0.0650" y="-3.7500" width="0.1300" height="4.0622" ry="0.0400" fill="currentColor"/>
<a style="color:inherit;" xlink:href="textedit://C:/Users/jwloy/OneDrive/Documents/GitHub/wygioatynlib/notation/pulseTrack_bc_61_ps1.ly:17:54:55">
<path transform="translate(34.2692, 34.3826) scale(0.0040, -0.0040)" d="M220 138c56 0 109 -29 109 -91c0 -72 -56 -121 -103 -149c-36 -21 -76 -36 -117 -36c-56 0 -109 29 -109 91c0 72 56 121 103 149c36 21 76 36 117 36z" fill="currentColor"/>
</a>
<a style="color:inherit;" xlink:href="textedit://C:/Users/jwloy/OneDrive/Documents/GitHub/wygioatynlib/notation/pulseTrack_bc_61_ps1.ly:17:57:58">
<path transform="translate(34.9273, 35.3826) scale(0.0040, -0.0040)" d="M-50 0c0 28 22 50 50 50s50 -22 50 -50s-22 -50 -50 -50s-50 22 -50 50z" fill="currentColor"/>
</a>
<rect transform="translate(35.5204, 33.8826)" x="-0.0650" y="-3.7500" width="0.1300" height="4.0622" ry="0.0400" fill="currentColor"/>
<path transform="translate(35.5854, 30.1726) scale(0.0040, -0.0040)" d="M0 -213v-5c0 -111 86 -193 146 -284c3 11 4 23 4 35c0 93 -85 187 -150 254zM0 0c0 -175 193 -292 193 -467c0 -29 -7 -58 -19 -84c17 -35 29 -71 29 -111c0 -36 -9 -72 -24 -105c18 -35 30 -72 30 -113c0 -60 -16 -119 -42 -173c-5 -8 -12 -11 -19 -11
c-13 0 -26 11 -23 27c26 49 42 102 42 157c0 91 -95 175 -167 233v-103h-16v750h16zM0 -430v-5c0 -112 89 -194 151 -285c6 19 9 38 9 58c0 90 -91 173 -160 232z" fill="currentColor"/>
<a style="color:inherit;" xlink:href="textedit://C:/Users/jwloy/OneDrive/Documents/GitHub/wygioatynlib/notation/pulseTrack_bc_61_ps1.ly:17:48:49">
<path transform="translate(30.2685, 33.8826) scale(0.0040, -0.0040)" d="M54 -500l86 327c-35 -13 -71 -23 -108 -23c-46 0 -87 33 -87 79c0 40 32 72 72 72c25 0 49 -15 57 -39c10 -28 5 -59 34 -59c17 0 54 54 59 71l39 149c-34 -12 -70 -23 -106 -23c-46 0 -87 33 -87 79c0 40 33 72 73 72c25 0 48 -15 56 -39c10 -28 5 -59 34 -59
c16 0 52 51 56 68l40 151c-33 -12 -68 -22 -103 -22c-46 0 -87 33 -87 79c0 40 32 72 72 72c25 0 49 -15 57 -39c10 -28 5 -59 34 -59c15 0 46 49 52 63c6 12 23 12 28 0l-216 -920c-8 -7 -18 -10 -28 -10s-19 3 -27 10z" fill="currentColor"/>
</a>
<line transform="translate(5.6906, 47.8826)" stroke-linejoin="round" stroke-linecap="round" stroke-width="0.1000" stroke="currentColor" x1="0.0500" y1="0.0000" x2="108.0705" y2="0.0000"/>
<line transform="translate(5.6906, 46.8826)" stroke-linejoin="round" stroke-linecap="round" stroke-width="0.1000" stroke="currentColor" x1="0.0500" y1="0.0000" x2="108.0705" y2="0.0000"/>
<line transform="translate(5.6906, 45.8826)" stroke-linejoin="round" stroke-linecap="round" stroke-width="0.1000" stroke="currentColor" x1="0.0500" y1="0.0000" x2="108.0705" y2="0.0000"/>
<line transform="translate(5.6906, 44.8826)" stroke-linejoin="round" stroke-linecap="round" stroke-width="0.1000" stroke="currentColor" x1="0.0500" y1="0.0000" x2="108.0705" y2="0.0000"/>
<line transform="translate(5.6906, 43.8826)" stroke-linejoin="round" stroke-linecap="round" stroke-width="0.1000" stroke="currentColor" x1="0.0500" y1="0.0000" x2="108.0705" y2="0.0000"/>
<rect transform="translate(113.6210, 45.8826)" x="0.0000" y="-2.0000" width="0.1900" height="4.0000" ry="0.0000" fill="currentColor"/>
<a style="color:inherit;" xlink:href="textedit://C:/Users/jwloy/OneDrive/Documents/GitHub/wygioatynlib/notation/pulseTrack_bc_61_ps1.ly:20:13:14">
<path transform="translate(86.3677, 45.8826) scale(0.0040, -0.0040)" d="M54 -500l86 327c-35 -13 -71 -23 -108 -23c-46 0 -87 33 -87 79c0 40 32 72 72 72c25 0 49 -15 57 -39c10 -28 5 -59 34 -59c17 0 54 54 59 71l39 149c-34 -12 -70 -23 -106 -23c-46 0 -87 33 -87 79c0 40 33 72 73 72c25 0 48 -15 56 -39c10 -28 5 -59 34 -59
c16 0 52 51 56 68l40 151c-33 -12 -68 -22 -103 -22c-46 0 -87 33 -87 79c0 40 32 72 72 72c25 0 49 -15 57 -39c10 -28 5 -59 34 -59c15 0 46 49 52 63c6 12 23 12 28 0l-216 -920c-8 -7 -18 -10 -28 -10s-19 3 -27 10z" fill="currentColor"/>
</a>
<a style="color:inherit;" xlink:href="textedit://C:/Users/jwloy/OneDrive/Documents/GitHub/wygioatynlib/notation/pulseTrack_bc_61_ps1.ly:19:50:51">
<path transform="translate(48.0620, 47.3826) scale(0.0040, -0.0040)" d="M-50 0c0 28 22 50 50 50s50 -22 50 -50s-22 -50 -50 -50s-50 22 -50 50z" fill="currentColor"/>
</a>
<path transform="translate(83.3158, 42.1726) scale(0.0040, -0.0040)" d="M0 -213v-5c0 -111 86 -193 146 -284c3 11 4 23 4 35c0 93 -85 187 -150 254zM0 0c0 -175 193 -292 193 -467c0 -29 -7 -58 -19 -84c17 -35 29 -71 29 -111c0 -36 -9 -72 -24 -105c18 -35 30 -72 30 -113c0 -60 -16 -119 -42 -173c-5 -8 -12 -11 -19 -11
c-13 0 -26 11 -23 27c26 49 42 102 42 157c0 91 -95 175 -167 233v-103h-16v750h16zM0 -430v-5c0 -112 89 -194 151 -285c6 19 9 38 9 58c0 90 -91 173 -160 232z" fill="currentColor"/>
<rect transform="translate(83.2508, 45.8826)" x="-0.0650" y="-3.7500" width="0.1300" height="4.0622" ry="0.0400" fill="currentColor"/>
<a style="color:inherit;" xlink:href="textedit://C:/Users/jwloy/OneDrive/Documents/GitHub/wygioatynlib/notation/pulseTrack_bc_61_ps1.ly:20:10:11">
<path transform="translate(82.6577, 48.6326) scale(0.0040, -0.0040)" d="M-211 88c-8 2 -14 9 -14 18c0 10 9 19 19 19c2 0 3 -1 4 -1l408 -105c13 0 19 -6 19 -19s-6 -19 -19 -19l-408 -105c-1 0 -2 -1 -4 -1c-10 0 -19 9 -19 19c0 9 6 16 14 18l251 65l140 23l-140 23z" fill="currentColor"/>
</a>
<a style="color:inherit;" xlink:href="textedit://C:/Users/jwloy/OneDrive/Documents/GitHub/wygioatynlib/notation/pulseTrack_bc_61_ps1.ly:20:8:9">
<path transform="translate(82.6577, 47.3826) scale(0.0040, -0.0040)" d="M-50 0c0 28 22 50 50 50s50 -22 50 -50s-22 -50 -50 -50s-50 22 -50 50z" fill="currentColor"/>
</a>
<a style="color:inherit;" xlink:href="textedit://C:/Users/jwloy/OneDrive/Documents/GitHub/wygioatynlib/notation/pulseTrack_bc_61_ps1.ly:20:5:6">
<path transform="translate(81.9996, 46.3826) scale(0.0040, -0.0040)" d="M220 138c56 0 109 -29 109 -91c0 -72 -56 -121 -103 -149c-36 -21 -76 -36 -117 -36c-56 0 -109 29 -109 91c0 72 56 121 103 149c36 21 76 36 117 36z" fill="currentColor"/>
</a>
<a style="color:inherit;" xlink:href="textedit://C:/Users/jwloy/OneDrive/Documents/GitHub/wygioatynlib/notation/pulseTrack_bc_61_ps1.ly:19:52:53">
<path transform="translate(48.0620, 48.6326) scale(0.0040, -0.0040)" d="M-211 88c-8 2 -14 9 -14 18c0 10 9 19 19 19c2 0 3 -1 4 -1l408 -105c13 0 19 -6 19 -19s-6 -19 -19 -19l-408 -105c-1 0 -2 -1 -4 -1c-10 0 -19 9 -19 19c0 9 6 16 14 18l251 65l140 23l-140 23z" fill="currentColor"/>
</a>
<a style="color:inherit;" xlink:href="textedit://C:/Users/jwloy/OneDrive/Documents/GitHub/wygioatynlib/notation/pulseTrack_bc_61_ps1.ly:19:93:94">
<path transform="translate(77.7188, 45.8826) scale(0.0040, -0.0040)" d="M54 -500l86 327c-35 -13 -71 -23 -108 -23c-46 0 -87 33 -87 79c0 40 32 72 72 72c25 0 49 -15 57 -39c10 -28 5 -59 34 -59c17 0 54 54 59 71l39 149c-34 -12 -70 -23 -106 -23c-46 0 -87 33 -87 79c0 40 33 72 73 72c25 0 48 -15 56 -39c10 -28 5 -59 34 -59
c16 0 52 51 56 68l40 151c-33 -12 -68 -22 -103 -22c-46 0 -87 33 -87 79c0 40 32 72 72 72c25 0 49 -15 57 -39c10 -28 5 -59 34 -59c15 0 46 49 52 63c6 12 23 12 28 0l-216 -920c-8 -7 -18 -10 -28 -10s-19 3 -27 10z" fill="currentColor"/>
</a>
<rect transform="translate(48.6550, 45.8826)" x="-0.0650" y="-3.7500" width="0.1300" height="4.0622" ry="0.0400" fill="currentColor"/>
<a style="color:inherit;" xlink:href="textedit://C:/Users/jwloy/OneDrive/Documents/GitHub/wygioatynlib/notation/pulseTrack_bc_61_ps1.ly:20:28:29">
<path transform="translate(102.1784, 45.8826) scale(0.0040, -0.0040)" d="M54 -500l86 327c-35 -13 -71 -23 -108 -23c-46 0 -87 33 -87 79c0 40 32 72 72 72c25 0 49 -15 57 -39c10 -28 5 -59 34 -59c17 0 54 54 59 71l39 149c-34 -12 -70 -23 -106 -23c-46 0 -87 33 -87 79c0 40 33 72 73 72c25 0 48 -15 56 -39c10 -28 5 -59 34 -59
c16 0 52 51 56 68l40 151c-33 -12 -68 -22 -103 -22c-46 0 -87 33 -87 79c0 40 32 72 72 72c25 0 49 -15 57 -39c10 -28 5 -59 34 -59c15 0 46 49 52 63c6 12 23 12 28 0l-216 -920c-8 -7 -18 -10 -28 -10s-19 3 -27 10z" fill="currentColor"/>
</a>
<path transform="translate(99.1265, 42.1726) scale(0.0040, -0.0040)" d="M0 -213v-5c0 -111 86 -193 146 -284c3 11 4 23 4 35c0 93 -85 187 -150 254zM0 0c0 -175 193 -292 193 -467c0 -29 -7 -58 -19 -84c17 -35 29 -71 29 -111c0 -36 -9 -72 -24 -105c18 -35 30 -72 30 -113c0 -60 -16 -119 -42 -173c-5 -8 -12 -11 -19 -11
c-13 0 -26 11 -23 27c26 49 42 102 42 157c0 91 -95 175 -167 233v-103h-16v750h16zM0 -430v-5c0 -112 89 -194 151 -285c6 19 9 38 9 58c0 90 -91 173 -160 232z" fill="currentColor"/>
<rect transform="translate(99.0615, 45.8826)" x="-0.0650" y="-3.7500" width="0.1300" height="4.0622" ry="0.0400" fill="currentColor"/>
<a style="color:inherit;" xlink:href="textedit://C:/Users/jwloy/OneDrive/Documents/GitHub/wygioatynlib/notation/pulseTrack_bc_61_ps1.ly:20:25:26">
<path transform="translate(98.4684, 47.3826) scale(0.0040, -0.0040)" d="M-50 0c0 28 22 50 50 50s50 -22 50 -50s-22 -50 -50 -50s-50 22 -50 50z" fill="currentColor"/>
</a>
<a style="color:inherit;" xlink:href="textedit://C:/Users/jwloy/OneDrive/Documents/GitHub/wygioatynlib/notation/pulseTrack_bc_61_ps1.ly:20:22:23">
<path transform="translate(97.8103, 46.3826) scale(0.0040, -0.0040)" d="M220 138c56 0 109 -29 109 -91c0 -72 -56 -121 -103 -149c-36 -21 -76 -36 -117 -36c-56 0 -109 29 -109 91c0 72 56 121 103 149c36 21 76 36 117 36z" fill="currentColor"/>
</a>
<a style="color:inherit;" xlink:href="textedit://C:/Users/jwloy/OneDrive/Documents/GitHub/wygioatynlib/notation/pulseTrack_bc_61_ps1.ly:20:17:18">
<path transform="translate(90.6486, 45.8826) scale(0.0040, -0.0040)" d="M66 -500l101 327c-34 -12 -70 -23 -106 -23c-46 0 -87 33 -87 79c0 40 32 72 72 72c25 0 49 -15 57 -39c10 -28 5 -59 34 -59c16 0 55 51 60 68l46 151c-34 -12 -68 -22 -104 -22c-46 0 -87 33 -87 79c0 40 33 72 73 72c25 0 48 -15 56 -39c10 -28 5 -59 34 -59
c15 0 50 49 57 63c6 12 23 12 28 0l-179 -670c-8 -7 -17 -10 -27 -10s-20 3 -28 10z" fill="currentColor"/>
</a>
<a style="color:inherit;" xlink:href="textedit://C:/Users/jwloy/OneDrive/Documents/GitHub/wygioatynlib/notation/pulseTrack_bc_61_ps1.ly:19:47:48">
<path transform="translate(47.4039, 46.3826) scale(0.0040, -0.0040)" d="M220 138c56 0 109 -29 109 -91c0 -72 -56 -121 -103 -149c-36 -21 -76 -36 -117 -36c-56 0 -109 29 -109 91c0 72 56 121 103 149c36 21 76 36 117 36z" fill="currentColor"/>
</a>
<a style="color:inherit;" xlink:href="textedit://C:/Users/jwloy/OneDrive/Documents/GitHub/wygioatynlib/notation/pulseTrack_bc_61_ps1.ly:19:68:69">
<path transform="translate(60.4209, 45.8826) scale(0.0040, -0.0040)" d="M54 -500l86 327c-35 -13 -71 -23 -108 -23c-46 0 -87 33 -87 79c0 40 32 72 72 72c25 0 49 -15 57 -39c10 -28 5 -59 34 -59c17 0 54 54 59 71l39 149c-34 -12 -70 -23 -106 -23c-46 0 -87 33 -87 79c0 40 33 72 73 72c25 0 48 -15 56 -39c10 -28 5 -59 34 -59
c16 0 52 51 56 68l40 151c-33 -12 -68 -22 -103 -22c-46 0 -87 33 -87 79c0 40 32 72 72 72c25 0 49 -15 57 -39c10 -28 5 -59 34 -59c15 0 46 49 52 63c6 12 23 12 28 0l-216 -920c-8 -7 -18 -10 -28 -10s-19 3 -27 10z" fill="currentColor"/>
</a>
<path transform="translate(57.3690, 42.1726) scale(0.0040, -0.0040)" d="M0 -213v-5c0 -111 86 -193 146 -284c3 11 4 23 4 35c0 93 -85 187 -150 254zM0 0c0 -175 193 -292 193 -467c0 -29 -7 -58 -19 -84c17 -35 29 -71 29 -111c0 -36 -9 -72 -24 -105c18 -35 30 -72 30 -113c0 -60 -16 -119 -42 -173c-5 -8 -12 -11 -19 -11
c-13 0 -26 11 -23 27c26 49 42 102 42 157c0 91 -95 175 -167 233v-103h-16v750h16zM0 -430v-5c0 -112 89 -194 151 -285c6 19 9 38 9 58c0 90 -91 173 -160 232z" fill="currentColor"/>
<rect transform="translate(57.3040, 45.8826)" x="-0.0650" y="-3.7500" width="0.1300" height="4.0622" ry="0.0400" fill="currentColor"/>
<a style="color:inherit;" xlink:href="textedit://C:/Users/jwloy/OneDrive/Documents/GitHub/wygioatynlib/notation/pulseTrack_bc_61_ps1.ly:19:64:65">
<path transform="translate(56.7109, 47.3826) scale(0.0040, -0.0040)" d="M-50 0c0 28 22 50 50 50s50 -22 50 -50s-22 -50 -50 -50s-50 22 -50 50z" fill="currentColor"/>
</a>
<a style="color:inherit;" xlink:href="textedit://C:/Users/jwloy/OneDrive/Documents/GitHub/wygioatynlib/notation/pulseTrack_bc_61_ps1.ly:19:61:62">
<path transform="translate(56.0528, 46.3826) scale(0.0040, -0.0040)" d="M220 138c56 0 109 -29 109 -91c0 -72 -56 -121 -103 -149c-36 -21 -76 -36 -117 -36c-56 0 -109 29 -109 91c0 72 56 121 103 149c36 21 76 36 117 36z" fill="currentColor"/>
</a>
<a style="color:inherit;" xlink:href="textedit://C:/Users/jwloy/OneDrive/Documents/GitHub/wygioatynlib/notation/pulseTrack_bc_61_ps1.ly:19:56:57">
<path transform="translate(51.7719, 45.8826) scale(0.0040, -0.0040)" d="M54 -500l86 327c-35 -13 -71 -23 -108 -23c-46 0 -87 33 -87 79c0 40 32 72 72 72c25 0 49 -15 57 -39c10 -28 5 -59 34 -59c17 0 54 54 59 71l39 149c-34 -12 -70 -23 -106 -23c-46 0 -87 33 -87 79c0 40 33 72 73 72c25 0 48 -15 56 -39c10 -28 5 -59 34 -59
c16 0 52 51 56 68l40 151c-33 -12 -68 -22 -103 -22c-46 0 -87 33 -87 79c0 40 32 72 72 72c25 0 49 -15 57 -39c10 -28 5 -59 34 -59c15 0 46 49 52 63c6 12 23 12 28 0l-216 -920c-8 -7 -18 -10 -28 -10s-19 3 -27 10z" fill="currentColor"/>
</a>
<path transform="translate(74.6669, 42.1726) scale(0.0040, -0.0040)" d="M0 -213v-5c0 -111 86 -193 146 -284c3 11 4 23 4 35c0 93 -85 187 -150 254zM0 0c0 -175 193 -292 193 -467c0 -29 -7 -58 -19 -84c17 -35 29 -71 29 -111c0 -36 -9 -72 -24 -105c18 -35 30 -72 30 -113c0 -60 -16 -119 -42 -173c-5 -8 -12 -11 -19 -11
c-13 0 -26 11 -23 27c26 49 42 102 42 157c0 91 -95 175 -167 233v-103h-16v750h16zM0 -430v-5c0 -112 89 -194 151 -285c6 19 9 38 9 58c0 90 -91 173 -160 232z" fill="currentColor"/>
<rect transform="translate(74.6019, 45.8826)" x="-0.0650" y="-3.7500" width="0.1300" height="4.0622" ry="0.0400" fill="currentColor"/>
<a style="color:inherit;" xlink:href="textedit://C:/Users/jwloy/OneDrive/Documents/GitHub/wygioatynlib/notation/pulseTrack_bc_61_ps1.ly:19:89:90">
<path transform="translate(74.0088, 47.3826) scale(0.0040, -0.0040)" d="M-50 0c0 28 22 50 50 50s50 -22 50 -50s-22 -50 -50 -50s-50 22 -50 50z" fill="currentColor"/>
</a>
<a style="color:inherit;" xlink:href="textedit://C:/Users/jwloy/OneDrive/Documents/GitHub/wygioatynlib/notation/pulseTrack_bc_61_ps1.ly:19:86:87">
<path transform="translate(73.3507, 46.3826) scale(0.0040, -0.0040)" d="M220 138c56 0 109 -29 109 -91c0 -72 -56 -121 -103 -149c-36 -21 -76 -36 -117 -36c-56 0 -109 29 -109 91c0 72 56 121 103 149c36 21 76 36 117 36z" fill="currentColor"/>
</a>
<a style="color:inherit;" xlink:href="textedit://C:/Users/jwloy/OneDrive/Documents/GitHub/wygioatynlib/notation/pulseTrack_bc_61_ps1.ly:19:81:82">
<path transform="translate(69.0698, 45.8826) scale(0.0040, -0.0040)" d="M54 -500l86 327c-35 -13 -71 -23 -108 -23c-46 0 -87 33 -87 79c0 40 32 72 72 72c25 0 49 -15 57 -39c10 -28 5 -59 34 -59c17 0 54 54 59 71l39 149c-34 -12 -70 -23 -106 -23c-46 0 -87 33 -87 79c0 40 33 72 73 72c25 0 48 -15 56 -39c10 -28 5 -59 34 -59
c16 0 52 51 56 68l40 151c-33 -12 -68 -22 -103 -22c-46 0 -87 33 -87 79c0 40 32 72 72 72c25 0 49 -15 57 -39c10 -28 5 -59 34 -59c15 0 46 49 52 63c6 12 23 12 28 0l-216 -920c-8 -7 -18 -10 -28 -10s-19 3 -27 10z" fill="currentColor"/>
</a>
<path transform="translate(48.7200, 42.1726) scale(0.0040, -0.0040)" d="M0 -213v-5c0 -111 86 -193 146 -284c3 11 4 23 4 35c0 93 -85 187 -150 254zM0 0c0 -175 193 -292 193 -467c0 -29 -7 -58 -19 -84c17 -35 29 -71 29 -111c0 -36 -9 -72 -24 -105c18 -35 30 -72 30 -113c0 -60 -16 -119 -42 -173c-5 -8 -12 -11 -19 -11
c-13 0 -26 11 -23 27c26 49 42 102 42 157c0 91 -95 175 -167 233v-103h-16v750h16zM0 -430v-5c0 -112 89 -194 151 -285c6 19 9 38 9 58c0 90 -91 173 -160 232z" fill="currentColor"/>
<path transform="translate(66.0179, 42.1726) scale(0.0040, -0.0040)" d="M0 -213v-5c0 -111 86 -193 146 -284c3 11 4 23 4 35c0 93 -85 187 -150 254zM0 0c0 -175 193 -292 193 -467c0 -29 -7 -58 -19 -84c17 -35 29 -71 29 -111c0 -36 -9 -72 -24 -105c18 -35 30 -72 30 -113c0 -60 -16 -119 -42 -173c-5 -8 -12 -11 -19 -11
c-13 0 -26 11 -23 27c26 49 42 102 42 157c0 91 -95 175 -167 233v-103h-16v750h16zM0 -430v-5c0 -112 89 -194 151 -285c6 19 9 38 9 58c0 90 -91 173 -160 232z" fill="currentColor"/>
<rect transform="translate(65.9529, 45.8826)" x="-0.0650" y="-3.7500" width="0.1300" height="4.0622" ry="0.0400" fill="currentColor"/>
<a style="color:inherit;" xlink:href="textedit://C:/Users/jwloy/OneDrive/Documents/GitHub/wygioatynlib/notation/pulseTrack_bc_61_ps1.ly:19:77:78">
<path transform="translate(65.3598, 47.3826) scale(0.0040, -0.0040)" d="M-50 0c0 28 22 50 50 50s50 -22 50 -50s-22 -50 -50 -50s-50 22 -50 50z" fill="currentColor"/>
</a>
<a style="color:inherit;" xlink:href="textedit://C:/Users/jwloy/OneDrive/Documents/GitHub/wygioatynlib/notation/pulseTrack_bc_61_ps1.ly:19:74:75">
<path transform="translate(64.7018, 46.3826) scale(0.0040, -0.0040)" d="M220 138c56 0 109 -29 109 -91c0 -72 -56 -121 -103 -149c-36 -21 -76 -36 -117 -36c-56 0 -109 29 -109 91c0 72 56 121 103 149c36 21 76 36 117 36z" fill="currentColor"/>
</a>
<a style="color:inherit;" xlink:href="textedit://C:/Users/jwloy/OneDrive/Documents/GitHub/wygioatynlib/notation/pulseTrack_bc_61_ps1.ly:19:13:14">
<path transform="translate(18.6633, 45.8826) scale(0.0040, -0.0040)" d="M54 -500l86 327c-35 -13 -71 -23 -108 -23c-46 0 -87 33 -87 79c0 40 32 72 72 72c25 0 49 -15 57 -39c10 -28 5 -59 34 -59c17 0 54 54 59 71l39 149c-34 -12 -70 -23 -106 -23c-46 0 -87 33 -87 79c0 40 33 72 73 72c25 0 48 -15 56 -39c10 -28 5 -59 34 -59
c16 0 52 51 56 68l40 151c-33 -12 -68 -22 -103 -22c-46 0 -87 33 -87 79c0 40 32 72 72 72c25 0 49 -15 57 -39c10 -28 5 -59 34 -59c15 0 46 49 52 63c6 12 23 12 28 0l-216 -920c-8 -7 -18 -10 -28 -10s-19 3 -27 10z" fill="currentColor"/>
</a>
<a style="color:inherit;" xlink:href="textedit://C:/Users/jwloy/OneDrive/Documents/GitHub/wygioatynlib/notation/pulseTrack_bc_61_ps1.ly:19:17:18">
<path transform="translate(22.9442, 45.8826) scale(0.0040, -0.0040)" d="M66 -500l101 327c-34 -12 -70 -23 -106 -23c-46 0 -87 33 -87 79c0 40 32 72 72 72c25 0 49 -15 57 -39c10 -28 5 -59 34 -59c16 0 55 51 60 68l46 151c-34 -12 -68 -22 -104 -22c-46 0 -87 33 -87 79c0 40 33 72 73 72c25 0 48 -15 56 -39c10 -28 5 -59 34 -59
c15 0 50 49 57 63c6 12 23 12 28 0l-179 -670c-8 -7 -17 -10 -27 -10s-20 3 -28 10z" fill="currentColor"/>
</a>
<a style="color:inherit;" xlink:href="textedit://C:/Users/jwloy/OneDrive/Documents/GitHub/wygioatynlib/notation/pulseTrack_bc_61_ps1.ly:19:22:23">
<path transform="translate(30.1060, 46.3826) scale(0.0040, -0.0040)" d="M220 138c56 0 109 -29 109 -91c0 -72 -56 -121 -103 -149c-36 -21 -76 -36 -117 -36c-56 0 -109 29 -109 91c0 72 56 121 103 149c36 21 76 36 117 36z" fill="currentColor"/>
</a>
<a style="color:inherit;" xlink:href="textedit://C:/Users/jwloy/OneDrive/Documents/GitHub/wygioatynlib/notation/pulseTrack_bc_61_ps1.ly:19:25:26">
<path transform="translate(30.7641, 47.3826) scale(0.0040, -0.0040)" d="M-50 0c0 28 22 50 50 50s50 -22 50 -50s-22 -50 -50 -50s-50 22 -50 50z" fill="currentColor"/>
</a>
<rect transform="translate(31.3572, 45.8826)" x="-0.0650" y="-3.7500" width="0.1300" height="4.0622" ry="0.0400" fill="currentColor"/>
<path transform="translate(31.4222, 42.1726) scale(0.0040, -0.0040)" d="M0 -213v-5c0 -111 86 -193 146 -284c3 11 4 23 4 35c0 93 -85 187 -150 254zM0 0c0 -175 193 -292 193 -467c0 -29 -7 -58 -19 -84c17 -35 29 -71 29 -111c0 -36 -9 -72 -24 -105c18 -35 30 -72 30 -113c0 -60 -16 -119 -42 -173c-5 -8 -12 -11 -19 -11
c-13 0 -26 11 -23 27c26 49 42 102 42 157c0 91 -95 175 -167 233v-103h-16v750h16zM0 -430v-5c0 -112 89 -194 151 -285c6 19 9 38 9 58c0 90 -91 173 -160 232z" fill="currentColor"/>
<path transform="translate(6.4906, 44.8826) scale(0.0040, -0.0040)" d="M557 -125c0 28 23 51 51 51s51 -23 51 -51s-23 -51 -51 -51s-51 23 -51 51zM557 125c0 28 23 51 51 51s51 -23 51 -51s-23 -51 -51 -51s-51 23 -51 51zM232 263c172 0 293 -88 293 -251c0 -263 -263 -414 -516 -521c-3 -3 -6 -4 -9 -4c-7 0 -13 6 -13 13c0 3 1 6 4 9
c202 118 412 265 412 493c0 120 -63 235 -171 235c-74 0 -129 -54 -154 -126c11 5 22 8 34 8c55 0 100 -45 100 -100c0 -58 -44 -106 -100 -106c-60 0 -112 47 -112 106c0 133 102 244 232 244z" fill="currentColor"/>
<text transform="translate(4.7345, 42.8326)" font-family="Century Schoolbook L" font-size="1.7461" text-anchor="start" fill="currentColor">
<tspan>
4</tspan>
</text>
<path transform="translate(10.6906, 47.8971) scale(0.0040, -0.0040)" d="M204 307c22 14 44 29 60 50c11 15 19 33 27 50c2 4 5 6 9 6c6 0 13 -5 13 -14v-245h72c10 0 15 -7 15 -14s-5 -15 -15 -15h-72v-8c0 -48 27 -94 72 -94c8 0 12 -5 12 -11s-4 -12 -12 -12c-44 0 -87 13 -131 13s-87 -13 -131 -13c-8 0 -12 6 -12 12s4 11 12 11
c45 0 73 46 73 94v8h-167c-23 0 -31 14 -31 23c0 3 1 5 2 6c80 93 138 207 138 330c0 9 6 16 13 16h3c23 -7 47 -13 71 -13s48 6 71 13c2 1 3 1 5 1c11 0 18 -10 12 -17l-284 -330h167v131c0 8 1 17 8 22z" fill="currentColor"/>
<path transform="translate(10.8271, 45.8826) scale(0.0040, -0.0040)" d="M150 477c-29 0 -59 -8 -59 -33c0 -22 36 -25 36 -47c0 -32 -26 -58 -58 -58s-57 26 -57 58c0 65 67 103 138 103c91 0 169 -33 169 -114c0 -43 -4 -82 -42 -100c-9 -4 -14 -12 -14 -21s5 -18 14 -22c41 -19 56 -57 56 -103c0 -92 -79 -140 -179 -140
c-79 0 -154 42 -154 113c0 36 30 66 66 66s65 -30 65 -66c0 -25 -40 -28 -40 -53c0 -27 32 -37 63 -37c49 0 63 61 63 117v16c0 54 -2 94 -50 94h-80c-10 0 -14 8 -14 15s4 14 14 14h80c49 0 50 43 50 99v8c0 54 -18 91 -67 91z" fill="currentColor"/>
<a style="color:inherit;" xlink:href="textedit://C:/Users/jwloy/OneDrive/Documents/GitHub/wygioatynlib/notation/pulseTrack_bc_61_ps1.ly:19:5:6">
<path transform="translate(14.2953, 46.3826) scale(0.0040, -0.0040)" d="M220 138c56 0 109 -29 109 -91c0 -72 -56 -121 -103 -149c-36 -21 -76 -36 -117 -36c-56 0 -109 29 -109 91c0 72 56 121 103 149c36 21 76 36 117 36z" fill="currentColor"/>
</a>
<a style="color:inherit;" xlink:href="textedit://C:/Users/jwloy/OneDrive/Documents/GitHub/wygioatynlib/notation/pulseTrack_bc_61_ps1.ly:19:8:9">
<path transform="translate(14.9534, 47.3826) scale(0.0040, -0.0040)" d="M-50 0c0 28 22 50 50 50s50 -22 50 -50s-22 -50 -50 -50s-50 22 -50 50z" fill="currentColor"/>
</a>
<a style="color:inherit;" xlink:href="textedit://C:/Users/jwloy/OneDrive/Documents/GitHub/wygioatynlib/notation/pulseTrack_bc_61_ps1.ly:19:10:11">
<path transform="translate(14.9534, 48.6326) scale(0.0040, -0.0040)" d="M-211 88c-8 2 -14 9 -14 18c0 10 9 19 19 19c2 0 3 -1 4 -1l408 -105c13 0 19 -6 19 -19s-6 -19 -19 -19l-408 -105c-1 0 -2 -1 -4 -1c-10 0 -19 9 -19 19c0 9 6 16 14 18l251 65l140 23l-140 23z" fill="currentColor"/>
</a>
<rect transform="translate(15.5465, 45.8826)" x="-0.0650" y="-3.7500" width="0.1300" height="4.0622" ry="0.0400" fill="currentColor"/>
<path transform="translate(15.6115, 42.1726) scale(0.0040, -0.0040)" d="M0 -213v-5c0 -111 86 -193 146 -284c3 11 4 23 4 35c0 93 -85 187 -150 254zM0 0c0 -175 193 -292 193 -467c0 -29 -7 -58 -19 -84c17 -35 29 -71 29 -111c0 -36 -9 -72 -24 -105c18 -35 30 -72 30 -113c0 -60 -16 -119 -42 -173c-5 -8 -12 -11 -19 -11
c-13 0 -26 11 -23 27c26 49 42 102 42 157c0 91 -95 175 -167 233v-103h-16v750h16zM0 -430v-5c0 -112 89 -194 151 -285c6 19 9 38 9 58c0 90 -91 173 -160 232z" fill="currentColor"/>
<a style="color:inherit;" xlink:href="textedit://C:/Users/jwloy/OneDrive/Documents/GitHub/wygioatynlib/notation/pulseTrack_bc_61_ps1.ly:19:41:42">
<path transform="translate(43.1230, 45.8826) scale(0.0040, -0.0040)" d="M54 -500l86 327c-35 -13 -71 -23 -108 -23c-46 0 -87 33 -87 79c0 40 32 72 72 72c25 0 49 -15 57 -39c10 -28 5 -59 34 -59c17 0 54 54 59 71l39 149c-34 -12 -70 -23 -106 -23c-46 0 -87 33 -87 79c0 40 33 72 73 72c25 0 48 -15 56 -39c10 -28 5 -59 34 -59
c16 0 52 51 56 68l40 151c-33 -12 -68 -22 -103 -22c-46 0 -87 33 -87 79c0 40 32 72 72 72c25 0 49 -15 57 -39c10 -28 5 -59 34 -59c15 0 46 49 52 63c6 12 23 12 28 0l-216 -920c-8 -7 -18 -10 -28 -10s-19 3 -27 10z" fill="currentColor"/>
</a>
<a style="color:inherit;" xlink:href="textedit://C:/Users/jwloy/OneDrive/Documents/GitHub/wygioatynlib/notation/pulseTrack_bc_61_ps1.ly:19:29:30">
<path transform="translate(34.4740, 45.8826) scale(0.0040, -0.0040)" d="M54 -500l86 327c-35 -13 -71 -23 -108 -23c-46 0 -87 33 -87 79c0 40 32 72 72 72c25 0 49 -15 57 -39c10 -28 5 -59 34 -59c17 0 54 54 59 71l39 149c-34 -12 -70 -23 -106 -23c-46 0 -87 33 -87 79c0 40 33 72 73 72c25 0 48 -15 56 -39c10 -28 5 -59 34 -59
c16 0 52 51 56 68l40 151c-33 -12 -68 -22 -103 -22c-46 0 -87 33 -87 79c0 40 32 72 72 72c25 0 49 -15 57 -39c10 -28 5 -59 34 -59c15 0 46 49 52 63c6 12 23 12 28 0l-216 -920c-8 -7 -18 -10 -28 -10s-19 3 -27 10z" fill="currentColor"/>
</a>
<a style="color:inherit;" xlink:href="textedit://C:/Users/jwloy/OneDrive/Documents/GitHub/wygioatynlib/notation/pulseTrack_bc_61_ps1.ly:19:34:35">
<path transform="translate(38.7549, 46.3826) scale(0.0040, -0.0040)" d="M220 138c56 0 109 -29 109 -91c0 -72 -56 -121 -103 -149c-36 -21 -76 -36 -117 -36c-56 0 -109 29 -109 91c0 72 56 121 103 149c36 21 76 36 117 36z" fill="currentColor"/>
</a>
<a style="color:inherit;" xlink:href="textedit://C:/Users/jwloy/OneDrive/Documents/GitHub/wygioatynlib/notation/pulseTrack_bc_61_ps1.ly:19:37:38">
<path transform="translate(39.4130, 47.3826) scale(0.0040, -0.0040)" d="M-50 0c0 28 22 50 50 50s50 -22 50 -50s-22 -50 -50 -50s-50 22 -50 50z" fill="currentColor"/>
</a>
<rect transform="translate(40.0061, 45.8826)" x="-0.0650" y="-3.7500" width="0.1300" height="4.0622" ry="0.0400" fill="currentColor"/>
<a style="color:inherit;" xlink:href="textedit://C:/Users/jwloy/OneDrive/Documents/GitHub/wygioatynlib/notation/pulseTrack_bc_61_ps1.ly:20:32:33">
<path transform="translate(106.4593, 45.8826) scale(0.0040, -0.0040)" d="M66 -500l101 327c-34 -12 -70 -23 -106 -23c-46 0 -87 33 -87 79c0 40 32 72 72 72c25 0 49 -15 57 -39c10 -28 5 -59 34 -59c16 0 55 51 60 68l46 151c-34 -12 -68 -22 -104 -22c-46 0 -87 33 -87 79c0 40 33 72 73 72c25 0 48 -15 56 -39c10 -28 5 -59 34 -59
c15 0 50 49 57 63c6 12 23 12 28 0l-179 -670c-8 -7 -17 -10 -27 -10s-20 3 -28 10z" fill="currentColor"/>
</a>
<path transform="translate(40.0711, 42.1726) scale(0.0040, -0.0040)" d="M0 -213v-5c0 -111 86 -193 146 -284c3 11 4 23 4 35c0 93 -85 187 -150 254zM0 0c0 -175 193 -292 193 -467c0 -29 -7 -58 -19 -84c17 -35 29 -71 29 -111c0 -36 -9 -72 -24 -105c18 -35 30 -72 30 -113c0 -60 -16 -119 -42 -173c-5 -8 -12 -11 -19 -11
c-13 0 -26 11 -23 27c26 49 42 102 42 157c0 91 -95 175 -167 233v-103h-16v750h16zM0 -430v-5c0 -112 89 -194 151 -285c6 19 9 38 9 58c0 90 -91 173 -160 232z" fill="currentColor"/>
<a transform="translate(31.4631, 165.1512)" xlink:href="http://lilypond.org/">
<rect x="0.0000" y="-0.4439" width="56.5755" height="2.0827" fill="none" stroke="none" stroke-width="0.0"/>
</a>
<text transform="translate(31.4631, 165.1512)" font-family="Century Schoolbook L" font-size="2.2001" text-anchor="start" fill="currentColor">
<tspan>
Music engraving by LilyPond 2.18.2www.lilypond.org</tspan>
</text>
</svg>
