<svg xmlns="http://www.w3.org/2000/svg" xmlns:xlink="http://www.w3.org/1999/xlink" version="1.2" width="210.00mm" height="297.00mm" viewBox="0 0 119.5016 169.0094">
<!-- Page: 1/1 -->
<text transform="translate(5.6906, 2.8453)" font-family="Century Schoolbook L" font-size="2.2001" text-anchor="start" fill="currentColor">
<tspan>
 </tspan>
</text>
<line transform="translate(14.2264, 11.8826)" stroke-linejoin="round" stroke-linecap="round" stroke-width="0.1000" stroke="currentColor" x1="0.0500" y1="0.0000" x2="37.6859" y2="0.0000"/>
<line transform="translate(14.2264, 10.8826)" stroke-linejoin="round" stroke-linecap="round" stroke-width="0.1000" stroke="currentColor" x1="0.0500" y1="0.0000" x2="37.6859" y2="0.0000"/>
<line transform="translate(14.2264, 9.8826)" stroke-linejoin="round" stroke-linecap="round" stroke-width="0.1000" stroke="currentColor" x1="0.0500" y1="0.0000" x2="37.6859" y2="0.0000"/>
<line transform="translate(14.2264, 8.8826)" stroke-linejoin="round" stroke-linecap="round" stroke-width="0.1000" stroke="currentColor" x1="0.0500" y1="0.0000" x2="37.6859" y2="0.0000"/>
<line transform="translate(14.2264, 7.8826)" stroke-linejoin="round" stroke-linecap="round" stroke-width="0.1000" stroke="currentColor" x1="0.0500" y1="0.0000" x2="37.6859" y2="0.0000"/>
<path transform="translate(39.5041, 7.1726) scale(0.0040, -0.0040)" d="M0 -213v-5c0 -111 86 -193 146 -284c3 11 4 23 4 35c0 93 -85 187 -150 254zM0 0c0 -175 193 -292 193 -467c0 -29 -7 -58 -19 -84c17 -35 29 -71 29 -111c0 -36 -9 -72 -24 -105c18 -35 30 -72 30 -113c0 -60 -16 -119 -42 -173c-5 -8 -12 -11 -19 -11
c-13 0 -26 11 -23 27c26 49 42 102 42 157c0 91 -95 175 -167 233v-103h-16v750h16zM0 -430v-5c0 -112 89 -194 151 -285c6 19 9 38 9 58c0 90 -91 173 -160 232z" fill="currentColor"/>
<rect transform="translate(39.4391, 9.8826)" x="-0.0650" y="-2.7500" width="0.1300" height="4.0622" ry="0.0400" fill="currentColor"/>
<a style="color:inherit;" xlink:href="textedit://C:/Users/jwloy/OneDrive/Documents/GitHub/wygioatynlib/notation/pulseTrack_bc_61_ps113_L3.ly:17:4:5">
<path transform="translate(38.8460, 12.3826) scale(0.0040, -0.0040)" d="M-50 0c0 28 22 50 50 50s50 -22 50 -50s-22 -50 -50 -50s-50 22 -50 50z" fill="currentColor"/>
</a>
<a style="color:inherit;" xlink:href="textedit://C:/Users/jwloy/OneDrive/Documents/GitHub/wygioatynlib/notation/pulseTrack_bc_61_ps113_L3.ly:17:0:1">
<path transform="translate(38.1879, 11.3826) scale(0.0040, -0.0040)" d="M220 138c56 0 109 -29 109 -91c0 -72 -56 -121 -103 -149c-36 -21 -76 -36 -117 -36c-56 0 -109 29 -109 91c0 72 56 121 103 149c36 21 76 36 117 36z" fill="currentColor"/>
</a>
<a style="color:inherit;" xlink:href="textedit://C:/Users/jwloy/OneDrive/Documents/GitHub/wygioatynlib/notation/pulseTrack_bc_61_ps113_L3.ly:16:10:11">
<path transform="translate(35.6879, 9.8826) scale(0.0040, -0.0040)" d="M54 -500l86 327c-35 -13 -71 -23 -108 -23c-46 0 -87 33 -87 79c0 40 32 72 72 72c25 0 49 -15 57 -39c10 -28 5 -59 34 -59c17 0 54 54 59 71l39 149c-34 -12 -70 -23 -106 -23c-46 0 -87 33 -87 79c0 40 33 72 73 72c25 0 48 -15 56 -39c10 -28 5 -59 34 -59
c16 0 52 51 56 68l40 151c-33 -12 -68 -22 -103 -22c-46 0 -87 33 -87 79c0 40 32 72 72 72c25 0 49 -15 57 -39c10 -28 5 -59 34 -59c15 0 46 49 52 63c6 12 23 12 28 0l-216 -920c-8 -7 -18 -10 -28 -10s-19 3 -27 10z" fill="currentColor"/>
</a>
<path transform="translate(34.4169, 7.1726) scale(0.0040, -0.0040)" d="M0 -213v-5c0 -111 86 -193 146 -284c3 11 4 23 4 35c0 93 -85 187 -150 254zM0 0c0 -175 193 -292 193 -467c0 -29 -7 -58 -19 -84c17 -35 29 -71 29 -111c0 -36 -9 -72 -24 -105c18 -35 30 -72 30 -113c0 -60 -16 -119 -42 -173c-5 -8 -12 -11 -19 -11
c-13 0 -26 11 -23 27c26 49 42 102 42 157c0 91 -95 175 -167 233v-103h-16v750h16zM0 -430v-5c0 -112 89 -194 151 -285c6 19 9 38 9 58c0 90 -91 173 -160 232z" fill="currentColor"/>
<rect transform="translate(34.3519, 9.8826)" x="-0.0650" y="-2.7500" width="0.1300" height="4.0622" ry="0.0400" fill="currentColor"/>
<a style="color:inherit;" xlink:href="textedit://C:/Users/jwloy/OneDrive/Documents/GitHub/wygioatynlib/notation/pulseTrack_bc_61_ps113_L3.ly:16:6:7">
<path transform="translate(33.7588, 13.2786) scale(0.0040, -0.0040)" d="M-211 88c-8 2 -14 9 -14 18c0 10 9 19 19 19c2 0 3 -1 4 -1l408 -105c13 0 19 -6 19 -19s-6 -19 -19 -19l-408 -105c-1 0 -2 -1 -4 -1c-10 0 -19 9 -19 19c0 9 6 16 14 18l251 65l140 23l-140 23z" fill="currentColor"/>
</a>
<a style="color:inherit;" xlink:href="textedit://C:/Users/jwloy/OneDrive/Documents/GitHub/wygioatynlib/notation/pulseTrack_bc_61_ps113_L3.ly:16:4:5">
<path transform="translate(33.7588, 12.3826) scale(0.0040, -0.0040)" d="M-50 0c0 28 22 50 50 50s50 -22 50 -50s-22 -50 -50 -50s-50 22 -50 50z" fill="currentColor"/>
</a>
<a style="color:inherit;" xlink:href="textedit://C:/Users/jwloy/OneDrive/Documents/GitHub/wygioatynlib/notation/pulseTrack_bc_61_ps113_L3.ly:16:0:1">
<path transform="translate(33.1008, 11.3826) scale(0.0040, -0.0040)" d="M220 138c56 0 109 -29 109 -91c0 -72 -56 -121 -103 -149c-36 -21 -76 -36 -117 -36c-56 0 -109 29 -109 91c0 72 56 121 103 149c36 21 76 36 117 36z" fill="currentColor"/>
</a>
<a style="color:inherit;" xlink:href="textedit://C:/Users/jwloy/OneDrive/Documents/GitHub/wygioatynlib/notation/pulseTrack_bc_61_ps113_L3.ly:18:11:12">
<path transform="translate(48.3623, 9.8826) scale(0.0040, -0.0040)" d="M66 -500l101 327c-34 -12 -70 -23 -106 -23c-46 0 -87 33 -87 79c0 40 32 72 72 72c25 0 49 -15 57 -39c10 -28 5 -59 34 -59c16 0 55 51 60 68l46 151c-34 -12 -68 -22 -104 -22c-46 0 -87 33 -87 79c0 40 33 72 73 72c25 0 48 -15 56 -39c10 -28 5 -59 34 -59
c15 0 50 49 57 63c6 12 23 12 28 0l-179 -670c-8 -7 -17 -10 -27 -10s-20 3 -28 10z" fill="currentColor"/>
</a>
<a style="color:inherit;" xlink:href="textedit://C:/Users/jwloy/OneDrive/Documents/GitHub/wygioatynlib/notation/pulseTrack_bc_61_ps113_L3.ly:18:7:8">
<path transform="translate(45.8623, 9.8826) scale(0.0040, -0.0040)" d="M54 -500l86 327c-35 -13 -71 -23 -108 -23c-46 0 -87 33 -87 79c0 40 32 72 72 72c25 0 49 -15 57 -39c10 -28 5 -59 34 -59c17 0 54 54 59 71l39 149c-34 -12 -70 -23 -106 -23c-46 0 -87 33 -87 79c0 40 33 72 73 72c25 0 48 -15 56 -39c10 -28 5 -59 34 -59
c16 0 52 51 56 68l40 151c-33 -12 -68 -22 -103 -22c-46 0 -87 33 -87 79c0 40 32 72 72 72c25 0 49 -15 57 -39c10 -28 5 -59 34 -59c15 0 46 49 52 63c6 12 23 12 28 0l-216 -920c-8 -7 -18 -10 -28 -10s-19 3 -27 10z" fill="currentColor"/>
</a>
<path transform="translate(44.5913, 7.1726) scale(0.0040, -0.0040)" d="M0 -213v-5c0 -111 86 -193 146 -284c3 11 4 23 4 35c0 93 -85 187 -150 254zM0 0c0 -175 193 -292 193 -467c0 -29 -7 -58 -19 -84c17 -35 29 -71 29 -111c0 -36 -9 -72 -24 -105c18 -35 30 -72 30 -113c0 -60 -16 -119 -42 -173c-5 -8 -12 -11 -19 -11
c-13 0 -26 11 -23 27c26 49 42 102 42 157c0 91 -95 175 -167 233v-103h-16v750h16zM0 -430v-5c0 -112 89 -194 151 -285c6 19 9 38 9 58c0 90 -91 173 -160 232z" fill="currentColor"/>
<rect transform="translate(44.5263, 9.8826)" x="-0.0650" y="-2.7500" width="0.1300" height="4.0622" ry="0.0400" fill="currentColor"/>
<a style="color:inherit;" xlink:href="textedit://C:/Users/jwloy/OneDrive/Documents/GitHub/wygioatynlib/notation/pulseTrack_bc_61_ps113_L3.ly:18:4:5">
<path transform="translate(43.9332, 12.3826) scale(0.0040, -0.0040)" d="M-50 0c0 28 22 50 50 50s50 -22 50 -50s-22 -50 -50 -50s-50 22 -50 50z" fill="currentColor"/>
</a>
<a style="color:inherit;" xlink:href="textedit://C:/Users/jwloy/OneDrive/Documents/GitHub/wygioatynlib/notation/pulseTrack_bc_61_ps113_L3.ly:18:0:1">
<path transform="translate(43.2751, 11.3826) scale(0.0040, -0.0040)" d="M220 138c56 0 109 -29 109 -91c0 -72 -56 -121 -103 -149c-36 -21 -76 -36 -117 -36c-56 0 -109 29 -109 91c0 72 56 121 103 149c36 21 76 36 117 36z" fill="currentColor"/>
</a>
<a style="color:inherit;" xlink:href="textedit://C:/Users/jwloy/OneDrive/Documents/GitHub/wygioatynlib/notation/pulseTrack_bc_61_ps113_L3.ly:17:8:9">
<path transform="translate(40.7751, 9.8826) scale(0.0040, -0.0040)" d="M54 -500l86 327c-35 -13 -71 -23 -108 -23c-46 0 -87 33 -87 79c0 40 32 72 72 72c25 0 49 -15 57 -39c10 -28 5 -59 34 -59c17 0 54 54 59 71l39 149c-34 -12 -70 -23 -106 -23c-46 0 -87 33 -87 79c0 40 33 72 73 72c25 0 48 -15 56 -39c10 -28 5 -59 34 -59
c16 0 52 51 56 68l40 151c-33 -12 -68 -22 -103 -22c-46 0 -87 33 -87 79c0 40 32 72 72 72c25 0 49 -15 57 -39c10 -28 5 -59 34 -59c15 0 46 49 52 63c6 12 23 12 28 0l-216 -920c-8 -7 -18 -10 -28 -10s-19 3 -27 10z" fill="currentColor"/>
</a>
<a style="color:inherit;" xlink:href="textedit://C:/Users/jwloy/OneDrive/Documents/GitHub/wygioatynlib/notation/pulseTrack_bc_61_ps113_L3.ly:14:8:9">
<path transform="translate(25.5136, 9.8826) scale(0.0040, -0.0040)" d="M54 -500l86 327c-35 -13 -71 -23 -108 -23c-46 0 -87 33 -87 79c0 40 32 72 72 72c25 0 49 -15 57 -39c10 -28 5 -59 34 -59c17 0 54 54 59 71l39 149c-34 -12 -70 -23 -106 -23c-46 0 -87 33 -87 79c0 40 33 72 73 72c25 0 48 -15 56 -39c10 -28 5 -59 34 -59
c16 0 52 51 56 68l40 151c-33 -12 -68 -22 -103 -22c-46 0 -87 33 -87 79c0 40 32 72 72 72c25 0 49 -15 57 -39c10 -28 5 -59 34 -59c15 0 46 49 52 63c6 12 23 12 28 0l-216 -920c-8 -7 -18 -10 -28 -10s-19 3 -27 10z" fill="currentColor"/>
</a>
<path transform="translate(24.2425, 7.1726) scale(0.0040, -0.0040)" d="M0 -213v-5c0 -111 86 -193 146 -284c3 11 4 23 4 35c0 93 -85 187 -150 254zM0 0c0 -175 193 -292 193 -467c0 -29 -7 -58 -19 -84c17 -35 29 -71 29 -111c0 -36 -9 -72 -24 -105c18 -35 30 -72 30 -113c0 -60 -16 -119 -42 -173c-5 -8 -12 -11 -19 -11
c-13 0 -26 11 -23 27c26 49 42 102 42 157c0 91 -95 175 -167 233v-103h-16v750h16zM0 -430v-5c0 -112 89 -194 151 -285c6 19 9 38 9 58c0 90 -91 173 -160 232z" fill="currentColor"/>
<rect transform="translate(24.1775, 9.8826)" x="-0.0650" y="-2.7500" width="0.1300" height="4.0622" ry="0.0400" fill="currentColor"/>
<a style="color:inherit;" xlink:href="textedit://C:/Users/jwloy/OneDrive/Documents/GitHub/wygioatynlib/notation/pulseTrack_bc_61_ps113_L3.ly:8:6:7">
<rect transform="translate(19.2264, 6.5373)" x="1.0563" y="-2.6727" width="0.1158" height="2.5113" ry="0.0193" fill="currentColor"/>
<path transform="translate(19.2264, 6.5373) scale(0.0036, -0.0036)" d="M217 139c57 0 112 -31 112 -94c0 -72 -55 -121 -102 -149c-35 -21 -74 -35 -115 -35c-57 0 -112 31 -112 94c0 72 55 121 102 149c35 21 74 35 115 35z" fill="currentColor"/>
<text transform="translate(20.3985, 7.0309)" font-family="Century Schoolbook L" font-size="2.2001" text-anchor="start" fill="currentColor">
<tspan>
 = 61</tspan>
</text>
</a>
<path transform="translate(19.2264, 9.8826) scale(0.0040, -0.0040)" d="M359 27c-49 0 -75 42 -75 75c0 38 27 77 72 77c4 0 9 0 14 -1c-28 37 -72 59 -120 59c-106 0 -113 -73 -113 -186v-51v-51c0 -113 7 -187 113 -187c80 0 139 70 158 151c2 7 7 10 12 10c6 0 13 -4 13 -12c0 -94 -105 -174 -183 -174c-68 0 -137 21 -184 70
c-49 51 -66 122 -66 193s17 142 66 193c47 49 116 69 184 69c87 0 160 -64 175 -150c1 -5 1 -9 1 -13c0 -40 -30 -72 -67 -72z" fill="currentColor"/>
<path transform="translate(15.0264, 8.8826) scale(0.0040, -0.0040)" d="M557 -125c0 28 23 51 51 51s51 -23 51 -51s-23 -51 -51 -51s-51 23 -51 51zM557 125c0 28 23 51 51 51s51 -23 51 -51s-23 -51 -51 -51s-51 23 -51 51zM232 263c172 0 293 -88 293 -251c0 -263 -263 -414 -516 -521c-3 -3 -6 -4 -9 -4c-7 0 -13 6 -13 13c0 3 1 6 4 9
c202 118 412 265 412 493c0 120 -63 235 -171 235c-74 0 -129 -54 -154 -126c11 5 22 8 34 8c55 0 100 -45 100 -100c0 -58 -44 -106 -100 -106c-60 0 -112 47 -112 106c0 133 102 244 232 244z" fill="currentColor"/>
<a style="color:inherit;" xlink:href="textedit://C:/Users/jwloy/OneDrive/Documents/GitHub/wygioatynlib/notation/pulseTrack_bc_61_ps113_L3.ly:14:4:5">
<path transform="translate(23.5845, 12.3826) scale(0.0040, -0.0040)" d="M-50 0c0 28 22 50 50 50s50 -22 50 -50s-22 -50 -50 -50s-50 22 -50 50z" fill="currentColor"/>
</a>
<a style="color:inherit;" xlink:href="textedit://C:/Users/jwloy/OneDrive/Documents/GitHub/wygioatynlib/notation/pulseTrack_bc_61_ps113_L3.ly:14:0:1">
<path transform="translate(22.9264, 11.3826) scale(0.0040, -0.0040)" d="M220 138c56 0 109 -29 109 -91c0 -72 -56 -121 -103 -149c-36 -21 -76 -36 -117 -36c-56 0 -109 29 -109 91c0 72 56 121 103 149c36 21 76 36 117 36z" fill="currentColor"/>
</a>
<a style="color:inherit;" xlink:href="textedit://C:/Users/jwloy/OneDrive/Documents/GitHub/wygioatynlib/notation/pulseTrack_bc_61_ps113_L3.ly:15:8:9">
<path transform="translate(30.6007, 9.8826) scale(0.0040, -0.0040)" d="M54 -500l86 327c-35 -13 -71 -23 -108 -23c-46 0 -87 33 -87 79c0 40 32 72 72 72c25 0 49 -15 57 -39c10 -28 5 -59 34 -59c17 0 54 54 59 71l39 149c-34 -12 -70 -23 -106 -23c-46 0 -87 33 -87 79c0 40 33 72 73 72c25 0 48 -15 56 -39c10 -28 5 -59 34 -59
c16 0 52 51 56 68l40 151c-33 -12 -68 -22 -103 -22c-46 0 -87 33 -87 79c0 40 32 72 72 72c25 0 49 -15 57 -39c10 -28 5 -59 34 -59c15 0 46 49 52 63c6 12 23 12 28 0l-216 -920c-8 -7 -18 -10 -28 -10s-19 3 -27 10z" fill="currentColor"/>
</a>
<path transform="translate(29.3297, 7.1726) scale(0.0040, -0.0040)" d="M0 -213v-5c0 -111 86 -193 146 -284c3 11 4 23 4 35c0 93 -85 187 -150 254zM0 0c0 -175 193 -292 193 -467c0 -29 -7 -58 -19 -84c17 -35 29 -71 29 -111c0 -36 -9 -72 -24 -105c18 -35 30 -72 30 -113c0 -60 -16 -119 -42 -173c-5 -8 -12 -11 -19 -11
c-13 0 -26 11 -23 27c26 49 42 102 42 157c0 91 -95 175 -167 233v-103h-16v750h16zM0 -430v-5c0 -112 89 -194 151 -285c6 19 9 38 9 58c0 90 -91 173 -160 232z" fill="currentColor"/>
<rect transform="translate(29.2647, 9.8826)" x="-0.0650" y="-2.7500" width="0.1300" height="4.0622" ry="0.0400" fill="currentColor"/>
<a style="color:inherit;" xlink:href="textedit://C:/Users/jwloy/OneDrive/Documents/GitHub/wygioatynlib/notation/pulseTrack_bc_61_ps113_L3.ly:15:4:5">
<path transform="translate(28.6717, 12.3826) scale(0.0040, -0.0040)" d="M-50 0c0 28 22 50 50 50s50 -22 50 -50s-22 -50 -50 -50s-50 22 -50 50z" fill="currentColor"/>
</a>
<a style="color:inherit;" xlink:href="textedit://C:/Users/jwloy/OneDrive/Documents/GitHub/wygioatynlib/notation/pulseTrack_bc_61_ps113_L3.ly:15:0:1">
<path transform="translate(28.0136, 11.3826) scale(0.0040, -0.0040)" d="M220 138c56 0 109 -29 109 -91c0 -72 -56 -121 -103 -149c-36 -21 -76 -36 -117 -36c-56 0 -109 29 -109 91c0 72 56 121 103 149c36 21 76 36 117 36z" fill="currentColor"/>
</a>
<a transform="translate(31.4631, 165.1512)" xlink:href="http://lilypond.org/">
<rect x="0.0000" y="-0.4439" width="56.5755" height="2.0827" fill="none" stroke="none" stroke-width="0.0"/>
</a>
<text transform="translate(31.4631, 165.1512)" font-family="Century Schoolbook L" font-size="2.2001" text-anchor="start" fill="currentColor">
<tspan>
Music engraving by LilyPond 2.18.2—www.lilypond.org</tspan>
</text>
</svg>
