<?xml version="1.0" encoding="UTF-8" standalone="no"?>
<svg
   xmlns:dc="http://purl.org/dc/elements/1.1/"
   xmlns:cc="http://creativecommons.org/ns#"
   xmlns:rdf="http://www.w3.org/1999/02/22-rdf-syntax-ns#"
   xmlns:svg="http://www.w3.org/2000/svg"
   xmlns="http://www.w3.org/2000/svg"
   xmlns:xlink="http://www.w3.org/1999/xlink"
   id="svg6755"
   viewBox="0 0 56.906926 13.861374"
   height="24.358574mm"
   width="100.00246mm"
   version="1.2">
  <metadata
     id="metadata6761">
    <rdf:RDF>
      <cc:Work
         rdf:about="">
        <dc:format>image/svg+xml</dc:format>
        <dc:type
           rdf:resource="http://purl.org/dc/dcmitype/StillImage" />
        <dc:title></dc:title>
      </cc:Work>
    </rdf:RDF>
  </metadata>
  <defs
     id="defs6759" />
  <!-- Page: 1/1 -->
  <text
     y="-1"
     x="0.00071212446"
     style="font-size:2.20009995px;font-family:'Century Schoolbook L';text-anchor:start;fill:currentColor"
     id="text6311"
     font-size="2.2001">
    <tspan
       id="tspan6309" />
  </text>
  <line
     style="stroke:currentColor;stroke-width:0.1;stroke-linecap:round;stroke-linejoin:round"
     id="line6313"
     y2="3.4300001"
     x2="56.856213"
     y1="3.4300001"
     x1="0.050712124" />
  <rect
     style="fill:currentColor"
     id="rect6315"
     ry="0.0000"
     height="2.0999999"
     width="0.19"
     y="2.3800001"
     x="56.716213" />
  <rect
     style="fill:currentColor"
     id="rect6317"
     ry="0.0000"
     height="2.0999999"
     width="0.19"
     y="2.3800001"
     x="25.717812" />
  <a
     transform="translate(-5.6898879,-3.8453)"
     id="a6321"
     xlink:href="textedit:///Users/jyang/Documents/GitHub/wygioatynlib/notation/wygioatynlib_pulsetrack.ly:10:45:46"
     style="color:inherit">
    <path
       style="fill:currentColor"
       id="path6319"
       d="m 220,138 c 56,0 109,-29 109,-91 0,-72 -56,-121 -103,-149 -36,-21 -76,-36 -117,-36 -56,0 -109,29 -109,91 0,72 56,121 103,149 36,21 76,36 117,36 z"
       transform="matrix(0.004,0,0,-0.004,44.4052,7.2753)" />
  </a>
  <a
     transform="translate(-5.6898879,-3.8453)"
     id="a6325"
     xlink:href="textedit:///Users/jyang/Documents/GitHub/wygioatynlib/notation/wygioatynlib_pulsetrack.ly:10:50:51"
     style="color:inherit">
    <path
       style="fill:currentColor"
       id="path6323"
       d="M -50,0 C -50,28 -28,50 0,50 28,50 50,28 50,0 50,-28 28,-50 0,-50 -28,-50 -50,-28 -50,0 Z"
       transform="matrix(0.004,0,0,-0.004,45.0632,8.2253)" />
  </a>
  <rect
     style="fill:currentColor"
     id="rect6327"
     ry="0.039999999"
     height="2.8122001"
     width="0.13"
     y="0.43000001"
     x="39.901413" />
  <a
     transform="translate(-5.6898879,-3.8453)"
     id="a6331"
     xlink:href="textedit:///Users/jyang/Documents/GitHub/wygioatynlib/notation/wygioatynlib_pulsetrack.ly:10:55:56"
     style="color:inherit">
    <path
       style="fill:currentColor"
       id="path6329"
       d="m 220,138 c 56,0 109,-29 109,-91 0,-72 -56,-121 -103,-149 -36,-21 -76,-36 -117,-36 -56,0 -109,29 -109,91 0,72 56,121 103,149 36,21 76,36 117,36 z"
       transform="matrix(0.004,0,0,-0.004,47.9511,7.2753)" />
  </a>
  <a
     transform="translate(-5.6898879,-3.8453)"
     id="a6335"
     xlink:href="textedit:///Users/jyang/Documents/GitHub/wygioatynlib/notation/wygioatynlib_pulsetrack.ly:10:62:63"
     style="color:inherit">
    <path
       style="fill:currentColor"
       id="path6333"
       d="M -50,0 C -50,28 -28,50 0,50 28,50 50,28 50,0 50,-28 28,-50 0,-50 -28,-50 -50,-28 -50,0 Z"
       transform="matrix(0.004,0,0,-0.004,48.6091,8.2253)" />
  </a>
  <a
     transform="translate(-5.6898879,-3.8453)"
     id="a6339"
     xlink:href="textedit:///Users/jyang/Documents/GitHub/wygioatynlib/notation/wygioatynlib_pulsetrack.ly:10:64:65"
     style="color:inherit">
    <path
       style="fill:currentColor"
       id="path6337"
       d="m -211,88 c -8,2 -14,9 -14,18 0,10 9,19 19,19 2,0 3,-1 4,-1 L 206,19 c 13,0 19,-6 19,-19 0,-13 -6,-19 -19,-19 l -408,-105 c -1,0 -2,-1 -4,-1 -10,0 -19,9 -19,19 0,9 6,16 14,18 L 40,-23 180,0 40,23 Z"
       transform="matrix(0.004,0,0,-0.004,48.6091,9.1213)" />
  </a>
  <rect
     style="fill:currentColor"
     id="rect6341"
     ry="0.039999999"
     height="3.0021999"
     width="0.13"
     y="0.23999994"
     x="43.447311" />
  <rect
     style="fill:currentColor"
     id="rect6343"
     ry="0.039999999"
     height="3.0021999"
     width="0.13"
     y="0.23999994"
     x="31.478012" />
  <rect
     style="fill:currentColor"
     id="rect6345"
     ry="0.039999999"
     height="3.1454999"
     width="0.13"
     y="0.096699886"
     x="5.7916121" />
  <a
     transform="translate(-5.6898879,-3.8453)"
     id="a6349"
     xlink:href="textedit:///Users/jyang/Documents/GitHub/wygioatynlib/notation/wygioatynlib_pulsetrack.ly:10:23:24"
     style="color:inherit">
    <path
       style="fill:currentColor"
       id="path6347"
       d="m 220,138 c 56,0 109,-29 109,-91 0,-72 -56,-121 -103,-149 -36,-21 -76,-36 -117,-36 -56,0 -109,29 -109,91 0,72 56,121 103,149 36,21 76,36 117,36 z"
       transform="matrix(0.004,0,0,-0.004,38.4205,7.2753)" />
  </a>
  <a
     transform="translate(-5.6898879,-3.8453)"
     id="a6353"
     xlink:href="textedit:///Users/jyang/Documents/GitHub/wygioatynlib/notation/wygioatynlib_pulsetrack.ly:10:28:29"
     style="color:inherit">
    <path
       style="fill:currentColor"
       id="path6351"
       d="M -50,0 C -50,28 -28,50 0,50 28,50 50,28 50,0 50,-28 28,-50 0,-50 -28,-50 -50,-28 -50,0 Z"
       transform="matrix(0.004,0,0,-0.004,39.0786,8.2253)" />
  </a>
  <rect
     style="fill:currentColor"
     id="rect6355"
     ry="0.039999999"
     height="3.0021999"
     width="0.13"
     y="0.23999994"
     x="33.916813" />
  <a
     transform="translate(-5.6898879,-3.8453)"
     id="a6359"
     xlink:href="textedit:///Users/jyang/Documents/GitHub/wygioatynlib/notation/wygioatynlib_pulsetrack.ly:10:34:35"
     style="color:inherit">
    <path
       style="fill:currentColor"
       id="path6357"
       d="m 220,138 c 56,0 109,-29 109,-91 0,-72 -56,-121 -103,-149 -36,-21 -76,-36 -117,-36 -56,0 -109,29 -109,91 0,72 56,121 103,149 36,21 76,36 117,36 z"
       transform="matrix(0.004,0,0,-0.004,40.8593,7.2753)" />
  </a>
  <a
     transform="translate(-5.6898879,-3.8453)"
     id="a6363"
     xlink:href="textedit:///Users/jyang/Documents/GitHub/wygioatynlib/notation/wygioatynlib_pulsetrack.ly:10:40:41"
     style="color:inherit">
    <path
       style="fill:currentColor"
       id="path6361"
       d="M -50,0 C -50,28 -28,50 0,50 28,50 50,28 50,0 50,-28 28,-50 0,-50 -28,-50 -50,-28 -50,0 Z"
       transform="matrix(0.004,0,0,-0.004,41.5173,8.2253)" />
  </a>
  <a
     transform="translate(-5.6898879,-3.8453)"
     id="a6367"
     xlink:href="textedit:///Users/jyang/Documents/GitHub/wygioatynlib/notation/wygioatynlib_pulsetrack.ly:10:42:43"
     style="color:inherit">
    <path
       style="fill:currentColor"
       id="path6365"
       d="m -211,88 c -8,2 -14,9 -14,18 0,10 9,19 19,19 2,0 3,-1 4,-1 L 206,19 c 13,0 19,-6 19,-19 0,-13 -6,-19 -19,-19 l -408,-105 c -1,0 -2,-1 -4,-1 -10,0 -19,9 -19,19 0,9 6,16 14,18 L 40,-23 180,0 40,23 Z"
       transform="matrix(0.004,0,0,-0.004,41.5173,9.1213)" />
  </a>
  <rect
     style="fill:currentColor"
     id="rect6369"
     ry="0.039999999"
     height="2.8122001"
     width="0.13"
     y="0.43000001"
     x="36.355511" />
  <a
     transform="translate(-5.6898879,-3.8453)"
     id="a6373"
     xlink:href="textedit:///Users/jyang/Documents/GitHub/wygioatynlib/notation/wygioatynlib_pulsetrack.ly:10:84:85"
     style="color:inherit">
    <path
       style="fill:currentColor"
       id="path6371"
       d="m 220,138 c 56,0 109,-29 109,-91 0,-72 -56,-121 -103,-149 -36,-21 -76,-36 -117,-36 -56,0 -109,29 -109,91 0,72 56,121 103,149 36,21 76,36 117,36 z"
       transform="matrix(0.004,0,0,-0.004,55.2674,7.2753)" />
  </a>
  <a
     transform="translate(-5.6898879,-3.8453)"
     id="a6377"
     xlink:href="textedit:///Users/jyang/Documents/GitHub/wygioatynlib/notation/wygioatynlib_pulsetrack.ly:10:89:90"
     style="color:inherit">
    <path
       style="fill:currentColor"
       id="path6375"
       d="M -50,0 C -50,28 -28,50 0,50 28,50 50,28 50,0 50,-28 28,-50 0,-50 -28,-50 -50,-28 -50,0 Z"
       transform="matrix(0.004,0,0,-0.004,55.9255,8.2253)" />
  </a>
  <rect
     style="fill:currentColor"
     id="rect6379"
     ry="0.039999999"
     height="3.0021999"
     width="0.13"
     y="0.23999994"
     x="50.763714" />
  <a
     transform="translate(-5.6898879,-3.8453)"
     id="a6383"
     xlink:href="textedit:///Users/jyang/Documents/GitHub/wygioatynlib/notation/wygioatynlib_pulsetrack.ly:10:95:96"
     style="color:inherit">
    <path
       style="fill:currentColor"
       id="path6381"
       d="m 220,138 c 56,0 109,-29 109,-91 0,-72 -56,-121 -103,-149 -36,-21 -76,-36 -117,-36 -56,0 -109,29 -109,91 0,72 56,121 103,149 36,21 76,36 117,36 z"
       transform="matrix(0.004,0,0,-0.004,57.7062,7.2753)" />
  </a>
  <a
     transform="translate(-5.6898879,-3.8453)"
     id="a6387"
     xlink:href="textedit:///Users/jyang/Documents/GitHub/wygioatynlib/notation/wygioatynlib_pulsetrack.ly:10:101:102"
     style="color:inherit">
    <path
       style="fill:currentColor"
       id="path6385"
       d="M -50,0 C -50,28 -28,50 0,50 28,50 50,28 50,0 50,-28 28,-50 0,-50 -28,-50 -50,-28 -50,0 Z"
       transform="matrix(0.004,0,0,-0.004,58.3643,8.2253)" />
  </a>
  <a
     transform="translate(-5.6898879,-3.8453)"
     id="a6391"
     xlink:href="textedit:///Users/jyang/Documents/GitHub/wygioatynlib/notation/wygioatynlib_pulsetrack.ly:10:103:104"
     style="color:inherit">
    <path
       style="fill:currentColor"
       id="path6389"
       d="m -211,88 c -8,2 -14,9 -14,18 0,10 9,19 19,19 2,0 3,-1 4,-1 L 206,19 c 13,0 19,-6 19,-19 0,-13 -6,-19 -19,-19 l -408,-105 c -1,0 -2,-1 -4,-1 -10,0 -19,9 -19,19 0,9 6,16 14,18 L 40,-23 180,0 40,23 Z"
       transform="matrix(0.004,0,0,-0.004,58.3643,9.1213)" />
  </a>
  <rect
     style="fill:currentColor"
     id="rect6393"
     ry="0.039999999"
     height="3.1454999"
     width="0.13"
     y="0.096699886"
     x="53.202412" />
  <polygon
     style="fill:currentColor;stroke:currentColor;stroke-width:0.08;stroke-linecap:round;stroke-linejoin:round"
     id="polygon6395"
     points="0.04,0.2 0.04,-0.2 7.4063,-0.2 7.4063,0.2 "
     transform="translate(43.447312,0.24)" />
  <polygon
     style="fill:currentColor;stroke:currentColor;stroke-width:0.08;stroke-linecap:round;stroke-linejoin:round"
     id="polygon6397"
     points="0.04,0.2 0.04,-0.2 7.4063,-0.2 7.4063,0.2 "
     transform="translate(43.447312,1.05)" />
  <polygon
     style="fill:currentColor;stroke:currentColor;stroke-width:0.08;stroke-linecap:round;stroke-linejoin:round"
     id="polygon6399"
     points="0.04,0.2 0.04,-0.2 3.6359,-0.2 3.6359,0.2 "
     transform="translate(36.355512,0.43)" />
  <polygon
     style="fill:currentColor;stroke:currentColor;stroke-width:0.08;stroke-linecap:round;stroke-linejoin:round"
     id="polygon6401"
     points="0.04,0.2 0.04,-0.2 6.0747,-0.2 6.0747,0.2 "
     transform="translate(27.932112,0.24)" />
  <polygon
     style="fill:currentColor;stroke:currentColor;stroke-width:0.08;stroke-linecap:round;stroke-linejoin:round"
     id="polygon6403"
     points="0.04,0.2 0.04,-0.2 2.5288,-0.2 2.5288,0.2 "
     transform="translate(31.478012,1.05)" />
  <polygon
     style="fill:currentColor;stroke:currentColor;stroke-width:0.08;stroke-linecap:round;stroke-linejoin:round"
     id="polygon6405"
     points="0.04,0.2 0.04,-0.2 3.6359,-0.2 3.6359,0.2 "
     transform="translate(15.097612,0.43)" />
  <a
     transform="translate(-5.6898879,-3.8453)"
     id="a6409"
     xlink:href="textedit:///Users/jyang/Documents/GitHub/wygioatynlib/notation/wygioatynlib_pulsetrack.ly:10:67:68"
     style="color:inherit">
    <path
       style="fill:currentColor"
       id="path6407"
       d="m 220,138 c 56,0 109,-29 109,-91 0,-72 -56,-121 -103,-149 -36,-21 -76,-36 -117,-36 -56,0 -109,29 -109,91 0,72 56,121 103,149 36,21 76,36 117,36 z"
       transform="matrix(0.004,0,0,-0.004,50.3898,7.2753)" />
  </a>
  <a
     transform="translate(-5.6898879,-3.8453)"
     id="a6413"
     xlink:href="textedit:///Users/jyang/Documents/GitHub/wygioatynlib/notation/wygioatynlib_pulsetrack.ly:10:72:73"
     style="color:inherit">
    <path
       style="fill:currentColor"
       id="path6411"
       d="M -50,0 C -50,28 -28,50 0,50 28,50 50,28 50,0 50,-28 28,-50 0,-50 -28,-50 -50,-28 -50,0 Z"
       transform="matrix(0.004,0,0,-0.004,51.0479,8.2253)" />
  </a>
  <rect
     style="fill:currentColor"
     id="rect6415"
     ry="0.039999999"
     height="3.0021999"
     width="0.13"
     y="0.23999994"
     x="45.886112" />
  <a
     transform="translate(-5.6898879,-3.8453)"
     id="a6419"
     xlink:href="textedit:///Users/jyang/Documents/GitHub/wygioatynlib/notation/wygioatynlib_pulsetrack.ly:10:76:77"
     style="color:inherit">
    <path
       style="fill:currentColor"
       id="path6417"
       d="m 220,138 c 56,0 109,-29 109,-91 0,-72 -56,-121 -103,-149 -36,-21 -76,-36 -117,-36 -56,0 -109,29 -109,91 0,72 56,121 103,149 36,21 76,36 117,36 z"
       transform="matrix(0.004,0,0,-0.004,52.8286,7.2753)" />
  </a>
  <a
     transform="translate(-5.6898879,-3.8453)"
     id="a6423"
     xlink:href="textedit:///Users/jyang/Documents/GitHub/wygioatynlib/notation/wygioatynlib_pulsetrack.ly:10:81:82"
     style="color:inherit">
    <path
       style="fill:currentColor"
       id="path6421"
       d="M -50,0 C -50,28 -28,50 0,50 28,50 50,28 50,0 50,-28 28,-50 0,-50 -28,-50 -50,-28 -50,0 Z"
       transform="matrix(0.004,0,0,-0.004,53.4867,8.2253)" />
  </a>
  <rect
     style="fill:currentColor"
     id="rect6425"
     ry="0.039999999"
     height="3.0021999"
     width="0.13"
     y="0.23999994"
     x="48.324913" />
  <a
     transform="translate(-5.6898879,-3.8453)"
     id="a6429"
     xlink:href="textedit:///Users/jyang/Documents/GitHub/wygioatynlib/notation/wygioatynlib_pulsetrack.ly:9:28:29"
     style="color:inherit">
    <path
       style="fill:currentColor"
       id="path6427"
       d="m 220,138 c 56,0 109,-29 109,-91 0,-72 -56,-121 -103,-149 -36,-21 -76,-36 -117,-36 -56,0 -109,29 -109,91 0,72 56,121 103,149 36,21 76,36 117,36 z"
       transform="matrix(0.004,0,0,-0.004,19.6013,7.2753)" />
  </a>
  <a
     transform="translate(-5.6898879,-3.8453)"
     id="a6433"
     xlink:href="textedit:///Users/jyang/Documents/GitHub/wygioatynlib/notation/wygioatynlib_pulsetrack.ly:9:34:35"
     style="color:inherit">
    <path
       style="fill:currentColor"
       id="path6431"
       d="M -50,0 C -50,28 -28,50 0,50 28,50 50,28 50,0 50,-28 28,-50 0,-50 -28,-50 -50,-28 -50,0 Z"
       transform="matrix(0.004,0,0,-0.004,20.2594,8.2253)" />
  </a>
  <a
     transform="translate(-5.6898879,-3.8453)"
     id="a6437"
     xlink:href="textedit:///Users/jyang/Documents/GitHub/wygioatynlib/notation/wygioatynlib_pulsetrack.ly:9:36:37"
     style="color:inherit">
    <path
       style="fill:currentColor"
       id="path6435"
       d="m -211,88 c -8,2 -14,9 -14,18 0,10 9,19 19,19 2,0 3,-1 4,-1 L 206,19 c 13,0 19,-6 19,-19 0,-13 -6,-19 -19,-19 l -408,-105 c -1,0 -2,-1 -4,-1 -10,0 -19,9 -19,19 0,9 6,16 14,18 L 40,-23 180,0 40,23 Z"
       transform="matrix(0.004,0,0,-0.004,20.2594,9.1213)" />
  </a>
  <rect
     style="fill:currentColor"
     id="rect6439"
     ry="0.039999999"
     height="2.8122001"
     width="0.13"
     y="0.43000001"
     x="15.097612" />
  <a
     transform="translate(-5.6898879,-3.8453)"
     id="a6443"
     xlink:href="textedit:///Users/jyang/Documents/GitHub/wygioatynlib/notation/wygioatynlib_pulsetrack.ly:9:8:9"
     style="color:inherit">
    <path
       style="fill:currentColor"
       id="path6441"
       d="M -50,0 C -50,28 -28,50 0,50 28,50 50,28 50,0 50,-28 28,-50 0,-50 -28,-50 -50,-28 -50,0 Z"
       transform="matrix(0.004,0,0,-0.004,10.9534,8.2253)" />
  </a>
  <a
     transform="translate(-5.6898879,-3.8453)"
     id="a6447"
     xlink:href="textedit:///Users/jyang/Documents/GitHub/wygioatynlib/notation/wygioatynlib_pulsetrack.ly:9:39:40"
     style="color:inherit">
    <path
       style="fill:currentColor"
       id="path6445"
       d="m 220,138 c 56,0 109,-29 109,-91 0,-72 -56,-121 -103,-149 -36,-21 -76,-36 -117,-36 -56,0 -109,29 -109,91 0,72 56,121 103,149 36,21 76,36 117,36 z"
       transform="matrix(0.004,0,0,-0.004,23.1472,7.2753)" />
  </a>
  <a
     transform="translate(-5.6898879,-3.8453)"
     id="a6451"
     xlink:href="textedit:///Users/jyang/Documents/GitHub/wygioatynlib/notation/wygioatynlib_pulsetrack.ly:9:44:45"
     style="color:inherit">
    <path
       style="fill:currentColor"
       id="path6449"
       d="M -50,0 C -50,28 -28,50 0,50 28,50 50,28 50,0 50,-28 28,-50 0,-50 -28,-50 -50,-28 -50,0 Z"
       transform="matrix(0.004,0,0,-0.004,23.8053,8.2253)" />
  </a>
  <rect
     style="fill:currentColor"
     id="rect6453"
     ry="0.039999999"
     height="2.8122001"
     width="0.13"
     y="0.43000001"
     x="18.643513" />
  <path
     style="fill:currentColor;stroke-width:0.004"
     id="path6455"
     d="m 1.8167121,4.2164 c 0.088,-0.056 0.176,-0.116 0.24,-0.2 0.044,-0.06 0.076,-0.132 0.108,-0.2 0.008,-0.016 0.02,-0.024 0.036,-0.024 0.024,0 0.052,0.02 0.052,0.056 v 0.98 h 0.288 c 0.04,0 0.06,0.028 0.06,0.056 0,0.028 -0.02,0.06 -0.06,0.06 h -0.288 v 0.032 c 0,0.192 0.108,0.376 0.288,0.376 0.032,0 0.048,0.02 0.048,0.044 0,0.024 -0.016,0.048 -0.048,0.048 -0.176,0 -0.348,-0.052 -0.524,-0.052 -0.176,0 -0.348,0.052 -0.524,0.052 -0.032,0 -0.048,-0.024 -0.048,-0.048 0,-0.024 0.016,-0.044 0.048,-0.044 0.18,0 0.292,-0.184 0.292,-0.376 v -0.032 h -0.668 c -0.092,0 -0.12399998,-0.056 -0.12399998,-0.092 0,-0.012 0.004,-0.02 0.008,-0.024 0.32,-0.372 0.552,-0.828 0.552,-1.32 0,-0.036 0.024,-0.064 0.052,-0.064 h 0.012 c 0.092,0.028 0.188,0.052 0.284,0.052 0.096,0 0.192,-0.024 0.284,-0.052 0.008,-0.004 0.012,-0.004 0.02,-0.004 0.044,0 0.072,0.04 0.048,0.068 l -1.136,1.32 h 0.668 v -0.524 c 0,-0.032 0.004,-0.068 0.032,-0.088 z" />
  <path
     style="fill:currentColor;stroke-width:0.004"
     id="path6457"
     d="m 1.8167121,2.202 c 0.088,-0.056 0.176,-0.116 0.24,-0.2 0.044,-0.06 0.076,-0.132 0.108,-0.2 0.008,-0.016 0.02,-0.024 0.036,-0.024 0.024,0 0.052,0.02 0.052,0.056 v 0.98 h 0.288 c 0.04,0 0.06,0.028 0.06,0.056 0,0.028 -0.02,0.06 -0.06,0.06 h -0.288 v 0.032 c 0,0.192 0.108,0.376 0.288,0.376 0.032,0 0.048,0.02 0.048,0.044 0,0.024 -0.016,0.048 -0.048,0.048 -0.176,0 -0.348,-0.052 -0.524,-0.052 -0.176,0 -0.348,0.052 -0.524,0.052 -0.032,0 -0.048,-0.024 -0.048,-0.048 0,-0.024 0.016,-0.044 0.048,-0.044 0.18,0 0.292,-0.184 0.292,-0.376 V 2.93 h -0.668 c -0.092,0 -0.12399998,-0.056 -0.12399998,-0.092 0,-0.012 0.004,-0.02 0.008,-0.024 0.32,-0.372 0.552,-0.828 0.552,-1.32 0,-0.036 0.024,-0.064 0.052,-0.064 h 0.012 c 0.092,0.028 0.188,0.052 0.284,0.052 0.096,0 0.192,-0.024 0.284,-0.052 0.008,-0.004 0.012,-0.004 0.02,-0.004 0.044,0 0.072,0.04 0.048,0.068 l -1.136,1.32 h 0.668 V 2.29 c 0,-0.032 0.004,-0.068 0.032,-0.088 z" />
  <a
     transform="translate(-5.6898879,-3.8453)"
     id="a6461"
     xlink:href="textedit:///Users/jyang/Documents/GitHub/wygioatynlib/notation/wygioatynlib_pulsetrack.ly:9:15:16"
     style="color:inherit">
    <path
       style="fill:currentColor"
       id="path6459"
       d="m 220,138 c 56,0 109,-29 109,-91 0,-72 -56,-121 -103,-149 -36,-21 -76,-36 -117,-36 -56,0 -109,29 -109,91 0,72 56,121 103,149 36,21 76,36 117,36 z"
       transform="matrix(0.004,0,0,-0.004,14.9483,7.2753)" />
  </a>
  <a
     transform="translate(-5.6898879,-3.8453)"
     id="a6465"
     xlink:href="textedit:///Users/jyang/Documents/GitHub/wygioatynlib/notation/wygioatynlib_pulsetrack.ly:9:20:21"
     style="color:inherit">
    <path
       style="fill:currentColor"
       id="path6463"
       d="M -50,0 C -50,28 -28,50 0,50 28,50 50,28 50,0 50,-28 28,-50 0,-50 -28,-50 -50,-28 -50,0 Z"
       transform="matrix(0.004,0,0,-0.004,15.6064,8.2253)" />
  </a>
  <a
     transform="translate(-5.6898879,-3.8453)"
     id="a6469"
     xlink:href="textedit:///Users/jyang/Documents/GitHub/wygioatynlib/notation/wygioatynlib_pulsetrack.ly:9:22:23"
     style="color:inherit">
    <path
       style="fill:currentColor"
       id="path6467"
       d="m -211,88 c -8,2 -14,9 -14,18 0,10 9,19 19,19 2,0 3,-1 4,-1 L 206,19 c 13,0 19,-6 19,-19 0,-13 -6,-19 -19,-19 l -408,-105 c -1,0 -2,-1 -4,-1 -10,0 -19,9 -19,19 0,9 6,16 14,18 L 40,-23 180,0 40,23 Z"
       transform="matrix(0.004,0,0,-0.004,15.6064,9.1213)" />
  </a>
  <rect
     style="fill:currentColor"
     id="rect6471"
     ry="0.039999999"
     height="3.1454999"
     width="0.13"
     y="0.096699886"
     x="10.444613" />
  <a
     transform="translate(-5.6898879,-3.8453)"
     id="a6475"
     xlink:href="textedit:///Users/jyang/Documents/GitHub/wygioatynlib/notation/wygioatynlib_pulsetrack.ly:9:2:3"
     style="color:inherit">
    <path
       style="fill:currentColor"
       id="path6473"
       d="m 220,138 c 56,0 109,-29 109,-91 0,-72 -56,-121 -103,-149 -36,-21 -76,-36 -117,-36 -56,0 -109,29 -109,91 0,72 56,121 103,149 36,21 76,36 117,36 z"
       transform="matrix(0.004,0,0,-0.004,10.2953,7.2753)" />
  </a>
  <a
     transform="translate(-5.6898879,-3.8453)"
     id="a6479"
     xlink:href="textedit:///Users/jyang/Documents/GitHub/wygioatynlib/notation/wygioatynlib_pulsetrack.ly:10:2:3"
     style="color:inherit">
    <path
       style="fill:currentColor"
       id="path6477"
       d="m 220,138 c 56,0 109,-29 109,-91 0,-72 -56,-121 -103,-149 -36,-21 -76,-36 -117,-36 -56,0 -109,29 -109,91 0,72 56,121 103,149 36,21 76,36 117,36 z"
       transform="matrix(0.004,0,0,-0.004,32.4358,7.2753)" />
  </a>
  <a
     transform="translate(-5.6898879,-3.8453)"
     id="a6483"
     xlink:href="textedit:///Users/jyang/Documents/GitHub/wygioatynlib/notation/wygioatynlib_pulsetrack.ly:10:8:9"
     style="color:inherit">
    <path
       style="fill:currentColor"
       id="path6481"
       d="M -50,0 C -50,28 -28,50 0,50 28,50 50,28 50,0 50,-28 28,-50 0,-50 -28,-50 -50,-28 -50,0 Z"
       transform="matrix(0.004,0,0,-0.004,33.0939,8.2253)" />
  </a>
  <a
     transform="translate(-5.6898879,-3.8453)"
     id="a6487"
     xlink:href="textedit:///Users/jyang/Documents/GitHub/wygioatynlib/notation/wygioatynlib_pulsetrack.ly:10:10:11"
     style="color:inherit">
    <path
       style="fill:currentColor"
       id="path6485"
       d="m -211,88 c -8,2 -14,9 -14,18 0,10 9,19 19,19 2,0 3,-1 4,-1 L 206,19 c 13,0 19,-6 19,-19 0,-13 -6,-19 -19,-19 l -408,-105 c -1,0 -2,-1 -4,-1 -10,0 -19,9 -19,19 0,9 6,16 14,18 L 40,-23 180,0 40,23 Z"
       transform="matrix(0.004,0,0,-0.004,33.0939,9.1213)" />
  </a>
  <rect
     style="fill:currentColor"
     id="rect6489"
     ry="0.039999999"
     height="3.0021999"
     width="0.13"
     y="0.23999994"
     x="27.932112" />
  <a
     transform="translate(-5.6898879,-3.8453)"
     id="a6493"
     xlink:href="textedit:///Users/jyang/Documents/GitHub/wygioatynlib/notation/wygioatynlib_pulsetrack.ly:10:13:14"
     style="color:inherit">
    <path
       style="fill:currentColor"
       id="path6491"
       d="m 220,138 c 56,0 109,-29 109,-91 0,-72 -56,-121 -103,-149 -36,-21 -76,-36 -117,-36 -56,0 -109,29 -109,91 0,72 56,121 103,149 36,21 76,36 117,36 z"
       transform="matrix(0.004,0,0,-0.004,35.9817,7.2753)" />
  </a>
  <a
     transform="translate(-5.6898879,-3.8453)"
     id="a6497"
     xlink:href="textedit:///Users/jyang/Documents/GitHub/wygioatynlib/notation/wygioatynlib_pulsetrack.ly:10:20:21"
     style="color:inherit">
    <path
       style="fill:currentColor"
       id="path6495"
       d="M -50,0 C -50,28 -28,50 0,50 28,50 50,28 50,0 50,-28 28,-50 0,-50 -28,-50 -50,-28 -50,0 Z"
       transform="matrix(0.004,0,0,-0.004,36.6398,8.2253)" />
  </a>
  <a
     transform="translate(-5.6898879,-3.8453)"
     id="a6501"
     xlink:href="textedit:///Users/jyang/Documents/GitHub/wygioatynlib/notation/wygioatynlib_pulsetrack.ly:9:50:51"
     style="color:inherit">
    <path
       style="fill:currentColor"
       id="path6499"
       d="m 220,138 c 56,0 109,-29 109,-91 0,-72 -56,-121 -103,-149 -36,-21 -76,-36 -117,-36 -56,0 -109,29 -109,91 0,72 56,121 103,149 36,21 76,36 117,36 z"
       transform="matrix(0.004,0,0,-0.004,26.6931,7.2753)" />
  </a>
  <a
     transform="translate(-5.6898879,-3.8453)"
     id="a6505"
     xlink:href="textedit:///Users/jyang/Documents/GitHub/wygioatynlib/notation/wygioatynlib_pulsetrack.ly:9:56:57"
     style="color:inherit">
    <path
       style="fill:currentColor"
       id="path6503"
       d="M -50,0 C -50,28 -28,50 0,50 28,50 50,28 50,0 50,-28 28,-50 0,-50 -28,-50 -50,-28 -50,0 Z"
       transform="matrix(0.004,0,0,-0.004,27.3512,8.2253)" />
  </a>
  <a
     transform="translate(-5.6898879,-3.8453)"
     id="a6509"
     xlink:href="textedit:///Users/jyang/Documents/GitHub/wygioatynlib/notation/wygioatynlib_pulsetrack.ly:9:58:59"
     style="color:inherit">
    <path
       style="fill:currentColor"
       id="path6507"
       d="m -211,88 c -8,2 -14,9 -14,18 0,10 9,19 19,19 2,0 3,-1 4,-1 L 206,19 c 13,0 19,-6 19,-19 0,-13 -6,-19 -19,-19 l -408,-105 c -1,0 -2,-1 -4,-1 -10,0 -19,9 -19,19 0,9 6,16 14,18 L 40,-23 180,0 40,23 Z"
       transform="matrix(0.004,0,0,-0.004,27.3512,9.1213)" />
  </a>
  <rect
     style="fill:currentColor"
     id="rect6511"
     ry="0.039999999"
     height="3.1454999"
     width="0.13"
     y="0.096699886"
     x="22.189413" />
  <a
     transform="translate(-5.6898879,-3.8453)"
     id="a6515"
     xlink:href="textedit:///Users/jyang/Documents/GitHub/wygioatynlib/notation/wygioatynlib_pulsetrack.ly:9:10:11"
     style="color:inherit">
    <path
       style="fill:currentColor"
       id="path6513"
       d="m -211,88 c -8,2 -14,9 -14,18 0,10 9,19 19,19 2,0 3,-1 4,-1 L 206,19 c 13,0 19,-6 19,-19 0,-13 -6,-19 -19,-19 l -408,-105 c -1,0 -2,-1 -4,-1 -10,0 -19,9 -19,19 0,9 6,16 14,18 L 40,-23 180,0 40,23 Z"
       transform="matrix(0.004,0,0,-0.004,10.9534,9.1213)" />
  </a>
  <line
     style="stroke:currentColor;stroke-width:0.1;stroke-linecap:round;stroke-linejoin:round"
     id="line6517"
     y2="11.515377"
     x2="56.856213"
     y1="11.515377"
     x1="0.050712235" />
  <rect
     style="fill:currentColor"
     id="rect6519"
     ry="0.0000"
     height="2.0999999"
     width="0.19"
     y="10.465375"
     x="27.07011" />
  <rect
     style="fill:currentColor"
     id="rect6521"
     ry="0.0000"
     height="2.0999999"
     width="0.19"
     y="10.465375"
     x="56.716213" />
  <rect
     style="fill:currentColor"
     id="rect6523"
     ry="0.039999999"
     height="3.0021999"
     width="0.13"
     y="8.3253689"
     x="32.80101" />
  <a
     transform="translate(-5.6898879,-7.7599261)"
     id="a6527"
     xlink:href="textedit:///Users/jyang/Documents/GitHub/wygioatynlib/notation/wygioatynlib_pulsetrack.ly:12:24:25"
     style="color:inherit">
    <path
       style="fill:currentColor"
       id="path6525"
       d="m 220,138 c 56,0 109,-29 109,-91 0,-72 -56,-121 -103,-149 -36,-21 -76,-36 -117,-36 -56,0 -109,29 -109,91 0,72 56,121 103,149 36,21 76,36 117,36 z"
       transform="matrix(0.004,0,0,-0.004,40.8135,19.2753)" />
  </a>
  <a
     transform="translate(-5.6898879,-7.7599261)"
     id="a6531"
     xlink:href="textedit:///Users/jyang/Documents/GitHub/wygioatynlib/notation/wygioatynlib_pulsetrack.ly:12:31:32"
     style="color:inherit">
    <path
       style="fill:currentColor"
       id="path6529"
       d="M -50,0 C -50,28 -28,50 0,50 28,50 50,28 50,0 50,-28 28,-50 0,-50 -28,-50 -50,-28 -50,0 Z"
       transform="matrix(0.004,0,0,-0.004,41.4716,20.2253)" />
  </a>
  <rect
     style="fill:currentColor"
     id="rect6533"
     ry="0.039999999"
     height="3.0021999"
     width="0.13"
     y="8.3253689"
     x="36.309711" />
  <a
     transform="translate(-5.6898879,-7.7599261)"
     id="a6537"
     xlink:href="textedit:///Users/jyang/Documents/GitHub/wygioatynlib/notation/wygioatynlib_pulsetrack.ly:11:68:69"
     style="color:inherit">
    <path
       style="fill:currentColor"
       id="path6535"
       d="m 220,138 c 56,0 109,-29 109,-91 0,-72 -56,-121 -103,-149 -36,-21 -76,-36 -117,-36 -56,0 -109,29 -109,91 0,72 56,121 103,149 36,21 76,36 117,36 z"
       transform="matrix(0.004,0,0,-0.004,23.5071,19.2753)" />
  </a>
  <a
     transform="translate(-5.6898879,-7.7599261)"
     id="a6541"
     xlink:href="textedit:///Users/jyang/Documents/GitHub/wygioatynlib/notation/wygioatynlib_pulsetrack.ly:11:74:75"
     style="color:inherit">
    <path
       style="fill:currentColor"
       id="path6539"
       d="M -50,0 C -50,28 -28,50 0,50 28,50 50,28 50,0 50,-28 28,-50 0,-50 -28,-50 -50,-28 -50,0 Z"
       transform="matrix(0.004,0,0,-0.004,24.1652,20.2253)" />
  </a>
  <a
     transform="translate(-5.6898879,-7.7599261)"
     id="a6545"
     xlink:href="textedit:///Users/jyang/Documents/GitHub/wygioatynlib/notation/wygioatynlib_pulsetrack.ly:11:76:77"
     style="color:inherit">
    <path
       style="fill:currentColor"
       id="path6543"
       d="m -211,88 c -8,2 -14,9 -14,18 0,10 9,19 19,19 2,0 3,-1 4,-1 L 206,19 c 13,0 19,-6 19,-19 0,-13 -6,-19 -19,-19 l -408,-105 c -1,0 -2,-1 -4,-1 -10,0 -19,9 -19,19 0,9 6,16 14,18 L 40,-23 180,0 40,23 Z"
       transform="matrix(0.004,0,0,-0.004,24.1652,21.1213)" />
  </a>
  <rect
     style="fill:currentColor"
     id="rect6547"
     ry="0.039999999"
     height="3.1454999"
     width="0.13"
     y="8.1820688"
     x="19.003412" />
  <a
     transform="translate(-5.6898879,-7.7599261)"
     id="a6551"
     xlink:href="textedit:///Users/jyang/Documents/GitHub/wygioatynlib/notation/wygioatynlib_pulsetrack.ly:11:82:83"
     style="color:inherit">
    <path
       style="fill:currentColor"
       id="path6549"
       d="m 220,138 c 56,0 109,-29 109,-91 0,-72 -56,-121 -103,-149 -36,-21 -76,-36 -117,-36 -56,0 -109,29 -109,91 0,72 56,121 103,149 36,21 76,36 117,36 z"
       transform="matrix(0.004,0,0,-0.004,28.1028,19.2753)" />
  </a>
  <a
     transform="translate(-5.6898879,-7.7599261)"
     id="a6555"
     xlink:href="textedit:///Users/jyang/Documents/GitHub/wygioatynlib/notation/wygioatynlib_pulsetrack.ly:11:87:88"
     style="color:inherit">
    <path
       style="fill:currentColor"
       id="path6553"
       d="M -50,0 C -50,28 -28,50 0,50 28,50 50,28 50,0 50,-28 28,-50 0,-50 -28,-50 -50,-28 -50,0 Z"
       transform="matrix(0.004,0,0,-0.004,28.7608,20.2253)" />
  </a>
  <a
     transform="translate(-5.6898879,-7.7599261)"
     id="a6559"
     xlink:href="textedit:///Users/jyang/Documents/GitHub/wygioatynlib/notation/wygioatynlib_pulsetrack.ly:11:89:90"
     style="color:inherit">
    <path
       style="fill:currentColor"
       id="path6557"
       d="m -211,88 c -8,2 -14,9 -14,18 0,10 9,19 19,19 2,0 3,-1 4,-1 L 206,19 c 13,0 19,-6 19,-19 0,-13 -6,-19 -19,-19 l -408,-105 c -1,0 -2,-1 -4,-1 -10,0 -19,9 -19,19 0,9 6,16 14,18 L 40,-23 180,0 40,23 Z"
       transform="matrix(0.004,0,0,-0.004,28.7608,21.1213)" />
  </a>
  <rect
     style="fill:currentColor"
     id="rect6561"
     ry="0.039999999"
     height="3.1454999"
     width="0.13"
     y="8.1820688"
     x="23.599012" />
  <a
     transform="translate(-5.6898879,-7.7599261)"
     id="a6565"
     xlink:href="textedit:///Users/jyang/Documents/GitHub/wygioatynlib/notation/wygioatynlib_pulsetrack.ly:12:13:14"
     style="color:inherit">
    <path
       style="fill:currentColor"
       id="path6563"
       d="m 220,138 c 56,0 109,-29 109,-91 0,-72 -56,-121 -103,-149 -36,-21 -76,-36 -117,-36 -56,0 -109,29 -109,91 0,72 56,121 103,149 36,21 76,36 117,36 z"
       transform="matrix(0.004,0,0,-0.004,37.3047,19.2753)" />
  </a>
  <a
     transform="translate(-5.6898879,-7.7599261)"
     id="a6569"
     xlink:href="textedit:///Users/jyang/Documents/GitHub/wygioatynlib/notation/wygioatynlib_pulsetrack.ly:12:19:20"
     style="color:inherit">
    <path
       style="fill:currentColor"
       id="path6567"
       d="M -50,0 C -50,28 -28,50 0,50 28,50 50,28 50,0 50,-28 28,-50 0,-50 -28,-50 -50,-28 -50,0 Z"
       transform="matrix(0.004,0,0,-0.004,37.9628,20.2253)" />
  </a>
  <a
     transform="translate(-5.6898879,-7.7599261)"
     id="a6573"
     xlink:href="textedit:///Users/jyang/Documents/GitHub/wygioatynlib/notation/wygioatynlib_pulsetrack.ly:12:21:22"
     style="color:inherit">
    <path
       style="fill:currentColor"
       id="path6571"
       d="m -211,88 c -8,2 -14,9 -14,18 0,10 9,19 19,19 2,0 3,-1 4,-1 L 206,19 c 13,0 19,-6 19,-19 0,-13 -6,-19 -19,-19 l -408,-105 c -1,0 -2,-1 -4,-1 -10,0 -19,9 -19,19 0,9 6,16 14,18 L 40,-23 180,0 40,23 Z"
       transform="matrix(0.004,0,0,-0.004,37.9628,21.1213)" />
  </a>
  <path
     style="fill:currentColor;stroke-width:0.004"
     id="path6575"
     d="m 28.826112,12.301775 c 0.088,-0.056 0.176,-0.116 0.24,-0.2 0.044,-0.06 0.076,-0.132 0.108,-0.2 0.008,-0.016 0.02,-0.024 0.036,-0.024 0.024,0 0.052,0.02 0.052,0.056 v 0.98 h 0.288 c 0.04,0 0.06,0.028 0.06,0.056 0,0.028 -0.02,0.06 -0.06,0.06 h -0.288 v 0.032 c 0,0.192 0.108,0.376 0.288,0.376 0.032,0 0.048,0.02 0.048,0.044 0,0.024 -0.016,0.048 -0.048,0.048 -0.176,0 -0.348,-0.052 -0.524,-0.052 -0.176,0 -0.348,0.052 -0.524,0.052 -0.032,0 -0.048,-0.024 -0.048,-0.048 0,-0.024 0.016,-0.044 0.048,-0.044 0.18,0 0.292,-0.184 0.292,-0.376 v -0.032 h -0.668 c -0.092,0 -0.124,-0.056 -0.124,-0.092 0,-0.012 0.004,-0.02 0.008,-0.024 0.32,-0.372 0.552,-0.828 0.552,-1.32 0,-0.036 0.024,-0.064 0.052,-0.064 h 0.012 c 0.092,0.028 0.188,0.052 0.284,0.052 0.096,0 0.192,-0.024 0.284,-0.052 0.008,-0.004 0.012,-0.004 0.02,-0.004 0.044,0 0.072,0.04 0.048,0.068 l -1.136,1.32 h 0.668 v -0.524 c 0,-0.032 0.004,-0.068 0.032,-0.088 z" />
  <path
     style="fill:currentColor;stroke-width:0.004"
     id="path6577"
     d="m 28.746612,9.607375 c -0.116,0 -0.236,0.032 -0.236,0.132 0,0.088 0.144,0.1 0.144,0.188 0,0.128 -0.104,0.232 -0.232,0.232 -0.128,0 -0.228,-0.104 -0.228,-0.232 0,-0.26 0.268,-0.412 0.552,-0.412 0.364,0 0.676,0.132 0.676,0.456 0,0.172 -0.016,0.328 -0.168,0.4 -0.036,0.016 -0.056,0.048 -0.056,0.084 0,0.036 0.02,0.072 0.056,0.088 0.164,0.076 0.224,0.228 0.224,0.412 0,0.368 -0.316,0.56 -0.716,0.56 -0.316,0 -0.616,-0.168 -0.616,-0.452 0,-0.144 0.12,-0.264 0.264,-0.264 0.144,0 0.26,0.12 0.26,0.264 0,0.1 -0.16,0.112 -0.16,0.212 0,0.108 0.128,0.148 0.252,0.148 0.196,0 0.252,-0.244 0.252,-0.468 v -0.064 c 0,-0.216 -0.008,-0.376 -0.2,-0.376 h -0.32 c -0.04,0 -0.056,-0.032 -0.056,-0.06 0,-0.028 0.016,-0.056 0.056,-0.056 h 0.32 c 0.196,0 0.2,-0.172 0.2,-0.396 v -0.032 c 0,-0.216 -0.072,-0.364 -0.268,-0.364 z" />
  <a
     transform="translate(-5.6898879,-7.7599261)"
     id="a6581"
     xlink:href="textedit:///Users/jyang/Documents/GitHub/wygioatynlib/notation/wygioatynlib_pulsetrack.ly:12:66:67"
     style="color:inherit">
    <path
       style="fill:currentColor"
       id="path6579"
       d="m 220,138 c 56,0 109,-29 109,-91 0,-72 -56,-121 -103,-149 -36,-21 -76,-36 -117,-36 -56,0 -109,29 -109,91 0,72 56,121 103,149 36,21 76,36 117,36 z"
       transform="matrix(0.004,0,0,-0.004,50.5011,19.2753)" />
  </a>
  <a
     transform="translate(-5.6898879,-7.7599261)"
     id="a6585"
     xlink:href="textedit:///Users/jyang/Documents/GitHub/wygioatynlib/notation/wygioatynlib_pulsetrack.ly:12:71:72"
     style="color:inherit">
    <path
       style="fill:currentColor"
       id="path6583"
       d="M -50,0 C -50,28 -28,50 0,50 28,50 50,28 50,0 50,-28 28,-50 0,-50 -28,-50 -50,-28 -50,0 Z"
       transform="matrix(0.004,0,0,-0.004,51.1592,20.2253)" />
  </a>
  <rect
     style="fill:currentColor"
     id="rect6587"
     ry="0.039999999"
     height="3.0021999"
     width="0.13"
     y="8.3253689"
     x="45.997311" />
  <a
     transform="translate(-5.6898879,-7.7599261)"
     id="a6591"
     xlink:href="textedit:///Users/jyang/Documents/GitHub/wygioatynlib/notation/wygioatynlib_pulsetrack.ly:12:74:75"
     style="color:inherit">
    <path
       style="fill:currentColor"
       id="path6589"
       d="m 220,138 c 56,0 109,-29 109,-91 0,-72 -56,-121 -103,-149 -36,-21 -76,-36 -117,-36 -56,0 -109,29 -109,91 0,72 56,121 103,149 36,21 76,36 117,36 z"
       transform="matrix(0.004,0,0,-0.004,52.923,19.2753)" />
  </a>
  <a
     transform="translate(-5.6898879,-7.7599261)"
     id="a6595"
     xlink:href="textedit:///Users/jyang/Documents/GitHub/wygioatynlib/notation/wygioatynlib_pulsetrack.ly:12:79:80"
     style="color:inherit">
    <path
       style="fill:currentColor"
       id="path6593"
       d="M -50,0 C -50,28 -28,50 0,50 28,50 50,28 50,0 50,-28 28,-50 0,-50 -28,-50 -50,-28 -50,0 Z"
       transform="matrix(0.004,0,0,-0.004,53.5811,20.2253)" />
  </a>
  <rect
     style="fill:currentColor"
     id="rect6597"
     ry="0.039999999"
     height="3.0021999"
     width="0.13"
     y="8.3253689"
     x="48.419212" />
  <a
     transform="translate(-5.6898879,-7.7599261)"
     id="a6601"
     xlink:href="textedit:///Users/jyang/Documents/GitHub/wygioatynlib/notation/wygioatynlib_pulsetrack.ly:12:85:86"
     style="color:inherit">
    <path
       style="fill:currentColor"
       id="path6599"
       d="m 220,138 c 56,0 109,-29 109,-91 0,-72 -56,-121 -103,-149 -36,-21 -76,-36 -117,-36 -56,0 -109,29 -109,91 0,72 56,121 103,149 36,21 76,36 117,36 z"
       transform="matrix(0.004,0,0,-0.004,55.3449,19.2753)" />
  </a>
  <polygon
     style="fill:currentColor;stroke:currentColor;stroke-width:0.08;stroke-linecap:round;stroke-linejoin:round"
     id="polygon6603"
     points="0.04,-0.2 3.5988,-0.2 3.5988,0.2 0.04,0.2 "
     transform="translate(50.841112,8.515375)" />
  <polygon
     style="fill:currentColor;stroke:currentColor;stroke-width:0.08;stroke-linecap:round;stroke-linejoin:round"
     id="polygon6605"
     points="0.04,-0.2 7.3557,-0.2 7.3557,0.2 0.04,0.2 "
     transform="translate(41.153512,8.325375)" />
  <polygon
     style="fill:currentColor;stroke:currentColor;stroke-width:0.08;stroke-linecap:round;stroke-linejoin:round"
     id="polygon6607"
     points="0.04,-0.2 7.3557,-0.2 7.3557,0.2 0.04,0.2 "
     transform="translate(41.153512,9.135375)" />
  <polygon
     style="fill:currentColor;stroke:currentColor;stroke-width:0.08;stroke-linecap:round;stroke-linejoin:round"
     id="polygon6609"
     points="0.04,-0.2 6.0207,-0.2 6.0207,0.2 0.04,0.2 "
     transform="translate(32.801012,8.325375)" />
  <polygon
     style="fill:currentColor;stroke:currentColor;stroke-width:0.08;stroke-linecap:round;stroke-linejoin:round"
     id="polygon6611"
     points="0.04,-0.2 2.5119,-0.2 2.5119,0.2 0.04,0.2 "
     transform="translate(36.309712,9.135375)" />
  <polygon
     style="fill:currentColor;stroke:currentColor;stroke-width:0.08;stroke-linecap:round;stroke-linejoin:round"
     id="polygon6613"
     points="0.04,-0.2 4.9338,-0.2 4.9338,0.2 0.04,0.2 "
     transform="translate(10.650812,8.325375)" />
  <polygon
     style="fill:currentColor;stroke:currentColor;stroke-width:0.08;stroke-linecap:round;stroke-linejoin:round"
     id="polygon6615"
     points="0.04,-0.2 2.5119,-0.2 2.5119,0.2 0.04,0.2 "
     transform="translate(10.650812,9.135375)" />
  <polygon
     style="fill:currentColor;stroke:currentColor;stroke-width:0.08;stroke-linecap:round;stroke-linejoin:round"
     id="polygon6617"
     points="0.04,-0.2 6.0207,-0.2 6.0207,0.2 0.04,0.2 "
     transform="translate(2.2983121,8.325375)" />
  <polygon
     style="fill:currentColor;stroke:currentColor;stroke-width:0.08;stroke-linecap:round;stroke-linejoin:round"
     id="polygon6619"
     points="0.04,-0.2 2.5119,-0.2 2.5119,0.2 0.04,0.2 "
     transform="translate(5.8070121,9.135375)" />
  <a
     transform="translate(-5.6898879,-7.7599261)"
     id="a6623"
     xlink:href="textedit:///Users/jyang/Documents/GitHub/wygioatynlib/notation/wygioatynlib_pulsetrack.ly:12:34:35"
     style="color:inherit">
    <path
       style="fill:currentColor"
       id="path6621"
       d="m 220,138 c 56,0 109,-29 109,-91 0,-72 -56,-121 -103,-149 -36,-21 -76,-36 -117,-36 -56,0 -109,29 -109,91 0,72 56,121 103,149 36,21 76,36 117,36 z"
       transform="matrix(0.004,0,0,-0.004,43.2354,19.2753)" />
  </a>
  <a
     transform="translate(-5.6898879,-7.7599261)"
     id="a6627"
     xlink:href="textedit:///Users/jyang/Documents/GitHub/wygioatynlib/notation/wygioatynlib_pulsetrack.ly:12:39:40"
     style="color:inherit">
    <path
       style="fill:currentColor"
       id="path6625"
       d="M -50,0 C -50,28 -28,50 0,50 28,50 50,28 50,0 50,-28 28,-50 0,-50 -28,-50 -50,-28 -50,0 Z"
       transform="matrix(0.004,0,0,-0.004,43.8935,20.2253)" />
  </a>
  <rect
     style="fill:currentColor"
     id="rect6629"
     ry="0.039999999"
     height="3.0021999"
     width="0.13"
     y="8.3253689"
     x="38.731613" />
  <a
     transform="translate(-5.6898879,-7.7599261)"
     id="a6633"
     xlink:href="textedit:///Users/jyang/Documents/GitHub/wygioatynlib/notation/wygioatynlib_pulsetrack.ly:12:45:46"
     style="color:inherit">
    <path
       style="fill:currentColor"
       id="path6631"
       d="m 220,138 c 56,0 109,-29 109,-91 0,-72 -56,-121 -103,-149 -36,-21 -76,-36 -117,-36 -56,0 -109,29 -109,91 0,72 56,121 103,149 36,21 76,36 117,36 z"
       transform="matrix(0.004,0,0,-0.004,45.6573,19.2753)" />
  </a>
  <a
     transform="translate(-5.6898879,-7.7599261)"
     id="a6637"
     xlink:href="textedit:///Users/jyang/Documents/GitHub/wygioatynlib/notation/wygioatynlib_pulsetrack.ly:12:52:53"
     style="color:inherit">
    <path
       style="fill:currentColor"
       id="path6635"
       d="M -50,0 C -50,28 -28,50 0,50 28,50 50,28 50,0 50,-28 28,-50 0,-50 -28,-50 -50,-28 -50,0 Z"
       transform="matrix(0.004,0,0,-0.004,46.3154,20.2253)" />
  </a>
  <a
     transform="translate(-5.6898879,-7.7599261)"
     id="a6641"
     xlink:href="textedit:///Users/jyang/Documents/GitHub/wygioatynlib/notation/wygioatynlib_pulsetrack.ly:12:54:55"
     style="color:inherit">
    <path
       style="fill:currentColor"
       id="path6639"
       d="m -211,88 c -8,2 -14,9 -14,18 0,10 9,19 19,19 2,0 3,-1 4,-1 L 206,19 c 13,0 19,-6 19,-19 0,-13 -6,-19 -19,-19 l -408,-105 c -1,0 -2,-1 -4,-1 -10,0 -19,9 -19,19 0,9 6,16 14,18 L 40,-23 180,0 40,23 Z"
       transform="matrix(0.004,0,0,-0.004,46.3154,21.1213)" />
  </a>
  <rect
     style="fill:currentColor"
     id="rect6643"
     ry="0.039999999"
     height="3.0021999"
     width="0.13"
     y="8.3253689"
     x="41.153511" />
  <a
     transform="translate(-5.6898879,-7.7599261)"
     id="a6647"
     xlink:href="textedit:///Users/jyang/Documents/GitHub/wygioatynlib/notation/wygioatynlib_pulsetrack.ly:12:57:58"
     style="color:inherit">
    <path
       style="fill:currentColor"
       id="path6645"
       d="m 220,138 c 56,0 109,-29 109,-91 0,-72 -56,-121 -103,-149 -36,-21 -76,-36 -117,-36 -56,0 -109,29 -109,91 0,72 56,121 103,149 36,21 76,36 117,36 z"
       transform="matrix(0.004,0,0,-0.004,48.0792,19.2753)" />
  </a>
  <a
     transform="translate(-5.6898879,-7.7599261)"
     id="a6651"
     xlink:href="textedit:///Users/jyang/Documents/GitHub/wygioatynlib/notation/wygioatynlib_pulsetrack.ly:12:62:63"
     style="color:inherit">
    <path
       style="fill:currentColor"
       id="path6649"
       d="M -50,0 C -50,28 -28,50 0,50 28,50 50,28 50,0 50,-28 28,-50 0,-50 -28,-50 -50,-28 -50,0 Z"
       transform="matrix(0.004,0,0,-0.004,48.7373,20.2253)" />
  </a>
  <rect
     style="fill:currentColor"
     id="rect6653"
     ry="0.039999999"
     height="3.0021999"
     width="0.13"
     y="8.3253689"
     x="43.575413" />
  <a
     transform="translate(-5.6898879,-7.7599261)"
     id="a6657"
     xlink:href="textedit:///Users/jyang/Documents/GitHub/wygioatynlib/notation/wygioatynlib_pulsetrack.ly:11:2:3"
     style="color:inherit">
    <path
       style="fill:currentColor"
       id="path6655"
       d="m 220,138 c 56,0 109,-29 109,-91 0,-72 -56,-121 -103,-149 -36,-21 -76,-36 -117,-36 -56,0 -109,29 -109,91 0,72 56,121 103,149 36,21 76,36 117,36 z"
       transform="matrix(0.004,0,0,-0.004,6.802,19.2753)" />
  </a>
  <a
     transform="translate(-5.6898879,-7.7599261)"
     id="a6661"
     xlink:href="textedit:///Users/jyang/Documents/GitHub/wygioatynlib/notation/wygioatynlib_pulsetrack.ly:11:8:9"
     style="color:inherit">
    <path
       style="fill:currentColor"
       id="path6659"
       d="M -50,0 C -50,28 -28,50 0,50 28,50 50,28 50,0 50,-28 28,-50 0,-50 -28,-50 -50,-28 -50,0 Z"
       transform="matrix(0.004,0,0,-0.004,7.4601,20.2253)" />
  </a>
  <a
     transform="translate(-5.6898879,-7.7599261)"
     id="a6665"
     xlink:href="textedit:///Users/jyang/Documents/GitHub/wygioatynlib/notation/wygioatynlib_pulsetrack.ly:11:10:11"
     style="color:inherit">
    <path
       style="fill:currentColor"
       id="path6663"
       d="m -211,88 c -8,2 -14,9 -14,18 0,10 9,19 19,19 2,0 3,-1 4,-1 L 206,19 c 13,0 19,-6 19,-19 0,-13 -6,-19 -19,-19 l -408,-105 c -1,0 -2,-1 -4,-1 -10,0 -19,9 -19,19 0,9 6,16 14,18 L 40,-23 180,0 40,23 Z"
       transform="matrix(0.004,0,0,-0.004,7.4601,21.1213)" />
  </a>
  <rect
     style="fill:currentColor"
     id="rect6667"
     ry="0.039999999"
     height="3.0021999"
     width="0.13"
     y="8.3253689"
     x="2.2983124" />
  <a
     transform="translate(-5.6898879,-7.7599261)"
     id="a6671"
     xlink:href="textedit:///Users/jyang/Documents/GitHub/wygioatynlib/notation/wygioatynlib_pulsetrack.ly:11:13:14"
     style="color:inherit">
    <path
       style="fill:currentColor"
       id="path6669"
       d="m 220,138 c 56,0 109,-29 109,-91 0,-72 -56,-121 -103,-149 -36,-21 -76,-36 -117,-36 -56,0 -109,29 -109,91 0,72 56,121 103,149 36,21 76,36 117,36 z"
       transform="matrix(0.004,0,0,-0.004,10.3108,19.2753)" />
  </a>
  <a
     transform="translate(-5.6898879,-7.7599261)"
     id="a6675"
     xlink:href="textedit:///Users/jyang/Documents/GitHub/wygioatynlib/notation/wygioatynlib_pulsetrack.ly:11:20:21"
     style="color:inherit">
    <path
       style="fill:currentColor"
       id="path6673"
       d="M -50,0 C -50,28 -28,50 0,50 28,50 50,28 50,0 50,-28 28,-50 0,-50 -28,-50 -50,-28 -50,0 Z"
       transform="matrix(0.004,0,0,-0.004,10.9688,20.2253)" />
  </a>
  <a
     transform="translate(-5.6898879,-7.7599261)"
     id="a6683"
     xlink:href="textedit:///Users/jyang/Documents/GitHub/wygioatynlib/notation/wygioatynlib_pulsetrack.ly:12:91:92"
     style="color:inherit">
    <path
       style="fill:currentColor"
       id="path6681"
       d="M -50,0 C -50,28 -28,50 0,50 28,50 50,28 50,0 50,-28 28,-50 0,-50 -28,-50 -50,-28 -50,0 Z"
       transform="matrix(0.004,0,0,-0.004,56.003,20.2253)" />
  </a>
  <a
     transform="translate(-5.6898879,-7.7599261)"
     id="a6687"
     xlink:href="textedit:///Users/jyang/Documents/GitHub/wygioatynlib/notation/wygioatynlib_pulsetrack.ly:12:93:94"
     style="color:inherit">
    <path
       style="fill:currentColor"
       id="path6685"
       d="m -211,88 c -8,2 -14,9 -14,18 0,10 9,19 19,19 2,0 3,-1 4,-1 L 206,19 c 13,0 19,-6 19,-19 0,-13 -6,-19 -19,-19 l -408,-105 c -1,0 -2,-1 -4,-1 -10,0 -19,9 -19,19 0,9 6,16 14,18 L 40,-23 180,0 40,23 Z"
       transform="matrix(0.004,0,0,-0.004,56.003,21.1213)" />
  </a>
  <rect
     style="fill:currentColor"
     id="rect6689"
     ry="0.039999999"
     height="2.8122001"
     width="0.13"
     y="8.5153646"
     x="50.84111" />
  <a
     transform="translate(-5.6898879,-7.7599261)"
     id="a6693"
     xlink:href="textedit:///Users/jyang/Documents/GitHub/wygioatynlib/notation/wygioatynlib_pulsetrack.ly:12:96:97"
     style="color:inherit">
    <path
       style="fill:currentColor"
       id="path6691"
       d="m 220,138 c 56,0 109,-29 109,-91 0,-72 -56,-121 -103,-149 -36,-21 -76,-36 -117,-36 -56,0 -109,29 -109,91 0,72 56,121 103,149 36,21 76,36 117,36 z"
       transform="matrix(0.004,0,0,-0.004,58.8536,19.2753)" />
  </a>
  <a
     transform="translate(-5.6898879,-7.7599261)"
     id="a6697"
     xlink:href="textedit:///Users/jyang/Documents/GitHub/wygioatynlib/notation/wygioatynlib_pulsetrack.ly:12:101:102"
     style="color:inherit">
    <path
       style="fill:currentColor"
       id="path6695"
       d="M -50,0 C -50,28 -28,50 0,50 28,50 50,28 50,0 50,-28 28,-50 0,-50 -28,-50 -50,-28 -50,0 Z"
       transform="matrix(0.004,0,0,-0.004,59.5117,20.2253)" />
  </a>
  <rect
     style="fill:currentColor"
     id="rect6699"
     ry="0.039999999"
     height="2.8122001"
     width="0.13"
     y="8.5153646"
     x="54.349911" />
  <a
     transform="translate(-5.6898879,-7.7599261)"
     id="a6703"
     xlink:href="textedit:///Users/jyang/Documents/GitHub/wygioatynlib/notation/wygioatynlib_pulsetrack.ly:11:44:45"
     style="color:inherit">
    <path
       style="fill:currentColor"
       id="path6701"
       d="m -211,88 c -8,2 -14,9 -14,18 0,10 9,19 19,19 2,0 3,-1 4,-1 L 206,19 c 13,0 19,-6 19,-19 0,-13 -6,-19 -19,-19 l -408,-105 c -1,0 -2,-1 -4,-1 -10,0 -19,9 -19,19 0,9 6,16 14,18 L 40,-23 180,0 40,23 Z"
       transform="matrix(0.004,0,0,-0.004,15.8126,21.1213)" />
  </a>
  <rect
     style="fill:currentColor"
     id="rect6705"
     ry="0.039999999"
     height="3.0021999"
     width="0.13"
     y="8.3253689"
     x="10.650812" />
  <a
     transform="translate(-5.6898879,-7.7599261)"
     id="a6709"
     xlink:href="textedit:///Users/jyang/Documents/GitHub/wygioatynlib/notation/wygioatynlib_pulsetrack.ly:11:47:48"
     style="color:inherit">
    <path
       style="fill:currentColor"
       id="path6707"
       d="m 220,138 c 56,0 109,-29 109,-91 0,-72 -56,-121 -103,-149 -36,-21 -76,-36 -117,-36 -56,0 -109,29 -109,91 0,72 56,121 103,149 36,21 76,36 117,36 z"
       transform="matrix(0.004,0,0,-0.004,17.5765,19.2753)" />
  </a>
  <a
     transform="translate(-5.6898879,-7.7599261)"
     id="a6713"
     xlink:href="textedit:///Users/jyang/Documents/GitHub/wygioatynlib/notation/wygioatynlib_pulsetrack.ly:11:52:53"
     style="color:inherit">
    <path
       style="fill:currentColor"
       id="path6711"
       d="M -50,0 C -50,28 -28,50 0,50 28,50 50,28 50,0 50,-28 28,-50 0,-50 -28,-50 -50,-28 -50,0 Z"
       transform="matrix(0.004,0,0,-0.004,18.2345,20.2253)" />
  </a>
  <rect
     style="fill:currentColor"
     id="rect6715"
     ry="0.039999999"
     height="3.0021999"
     width="0.13"
     y="8.3253689"
     x="13.072712" />
  <a
     transform="translate(-5.6898879,-7.7599261)"
     id="a6719"
     xlink:href="textedit:///Users/jyang/Documents/GitHub/wygioatynlib/notation/wygioatynlib_pulsetrack.ly:11:56:57"
     style="color:inherit">
    <path
       style="fill:currentColor"
       id="path6717"
       d="m 220,138 c 56,0 109,-29 109,-91 0,-72 -56,-121 -103,-149 -36,-21 -76,-36 -117,-36 -56,0 -109,29 -109,91 0,72 56,121 103,149 36,21 76,36 117,36 z"
       transform="matrix(0.004,0,0,-0.004,19.9984,19.2753)" />
  </a>
  <a
     transform="translate(-5.6898879,-7.7599261)"
     id="a6723"
     xlink:href="textedit:///Users/jyang/Documents/GitHub/wygioatynlib/notation/wygioatynlib_pulsetrack.ly:11:62:63"
     style="color:inherit">
    <path
       style="fill:currentColor"
       id="path6721"
       d="M -50,0 C -50,28 -28,50 0,50 28,50 50,28 50,0 50,-28 28,-50 0,-50 -28,-50 -50,-28 -50,0 Z"
       transform="matrix(0.004,0,0,-0.004,20.6564,20.2253)" />
  </a>
  <rect
     style="fill:currentColor"
     id="rect6725"
     ry="0.039999999"
     height="3.0021999"
     width="0.13"
     y="8.3253689"
     x="15.494612" />
  <rect
     style="fill:currentColor"
     id="rect6727"
     ry="0.039999999"
     height="3.0021999"
     width="0.13"
     y="8.3253689"
     x="5.8070116" />
  <a
     transform="translate(-5.6898879,-7.7599261)"
     id="a6731"
     xlink:href="textedit:///Users/jyang/Documents/GitHub/wygioatynlib/notation/wygioatynlib_pulsetrack.ly:11:24:25"
     style="color:inherit">
    <path
       style="fill:currentColor"
       id="path6729"
       d="m 220,138 c 56,0 109,-29 109,-91 0,-72 -56,-121 -103,-149 -36,-21 -76,-36 -117,-36 -56,0 -109,29 -109,91 0,72 56,121 103,149 36,21 76,36 117,36 z"
       transform="matrix(0.004,0,0,-0.004,12.7327,19.2753)" />
  </a>
  <a
     transform="translate(-5.6898879,-7.7599261)"
     id="a6735"
     xlink:href="textedit:///Users/jyang/Documents/GitHub/wygioatynlib/notation/wygioatynlib_pulsetrack.ly:11:31:32"
     style="color:inherit">
    <path
       style="fill:currentColor"
       id="path6733"
       d="M -50,0 C -50,28 -28,50 0,50 28,50 50,28 50,0 50,-28 28,-50 0,-50 -28,-50 -50,-28 -50,0 Z"
       transform="matrix(0.004,0,0,-0.004,13.3907,20.2253)" />
  </a>
  <rect
     style="fill:currentColor"
     id="rect6737"
     ry="0.039999999"
     height="3.0021999"
     width="0.13"
     y="8.3253689"
     x="8.2289124" />
  <a
     transform="translate(-5.6898879,-7.7599261)"
     id="a6741"
     xlink:href="textedit:///Users/jyang/Documents/GitHub/wygioatynlib/notation/wygioatynlib_pulsetrack.ly:11:42:43"
     style="color:inherit">
    <path
       style="fill:currentColor"
       id="path6739"
       d="M -50,0 C -50,28 -28,50 0,50 28,50 50,28 50,0 50,-28 28,-50 0,-50 -28,-50 -50,-28 -50,0 Z"
       transform="matrix(0.004,0,0,-0.004,15.8126,20.2253)" />
  </a>
  <a
     transform="translate(-5.6898879,-7.7599261)"
     id="a6745"
     xlink:href="textedit:///Users/jyang/Documents/GitHub/wygioatynlib/notation/wygioatynlib_pulsetrack.ly:11:37:38"
     style="color:inherit">
    <path
       style="fill:currentColor"
       id="path6743"
       d="m 220,138 c 56,0 109,-29 109,-91 0,-72 -56,-121 -103,-149 -36,-21 -76,-36 -117,-36 -56,0 -109,29 -109,91 0,72 56,121 103,149 36,21 76,36 117,36 z"
       transform="matrix(0.004,0,0,-0.004,15.1546,19.2753)" />
  </a>
  <a
     id="a6749"
     xlink:href="http://lilypond.org/"
     transform="translate(25.773212,161.3059)">
    <rect
       style="fill:none;stroke:none;stroke-width:0"
       id="rect6747"
       height="2.0827"
       width="56.5755"
       y="-0.44389999"
       x="0" />
  </a>
  <text
     y="161.30589"
     x="25.773212"
     style="font-size:2.20009995px;font-family:'Century Schoolbook L';text-anchor:start;fill:currentColor"
     id="text6753"
     font-size="2.2001">
    <tspan
       id="tspan6751">Music engraving by LilyPond 2.18.2www.lilypond.org</tspan>
  </text>
</svg>
