<svg xmlns="http://www.w3.org/2000/svg" xmlns:xlink="http://www.w3.org/1999/xlink" version="1.2" width="210.00mm" height="297.00mm" viewBox="0 0 119.5016 169.0094">
<!-- Page: 1/1 -->
<text transform="translate(5.6906, 2.8453)" font-family="Century Schoolbook L" font-size="2.2001" text-anchor="start" fill="currentColor">
<tspan>
 </tspan>
</text>
<rect transform="translate(5.6906, 7.5836)" x="34.1781" y="-0.1000" width="1.9317" height="0.2000" ry="0.1000" fill="currentColor"/>
<rect transform="translate(5.6906, 6.5836)" x="34.1781" y="-0.1000" width="1.9317" height="0.2000" ry="0.1000" fill="currentColor"/>
<rect transform="translate(5.6906, 5.5836)" x="34.1781" y="-0.1000" width="1.9317" height="0.2000" ry="0.1000" fill="currentColor"/>
<rect transform="translate(5.6906, 7.5836)" x="36.2097" y="-0.1000" width="1.9317" height="0.2000" ry="0.1000" fill="currentColor"/>
<rect transform="translate(5.6906, 13.5836)" x="37.8275" y="-0.1000" width="1.9743" height="0.2000" ry="0.1000" fill="currentColor"/>
<rect transform="translate(5.6906, 13.5836)" x="40.9339" y="-0.1000" width="1.9743" height="0.2000" ry="0.1000" fill="currentColor"/>
<rect transform="translate(5.6906, 7.5836)" x="61.6040" y="-0.1000" width="1.9743" height="0.2000" ry="0.1000" fill="currentColor"/>
<rect transform="translate(5.6906, 13.5836)" x="66.4232" y="-0.1000" width="1.8202" height="0.2000" ry="0.1000" fill="currentColor"/>
<rect transform="translate(5.6906, 13.5836)" x="69.5094" y="-0.1000" width="1.8202" height="0.2000" ry="0.1000" fill="currentColor"/>
<rect transform="translate(5.6906, 13.5836)" x="73.3293" y="-0.1000" width="1.9743" height="0.2000" ry="0.1000" fill="currentColor"/>
<rect transform="translate(5.6906, 7.5836)" x="83.5685" y="-0.1000" width="1.9743" height="0.2000" ry="0.1000" fill="currentColor"/>
<rect transform="translate(5.6906, 6.5836)" x="83.5685" y="-0.1000" width="1.9743" height="0.2000" ry="0.1000" fill="currentColor"/>
<rect transform="translate(5.6906, 5.5836)" x="83.5685" y="-0.1000" width="1.9743" height="0.2000" ry="0.1000" fill="currentColor"/>
<rect transform="translate(5.6906, 7.5836)" x="91.2490" y="-0.1000" width="1.9743" height="0.2000" ry="0.1000" fill="currentColor"/>
<rect transform="translate(5.6906, 6.5836)" x="91.4031" y="-0.1000" width="1.8202" height="0.2000" ry="0.1000" fill="currentColor"/>
<line transform="translate(14.2264, 12.5836)" stroke-linejoin="round" stroke-linecap="round" stroke-width="0.1000" stroke="currentColor" x1="0.0500" y1="-0.0000" x2="99.5346" y2="-0.0000"/>
<line transform="translate(14.2264, 11.5836)" stroke-linejoin="round" stroke-linecap="round" stroke-width="0.1000" stroke="currentColor" x1="0.0500" y1="-0.0000" x2="99.5346" y2="-0.0000"/>
<line transform="translate(14.2264, 10.5836)" stroke-linejoin="round" stroke-linecap="round" stroke-width="0.1000" stroke="currentColor" x1="0.0500" y1="-0.0000" x2="99.5346" y2="-0.0000"/>
<line transform="translate(14.2264, 9.5836)" stroke-linejoin="round" stroke-linecap="round" stroke-width="0.1000" stroke="currentColor" x1="0.0500" y1="-0.0000" x2="99.5346" y2="-0.0000"/>
<line transform="translate(14.2264, 8.5836)" stroke-linejoin="round" stroke-linecap="round" stroke-width="0.1000" stroke="currentColor" x1="0.0500" y1="-0.0000" x2="99.5346" y2="-0.0000"/>
<rect transform="translate(95.1286, 10.5836)" x="0.0000" y="-2.0000" width="0.1900" height="4.0000" ry="0.0000" fill="currentColor"/>
<rect transform="translate(56.9313, 10.5836)" x="0.0000" y="-2.0000" width="0.1900" height="4.0000" ry="0.0000" fill="currentColor"/>
<rect transform="translate(51.4709, 10.5836)" x="-0.0650" y="-4.5584" width="0.1300" height="3.8705" ry="0.0400" fill="currentColor"/>
<a style="color:inherit;" xlink:href="textedit:///Users/jyang/Documents/github/wygioatynlib/notation/wygioatynlib_oboe.ly:13:83:84">
<path transform="translate(50.8778, 11.0836) scale(0.0040, -0.0040)" d="M-50 0c0 28 22 50 50 50s50 -22 50 -50s-22 -50 -50 -50s-50 22 -50 50z" fill="currentColor"/>
</a>
<a style="color:inherit;" xlink:href="textedit:///Users/jyang/Documents/github/wygioatynlib/notation/wygioatynlib_oboe.ly:13:76:77">
<path transform="translate(50.2197, 10.0836) scale(0.0040, -0.0040)" d="M220 138c56 0 109 -29 109 -91c0 -72 -56 -121 -103 -149c-36 -21 -76 -36 -117 -36c-56 0 -109 29 -109 91c0 72 56 121 103 149c36 21 76 36 117 36z" fill="currentColor"/>
</a>
<rect transform="translate(48.2047, 10.5836)" x="-0.0650" y="-3.5207" width="0.1300" height="6.8328" ry="0.0400" fill="currentColor"/>
<a style="color:inherit;" xlink:href="textedit:///Users/jyang/Documents/github/wygioatynlib/notation/wygioatynlib_oboe.ly:13:72:73">
<path transform="translate(46.9535, 14.0836) scale(0.0040, -0.0040)" d="M220 138c56 0 109 -29 109 -91c0 -72 -56 -121 -103 -149c-36 -21 -76 -36 -117 -36c-56 0 -109 29 -109 91c0 72 56 121 103 149c36 21 76 36 117 36z" fill="currentColor"/>
</a>
<rect transform="translate(43.9120, 10.5836)" x="-0.0650" y="3.6878" width="0.1300" height="2.2745" ry="0.0400" fill="currentColor"/>
<a style="color:inherit;" xlink:href="textedit:///Users/jyang/Documents/github/wygioatynlib/notation/wygioatynlib_oboe.ly:13:68:69">
<path transform="translate(43.8470, 14.0836) scale(0.0040, -0.0040)" d="M220 138c56 0 109 -29 109 -91c0 -72 -56 -121 -103 -149c-36 -21 -76 -36 -117 -36c-56 0 -109 29 -109 91c0 72 56 121 103 149c36 21 76 36 117 36z" fill="currentColor"/>
</a>
<a style="color:inherit;" xlink:href="textedit:///Users/jyang/Documents/github/wygioatynlib/notation/wygioatynlib_oboe.ly:16:21:22">
<path transform="translate(59.7294, 7.1336) scale(0.0040, -0.0040)" d="M-50 0c0 28 22 50 50 50s50 -22 50 -50s-22 -50 -50 -50s-50 22 -50 50z" fill="currentColor"/>
</a>
<a style="color:inherit;" xlink:href="textedit:///Users/jyang/Documents/github/wygioatynlib/notation/wygioatynlib_oboe.ly:16:16:17">
<path transform="translate(59.0713, 8.0836) scale(0.0040, -0.0040)" d="M220 138c56 0 109 -29 109 -91c0 -72 -56 -121 -103 -149c-36 -21 -76 -36 -117 -36c-56 0 -109 29 -109 91c0 72 56 121 103 149c36 21 76 36 117 36z" fill="currentColor"/>
</a>
<rect transform="translate(55.9435, 10.5836)" x="-0.0650" y="-5.9793" width="0.1300" height="3.2915" ry="0.0400" fill="currentColor"/>
<a style="color:inherit;" xlink:href="textedit:///Users/jyang/Documents/github/wygioatynlib/notation/wygioatynlib_oboe.ly:13:100:101">
<path transform="translate(55.3504, 9.0836) scale(0.0040, -0.0040)" d="M-50 0c0 28 22 50 50 50s50 -22 50 -50s-22 -50 -50 -50s-50 22 -50 50z" fill="currentColor"/>
</a>
<a style="color:inherit;" xlink:href="textedit:///Users/jyang/Documents/github/wygioatynlib/notation/wygioatynlib_oboe.ly:13:93:94">
<path transform="translate(54.6923, 8.0836) scale(0.0040, -0.0040)" d="M220 138c56 0 109 -29 109 -91c0 -72 -56 -121 -103 -149c-36 -21 -76 -36 -117 -36c-56 0 -109 29 -109 91c0 72 56 121 103 149c36 21 76 36 117 36z" fill="currentColor"/>
</a>
<rect transform="translate(53.4544, 10.5836)" x="-0.0650" y="-5.1885" width="0.1300" height="6.0007" ry="0.0400" fill="currentColor"/>
<a style="color:inherit;" xlink:href="textedit:///Users/jyang/Documents/github/wygioatynlib/notation/wygioatynlib_oboe.ly:13:90:91">
<path transform="translate(52.8613, 13.0836) scale(0.0040, -0.0040)" d="M-50 0c0 28 22 50 50 50s50 -22 50 -50s-22 -50 -50 -50s-50 22 -50 50z" fill="currentColor"/>
</a>
<a style="color:inherit;" xlink:href="textedit:///Users/jyang/Documents/github/wygioatynlib/notation/wygioatynlib_oboe.ly:13:86:87">
<path transform="translate(52.2032, 11.5836) scale(0.0040, -0.0040)" d="M220 138c56 0 109 -29 109 -91c0 -72 -56 -121 -103 -149c-36 -21 -76 -36 -117 -36c-56 0 -109 29 -109 91c0 72 56 121 103 149c36 21 76 36 117 36z" fill="currentColor"/>
</a>
<path transform="translate(48.7697, 10.0836) scale(0.0040, -0.0040)" d="M216 -312c0 -10 -8 -19 -18 -19s-19 9 -19 19v145l-83 -31v-158c0 -10 -9 -19 -19 -19s-18 9 -18 19v145l-32 -12c-2 -1 -5 -1 -7 -1c-11 0 -20 9 -20 20v60c0 8 5 16 13 19l46 16v160l-32 -11c-2 -1 -5 -1 -7 -1c-11 0 -20 9 -20 20v60c0 8 5 15 13 18l46 17v158
c0 10 8 19 18 19s19 -9 19 -19v-145l83 31v158c0 10 9 19 19 19s18 -9 18 -19v-145l32 12c2 1 5 1 7 1c11 0 20 -9 20 -20v-60c0 -8 -5 -16 -13 -19l-46 -16v-160l32 11c2 1 5 1 7 1c11 0 20 -9 20 -20v-60c0 -8 -5 -15 -13 -18l-46 -17v-158zM96 65v-160l83 30v160z" fill="currentColor"/>
<a style="color:inherit;" xlink:href="textedit:///Users/jyang/Documents/github/wygioatynlib/notation/wygioatynlib_oboe.ly:13:48:49">
<path transform="translate(38.3667, 11.0836) scale(0.0040, -0.0040)" d="M-50 0c0 28 22 50 50 50s50 -22 50 -50s-22 -50 -50 -50s-50 22 -50 50z" fill="currentColor"/>
</a>
<a style="color:inherit;" xlink:href="textedit:///Users/jyang/Documents/github/wygioatynlib/notation/wygioatynlib_oboe.ly:13:42:43">
<path transform="translate(37.7086, 12.0836) scale(0.0040, -0.0040)" d="M220 138c56 0 109 -29 109 -91c0 -72 -56 -121 -103 -149c-36 -21 -76 -36 -117 -36c-56 0 -109 29 -109 91c0 72 56 121 103 149c36 21 76 36 117 36z" fill="currentColor"/>
</a>
<rect transform="translate(34.5074, 10.5836)" x="-0.0650" y="-0.3122" width="0.1300" height="4.4510" ry="0.0400" fill="currentColor"/>
<a style="color:inherit;" xlink:href="textedit:///Users/jyang/Documents/github/wygioatynlib/notation/wygioatynlib_oboe.ly:13:39:40">
<path transform="translate(35.1005, 9.0836) scale(0.0040, -0.0040)" d="M-50 0c0 28 22 50 50 50s50 -22 50 -50s-22 -50 -50 -50s-50 22 -50 50z" fill="currentColor"/>
</a>
<a style="color:inherit;" xlink:href="textedit:///Users/jyang/Documents/github/wygioatynlib/notation/wygioatynlib_oboe.ly:13:34:35">
<path transform="translate(34.4424, 10.0836) scale(0.0040, -0.0040)" d="M220 138c56 0 109 -29 109 -91c0 -72 -56 -121 -103 -149c-36 -21 -76 -36 -117 -36c-56 0 -109 29 -109 91c0 72 56 121 103 149c36 21 76 36 117 36z" fill="currentColor"/>
</a>
<path transform="translate(31.3034, 9.0836) scale(0.0040, -0.0040)" d="M27 41l-1 -66v-11c0 -22 1 -44 4 -66c45 38 93 80 93 139c0 33 -14 67 -43 67c-31 0 -52 -30 -53 -63zM-15 -138l-12 595c8 5 18 8 27 8s19 -3 27 -8l-7 -345c25 21 58 34 91 34c52 0 89 -48 89 -102c0 -80 -86 -117 -147 -169c-15 -13 -24 -38 -45 -38
c-13 0 -23 11 -23 25z" fill="currentColor"/>
<rect transform="translate(32.5184, 10.5836)" x="-0.0650" y="-1.3122" width="0.1300" height="4.9368" ry="0.0400" fill="currentColor"/>
<a style="color:inherit;" xlink:href="textedit:///Users/jyang/Documents/github/wygioatynlib/notation/wygioatynlib_oboe.ly:13:31:32">
<path transform="translate(33.1115, 8.0836) scale(0.0040, -0.0040)" d="M-50 0c0 28 22 50 50 50s50 -22 50 -50s-22 -50 -50 -50s-50 22 -50 50z" fill="currentColor"/>
</a>
<a style="color:inherit;" xlink:href="textedit:///Users/jyang/Documents/github/wygioatynlib/notation/wygioatynlib_oboe.ly:13:24:25">
<path transform="translate(32.4534, 9.0836) scale(0.0040, -0.0040)" d="M220 138c56 0 109 -29 109 -91c0 -72 -56 -121 -103 -149c-36 -21 -76 -36 -117 -36c-56 0 -109 29 -109 91c0 72 56 121 103 149c36 21 76 36 117 36z" fill="currentColor"/>
</a>
<rect transform="translate(42.2517, 10.5836)" x="-0.0650" y="-2.8122" width="0.1300" height="7.8124" ry="0.0400" fill="currentColor"/>
<a style="color:inherit;" xlink:href="textedit:///Users/jyang/Documents/github/wygioatynlib/notation/wygioatynlib_oboe.ly:13:65:66">
<path transform="translate(42.8448, 6.6336) scale(0.0040, -0.0040)" d="M-50 0c0 28 22 50 50 50s50 -22 50 -50s-22 -50 -50 -50s-50 22 -50 50z" fill="currentColor"/>
</a>
<a style="color:inherit;" xlink:href="textedit:///Users/jyang/Documents/github/wygioatynlib/notation/wygioatynlib_oboe.ly:13:60:61">
<path transform="translate(42.1867, 7.5836) scale(0.0040, -0.0040)" d="M220 138c56 0 109 -29 109 -91c0 -72 -56 -121 -103 -149c-36 -21 -76 -36 -117 -36c-56 0 -109 29 -109 91c0 72 56 121 103 149c36 21 76 36 117 36z" fill="currentColor"/>
</a>
<rect transform="translate(40.2627, 10.5836)" x="-0.0650" y="-5.3122" width="0.1300" height="9.1599" ry="0.0400" fill="currentColor"/>
<a style="color:inherit;" xlink:href="textedit:///Users/jyang/Documents/github/wygioatynlib/notation/wygioatynlib_oboe.ly:13:57:58">
<path transform="translate(40.8558, 4.1336) scale(0.0040, -0.0040)" d="M-50 0c0 28 22 50 50 50s50 -22 50 -50s-22 -50 -50 -50s-50 22 -50 50z" fill="currentColor"/>
</a>
<a style="color:inherit;" xlink:href="textedit:///Users/jyang/Documents/github/wygioatynlib/notation/wygioatynlib_oboe.ly:13:51:52">
<path transform="translate(40.1977, 5.0836) scale(0.0040, -0.0040)" d="M220 138c56 0 109 -29 109 -91c0 -72 -56 -121 -103 -149c-36 -21 -76 -36 -117 -36c-56 0 -109 29 -109 91c0 72 56 121 103 149c36 21 76 36 117 36z" fill="currentColor"/>
</a>
<path transform="translate(36.2586, 12.0836) scale(0.0040, -0.0040)" d="M216 -312c0 -10 -8 -19 -18 -19s-19 9 -19 19v145l-83 -31v-158c0 -10 -9 -19 -19 -19s-18 9 -18 19v145l-32 -12c-2 -1 -5 -1 -7 -1c-11 0 -20 9 -20 20v60c0 8 5 16 13 19l46 16v160l-32 -11c-2 -1 -5 -1 -7 -1c-11 0 -20 9 -20 20v60c0 8 5 15 13 18l46 17v158
c0 10 8 19 18 19s19 -9 19 -19v-145l83 31v158c0 10 9 19 19 19s18 -9 18 -19v-145l32 12c2 1 5 1 7 1c11 0 20 -9 20 -20v-60c0 -8 -5 -16 -13 -19l-46 -16v-160l32 11c2 1 5 1 7 1c11 0 20 -9 20 -20v-60c0 -8 -5 -15 -13 -18l-46 -17v-158zM96 65v-160l83 30v160z" fill="currentColor"/>
<rect transform="translate(37.7736, 10.5836)" x="-0.0650" y="1.6878" width="0.1300" height="3.2954" ry="0.0400" fill="currentColor"/>
<path transform="translate(70.8388, 13.5836) scale(0.0040, -0.0040)" d="M216 -312c0 -10 -8 -19 -18 -19s-19 9 -19 19v145l-83 -31v-158c0 -10 -9 -19 -19 -19s-18 9 -18 19v145l-32 -12c-2 -1 -5 -1 -7 -1c-11 0 -20 9 -20 20v60c0 8 5 16 13 19l46 16v160l-32 -11c-2 -1 -5 -1 -7 -1c-11 0 -20 9 -20 20v60c0 8 5 15 13 18l46 17v158
c0 10 8 19 18 19s19 -9 19 -19v-145l83 31v158c0 10 9 19 19 19s18 -9 18 -19v-145l32 12c2 1 5 1 7 1c11 0 20 -9 20 -20v-60c0 -8 -5 -16 -13 -19l-46 -16v-160l32 11c2 1 5 1 7 1c11 0 20 -9 20 -20v-60c0 -8 -5 -15 -13 -18l-46 -17v-158zM96 65v-160l83 30v160z" fill="currentColor"/>
<rect transform="translate(72.3538, 10.5836)" x="-0.0650" y="3.1878" width="0.1300" height="2.9924" ry="0.0400" fill="currentColor"/>
<a style="color:inherit;" xlink:href="textedit:///Users/jyang/Documents/github/wygioatynlib/notation/wygioatynlib_oboe.ly:16:57:58">
<path transform="translate(72.9469, 12.0836) scale(0.0040, -0.0040)" d="M-50 0c0 28 22 50 50 50s50 -22 50 -50s-22 -50 -50 -50s-50 22 -50 50z" fill="currentColor"/>
</a>
<a style="color:inherit;" xlink:href="textedit:///Users/jyang/Documents/github/wygioatynlib/notation/wygioatynlib_oboe.ly:16:53:54">
<path transform="translate(72.2888, 13.5836) scale(0.0040, -0.0040)" d="M220 138c56 0 109 -29 109 -91c0 -72 -56 -121 -103 -149c-36 -21 -76 -36 -117 -36c-56 0 -109 29 -109 91c0 72 56 121 103 149c36 21 76 36 117 36z" fill="currentColor"/>
</a>
<path transform="translate(69.2198, 10.0836) scale(0.0040, -0.0040)" d="M-8 375c8 4 17 7 26 7s17 -3 25 -7l-3 -183l106 20h3c10 0 18 -7 18 -17l7 -570c-8 -4 -16 -7 -25 -7s-17 3 -25 7l3 183l-106 -20h-3c-10 0 -18 7 -18 17zM131 112l-92 -17l-3 -207l92 17z" fill="currentColor"/>
<rect transform="translate(70.3308, 10.5836)" x="-0.0650" y="-0.3122" width="0.1300" height="6.1893" ry="0.0400" fill="currentColor"/>
<a style="color:inherit;" xlink:href="textedit:///Users/jyang/Documents/github/wygioatynlib/notation/wygioatynlib_oboe.ly:16:50:51">
<path transform="translate(70.9239, 9.0836) scale(0.0040, -0.0040)" d="M-50 0c0 28 22 50 50 50s50 -22 50 -50s-22 -50 -50 -50s-50 22 -50 50z" fill="currentColor"/>
</a>
<a style="color:inherit;" xlink:href="textedit:///Users/jyang/Documents/github/wygioatynlib/notation/wygioatynlib_oboe.ly:16:47:48">
<path transform="translate(70.2658, 10.0836) scale(0.0040, -0.0040)" d="M220 138c56 0 109 -29 109 -91c0 -72 -56 -121 -103 -149c-36 -21 -76 -36 -117 -36c-56 0 -109 29 -109 91c0 72 56 121 103 149c36 21 76 36 117 36z" fill="currentColor"/>
</a>
<polygon transform="translate(24.0173, 7.5836)" stroke-linejoin="round" stroke-linecap="round" stroke-width="0.0800" fill="currentColor" stroke="currentColor" points="2.6178 0.9900 2.6178 1.3900 0.0400 0.2000 0.0400 -0.2000"/>
<polygon transform="translate(29.3672, 12.5836)" stroke-linejoin="round" stroke-linecap="round" stroke-width="0.0800" fill="currentColor" stroke="currentColor" points="8.4314 1.9900 8.4314 2.3900 0.0400 0.2000 0.0400 -0.2000"/>
<polygon transform="translate(29.3672, 13.3936)" stroke-linejoin="round" stroke-linecap="round" stroke-width="0.0800" fill="currentColor" stroke="currentColor" points="8.4314 1.9900 8.4314 2.3900 0.0400 0.2000 0.0400 -0.2000"/>
<a style="color:inherit;" xlink:href="textedit:///Users/jyang/Documents/github/wygioatynlib/notation/wygioatynlib_oboe.ly:13:70:71">
<path transform="translate(43.8470, 10.5836)" stroke-width="0.0800" stroke-linejoin="round" stroke-linecap="round" stroke="currentColor" fill="currentColor" d="M1.516178 4.0C1.88251717633731 4.4602901811665 2.54015366771888 4.4602901811665 2.90649284405619 4.0C2.54015366771888 4.3402901811665 1.88251717633731 4.3402901811665 1.516178 4.0z"/>
</a>
<polygon transform="translate(40.1977, 13.5836)" stroke-linejoin="round" stroke-linecap="round" stroke-width="0.0800" fill="currentColor" stroke="currentColor" points="2.0790 1.0279 2.0790 1.4279 0.0400 0.2000 0.0400 -0.2000"/>
<polygon transform="translate(40.1977, 14.3936)" stroke-linejoin="round" stroke-linecap="round" stroke-width="0.0800" fill="currentColor" stroke="currentColor" points="3.7394 1.9900 3.7394 2.3900 0.0400 0.2000 0.0400 -0.2000"/>
<polygon transform="translate(48.1397, 7.0836)" stroke-linejoin="round" stroke-linecap="round" stroke-width="0.0800" fill="currentColor" stroke="currentColor" points="7.8287 -2.7000 7.8287 -2.3000 0.0400 0.2000 0.0400 -0.2000"/>
<polygon transform="translate(48.1397, 7.8936)" stroke-linejoin="round" stroke-linecap="round" stroke-width="0.0800" fill="currentColor" stroke="currentColor" points="7.8287 -2.7000 7.8287 -2.3000 0.0400 0.2000 0.0400 -0.2000"/>
<a style="color:inherit;" xlink:href="textedit:///Users/jyang/Documents/github/wygioatynlib/notation/wygioatynlib_oboe.ly:16:2:3">
</a>
<a style="color:inherit;" xlink:href="textedit:///Users/jyang/Documents/github/wygioatynlib/notation/wygioatynlib_oboe.ly:16:2:3">
<text transform="translate(65.2670, 17.7208)" font-family="Century Schoolbook L" font-style="italic" font-size="1.7461" text-anchor="start" fill="currentColor">
<tspan>
6</tspan>
</text>
</a>
<polygon transform="translate(59.0713, 13.9636)" stroke-linejoin="round" stroke-linecap="round" stroke-width="0.0800" fill="currentColor" stroke="currentColor" points="13.3075 1.8000 13.3075 2.2000 0.0400 0.2000 0.0400 -0.2000"/>
<polygon transform="translate(59.0713, 14.7736)" stroke-linejoin="round" stroke-linecap="round" stroke-width="0.0800" fill="currentColor" stroke="currentColor" points="13.3075 1.8000 13.3075 2.2000 0.0400 0.2000 0.0400 -0.2000"/>
<a style="color:inherit;" xlink:href="textedit:///Users/jyang/Documents/github/wygioatynlib/notation/wygioatynlib_oboe.ly:17:6:7">
<path transform="translate(75.3750, 10.5836)" stroke-width="0.0800" stroke-linejoin="round" stroke-linecap="round" stroke="currentColor" fill="currentColor" d="M1.516178 4.0C2.05006864956304 4.61270604651285 3.24004665488742 4.61270604651285 3.77393730445047 4.0C3.24004665488742 4.49270604651285 2.05006864956304 4.49270604651285 1.516178 4.0z"/>
</a>
<polygon transform="translate(80.5351, 6.3936)" stroke-linejoin="round" stroke-linecap="round" stroke-width="0.0800" fill="currentColor" stroke="currentColor" points="7.7867 -2.5100 7.7867 -2.1100 0.0400 0.2000 0.0400 -0.2000"/>
<polygon transform="translate(80.5351, 7.2036)" stroke-linejoin="round" stroke-linecap="round" stroke-width="0.0800" fill="currentColor" stroke="currentColor" points="7.7867 -2.5100 7.7867 -2.1100 0.0400 0.2000 0.0400 -0.2000"/>
<polygon transform="translate(89.5881, 12.3936)" stroke-linejoin="round" stroke-linecap="round" stroke-width="0.0800" fill="currentColor" stroke="currentColor" points="2.6178 1.1800 2.6178 1.5800 0.0400 0.2000 0.0400 -0.2000"/>
<polygon transform="translate(97.2686, 13.3936)" stroke-linejoin="round" stroke-linecap="round" stroke-width="0.0800" fill="currentColor" stroke="currentColor" points="3.2696 1.4900 3.2696 1.8900 0.0400 0.2000 0.0400 -0.2000"/>
<polygon transform="translate(103.5547, 12.5836)" stroke-linejoin="round" stroke-linecap="round" stroke-width="0.0800" fill="currentColor" stroke="currentColor" points="8.5274 -0.2000 8.5274 0.2000 0.0400 0.2000 0.0400 -0.2000"/>
<polygon transform="translate(103.5547, 13.3936)" stroke-linejoin="round" stroke-linecap="round" stroke-width="0.0800" fill="currentColor" stroke="currentColor" points="8.5274 -0.2000 8.5274 0.2000 0.0400 0.2000 0.0400 -0.2000"/>
<path transform="translate(74.2250, 14.0836) scale(0.0040, -0.0040)" d="M27 41l-1 -66v-11c0 -22 1 -44 4 -66c45 38 93 80 93 139c0 33 -14 67 -43 67c-31 0 -52 -30 -53 -63zM-15 -138l-12 595c8 5 18 8 27 8s19 -3 27 -8l-7 -345c25 21 58 34 91 34c52 0 89 -48 89 -102c0 -80 -86 -117 -147 -169c-15 -13 -24 -38 -45 -38
c-13 0 -23 11 -23 25z" fill="currentColor"/>
<rect transform="translate(76.6262, 10.5836)" x="-0.0650" y="-0.0000" width="0.1300" height="3.3122" ry="0.0400" fill="currentColor"/>
<a style="color:inherit;" xlink:href="textedit:///Users/jyang/Documents/github/wygioatynlib/notation/wygioatynlib_oboe.ly:17:2:3">
<path transform="translate(75.3750, 14.0836) scale(0.0040, -0.0040)" d="M220 138c56 0 109 -29 109 -91c0 -72 -56 -121 -103 -149c-36 -21 -76 -36 -117 -36c-56 0 -109 29 -109 91c0 72 56 121 103 149c36 21 76 36 117 36z" fill="currentColor"/>
</a>
<rect transform="translate(62.4025, 10.5836)" x="-0.0650" y="-0.3122" width="0.1300" height="5.0013" ry="0.0400" fill="currentColor"/>
<a style="color:inherit;" xlink:href="textedit:///Users/jyang/Documents/github/wygioatynlib/notation/wygioatynlib_oboe.ly:16:30:31">
<path transform="translate(62.9956, 9.0836) scale(0.0040, -0.0040)" d="M-50 0c0 28 22 50 50 50s50 -22 50 -50s-22 -50 -50 -50s-50 22 -50 50z" fill="currentColor"/>
</a>
<a style="color:inherit;" xlink:href="textedit:///Users/jyang/Documents/github/wygioatynlib/notation/wygioatynlib_oboe.ly:16:25:26">
<path transform="translate(62.3375, 10.0836) scale(0.0040, -0.0040)" d="M220 138c56 0 109 -29 109 -91c0 -72 -56 -121 -103 -149c-36 -21 -76 -36 -117 -36c-56 0 -109 29 -109 91c0 72 56 121 103 149c36 21 76 36 117 36z" fill="currentColor"/>
</a>
<path transform="translate(57.6213, 8.0836) scale(0.0040, -0.0040)" d="M216 -312c0 -10 -8 -19 -18 -19s-19 9 -19 19v145l-83 -31v-158c0 -10 -9 -19 -19 -19s-18 9 -18 19v145l-32 -12c-2 -1 -5 -1 -7 -1c-11 0 -20 9 -20 20v60c0 8 5 16 13 19l46 16v160l-32 -11c-2 -1 -5 -1 -7 -1c-11 0 -20 9 -20 20v60c0 8 5 15 13 18l46 17v158
c0 10 8 19 18 19s19 -9 19 -19v-145l83 31v158c0 10 9 19 19 19s18 -9 18 -19v-145l32 12c2 1 5 1 7 1c11 0 20 -9 20 -20v-60c0 -8 -5 -16 -13 -19l-46 -16v-160l32 11c2 1 5 1 7 1c11 0 20 -9 20 -20v-60c0 -8 -5 -15 -13 -18l-46 -17v-158zM96 65v-160l83 30v160z" fill="currentColor"/>
<rect transform="translate(59.1363, 10.5836)" x="-0.0650" y="-2.3122" width="0.1300" height="6.5119" ry="0.0400" fill="currentColor"/>
<rect transform="translate(67.6886, 10.5836)" x="-0.0650" y="-2.8122" width="0.1300" height="8.2934" ry="0.0400" fill="currentColor"/>
<a style="color:inherit;" xlink:href="textedit:///Users/jyang/Documents/github/wygioatynlib/notation/wygioatynlib_oboe.ly:16:44:45">
<path transform="translate(68.2817, 6.6336) scale(0.0040, -0.0040)" d="M-50 0c0 28 22 50 50 50s50 -22 50 -50s-22 -50 -50 -50s-50 22 -50 50z" fill="currentColor"/>
</a>
<a style="color:inherit;" xlink:href="textedit:///Users/jyang/Documents/github/wygioatynlib/notation/wygioatynlib_oboe.ly:16:41:42">
<path transform="translate(67.6236, 7.5836) scale(0.0040, -0.0040)" d="M220 138c56 0 109 -29 109 -91c0 -72 -56 -121 -103 -149c-36 -21 -76 -36 -117 -36c-56 0 -109 29 -109 91c0 72 56 121 103 149c36 21 76 36 117 36z" fill="currentColor"/>
</a>
<path transform="translate(64.2737, 9.0836) scale(0.0040, -0.0040)" d="M27 41l-1 -66v-11c0 -22 1 -44 4 -66c45 38 93 80 93 139c0 33 -14 67 -43 67c-31 0 -52 -30 -53 -63zM-15 -138l-12 595c8 5 18 8 27 8s19 -3 27 -8l-7 -345c25 21 58 34 91 34c52 0 89 -48 89 -102c0 -80 -86 -117 -147 -169c-15 -13 -24 -38 -45 -38
c-13 0 -23 11 -23 25z" fill="currentColor"/>
<rect transform="translate(65.4887, 10.5836)" x="-0.0650" y="-1.3122" width="0.1300" height="6.4638" ry="0.0400" fill="currentColor"/>
<a style="color:inherit;" xlink:href="textedit:///Users/jyang/Documents/github/wygioatynlib/notation/wygioatynlib_oboe.ly:16:38:39">
<path transform="translate(66.0818, 8.0836) scale(0.0040, -0.0040)" d="M-50 0c0 28 22 50 50 50s50 -22 50 -50s-22 -50 -50 -50s-50 22 -50 50z" fill="currentColor"/>
</a>
<a style="color:inherit;" xlink:href="textedit:///Users/jyang/Documents/github/wygioatynlib/notation/wygioatynlib_oboe.ly:16:33:34">
<path transform="translate(65.4237, 9.0836) scale(0.0040, -0.0040)" d="M220 138c56 0 109 -29 109 -91c0 -72 -56 -121 -103 -149c-36 -21 -76 -36 -117 -36c-56 0 -109 29 -109 91c0 72 56 121 103 149c36 21 76 36 117 36z" fill="currentColor"/>
</a>
<path transform="translate(60.8875, 10.0836) scale(0.0040, -0.0040)" d="M216 -312c0 -10 -8 -19 -18 -19s-19 9 -19 19v145l-83 -31v-158c0 -10 -9 -19 -19 -19s-18 9 -18 19v145l-32 -12c-2 -1 -5 -1 -7 -1c-11 0 -20 9 -20 20v60c0 8 5 16 13 19l46 16v160l-32 -11c-2 -1 -5 -1 -7 -1c-11 0 -20 9 -20 20v60c0 8 5 15 13 18l46 17v158
c0 10 8 19 18 19s19 -9 19 -19v-145l83 31v158c0 10 9 19 19 19s18 -9 18 -19v-145l32 12c2 1 5 1 7 1c11 0 20 -9 20 -20v-60c0 -8 -5 -16 -13 -19l-46 -16v-160l32 11c2 1 5 1 7 1c11 0 20 -9 20 -20v-60c0 -8 -5 -15 -13 -18l-46 -17v-158zM96 65v-160l83 30v160z" fill="currentColor"/>
<rect transform="translate(89.6531, 10.5836)" x="-0.0650" y="-4.8122" width="0.1300" height="6.6559" ry="0.0400" fill="currentColor"/>
<a style="color:inherit;" xlink:href="textedit:///Users/jyang/Documents/github/wygioatynlib/notation/wygioatynlib_oboe.ly:17:42:43">
<path transform="translate(90.2462, 4.6336) scale(0.0040, -0.0040)" d="M-50 0c0 28 22 50 50 50s50 -22 50 -50s-22 -50 -50 -50s-50 22 -50 50z" fill="currentColor"/>
</a>
<a style="color:inherit;" xlink:href="textedit:///Users/jyang/Documents/github/wygioatynlib/notation/wygioatynlib_oboe.ly:17:37:38">
<path transform="translate(89.5881, 5.5836) scale(0.0040, -0.0040)" d="M220 138c56 0 109 -29 109 -91c0 -72 -56 -121 -103 -149c-36 -21 -76 -36 -117 -36c-56 0 -109 29 -109 91c0 72 56 121 103 149c36 21 76 36 117 36z" fill="currentColor"/>
</a>
<path transform="translate(86.0052, 8.0836) scale(0.0040, -0.0040)" d="M-8 375c8 4 17 7 26 7s17 -3 25 -7l-3 -183l106 20h3c10 0 18 -7 18 -17l7 -570c-8 -4 -16 -7 -25 -7s-17 3 -25 7l3 183l-106 -20h-3c-10 0 -18 7 -18 17zM131 112l-92 -17l-3 -207l92 17z" fill="currentColor"/>
<rect transform="translate(88.2968, 10.5836)" x="-0.0650" y="-6.4808" width="0.1300" height="3.7930" ry="0.0400" fill="currentColor"/>
<a style="color:inherit;" xlink:href="textedit:///Users/jyang/Documents/github/wygioatynlib/notation/wygioatynlib_oboe.ly:17:34:35">
<path transform="translate(87.7037, 9.0836) scale(0.0040, -0.0040)" d="M-50 0c0 28 22 50 50 50s50 -22 50 -50s-22 -50 -50 -50s-50 22 -50 50z" fill="currentColor"/>
</a>
<a style="color:inherit;" xlink:href="textedit:///Users/jyang/Documents/github/wygioatynlib/notation/wygioatynlib_oboe.ly:17:29:30">
<path transform="translate(87.0456, 8.0836) scale(0.0040, -0.0040)" d="M220 138c56 0 109 -29 109 -91c0 -72 -56 -121 -103 -149c-36 -21 -76 -36 -117 -36c-56 0 -109 29 -109 91c0 72 56 121 103 149c36 21 76 36 117 36z" fill="currentColor"/>
</a>
<path transform="translate(95.8186, 6.0836) scale(0.0040, -0.0040)" d="M216 -312c0 -10 -8 -19 -18 -19s-19 9 -19 19v145l-83 -31v-158c0 -10 -9 -19 -19 -19s-18 9 -18 19v145l-32 -12c-2 -1 -5 -1 -7 -1c-11 0 -20 9 -20 20v60c0 8 5 16 13 19l46 16v160l-32 -11c-2 -1 -5 -1 -7 -1c-11 0 -20 9 -20 20v60c0 8 5 15 13 18l46 17v158
c0 10 8 19 18 19s19 -9 19 -19v-145l83 31v158c0 10 9 19 19 19s18 -9 18 -19v-145l32 12c2 1 5 1 7 1c11 0 20 -9 20 -20v-60c0 -8 -5 -16 -13 -19l-46 -16v-160l32 11c2 1 5 1 7 1c11 0 20 -9 20 -20v-60c0 -8 -5 -15 -13 -18l-46 -17v-158zM96 65v-160l83 30v160z" fill="currentColor"/>
<rect transform="translate(97.3336, 10.5836)" x="-0.0650" y="-4.3122" width="0.1300" height="7.1554" ry="0.0400" fill="currentColor"/>
<a style="color:inherit;" xlink:href="textedit:///Users/jyang/Documents/github/wygioatynlib/notation/wygioatynlib_oboe.ly:17:58:59">
<path transform="translate(97.9267, 5.1336) scale(0.0040, -0.0040)" d="M-50 0c0 28 22 50 50 50s50 -22 50 -50s-22 -50 -50 -50s-50 22 -50 50z" fill="currentColor"/>
</a>
<a style="color:inherit;" xlink:href="textedit:///Users/jyang/Documents/github/wygioatynlib/notation/wygioatynlib_oboe.ly:17:51:52">
<path transform="translate(97.2686, 6.0836) scale(0.0040, -0.0040)" d="M220 138c56 0 109 -29 109 -91c0 -72 -56 -121 -103 -149c-36 -21 -76 -36 -117 -36c-56 0 -109 29 -109 91c0 72 56 121 103 149c36 21 76 36 117 36z" fill="currentColor"/>
</a>
<rect transform="translate(92.1809, 10.5836)" x="-0.0650" y="0.6878" width="0.1300" height="2.4684" ry="0.0400" fill="currentColor"/>
<a style="color:inherit;" xlink:href="textedit:///Users/jyang/Documents/github/wygioatynlib/notation/wygioatynlib_oboe.ly:17:48:49">
<path transform="translate(92.7740, 10.0836) scale(0.0040, -0.0040)" d="M-50 0c0 28 22 50 50 50s50 -22 50 -50s-22 -50 -50 -50s-50 22 -50 50z" fill="currentColor"/>
</a>
<a style="color:inherit;" xlink:href="textedit:///Users/jyang/Documents/github/wygioatynlib/notation/wygioatynlib_oboe.ly:17:45:46">
<path transform="translate(92.1159, 11.0836) scale(0.0040, -0.0040)" d="M220 138c56 0 109 -29 109 -91c0 -72 -56 -121 -103 -149c-36 -21 -76 -36 -117 -36c-56 0 -109 29 -109 91c0 72 56 121 103 149c36 21 76 36 117 36z" fill="currentColor"/>
</a>
<rect transform="translate(24.0823, 10.5836)" x="-0.0650" y="-2.9709" width="0.1300" height="2.7831" ry="0.0400" fill="currentColor"/>
<a style="color:inherit;" xlink:href="textedit:///Users/jyang/Documents/github/wygioatynlib/notation/wygioatynlib_oboe.ly:10:2:3">
<rect transform="translate(19.2264, 7.2383)" x="1.0563" y="-2.6727" width="0.1158" height="2.5113" ry="0.0193" fill="currentColor"/>
<path transform="translate(19.2264, 7.2383) scale(0.0036, -0.0036)" d="M217 139c57 0 112 -31 112 -94c0 -72 -55 -121 -102 -149c-35 -21 -74 -35 -115 -35c-57 0 -112 31 -112 94c0 72 55 121 102 149c35 21 74 35 115 35z" fill="currentColor"/>
<text transform="translate(20.3985, 7.7318)" font-family="Century Schoolbook L" font-size="2.2001" text-anchor="start" fill="currentColor">
<tspan>
 = 100</tspan>
</text>
</a>
<path transform="translate(19.2264, 12.5981) scale(0.0040, -0.0040)" d="M204 307c22 14 44 29 60 50c11 15 19 33 27 50c2 4 5 6 9 6c6 0 13 -5 13 -14v-245h72c10 0 15 -7 15 -14s-5 -15 -15 -15h-72v-8c0 -48 27 -94 72 -94c8 0 12 -5 12 -11s-4 -12 -12 -12c-44 0 -87 13 -131 13s-87 -13 -131 -13c-8 0 -12 6 -12 12s4 11 12 11
c45 0 73 46 73 94v8h-167c-23 0 -31 14 -31 23c0 3 1 5 2 6c80 93 138 207 138 330c0 9 6 16 13 16h3c23 -7 47 -13 71 -13s48 6 71 13c2 1 3 1 5 1c11 0 18 -10 12 -17l-284 -330h167v131c0 8 1 17 8 22z" fill="currentColor"/>
<path transform="translate(19.2264, 10.5836) scale(0.0040, -0.0040)" d="M204 307c22 14 44 29 60 50c11 15 19 33 27 50c2 4 5 6 9 6c6 0 13 -5 13 -14v-245h72c10 0 15 -7 15 -14s-5 -15 -15 -15h-72v-8c0 -48 27 -94 72 -94c8 0 12 -5 12 -11s-4 -12 -12 -12c-44 0 -87 13 -131 13s-87 -13 -131 -13c-8 0 -12 6 -12 12s4 11 12 11
c45 0 73 46 73 94v8h-167c-23 0 -31 14 -31 23c0 3 1 5 2 6c80 93 138 207 138 330c0 9 6 16 13 16h3c23 -7 47 -13 71 -13s48 6 71 13c2 1 3 1 5 1c11 0 18 -10 12 -17l-284 -330h167v131c0 8 1 17 8 22z" fill="currentColor"/>
<path transform="translate(15.0264, 11.5836) scale(0.0040, -0.0040)" d="M376 262c4 0 9 1 13 1c155 0 256 -128 256 -261c0 -76 -33 -154 -107 -210c-22 -17 -47 -28 -73 -36c3 -35 5 -70 5 -105c0 -19 -1 -39 -2 -58c-7 -120 -90 -228 -208 -228c-108 0 -195 88 -195 197c0 58 53 103 112 103c54 0 95 -47 95 -103c0 -52 -43 -95 -95 -95
c-11 0 -21 2 -31 6c26 -39 68 -65 117 -65c96 0 157 92 163 191c1 18 2 37 2 55c0 31 -1 61 -4 92c-29 -5 -58 -8 -89 -8c-188 0 -333 172 -333 374c0 177 131 306 248 441c-19 62 -37 125 -45 190c-6 52 -7 104 -7 156c0 115 55 224 149 292c3 2 7 3 10 3c4 0 7 0 10 -3
c71 -84 133 -245 133 -358c0 -143 -86 -255 -180 -364c21 -68 39 -138 56 -207zM461 -203c68 24 113 95 113 164c0 90 -66 179 -173 190c24 -116 46 -231 60 -354zM74 28c0 -135 129 -247 264 -247c28 0 55 2 82 6c-14 127 -37 245 -63 364c-79 -8 -124 -61 -124 -119
c0 -44 25 -91 81 -123c5 -5 7 -10 7 -15c0 -11 -10 -22 -22 -22c-3 0 -6 1 -9 2c-80 43 -117 115 -117 185c0 88 58 174 160 197c-14 58 -29 117 -46 175c-107 -121 -213 -243 -213 -403zM408 1045c-99 -48 -162 -149 -162 -259c0 -74 18 -133 36 -194
c80 97 146 198 146 324c0 55 -4 79 -20 129z" fill="currentColor"/>
<a style="color:inherit;" xlink:href="textedit:///Users/jyang/Documents/github/wygioatynlib/notation/wygioatynlib_oboe.ly:13:5:6">
<path transform="translate(23.4892, 12.0836) scale(0.0040, -0.0040)" d="M-50 0c0 28 22 50 50 50s50 -22 50 -50s-22 -50 -50 -50s-50 22 -50 50z" fill="currentColor"/>
</a>
<a style="color:inherit;" xlink:href="textedit:///Users/jyang/Documents/github/wygioatynlib/notation/wygioatynlib_oboe.ly:13:2:3">
<path transform="translate(22.8311, 10.5836) scale(0.0040, -0.0040)" d="M220 138c56 0 109 -29 109 -91c0 -72 -56 -121 -103 -149c-36 -21 -76 -36 -117 -36c-56 0 -109 29 -109 91c0 72 56 121 103 149c36 21 76 36 117 36z" fill="currentColor"/>
</a>
<text transform="translate(7.0977, 11.3860)" font-family="Century Schoolbook L" font-size="2.2001" text-anchor="start" fill="currentColor">
<tspan>
Oboe</tspan>
</text>
<rect transform="translate(85.4402, 10.5836)" x="-0.0650" y="-5.6377" width="0.1300" height="5.4499" ry="0.0400" fill="currentColor"/>
<a style="color:inherit;" xlink:href="textedit:///Users/jyang/Documents/github/wygioatynlib/notation/wygioatynlib_oboe.ly:17:26:27">
<path transform="translate(84.8471, 12.0836) scale(0.0040, -0.0040)" d="M-50 0c0 28 22 50 50 50s50 -22 50 -50s-22 -50 -50 -50s-50 22 -50 50z" fill="currentColor"/>
</a>
<a style="color:inherit;" xlink:href="textedit:///Users/jyang/Documents/github/wygioatynlib/notation/wygioatynlib_oboe.ly:17:22:23">
<path transform="translate(84.1890, 10.5836) scale(0.0040, -0.0040)" d="M220 138c56 0 109 -29 109 -91c0 -72 -56 -121 -103 -149c-36 -21 -76 -36 -117 -36c-56 0 -109 29 -109 91c0 72 56 121 103 149c36 21 76 36 117 36z" fill="currentColor"/>
</a>
<path transform="translate(81.1651, 9.0836) scale(0.0040, -0.0040)" d="M-8 375c8 4 17 7 26 7s17 -3 25 -7l-3 -183l106 20h3c10 0 18 -7 18 -17l7 -570c-8 -4 -16 -7 -25 -7s-17 3 -25 7l3 183l-106 -20h-3c-10 0 -18 7 -18 17zM131 112l-92 -17l-3 -207l92 17z" fill="currentColor"/>
<rect transform="translate(83.4567, 10.5836)" x="-0.0650" y="-5.0523" width="0.1300" height="3.3645" ry="0.0400" fill="currentColor"/>
<a style="color:inherit;" xlink:href="textedit:///Users/jyang/Documents/github/wygioatynlib/notation/wygioatynlib_oboe.ly:17:19:20">
<path transform="translate(82.8636, 10.0836) scale(0.0040, -0.0040)" d="M-50 0c0 28 22 50 50 50s50 -22 50 -50s-22 -50 -50 -50s-50 22 -50 50z" fill="currentColor"/>
</a>
<a style="color:inherit;" xlink:href="textedit:///Users/jyang/Documents/github/wygioatynlib/notation/wygioatynlib_oboe.ly:17:14:15">
<path transform="translate(82.2055, 9.0836) scale(0.0040, -0.0040)" d="M220 138c56 0 109 -29 109 -91c0 -72 -56 -121 -103 -149c-36 -21 -76 -36 -117 -36c-56 0 -109 29 -109 91c0 72 56 121 103 149c36 21 76 36 117 36z" fill="currentColor"/>
</a>
<rect transform="translate(80.6001, 10.5836)" x="-0.0650" y="-4.2092" width="0.1300" height="7.5214" ry="0.0400" fill="currentColor"/>
<a style="color:inherit;" xlink:href="textedit:///Users/jyang/Documents/github/wygioatynlib/notation/wygioatynlib_oboe.ly:17:8:9">
<path transform="translate(79.3489, 14.0836) scale(0.0040, -0.0040)" d="M220 138c56 0 109 -29 109 -91c0 -72 -56 -121 -103 -149c-36 -21 -76 -36 -117 -36c-56 0 -109 29 -109 91c0 72 56 121 103 149c36 21 76 36 117 36z" fill="currentColor"/>
</a>
<a style="color:inherit;" xlink:href="textedit:///Users/jyang/Documents/github/wygioatynlib/notation/wygioatynlib_oboe.ly:18:34:35">
<path transform="translate(112.6502, 7.1336) scale(0.0040, -0.0040)" d="M-50 0c0 28 22 50 50 50s50 -22 50 -50s-22 -50 -50 -50s-50 22 -50 50z" fill="currentColor"/>
</a>
<a style="color:inherit;" xlink:href="textedit:///Users/jyang/Documents/github/wygioatynlib/notation/wygioatynlib_oboe.ly:18:29:30">
<path transform="translate(111.9922, 8.0836) scale(0.0040, -0.0040)" d="M220 138c56 0 109 -29 109 -91c0 -72 -56 -121 -103 -149c-36 -21 -76 -36 -117 -36c-56 0 -109 29 -109 91c0 72 56 121 103 149c36 21 76 36 117 36z" fill="currentColor"/>
</a>
<path transform="translate(108.3531, 10.5836) scale(0.0040, -0.0040)" d="M27 41l-1 -66v-11c0 -22 1 -44 4 -66c45 38 93 80 93 139c0 33 -14 67 -43 67c-31 0 -52 -30 -53 -63zM-15 -138l-12 595c8 5 18 8 27 8s19 -3 27 -8l-7 -345c25 21 58 34 91 34c52 0 89 -48 89 -102c0 -80 -86 -117 -147 -169c-15 -13 -24 -38 -45 -38
c-13 0 -23 11 -23 25z" fill="currentColor"/>
<rect transform="translate(109.5681, 10.5836)" x="-0.0650" y="0.1878" width="0.1300" height="2.6222" ry="0.0400" fill="currentColor"/>
<a style="color:inherit;" xlink:href="textedit:///Users/jyang/Documents/github/wygioatynlib/notation/wygioatynlib_oboe.ly:18:26:27">
<path transform="translate(110.1612, 9.0836) scale(0.0040, -0.0040)" d="M-50 0c0 28 22 50 50 50s50 -22 50 -50s-22 -50 -50 -50s-50 22 -50 50z" fill="currentColor"/>
</a>
<a style="color:inherit;" xlink:href="textedit:///Users/jyang/Documents/github/wygioatynlib/notation/wygioatynlib_oboe.ly:18:20:21">
<path transform="translate(109.5031, 10.5836) scale(0.0040, -0.0040)" d="M220 138c56 0 109 -29 109 -91c0 -72 -56 -121 -103 -149c-36 -21 -76 -36 -117 -36c-56 0 -109 29 -109 91c0 72 56 121 103 149c36 21 76 36 117 36z" fill="currentColor"/>
</a>
<path transform="translate(105.3709, 8.5836) scale(0.0040, -0.0040)" d="M-8 375c8 4 17 7 26 7s17 -3 25 -7l-3 -183l106 20h3c10 0 18 -7 18 -17l7 -570c-8 -4 -16 -7 -25 -7s-17 3 -25 7l3 183l-106 -20h-3c-10 0 -18 7 -18 17zM131 112l-92 -17l-3 -207l92 17z" fill="currentColor"/>
<rect transform="translate(106.4819, 10.5836)" x="-0.0650" y="-1.8122" width="0.1300" height="4.6222" ry="0.0400" fill="currentColor"/>
<path transform="translate(27.9172, 8.0836) scale(0.0040, -0.0040)" d="M216 -312c0 -10 -8 -19 -18 -19s-19 9 -19 19v145l-83 -31v-158c0 -10 -9 -19 -19 -19s-18 9 -18 19v145l-32 -12c-2 -1 -5 -1 -7 -1c-11 0 -20 9 -20 20v60c0 8 5 16 13 19l46 16v160l-32 -11c-2 -1 -5 -1 -7 -1c-11 0 -20 9 -20 20v60c0 8 5 15 13 18l46 17v158
c0 10 8 19 18 19s19 -9 19 -19v-145l83 31v158c0 10 9 19 19 19s18 -9 18 -19v-145l32 12c2 1 5 1 7 1c11 0 20 -9 20 -20v-60c0 -8 -5 -16 -13 -19l-46 -16v-160l32 11c2 1 5 1 7 1c11 0 20 -9 20 -20v-60c0 -8 -5 -15 -13 -18l-46 -17v-158zM96 65v-160l83 30v160z" fill="currentColor"/>
<rect transform="translate(29.4322, 10.5836)" x="-0.0650" y="-2.3122" width="0.1300" height="5.1390" ry="0.0400" fill="currentColor"/>
<a style="color:inherit;" xlink:href="textedit:///Users/jyang/Documents/github/wygioatynlib/notation/wygioatynlib_oboe.ly:13:21:22">
<path transform="translate(30.0253, 7.1336) scale(0.0040, -0.0040)" d="M-50 0c0 28 22 50 50 50s50 -22 50 -50s-22 -50 -50 -50s-50 22 -50 50z" fill="currentColor"/>
</a>
<a style="color:inherit;" xlink:href="textedit:///Users/jyang/Documents/github/wygioatynlib/notation/wygioatynlib_oboe.ly:13:14:15">
<path transform="translate(29.3672, 8.0836) scale(0.0040, -0.0040)" d="M220 138c56 0 109 -29 109 -91c0 -72 -56 -121 -103 -149c-36 -21 -76 -36 -117 -36c-56 0 -109 29 -109 91c0 72 56 121 103 149c36 21 76 36 117 36z" fill="currentColor"/>
</a>
<rect transform="translate(26.6101, 10.5836)" x="-0.0650" y="-1.8391" width="0.1300" height="4.1513" ry="0.0400" fill="currentColor"/>
<a style="color:inherit;" xlink:href="textedit:///Users/jyang/Documents/github/wygioatynlib/notation/wygioatynlib_oboe.ly:13:11:12">
<path transform="translate(26.0170, 14.0336) scale(0.0040, -0.0040)" d="M-50 0c0 28 22 50 50 50s50 -22 50 -50s-22 -50 -50 -50s-50 22 -50 50z" fill="currentColor"/>
</a>
<a style="color:inherit;" xlink:href="textedit:///Users/jyang/Documents/github/wygioatynlib/notation/wygioatynlib_oboe.ly:13:8:9">
<path transform="translate(25.3589, 13.0836) scale(0.0040, -0.0040)" d="M220 138c56 0 109 -29 109 -91c0 -72 -56 -121 -103 -149c-36 -21 -76 -36 -117 -36c-56 0 -109 29 -109 91c0 72 56 121 103 149c36 21 76 36 117 36z" fill="currentColor"/>
</a>
<rect transform="translate(112.0572, 10.5836)" x="-0.0650" y="-2.3122" width="0.1300" height="5.1222" ry="0.0400" fill="currentColor"/>
<rect transform="translate(103.6197, 10.5836)" x="-0.0650" y="-1.8122" width="0.1300" height="4.6222" ry="0.0400" fill="currentColor"/>
<a style="color:inherit;" xlink:href="textedit:///Users/jyang/Documents/github/wygioatynlib/notation/wygioatynlib_oboe.ly:18:9:10">
<path transform="translate(104.2128, 7.6336) scale(0.0040, -0.0040)" d="M-50 0c0 28 22 50 50 50s50 -22 50 -50s-22 -50 -50 -50s-50 22 -50 50z" fill="currentColor"/>
</a>
<a style="color:inherit;" xlink:href="textedit:///Users/jyang/Documents/github/wygioatynlib/notation/wygioatynlib_oboe.ly:18:2:3">
<path transform="translate(103.5547, 8.5836) scale(0.0040, -0.0040)" d="M220 138c56 0 109 -29 109 -91c0 -72 -56 -121 -103 -149c-36 -21 -76 -36 -117 -36c-56 0 -109 29 -109 91c0 72 56 121 103 149c36 21 76 36 117 36z" fill="currentColor"/>
</a>
<path transform="translate(98.9982, 12.0836) scale(0.0040, -0.0040)" d="M216 -312c0 -10 -8 -19 -18 -19s-19 9 -19 19v145l-83 -31v-158c0 -10 -9 -19 -19 -19s-18 9 -18 19v145l-32 -12c-2 -1 -5 -1 -7 -1c-11 0 -20 9 -20 20v60c0 8 5 16 13 19l46 16v160l-32 -11c-2 -1 -5 -1 -7 -1c-11 0 -20 9 -20 20v60c0 8 5 15 13 18l46 17v158
c0 10 8 19 18 19s19 -9 19 -19v-145l83 31v158c0 10 9 19 19 19s18 -9 18 -19v-145l32 12c2 1 5 1 7 1c11 0 20 -9 20 -20v-60c0 -8 -5 -16 -13 -19l-46 -16v-160l32 11c2 1 5 1 7 1c11 0 20 -9 20 -20v-60c0 -8 -5 -15 -13 -18l-46 -17v-158zM96 65v-160l83 30v160z" fill="currentColor"/>
<rect transform="translate(100.5132, 10.5836)" x="-0.0650" y="1.6878" width="0.1300" height="2.7790" ry="0.0400" fill="currentColor"/>
<a style="color:inherit;" xlink:href="textedit:///Users/jyang/Documents/github/wygioatynlib/notation/wygioatynlib_oboe.ly:17:66:67">
<path transform="translate(101.1063, 11.0836) scale(0.0040, -0.0040)" d="M-50 0c0 28 22 50 50 50s50 -22 50 -50s-22 -50 -50 -50s-50 22 -50 50z" fill="currentColor"/>
</a>
<a style="color:inherit;" xlink:href="textedit:///Users/jyang/Documents/github/wygioatynlib/notation/wygioatynlib_oboe.ly:17:61:62">
<path transform="translate(100.4482, 12.0836) scale(0.0040, -0.0040)" d="M220 138c56 0 109 -29 109 -91c0 -72 -56 -121 -103 -149c-36 -21 -76 -36 -117 -36c-56 0 -109 29 -109 91c0 72 56 121 103 149c36 21 76 36 117 36z" fill="currentColor"/>
</a>
<a style="color:inherit;" xlink:href="textedit:///Users/jyang/Documents/github/wygioatynlib/notation/wygioatynlib_oboe.ly:18:17:18">
<path transform="translate(107.0750, 7.6336) scale(0.0040, -0.0040)" d="M-50 0c0 28 22 50 50 50s50 -22 50 -50s-22 -50 -50 -50s-50 22 -50 50z" fill="currentColor"/>
</a>
<path transform="translate(102.1047, 8.5836) scale(0.0040, -0.0040)" d="M216 -312c0 -10 -8 -19 -18 -19s-19 9 -19 19v145l-83 -31v-158c0 -10 -9 -19 -19 -19s-18 9 -18 19v145l-32 -12c-2 -1 -5 -1 -7 -1c-11 0 -20 9 -20 20v60c0 8 5 16 13 19l46 16v160l-32 -11c-2 -1 -5 -1 -7 -1c-11 0 -20 9 -20 20v60c0 8 5 15 13 18l46 17v158
c0 10 8 19 18 19s19 -9 19 -19v-145l83 31v158c0 10 9 19 19 19s18 -9 18 -19v-145l32 12c2 1 5 1 7 1c11 0 20 -9 20 -20v-60c0 -8 -5 -16 -13 -19l-46 -16v-160l32 11c2 1 5 1 7 1c11 0 20 -9 20 -20v-60c0 -8 -5 -15 -13 -18l-46 -17v-158zM96 65v-160l83 30v160z" fill="currentColor"/>
<a style="color:inherit;" xlink:href="textedit:///Users/jyang/Documents/github/wygioatynlib/notation/wygioatynlib_oboe.ly:18:12:13">
<path transform="translate(106.4169, 8.5836) scale(0.0040, -0.0040)" d="M220 138c56 0 109 -29 109 -91c0 -72 -56 -121 -103 -149c-36 -21 -76 -36 -117 -36c-56 0 -109 29 -109 91c0 72 56 121 103 149c36 21 76 36 117 36z" fill="currentColor"/>
</a>
<a transform="translate(31.4631, 165.1512)" xlink:href="http://lilypond.org/">
<rect x="0.0000" y="-0.4439" width="56.5755" height="2.0827" fill="none" stroke="none" stroke-width="0.0"/>
</a>
<text transform="translate(31.4631, 165.1512)" font-family="Century Schoolbook L" font-size="2.2001" text-anchor="start" fill="currentColor">
<tspan>
Music engraving by LilyPond 2.18.2—www.lilypond.org</tspan>
</text>
</svg>
